<svg width="319" height="80" viewBox="0 0 319 80" fill="none" xmlns="http://www.w3.org/2000/svg">
<g filter="url(#filter0_d_891_4145)">
<mask id="path-1-outside-1_891_4145" maskUnits="userSpaceOnUse" x="4" y="0" width="311" height="72" fill="black">
<rect fill="white" x="4" width="311" height="72"/>
<path d="M32.016 53L16.912 33.16V53H5.968V8.072H16.912V27.784L31.888 8.072H44.752L27.344 30.088L45.392 53H32.016ZM84.257 34.568C84.257 35.592 84.193 36.6587 84.065 37.768H59.297C59.4677 39.9867 60.1717 41.6933 61.409 42.888C62.689 44.04 64.2463 44.616 66.081 44.616C68.8117 44.616 70.7103 43.464 71.777 41.16H83.425C82.8277 43.5067 81.7397 45.6187 80.161 47.496C78.625 49.3733 76.6837 50.8453 74.337 51.912C71.9903 52.9787 69.3663 53.512 66.465 53.512C62.9663 53.512 59.8517 52.7653 57.121 51.272C54.3903 49.7787 52.257 47.6453 50.721 44.872C49.185 42.0987 48.417 38.856 48.417 35.144C48.417 31.432 49.1637 28.1893 50.657 25.416C52.193 22.6427 54.3263 20.5093 57.057 19.016C59.7877 17.5227 62.9237 16.776 66.465 16.776C69.921 16.776 72.993 17.5013 75.681 18.952C78.369 20.4027 80.4597 22.472 81.953 25.16C83.489 27.848 84.257 30.984 84.257 34.568ZM73.057 31.688C73.057 29.8107 72.417 28.3173 71.137 27.208C69.857 26.0987 68.257 25.544 66.337 25.544C64.5023 25.544 62.945 26.0773 61.665 27.144C60.4277 28.2107 59.6597 29.7253 59.361 31.688H73.057ZM123.694 34.568C123.694 35.592 123.631 36.6587 123.503 37.768H98.7345C98.9052 39.9867 99.6092 41.6933 100.847 42.888C102.127 44.04 103.684 44.616 105.519 44.616C108.249 44.616 110.148 43.464 111.215 41.16H122.863C122.265 43.5067 121.177 45.6187 119.599 47.496C118.063 49.3733 116.121 50.8453 113.775 51.912C111.428 52.9787 108.804 53.512 105.903 53.512C102.404 53.512 99.2892 52.7653 96.5585 51.272C93.8278 49.7787 91.6945 47.6453 90.1585 44.872C88.6225 42.0987 87.8545 38.856 87.8545 35.144C87.8545 31.432 88.6012 28.1893 90.0945 25.416C91.6305 22.6427 93.7638 20.5093 96.4945 19.016C99.2252 17.5227 102.361 16.776 105.903 16.776C109.359 16.776 112.431 17.5013 115.119 18.952C117.807 20.4027 119.897 22.472 121.391 25.16C122.927 27.848 123.694 30.984 123.694 34.568ZM112.495 31.688C112.495 29.8107 111.855 28.3173 110.575 27.208C109.295 26.0987 107.695 25.544 105.775 25.544C103.94 25.544 102.383 26.0773 101.103 27.144C99.8652 28.2107 99.0972 29.7253 98.7985 31.688H112.495ZM140.412 22.344C141.479 20.68 142.951 19.336 144.828 18.312C146.705 17.288 148.903 16.776 151.42 16.776C154.364 16.776 157.031 17.5227 159.42 19.016C161.809 20.5093 163.687 22.6427 165.052 25.416C166.46 28.1893 167.164 31.4107 167.164 35.08C167.164 38.7493 166.46 41.992 165.052 44.808C163.687 47.5813 161.809 49.736 159.42 51.272C157.031 52.7653 154.364 53.512 151.42 53.512C148.945 53.512 146.748 53 144.828 51.976C142.951 50.952 141.479 49.6293 140.412 48.008V70.024H129.468V17.288H140.412V22.344ZM156.028 35.08C156.028 32.3493 155.26 30.216 153.724 28.68C152.231 27.1013 150.375 26.312 148.156 26.312C145.98 26.312 144.124 27.1013 142.588 28.68C141.095 30.2587 140.348 32.4133 140.348 35.144C140.348 37.8747 141.095 40.0293 142.588 41.608C144.124 43.1867 145.98 43.976 148.156 43.976C150.332 43.976 152.188 43.1867 153.724 41.608C155.26 39.9867 156.028 37.8107 156.028 35.08ZM178.41 13.576C176.49 13.576 174.911 13.0213 173.674 11.912C172.479 10.76 171.882 9.352 171.882 7.688C171.882 5.98133 172.479 4.57333 173.674 3.464C174.911 2.312 176.49 1.736 178.41 1.736C180.287 1.736 181.823 2.312 183.018 3.464C184.255 4.57333 184.874 5.98133 184.874 7.688C184.874 9.352 184.255 10.76 183.018 11.912C181.823 13.0213 180.287 13.576 178.41 13.576ZM183.85 17.288V53H172.906V17.288H183.85ZM213.541 16.904C217.722 16.904 221.05 18.2693 223.525 21C226.042 23.688 227.301 27.4 227.301 32.136V53H216.421V33.608C216.421 31.2187 215.802 29.3627 214.565 28.04C213.327 26.7173 211.663 26.056 209.573 26.056C207.482 26.056 205.818 26.7173 204.581 28.04C203.343 29.3627 202.725 31.2187 202.725 33.608V53H191.781V17.288H202.725V22.024C203.834 20.4453 205.327 19.208 207.205 18.312C209.082 17.3733 211.194 16.904 213.541 16.904ZM248.474 16.776C250.991 16.776 253.188 17.288 255.066 18.312C256.986 19.336 258.458 20.68 259.482 22.344V17.288H270.426V52.936C270.426 56.2213 269.764 59.1867 268.442 61.832C267.162 64.52 265.178 66.6533 262.49 68.232C259.844 69.8107 256.538 70.6 252.57 70.6C247.279 70.6 242.991 69.3413 239.706 66.824C236.42 64.3493 234.543 60.9787 234.074 56.712H244.89C245.231 58.0773 246.042 59.144 247.322 59.912C248.602 60.7227 250.18 61.128 252.058 61.128C254.319 61.128 256.111 60.4667 257.434 59.144C258.799 57.864 259.482 55.7947 259.482 52.936V47.88C258.415 49.544 256.943 50.9093 255.066 51.976C253.188 53 250.991 53.512 248.474 53.512C245.53 53.512 242.863 52.7653 240.474 51.272C238.084 49.736 236.186 47.5813 234.778 44.808C233.412 41.992 232.73 38.7493 232.73 35.08C232.73 31.4107 233.412 28.1893 234.778 25.416C236.186 22.6427 238.084 20.5093 240.474 19.016C242.863 17.5227 245.53 16.776 248.474 16.776ZM259.482 35.144C259.482 32.4133 258.714 30.2587 257.178 28.68C255.684 27.1013 253.85 26.312 251.674 26.312C249.498 26.312 247.642 27.1013 246.106 28.68C244.612 30.216 243.866 32.3493 243.866 35.08C243.866 37.8107 244.612 39.9867 246.106 41.608C247.642 43.1867 249.498 43.976 251.674 43.976C253.85 43.976 255.684 43.1867 257.178 41.608C258.714 40.0293 259.482 37.8747 259.482 35.144ZM291.911 16.776C294.428 16.776 296.626 17.288 298.503 18.312C300.423 19.336 301.895 20.68 302.919 22.344V17.288H313.863V52.936C313.863 56.2213 313.202 59.1867 311.879 61.832C310.599 64.52 308.615 66.6533 305.927 68.232C303.282 69.8107 299.975 70.6 296.007 70.6C290.716 70.6 286.428 69.3413 283.143 66.824C279.858 64.3493 277.98 60.9787 277.511 56.712H288.327C288.668 58.0773 289.479 59.144 290.759 59.912C292.039 60.7227 293.618 61.128 295.495 61.128C297.756 61.128 299.548 60.4667 300.871 59.144C302.236 57.864 302.919 55.7947 302.919 52.936V47.88C301.852 49.544 300.38 50.9093 298.503 51.976C296.626 53 294.428 53.512 291.911 53.512C288.967 53.512 286.3 52.7653 283.911 51.272C281.522 49.736 279.623 47.5813 278.215 44.808C276.85 41.992 276.167 38.7493 276.167 35.08C276.167 31.4107 276.85 28.1893 278.215 25.416C279.623 22.6427 281.522 20.5093 283.911 19.016C286.3 17.5227 288.967 16.776 291.911 16.776ZM302.919 35.144C302.919 32.4133 302.151 30.2587 300.615 28.68C299.122 27.1013 297.287 26.312 295.111 26.312C292.935 26.312 291.079 27.1013 289.543 28.68C288.05 30.216 287.303 32.3493 287.303 35.08C287.303 37.8107 288.05 39.9867 289.543 41.608C291.079 43.1867 292.935 43.976 295.111 43.976C297.287 43.976 299.122 43.1867 300.615 41.608C302.151 40.0293 302.919 37.8747 302.919 35.144Z"/>
</mask>
<path d="M32.016 53L16.912 33.16V53H5.968V8.072H16.912V27.784L31.888 8.072H44.752L27.344 30.088L45.392 53H32.016ZM84.257 34.568C84.257 35.592 84.193 36.6587 84.065 37.768H59.297C59.4677 39.9867 60.1717 41.6933 61.409 42.888C62.689 44.04 64.2463 44.616 66.081 44.616C68.8117 44.616 70.7103 43.464 71.777 41.16H83.425C82.8277 43.5067 81.7397 45.6187 80.161 47.496C78.625 49.3733 76.6837 50.8453 74.337 51.912C71.9903 52.9787 69.3663 53.512 66.465 53.512C62.9663 53.512 59.8517 52.7653 57.121 51.272C54.3903 49.7787 52.257 47.6453 50.721 44.872C49.185 42.0987 48.417 38.856 48.417 35.144C48.417 31.432 49.1637 28.1893 50.657 25.416C52.193 22.6427 54.3263 20.5093 57.057 19.016C59.7877 17.5227 62.9237 16.776 66.465 16.776C69.921 16.776 72.993 17.5013 75.681 18.952C78.369 20.4027 80.4597 22.472 81.953 25.16C83.489 27.848 84.257 30.984 84.257 34.568ZM73.057 31.688C73.057 29.8107 72.417 28.3173 71.137 27.208C69.857 26.0987 68.257 25.544 66.337 25.544C64.5023 25.544 62.945 26.0773 61.665 27.144C60.4277 28.2107 59.6597 29.7253 59.361 31.688H73.057ZM123.694 34.568C123.694 35.592 123.631 36.6587 123.503 37.768H98.7345C98.9052 39.9867 99.6092 41.6933 100.847 42.888C102.127 44.04 103.684 44.616 105.519 44.616C108.249 44.616 110.148 43.464 111.215 41.16H122.863C122.265 43.5067 121.177 45.6187 119.599 47.496C118.063 49.3733 116.121 50.8453 113.775 51.912C111.428 52.9787 108.804 53.512 105.903 53.512C102.404 53.512 99.2892 52.7653 96.5585 51.272C93.8278 49.7787 91.6945 47.6453 90.1585 44.872C88.6225 42.0987 87.8545 38.856 87.8545 35.144C87.8545 31.432 88.6012 28.1893 90.0945 25.416C91.6305 22.6427 93.7638 20.5093 96.4945 19.016C99.2252 17.5227 102.361 16.776 105.903 16.776C109.359 16.776 112.431 17.5013 115.119 18.952C117.807 20.4027 119.897 22.472 121.391 25.16C122.927 27.848 123.694 30.984 123.694 34.568ZM112.495 31.688C112.495 29.8107 111.855 28.3173 110.575 27.208C109.295 26.0987 107.695 25.544 105.775 25.544C103.94 25.544 102.383 26.0773 101.103 27.144C99.8652 28.2107 99.0972 29.7253 98.7985 31.688H112.495ZM140.412 22.344C141.479 20.68 142.951 19.336 144.828 18.312C146.705 17.288 148.903 16.776 151.42 16.776C154.364 16.776 157.031 17.5227 159.42 19.016C161.809 20.5093 163.687 22.6427 165.052 25.416C166.46 28.1893 167.164 31.4107 167.164 35.08C167.164 38.7493 166.46 41.992 165.052 44.808C163.687 47.5813 161.809 49.736 159.42 51.272C157.031 52.7653 154.364 53.512 151.42 53.512C148.945 53.512 146.748 53 144.828 51.976C142.951 50.952 141.479 49.6293 140.412 48.008V70.024H129.468V17.288H140.412V22.344ZM156.028 35.08C156.028 32.3493 155.26 30.216 153.724 28.68C152.231 27.1013 150.375 26.312 148.156 26.312C145.98 26.312 144.124 27.1013 142.588 28.68C141.095 30.2587 140.348 32.4133 140.348 35.144C140.348 37.8747 141.095 40.0293 142.588 41.608C144.124 43.1867 145.98 43.976 148.156 43.976C150.332 43.976 152.188 43.1867 153.724 41.608C155.26 39.9867 156.028 37.8107 156.028 35.08ZM178.41 13.576C176.49 13.576 174.911 13.0213 173.674 11.912C172.479 10.76 171.882 9.352 171.882 7.688C171.882 5.98133 172.479 4.57333 173.674 3.464C174.911 2.312 176.49 1.736 178.41 1.736C180.287 1.736 181.823 2.312 183.018 3.464C184.255 4.57333 184.874 5.98133 184.874 7.688C184.874 9.352 184.255 10.76 183.018 11.912C181.823 13.0213 180.287 13.576 178.41 13.576ZM183.85 17.288V53H172.906V17.288H183.85ZM213.541 16.904C217.722 16.904 221.05 18.2693 223.525 21C226.042 23.688 227.301 27.4 227.301 32.136V53H216.421V33.608C216.421 31.2187 215.802 29.3627 214.565 28.04C213.327 26.7173 211.663 26.056 209.573 26.056C207.482 26.056 205.818 26.7173 204.581 28.04C203.343 29.3627 202.725 31.2187 202.725 33.608V53H191.781V17.288H202.725V22.024C203.834 20.4453 205.327 19.208 207.205 18.312C209.082 17.3733 211.194 16.904 213.541 16.904ZM248.474 16.776C250.991 16.776 253.188 17.288 255.066 18.312C256.986 19.336 258.458 20.68 259.482 22.344V17.288H270.426V52.936C270.426 56.2213 269.764 59.1867 268.442 61.832C267.162 64.52 265.178 66.6533 262.49 68.232C259.844 69.8107 256.538 70.6 252.57 70.6C247.279 70.6 242.991 69.3413 239.706 66.824C236.42 64.3493 234.543 60.9787 234.074 56.712H244.89C245.231 58.0773 246.042 59.144 247.322 59.912C248.602 60.7227 250.18 61.128 252.058 61.128C254.319 61.128 256.111 60.4667 257.434 59.144C258.799 57.864 259.482 55.7947 259.482 52.936V47.88C258.415 49.544 256.943 50.9093 255.066 51.976C253.188 53 250.991 53.512 248.474 53.512C245.53 53.512 242.863 52.7653 240.474 51.272C238.084 49.736 236.186 47.5813 234.778 44.808C233.412 41.992 232.73 38.7493 232.73 35.08C232.73 31.4107 233.412 28.1893 234.778 25.416C236.186 22.6427 238.084 20.5093 240.474 19.016C242.863 17.5227 245.53 16.776 248.474 16.776ZM259.482 35.144C259.482 32.4133 258.714 30.2587 257.178 28.68C255.684 27.1013 253.85 26.312 251.674 26.312C249.498 26.312 247.642 27.1013 246.106 28.68C244.612 30.216 243.866 32.3493 243.866 35.08C243.866 37.8107 244.612 39.9867 246.106 41.608C247.642 43.1867 249.498 43.976 251.674 43.976C253.85 43.976 255.684 43.1867 257.178 41.608C258.714 40.0293 259.482 37.8747 259.482 35.144ZM291.911 16.776C294.428 16.776 296.626 17.288 298.503 18.312C300.423 19.336 301.895 20.68 302.919 22.344V17.288H313.863V52.936C313.863 56.2213 313.202 59.1867 311.879 61.832C310.599 64.52 308.615 66.6533 305.927 68.232C303.282 69.8107 299.975 70.6 296.007 70.6C290.716 70.6 286.428 69.3413 283.143 66.824C279.858 64.3493 277.98 60.9787 277.511 56.712H288.327C288.668 58.0773 289.479 59.144 290.759 59.912C292.039 60.7227 293.618 61.128 295.495 61.128C297.756 61.128 299.548 60.4667 300.871 59.144C302.236 57.864 302.919 55.7947 302.919 52.936V47.88C301.852 49.544 300.38 50.9093 298.503 51.976C296.626 53 294.428 53.512 291.911 53.512C288.967 53.512 286.3 52.7653 283.911 51.272C281.522 49.736 279.623 47.5813 278.215 44.808C276.85 41.992 276.167 38.7493 276.167 35.08C276.167 31.4107 276.85 28.1893 278.215 25.416C279.623 22.6427 281.522 20.5093 283.911 19.016C286.3 17.5227 288.967 16.776 291.911 16.776ZM302.919 35.144C302.919 32.4133 302.151 30.2587 300.615 28.68C299.122 27.1013 297.287 26.312 295.111 26.312C292.935 26.312 291.079 27.1013 289.543 28.68C288.05 30.216 287.303 32.3493 287.303 35.08C287.303 37.8107 288.05 39.9867 289.543 41.608C291.079 43.1867 292.935 43.976 295.111 43.976C297.287 43.976 299.122 43.1867 300.615 41.608C302.151 40.0293 302.919 37.8747 302.919 35.144Z" fill="white"/>
<path d="M32.016 53L31.2203 53.6057L31.5205 54H32.016V53ZM16.912 33.16L17.7077 32.5543L15.912 30.1955V33.16H16.912ZM16.912 53V54H17.912V53H16.912ZM5.968 53H4.968V54H5.968V53ZM5.968 8.072V7.072H4.968V8.072H5.968ZM16.912 8.072H17.912V7.072H16.912V8.072ZM16.912 27.784H15.912V30.7533L17.7083 28.389L16.912 27.784ZM31.888 8.072V7.072H31.3919L31.0917 7.46705L31.888 8.072ZM44.752 8.072L45.5364 8.69223L46.8175 7.072H44.752V8.072ZM27.344 30.088L26.5596 29.4678L26.0701 30.0868L26.5584 30.7068L27.344 30.088ZM45.392 53V54H47.4527L46.1776 52.3812L45.392 53ZM32.016 53L32.8117 52.3943L17.7077 32.5543L16.912 33.16L16.1163 33.7657L31.2203 53.6057L32.016 53ZM16.912 33.16H15.912V53H16.912H17.912V33.16H16.912ZM16.912 53V52H5.968V53V54H16.912V53ZM5.968 53H6.968V8.072H5.968H4.968V53H5.968ZM5.968 8.072V9.072H16.912V8.072V7.072H5.968V8.072ZM16.912 8.072H15.912V27.784H16.912H17.912V8.072H16.912ZM16.912 27.784L17.7083 28.389L32.6843 8.67695L31.888 8.072L31.0917 7.46705L16.1157 27.179L16.912 27.784ZM31.888 8.072V9.072H44.752V8.072V7.072H31.888V8.072ZM44.752 8.072L43.9676 7.45176L26.5596 29.4678L27.344 30.088L28.1284 30.7082L45.5364 8.69223L44.752 8.072ZM27.344 30.088L26.5584 30.7068L44.6064 53.6188L45.392 53L46.1776 52.3812L28.1296 29.4692L27.344 30.088ZM45.392 53V52H32.016V53V54H45.392V53ZM84.065 37.768V38.768H84.9563L85.0584 37.8826L84.065 37.768ZM59.297 37.768V36.768H58.2171L58.2999 37.8447L59.297 37.768ZM61.409 42.888L60.7144 43.6074L60.727 43.6196L60.74 43.6313L61.409 42.888ZM71.777 41.16V40.16H71.138L70.8695 40.7399L71.777 41.16ZM83.425 41.16L84.3941 41.4067L84.7114 40.16H83.425V41.16ZM80.161 47.496L79.3956 46.8523L79.387 46.8628L80.161 47.496ZM74.337 51.912L74.7508 52.8224L74.337 51.912ZM57.121 51.272L56.6412 52.1494L57.121 51.272ZM50.721 44.872L51.5958 44.3875L50.721 44.872ZM50.657 25.416L49.7821 24.9315L49.7765 24.9419L50.657 25.416ZM57.057 19.016L57.5368 19.8934L57.057 19.016ZM75.681 18.952L75.2061 19.832V19.832L75.681 18.952ZM81.953 25.16L81.0788 25.6457L81.0848 25.6561L81.953 25.16ZM73.057 31.688V32.688H74.057V31.688H73.057ZM71.137 27.208L71.7919 26.4523L71.137 27.208ZM61.665 27.144L61.0248 26.3758L61.0184 26.3811L61.0121 26.3866L61.665 27.144ZM59.361 31.688L58.3724 31.5376L58.1973 32.688H59.361V31.688ZM84.257 34.568H83.257C83.257 35.5504 83.1956 36.5787 83.0716 37.6534L84.065 37.768L85.0584 37.8826C85.1904 36.7386 85.257 35.6336 85.257 34.568H84.257ZM84.065 37.768V36.768H59.297V37.768V38.768H84.065V37.768ZM59.297 37.768L58.2999 37.8447C58.4837 40.2339 59.2543 42.1977 60.7144 43.6074L61.409 42.888L62.1036 42.1686C61.089 41.189 60.4516 39.7395 60.2941 37.6913L59.297 37.768ZM61.409 42.888L60.74 43.6313C62.2164 44.96 64.0169 45.616 66.081 45.616V44.616V43.616C64.4758 43.616 63.1616 43.12 62.078 42.1447L61.409 42.888ZM66.081 44.616V45.616C67.5874 45.616 68.9337 45.2974 70.0717 44.6069C71.2144 43.9136 72.08 42.8858 72.6845 41.5801L71.777 41.16L70.8695 40.7399C70.4074 41.7382 69.7902 42.4384 69.0343 42.8971C68.2736 43.3586 67.3053 43.616 66.081 43.616V44.616ZM71.777 41.16V42.16H83.425V41.16V40.16H71.777V41.16ZM83.425 41.16L82.4559 40.9133C81.8962 43.1121 80.8787 45.0888 79.3956 46.8524L80.161 47.496L80.9264 48.1396C82.6007 46.1485 83.7591 43.9013 84.3941 41.4067L83.425 41.16ZM80.161 47.496L79.387 46.8628C77.9543 48.6139 76.1391 49.9944 73.9232 51.0016L74.337 51.912L74.7508 52.8224C77.2282 51.6963 79.2957 50.1328 80.935 48.1292L80.161 47.496ZM74.337 51.912L73.9232 51.0016C71.7219 52.0022 69.2416 52.512 66.465 52.512V53.512V54.512C69.4911 54.512 72.2588 53.9551 74.7508 52.8224L74.337 51.912ZM66.465 53.512V52.512C63.1129 52.512 60.1668 51.7979 57.6008 50.3946L57.121 51.272L56.6412 52.1494C59.5365 53.7327 62.8198 54.512 66.465 54.512V53.512ZM57.121 51.272L57.6008 50.3946C55.0396 48.994 53.0418 46.9984 51.5958 44.3875L50.721 44.872L49.8462 45.3565C51.4722 48.2923 53.7411 50.5634 56.6412 52.1494L57.121 51.272ZM50.721 44.872L51.5958 44.3875C50.1549 41.786 49.417 38.7156 49.417 35.144H48.417H47.417C47.417 38.9964 48.215 42.4114 49.8462 45.3565L50.721 44.872ZM48.417 35.144H49.417C49.417 31.5679 50.1355 28.4937 51.5375 25.8901L50.657 25.416L49.7765 24.9419C48.1918 27.8849 47.417 31.2961 47.417 35.144H48.417ZM50.657 25.416L51.5318 25.9005C52.9778 23.2896 54.9756 21.294 57.5368 19.8934L57.057 19.016L56.5772 18.1386C53.6771 19.7246 51.4082 21.9957 49.7822 24.9315L50.657 25.416ZM57.057 19.016L57.5368 19.8934C60.1011 18.491 63.068 17.776 66.465 17.776V16.776V15.776C62.7794 15.776 59.4742 16.5543 56.5772 18.1386L57.057 19.016ZM66.465 16.776V17.776C69.7773 17.776 72.6823 18.47 75.2061 19.832L75.681 18.952L76.1559 18.072C73.3037 16.5327 70.0647 15.776 66.465 15.776V16.776ZM75.681 18.952L75.2061 19.832C77.7249 21.1914 79.6776 23.1233 81.0788 25.6456L81.953 25.16L82.8272 24.6744C81.2418 21.8207 79.0131 19.6139 76.1559 18.072L75.681 18.952ZM81.953 25.16L81.0848 25.6561C82.5216 28.1707 83.257 31.1303 83.257 34.568H84.257H85.257C85.257 30.8377 84.4564 27.5253 82.8212 24.6639L81.953 25.16ZM73.057 31.688H74.057C74.057 29.5559 73.3164 27.7735 71.7919 26.4523L71.137 27.208L70.4821 27.9637C71.5176 28.8611 72.057 30.0654 72.057 31.688H73.057ZM71.137 27.208L71.7919 26.4523C70.3058 25.1643 68.4633 24.544 66.337 24.544V25.544V26.544C68.0507 26.544 69.4082 27.033 70.4821 27.9637L71.137 27.208ZM66.337 25.544V24.544C64.2937 24.544 62.5031 25.1439 61.0248 26.3758L61.665 27.144L62.3052 27.9122C63.3869 27.0107 64.711 26.544 66.337 26.544V25.544ZM61.665 27.144L61.0121 26.3866C59.5572 27.6408 58.6989 29.3919 58.3724 31.5376L59.361 31.688L60.3496 31.8384C60.6204 30.0588 61.2981 28.7806 62.3179 27.9014L61.665 27.144ZM59.361 31.688V32.688H73.057V31.688V30.688H59.361V31.688ZM123.503 37.768V38.768H124.394L124.496 37.8826L123.503 37.768ZM98.7345 37.768V36.768H97.6546L97.7374 37.8447L98.7345 37.768ZM100.846 42.888L100.152 43.6074L100.165 43.6196L100.178 43.6313L100.846 42.888ZM111.215 41.16V40.16H110.575L110.307 40.7399L111.215 41.16ZM122.863 41.16L123.832 41.4067L124.149 40.16H122.863V41.16ZM119.599 47.496L118.833 46.8523L118.825 46.8628L119.599 47.496ZM113.775 51.912L114.188 52.8224L113.775 51.912ZM96.5585 51.272L96.0787 52.1494L96.5585 51.272ZM90.1585 44.872L91.0333 44.3875L90.1585 44.872ZM90.0945 25.416L89.2197 24.9315L89.214 24.9419L90.0945 25.416ZM96.4945 19.016L96.9743 19.8934L96.4945 19.016ZM115.118 18.952L114.644 19.832V19.832L115.118 18.952ZM121.391 25.16L120.516 25.6457L120.522 25.6561L121.391 25.16ZM112.494 31.688V32.688H113.494V31.688H112.494ZM110.575 27.208L111.229 26.4523L110.575 27.208ZM101.103 27.144L100.462 26.3758L100.456 26.3811L100.45 26.3866L101.103 27.144ZM98.7985 31.688L97.8099 31.5376L97.6348 32.688H98.7985V31.688ZM123.695 34.568H122.695C122.695 35.5504 122.633 36.5787 122.509 37.6534L123.503 37.768L124.496 37.8826C124.628 36.7386 124.695 35.6336 124.695 34.568H123.695ZM123.503 37.768V36.768H98.7345V37.768V38.768H123.503V37.768ZM98.7345 37.768L97.7374 37.8447C97.9212 40.2339 98.6918 42.1977 100.152 43.6074L100.846 42.888L101.541 42.1686C100.527 41.189 99.8891 39.7395 99.7316 37.6913L98.7345 37.768ZM100.846 42.888L100.178 43.6313C101.654 44.96 103.454 45.616 105.519 45.616V44.616V43.616C103.913 43.616 102.599 43.12 101.515 42.1447L100.846 42.888ZM105.519 44.616V45.616C107.025 45.616 108.371 45.2974 109.509 44.6069C110.652 43.9136 111.517 42.8858 112.122 41.5801L111.215 41.16L110.307 40.7399C109.845 41.7382 109.228 42.4384 108.472 42.8971C107.711 43.3586 106.743 43.616 105.519 43.616V44.616ZM111.215 41.16V42.16H122.863V41.16V40.16H111.215V41.16ZM122.863 41.16L121.893 40.9133C121.334 43.1121 120.316 45.0888 118.833 46.8524L119.599 47.496L120.364 48.1396C122.038 46.1485 123.197 43.9013 123.832 41.4067L122.863 41.16ZM119.599 47.496L118.825 46.8628C117.392 48.6139 115.577 49.9944 113.361 51.0016L113.775 51.912L114.188 52.8224C116.666 51.6963 118.733 50.1328 120.372 48.1292L119.599 47.496ZM113.775 51.912L113.361 51.0016C111.159 52.0022 108.679 52.512 105.902 52.512V53.512V54.512C108.929 54.512 111.696 53.9551 114.188 52.8224L113.775 51.912ZM105.902 53.512V52.512C102.55 52.512 99.6043 51.7979 97.0383 50.3946L96.5585 51.272L96.0787 52.1494C98.974 53.7327 102.257 54.512 105.902 54.512V53.512ZM96.5585 51.272L97.0383 50.3946C94.4771 48.994 92.4793 46.9984 91.0333 44.3875L90.1585 44.872L89.2837 45.3565C90.9097 48.2923 93.1786 50.5634 96.0787 52.1494L96.5585 51.272ZM90.1585 44.872L91.0333 44.3875C89.5925 41.786 88.8545 38.7156 88.8545 35.144H87.8545H86.8545C86.8545 38.9964 87.6525 42.4114 89.2837 45.3565L90.1585 44.872ZM87.8545 35.144H88.8545C88.8545 31.5679 89.573 28.4937 90.975 25.8901L90.0945 25.416L89.214 24.9419C87.6293 27.8849 86.8545 31.2961 86.8545 35.144H87.8545ZM90.0945 25.416L90.9693 25.9005C92.4153 23.2896 94.4131 21.294 96.9743 19.8934L96.4945 19.016L96.0147 18.1386C93.1146 19.7246 90.8457 21.9957 89.2197 24.9315L90.0945 25.416ZM96.4945 19.016L96.9743 19.8934C99.5386 18.491 102.505 17.776 105.902 17.776V16.776V15.776C102.217 15.776 98.9117 16.5543 96.0147 18.1386L96.4945 19.016ZM105.902 16.776V17.776C109.215 17.776 112.12 18.47 114.644 19.832L115.118 18.952L115.593 18.072C112.741 16.5327 109.502 15.776 105.902 15.776V16.776ZM115.118 18.952L114.644 19.832C117.162 21.1914 119.115 23.1233 120.516 25.6456L121.391 25.16L122.265 24.6744C120.679 21.8207 118.451 19.6139 115.593 18.072L115.118 18.952ZM121.391 25.16L120.522 25.6561C121.959 28.1707 122.695 31.1303 122.695 34.568H123.695H124.695C124.695 30.8377 123.894 27.5253 122.259 24.6639L121.391 25.16ZM112.494 31.688H113.494C113.494 29.5559 112.754 27.7735 111.229 26.4523L110.575 27.208L109.92 27.9637C110.955 28.8611 111.494 30.0654 111.494 31.688H112.494ZM110.575 27.208L111.229 26.4523C109.743 25.1643 107.901 24.544 105.775 24.544V25.544V26.544C107.488 26.544 108.846 27.033 109.92 27.9637L110.575 27.208ZM105.775 25.544V24.544C103.731 24.544 101.941 25.1439 100.462 26.3758L101.103 27.144L101.743 27.9122C102.824 27.0107 104.148 26.544 105.775 26.544V25.544ZM101.103 27.144L100.45 26.3866C98.9947 27.6408 98.1364 29.3919 97.8099 31.5376L98.7985 31.688L99.7871 31.8384C100.058 30.0588 100.736 28.7806 101.755 27.9014L101.103 27.144ZM98.7985 31.688V32.688H112.494V31.688V30.688H98.7985V31.688ZM140.412 22.344H139.412V25.757L141.254 22.8837L140.412 22.344ZM144.828 18.312L144.349 17.4341L144.828 18.312ZM159.42 19.016L158.89 19.864L159.42 19.016ZM165.052 25.416L164.155 25.8577L164.16 25.8687L165.052 25.416ZM165.052 44.808L164.158 44.3608L164.155 44.3663L165.052 44.808ZM159.42 51.272L159.95 52.1201L159.961 52.1132L159.42 51.272ZM144.828 51.976L144.349 52.8539L144.357 52.8584L144.828 51.976ZM140.412 48.008L141.247 47.4584L139.412 44.6685V48.008H140.412ZM140.412 70.024V71.024H141.412V70.024H140.412ZM129.468 70.024H128.468V71.024H129.468V70.024ZM129.468 17.288V16.288H128.468V17.288H129.468ZM140.412 17.288H141.412V16.288H140.412V17.288ZM153.724 28.68L152.998 29.3672L153.007 29.3773L153.017 29.3871L153.724 28.68ZM142.588 28.68L141.871 27.9826L141.862 27.9928L142.588 28.68ZM142.588 41.608L141.861 42.2953L141.871 42.3054L142.588 41.608ZM153.724 41.608L154.441 42.3054L154.45 42.2957L153.724 41.608ZM140.412 22.344L141.254 22.8837C142.223 21.3726 143.565 20.1402 145.307 19.1899L144.828 18.312L144.349 17.4341C142.337 18.5318 140.735 19.9874 139.57 21.8043L140.412 22.344ZM144.828 18.312L145.307 19.1899C147.013 18.2591 149.04 17.776 151.42 17.776V16.776V15.776C148.765 15.776 146.397 16.3169 144.349 17.4341L144.828 18.312ZM151.42 16.776V17.776C154.185 17.776 156.667 18.4746 158.89 19.864L159.42 19.016L159.95 18.168C157.394 16.5708 154.543 15.776 151.42 15.776V16.776ZM159.42 19.016L158.89 19.864C161.106 21.2492 162.863 23.2345 164.155 25.8577L165.052 25.416L165.949 24.9743C164.51 22.0508 162.512 19.7694 159.95 18.168L159.42 19.016ZM165.052 25.416L164.16 25.8687C165.485 28.4786 166.164 31.5398 166.164 35.08H167.164H168.164C168.164 31.2815 167.435 27.9 165.944 24.9633L165.052 25.416ZM167.164 35.08H166.164C166.164 38.6197 165.486 41.7049 164.158 44.3608L165.052 44.808L165.946 45.2552C167.434 42.2791 168.164 38.8789 168.164 35.08H167.164ZM165.052 44.808L164.155 44.3663C162.862 46.9915 161.102 49.0017 158.879 50.4308L159.42 51.272L159.961 52.1132C162.516 50.4703 164.511 48.1712 165.949 45.2497L165.052 44.808ZM159.42 51.272L158.89 50.424C156.667 51.8134 154.185 52.512 151.42 52.512V53.512V54.512C154.543 54.512 157.394 53.7172 159.95 52.12L159.42 51.272ZM151.42 53.512V52.512C149.087 52.512 147.055 52.0304 145.299 51.0937L144.828 51.976L144.357 52.8584C146.441 53.9696 148.804 54.512 151.42 54.512V53.512ZM144.828 51.976L145.307 51.0981C143.559 50.1445 142.215 48.9291 141.247 47.4584L140.412 48.008L139.577 48.5576C140.742 50.3295 142.343 51.7595 144.349 52.8539L144.828 51.976ZM140.412 48.008H139.412V70.024H140.412H141.412V48.008H140.412ZM140.412 70.024V69.024H129.468V70.024V71.024H140.412V70.024ZM129.468 70.024H130.468V17.288H129.468H128.468V70.024H129.468ZM129.468 17.288V18.288H140.412V17.288V16.288H129.468V17.288ZM140.412 17.288H139.412V22.344H140.412H141.412V17.288H140.412ZM156.028 35.08H157.028C157.028 32.156 156.2 29.7418 154.431 27.9729L153.724 28.68L153.017 29.3871C154.32 30.6902 155.028 32.5427 155.028 35.08H156.028ZM153.724 28.68L154.45 27.9928C152.764 26.2098 150.643 25.312 148.156 25.312V26.312V27.312C150.106 27.312 151.698 27.9929 152.998 29.3672L153.724 28.68ZM148.156 26.312V25.312C145.706 25.312 143.593 26.2132 141.871 27.9826L142.588 28.68L143.305 29.3774C144.655 27.9895 146.254 27.312 148.156 27.312V26.312ZM142.588 28.68L141.862 27.9928C140.15 29.8016 139.348 32.2263 139.348 35.144H140.348H141.348C141.348 32.6004 142.039 30.7157 143.314 29.3672L142.588 28.68ZM140.348 35.144H139.348C139.348 38.0617 140.15 40.4864 141.862 42.2952L142.588 41.608L143.314 40.9208C142.039 39.5723 141.348 37.6876 141.348 35.144H140.348ZM142.588 41.608L141.871 42.3054C143.593 44.0748 145.706 44.976 148.156 44.976V43.976V42.976C146.254 42.976 144.655 42.2985 143.305 40.9106L142.588 41.608ZM148.156 43.976V44.976C150.606 44.976 152.719 44.0748 154.441 42.3054L153.724 41.608L153.007 40.9106C151.657 42.2985 150.058 42.976 148.156 42.976V43.976ZM153.724 41.608L154.45 42.2957C156.199 40.4492 157.028 38.0064 157.028 35.08H156.028H155.028C155.028 37.6149 154.321 39.5241 152.998 40.9203L153.724 41.608ZM173.673 11.912L172.979 12.6318L172.992 12.6444L173.006 12.6566L173.673 11.912ZM173.673 3.464L174.354 4.19679L174.355 4.19589L173.673 3.464ZM183.018 3.464L182.323 4.18384L182.336 4.19645L182.35 4.20857L183.018 3.464ZM183.018 11.912L183.698 12.6448L183.699 12.6439L183.018 11.912ZM183.85 17.288H184.85V16.288H183.85V17.288ZM183.85 53V54H184.85V53H183.85ZM172.906 53H171.906V54H172.906V53ZM172.906 17.288V16.288H171.906V17.288H172.906ZM178.41 13.576V12.576C176.695 12.576 175.367 12.087 174.341 11.1674L173.673 11.912L173.006 12.6566C174.455 13.9557 176.284 14.576 178.41 14.576V13.576ZM173.673 11.912L174.368 11.1922C173.369 10.2292 172.882 9.08129 172.882 7.688H171.882H170.882C170.882 9.62271 171.589 11.2908 172.979 12.6318L173.673 11.912ZM171.882 7.688H172.882C172.882 6.24472 173.374 5.10715 174.354 4.19679L173.673 3.464L172.993 2.7312C171.584 4.03951 170.882 5.71795 170.882 7.688H171.882ZM173.673 3.464L174.355 4.19589C175.382 3.23982 176.705 2.736 178.41 2.736V1.736V0.735996C176.274 0.735996 174.44 1.38417 172.992 2.7321L173.673 3.464ZM178.41 1.736V2.736C180.065 2.736 181.34 3.23559 182.323 4.18384L183.018 3.464L183.712 2.74415C182.306 1.3884 180.509 0.735996 178.41 0.735996V1.736ZM183.018 3.464L182.35 4.20857C183.369 5.12246 183.874 6.25674 183.874 7.688H184.874H185.874C185.874 5.70592 185.14 4.0242 183.685 2.71943L183.018 3.464ZM184.874 7.688H183.874C183.874 9.06939 183.374 10.2138 182.336 11.1801L183.018 11.912L183.699 12.6439C185.136 11.3062 185.874 9.63461 185.874 7.688H184.874ZM183.018 11.912L182.337 11.1792C181.355 12.0908 180.075 12.576 178.41 12.576V13.576V14.576C180.498 14.576 182.29 13.9519 183.698 12.6448L183.018 11.912ZM183.85 17.288H182.85V53H183.85H184.85V17.288H183.85ZM183.85 53V52H172.906V53V54H183.85V53ZM172.906 53H173.906V17.288H172.906H171.906V53H172.906ZM172.906 17.288V18.288H183.85V17.288V16.288H172.906V17.288ZM223.525 21L222.784 21.6715L222.789 21.6776L222.795 21.6836L223.525 21ZM227.301 53V54H228.301V53H227.301ZM216.421 53H215.421V54H216.421V53ZM214.564 28.04L213.834 28.7232L214.564 28.04ZM204.581 28.04L205.311 28.7232L204.581 28.04ZM202.725 53V54H203.725V53H202.725ZM191.781 53H190.781V54H191.781V53ZM191.781 17.288V16.288H190.781V17.288H191.781ZM202.725 17.288H203.725V16.288H202.725V17.288ZM202.725 22.024H201.725V25.1864L203.543 22.5989L202.725 22.024ZM207.204 18.312L207.635 19.2145L207.644 19.2105L207.652 19.2064L207.204 18.312ZM213.54 16.904V17.904C217.482 17.904 220.525 19.1793 222.784 21.6715L223.525 21L224.265 20.3285C221.575 17.3594 217.962 15.904 213.54 15.904V16.904ZM223.525 21L222.795 21.6836C225.093 24.1378 226.301 27.5787 226.301 32.136H227.301H228.301C228.301 27.2213 226.991 23.2382 224.254 20.3164L223.525 21ZM227.301 32.136H226.301V53H227.301H228.301V32.136H227.301ZM227.301 53V52H216.421V53V54H227.301V53ZM216.421 53H217.421V33.608H216.421H215.421V53H216.421ZM216.421 33.608H217.421C217.421 31.0481 216.755 28.9177 215.295 27.3568L214.564 28.04L213.834 28.7232C214.849 29.8077 215.421 31.3892 215.421 33.608H216.421ZM214.564 28.04L215.295 27.3568C213.839 25.8003 211.893 25.056 209.572 25.056V26.056V27.056C211.433 27.056 212.816 27.6344 213.834 28.7232L214.564 28.04ZM209.572 26.056V25.056C207.252 25.056 205.306 25.8003 203.85 27.3568L204.581 28.04L205.311 28.7232C206.329 27.6344 207.712 27.056 209.572 27.056V26.056ZM204.581 28.04L203.85 27.3568C202.39 28.9177 201.725 31.0481 201.725 33.608H202.725H203.725C203.725 31.3892 204.296 29.8077 205.311 28.7232L204.581 28.04ZM202.725 33.608H201.725V53H202.725H203.725V33.608H202.725ZM202.725 53V52H191.781V53V54H202.725V53ZM191.781 53H192.781V17.288H191.781H190.781V53H191.781ZM191.781 17.288V18.288H202.725V17.288V16.288H191.781V17.288ZM202.725 17.288H201.725V22.024H202.725H203.725V17.288H202.725ZM202.725 22.024L203.543 22.5989C204.546 21.1719 205.901 20.0424 207.635 19.2145L207.204 18.312L206.774 17.4095C204.754 18.3736 203.122 19.7188 201.906 21.4491L202.725 22.024ZM207.204 18.312L207.652 19.2064C209.375 18.345 211.331 17.904 213.54 17.904V16.904V15.904C211.057 15.904 208.789 16.4016 206.757 17.4176L207.204 18.312ZM255.066 18.312L254.587 19.1899L254.595 19.1943L255.066 18.312ZM259.482 22.344L258.63 22.8681L260.482 25.877V22.344H259.482ZM259.482 17.288V16.288H258.482V17.288H259.482ZM270.426 17.288H271.426V16.288H270.426V17.288ZM268.441 61.832L267.547 61.3848L267.543 61.3934L267.539 61.4021L268.441 61.832ZM262.49 68.232L261.983 67.3697L261.977 67.3733L262.49 68.232ZM239.706 66.824L240.314 66.0302L240.307 66.0252L239.706 66.824ZM234.074 56.712V55.712H232.957L233.079 56.8213L234.074 56.712ZM244.889 56.712L245.86 56.4695L245.67 55.712H244.889V56.712ZM247.322 59.912L247.857 59.0672L247.846 59.0607L247.836 59.0545L247.322 59.912ZM257.434 59.144L256.75 58.4145L256.738 58.4255L256.726 58.4369L257.434 59.144ZM259.482 47.88H260.482V44.467L258.64 47.3403L259.482 47.88ZM255.066 51.976L255.544 52.8539L255.552 52.8497L255.56 52.8455L255.066 51.976ZM240.473 51.272L239.933 52.1132L239.943 52.12L240.473 51.272ZM234.777 44.808L233.878 45.2443L233.882 45.2525L233.886 45.2607L234.777 44.808ZM234.777 25.416L233.886 24.9633L233.88 24.9743L234.777 25.416ZM240.473 19.016L241.003 19.864L240.473 19.016ZM257.178 28.68L256.451 29.3673L256.461 29.3774L257.178 28.68ZM246.105 28.68L245.389 27.9826L245.389 27.9829L246.105 28.68ZM246.105 41.608L245.37 42.2855L245.379 42.2955L245.389 42.3054L246.105 41.608ZM257.178 41.608L256.461 40.9106L256.451 40.9208L257.178 41.608ZM248.473 16.776V17.776C250.853 17.776 252.88 18.2591 254.587 19.1899L255.066 18.312L255.544 17.4341C253.496 16.3169 251.128 15.776 248.473 15.776V16.776ZM255.066 18.312L254.595 19.1943C256.377 20.1446 257.709 21.3719 258.63 22.8681L259.482 22.344L260.333 21.8199C259.206 19.9881 257.594 18.5274 255.536 17.4296L255.066 18.312ZM259.482 22.344H260.482V17.288H259.482H258.482V22.344H259.482ZM259.482 17.288V18.288H270.426V17.288V16.288H259.482V17.288ZM270.426 17.288H269.426V52.936H270.426H271.426V17.288H270.426ZM270.426 52.936H269.426C269.426 56.0835 268.793 58.8931 267.547 61.3848L268.441 61.832L269.336 62.2792C270.735 59.4802 271.426 56.3592 271.426 52.936H270.426ZM268.441 61.832L267.539 61.4021C266.349 63.9008 264.507 65.8873 261.983 67.3697L262.49 68.232L262.996 69.0943C265.848 67.4194 267.974 65.1392 269.344 62.2619L268.441 61.832ZM262.49 68.232L261.977 67.3733C259.525 68.8364 256.408 69.6 252.57 69.6V70.6V71.6C256.667 71.6 260.163 70.7849 263.002 69.0907L262.49 68.232ZM252.57 70.6V69.6C247.437 69.6 243.381 68.3805 240.314 66.0302L239.706 66.824L239.097 67.6178C242.601 70.3021 247.121 71.6 252.57 71.6V70.6ZM239.706 66.824L240.307 66.0252C237.253 63.7244 235.508 60.6087 235.068 56.6027L234.074 56.712L233.079 56.8213C233.577 61.3486 235.588 64.9742 239.104 67.6228L239.706 66.824ZM234.074 56.712V57.712H244.889V56.712V55.712H234.074V56.712ZM244.889 56.712L243.919 56.9545C244.329 58.594 245.315 59.8742 246.807 60.7695L247.322 59.912L247.836 59.0545C246.768 58.4138 246.132 57.5607 245.86 56.4695L244.889 56.712ZM247.322 59.912L246.786 60.7568C248.261 61.6906 250.036 62.128 252.057 62.128V61.128V60.128C250.324 60.128 248.942 59.7547 247.857 59.0672L247.322 59.912ZM252.057 61.128V62.128C254.525 62.128 256.592 61.3994 258.141 59.8511L257.434 59.144L256.726 58.4369C255.629 59.534 254.113 60.128 252.057 60.128V61.128ZM257.434 59.144L258.117 59.8735C259.77 58.3243 260.482 55.9266 260.482 52.936H259.482H258.482C258.482 55.6627 257.828 57.4037 256.75 58.4145L257.434 59.144ZM259.482 52.936H260.482V47.88H259.482H258.482V52.936H259.482ZM259.482 47.88L258.64 47.3403C257.668 48.8555 256.321 50.1124 254.571 51.1065L255.066 51.976L255.56 52.8455C257.565 51.7062 259.161 50.2325 260.323 48.4197L259.482 47.88ZM255.066 51.976L254.587 51.0981C252.88 52.0289 250.853 52.512 248.473 52.512V53.512V54.512C251.128 54.512 253.496 53.9711 255.544 52.8539L255.066 51.976ZM248.473 53.512V52.512C245.708 52.512 243.227 51.8134 241.003 50.424L240.473 51.272L239.943 52.12C242.499 53.7172 245.351 54.512 248.473 54.512V53.512ZM240.473 51.272L241.014 50.4308C238.788 48.9998 237.005 46.9858 235.669 44.3553L234.777 44.808L233.886 45.2607C235.366 48.1769 237.38 50.4722 239.933 52.1132L240.473 51.272ZM234.777 44.808L235.677 44.3717C234.388 41.7133 233.73 38.6241 233.73 35.08H232.73H231.73C231.73 38.8745 232.436 42.2707 233.878 45.2443L234.777 44.808ZM232.73 35.08H233.73C233.73 31.5354 234.389 28.4702 235.675 25.8577L234.777 25.416L233.88 24.9743C232.436 27.9085 231.73 31.2859 231.73 35.08H232.73ZM234.777 25.416L235.669 25.8687C237.004 23.2402 238.784 21.2511 241.003 19.864L240.473 19.016L239.943 18.168C237.384 19.7676 235.367 22.0451 233.886 24.9633L234.777 25.416ZM240.473 19.016L241.003 19.864C243.227 18.4746 245.708 17.776 248.473 17.776V16.776V15.776C245.351 15.776 242.499 16.5708 239.943 18.168L240.473 19.016ZM259.482 35.144H260.482C260.482 32.2187 259.653 29.7904 257.894 27.9826L257.178 28.68L256.461 29.3774C257.774 30.7269 258.482 32.6079 258.482 35.144H259.482ZM257.178 28.68L257.904 27.9928C256.221 26.2142 254.124 25.312 251.673 25.312V26.312V27.312C253.575 27.312 255.147 27.9885 256.451 29.3672L257.178 28.68ZM251.673 26.312V25.312C249.224 25.312 247.11 26.2132 245.389 27.9826L246.105 28.68L246.822 29.3774C248.173 27.9895 249.771 27.312 251.673 27.312V26.312ZM246.105 28.68L245.389 27.9829C243.668 29.7531 242.865 32.1637 242.865 35.08H243.865H244.865C244.865 32.535 245.557 30.6789 246.822 29.3771L246.105 28.68ZM243.865 35.08H242.865C242.865 37.999 243.668 40.438 245.37 42.2855L246.105 41.608L246.841 40.9305C245.556 39.5353 244.865 37.6224 244.865 35.08H243.865ZM246.105 41.608L245.389 42.3054C247.11 44.0748 249.224 44.976 251.673 44.976V43.976V42.976C249.771 42.976 248.173 42.2985 246.822 40.9106L246.105 41.608ZM251.673 43.976V44.976C254.124 44.976 256.221 44.0738 257.904 42.2952L257.178 41.608L256.451 40.9208C255.147 42.2995 253.575 42.976 251.673 42.976V43.976ZM257.178 41.608L257.894 42.3054C259.653 40.4976 260.482 38.0693 260.482 35.144H259.482H258.482C258.482 37.6801 257.774 39.5611 256.461 40.9106L257.178 41.608ZM298.503 18.312L298.024 19.1899L298.032 19.1943L298.503 18.312ZM302.919 22.344L302.067 22.8681L303.919 25.877V22.344H302.919ZM302.919 17.288V16.288H301.919V17.288H302.919ZM313.863 17.288H314.863V16.288H313.863V17.288ZM311.879 61.832L310.985 61.3848L310.98 61.3934L310.976 61.4021L311.879 61.832ZM305.927 68.232L305.421 67.3697L305.415 67.3733L305.927 68.232ZM283.143 66.824L283.751 66.0302L283.745 66.0252L283.143 66.824ZM277.511 56.712V55.712H276.395L276.517 56.8213L277.511 56.712ZM288.327 56.712L289.297 56.4695L289.108 55.712H288.327V56.712ZM290.759 59.912L291.294 59.0672L291.284 59.0607L291.273 59.0545L290.759 59.912ZM300.871 59.144L300.187 58.4145L300.175 58.4255L300.164 58.4369L300.871 59.144ZM302.919 47.88H303.919V44.467L302.077 47.3403L302.919 47.88ZM298.503 51.976L298.982 52.8539L298.989 52.8497L298.997 52.8455L298.503 51.976ZM283.911 51.272L283.37 52.1132L283.381 52.12L283.911 51.272ZM278.215 44.808L277.315 45.2443L277.319 45.2525L277.323 45.2607L278.215 44.808ZM278.215 25.416L277.323 24.9633L277.318 24.9743L278.215 25.416ZM283.911 19.016L284.441 19.864L283.911 19.016ZM300.615 28.68L299.888 29.3673L299.898 29.3774L300.615 28.68ZM289.543 28.68L288.826 27.9826L288.826 27.9829L289.543 28.68ZM289.543 41.608L288.807 42.2855L288.817 42.2955L288.826 42.3054L289.543 41.608ZM300.615 41.608L299.898 40.9106L299.889 40.9208L300.615 41.608ZM291.911 16.776V17.776C294.291 17.776 296.318 18.2591 298.024 19.1899L298.503 18.312L298.982 17.4341C296.934 16.3169 294.566 15.776 291.911 15.776V16.776ZM298.503 18.312L298.032 19.1943C299.814 20.1446 301.147 21.3719 302.067 22.8681L302.919 22.344L303.771 21.8199C302.643 19.9881 301.032 18.5274 298.974 17.4296L298.503 18.312ZM302.919 22.344H303.919V17.288H302.919H301.919V22.344H302.919ZM302.919 17.288V18.288H313.863V17.288V16.288H302.919V17.288ZM313.863 17.288H312.863V52.936H313.863H314.863V17.288H313.863ZM313.863 52.936H312.863C312.863 56.0835 312.23 58.8931 310.985 61.3848L311.879 61.832L312.773 62.2792C314.173 59.4802 314.863 56.3592 314.863 52.936H313.863ZM311.879 61.832L310.976 61.4021C309.786 63.9008 307.945 65.8873 305.421 67.3697L305.927 68.232L306.433 69.0943C309.285 67.4194 311.412 65.1392 312.782 62.2619L311.879 61.832ZM305.927 68.232L305.415 67.3733C302.963 68.8364 299.846 69.6 296.007 69.6V70.6V71.6C300.104 71.6 303.601 70.7849 306.439 69.0907L305.927 68.232ZM296.007 70.6V69.6C290.874 69.6 286.819 68.3805 283.751 66.0302L283.143 66.824L282.535 67.6178C286.038 70.3021 290.558 71.6 296.007 71.6V70.6ZM283.143 66.824L283.745 66.0252C280.69 63.7244 278.946 60.6087 278.505 56.6027L277.511 56.712L276.517 56.8213C277.015 61.3486 279.025 64.9742 282.541 67.6228L283.143 66.824ZM277.511 56.712V57.712H288.327V56.712V55.712H277.511V56.712ZM288.327 56.712L287.357 56.9545C287.767 58.594 288.752 59.8742 290.245 60.7695L290.759 59.912L291.273 59.0545C290.206 58.4138 289.57 57.5607 289.297 56.4695L288.327 56.712ZM290.759 59.912L290.224 60.7568C291.698 61.6906 293.473 62.128 295.495 62.128V61.128V60.128C293.762 60.128 292.38 59.7547 291.294 59.0672L290.759 59.912ZM295.495 61.128V62.128C297.962 62.128 300.03 61.3994 301.578 59.8511L300.871 59.144L300.164 58.4369C299.067 59.534 297.55 60.128 295.495 60.128V61.128ZM300.871 59.144L301.555 59.8735C303.207 58.3243 303.919 55.9266 303.919 52.936H302.919H301.919C301.919 55.6627 301.265 57.4037 300.187 58.4145L300.871 59.144ZM302.919 52.936H303.919V47.88H302.919H301.919V52.936H302.919ZM302.919 47.88L302.077 47.3403C301.106 48.8555 299.759 50.1124 298.009 51.1065L298.503 51.976L298.997 52.8455C301.002 51.7062 302.599 50.2325 303.761 48.4197L302.919 47.88ZM298.503 51.976L298.024 51.0981C296.318 52.0289 294.291 52.512 291.911 52.512V53.512V54.512C294.566 54.512 296.934 53.9711 298.982 52.8539L298.503 51.976ZM291.911 53.512V52.512C289.146 52.512 286.664 51.8134 284.441 50.424L283.911 51.272L283.381 52.12C285.937 53.7172 288.788 54.512 291.911 54.512V53.512ZM283.911 51.272L284.452 50.4308C282.226 48.9998 280.442 46.9858 279.107 44.3553L278.215 44.808L277.323 45.2607C278.804 48.1769 280.818 50.4722 283.37 52.1132L283.911 51.272ZM278.215 44.808L279.115 44.3717C277.826 41.7133 277.167 38.6241 277.167 35.08H276.167H275.167C275.167 38.8745 275.873 42.2707 277.315 45.2443L278.215 44.808ZM276.167 35.08H277.167C277.167 31.5354 277.826 28.4702 279.112 25.8577L278.215 25.416L277.318 24.9743C275.873 27.9085 275.167 31.2859 275.167 35.08H276.167ZM278.215 25.416L279.107 25.8687C280.441 23.2402 282.222 21.2511 284.441 19.864L283.911 19.016L283.381 18.168C280.822 19.7676 278.805 22.0451 277.323 24.9633L278.215 25.416ZM283.911 19.016L284.441 19.864C286.664 18.4746 289.146 17.776 291.911 17.776V16.776V15.776C288.788 15.776 285.937 16.5708 283.381 18.168L283.911 19.016ZM302.919 35.144H303.919C303.919 32.2187 303.091 29.7904 301.332 27.9826L300.615 28.68L299.898 29.3774C301.211 30.7269 301.919 32.6079 301.919 35.144H302.919ZM300.615 28.68L301.341 27.9928C299.659 26.2142 297.561 25.312 295.111 25.312V26.312V27.312C297.013 27.312 298.584 27.9885 299.889 29.3672L300.615 28.68ZM295.111 26.312V25.312C292.661 25.312 290.548 26.2132 288.826 27.9826L289.543 28.68L290.26 29.3774C291.61 27.9895 293.209 27.312 295.111 27.312V26.312ZM289.543 28.68L288.826 27.9829C287.105 29.7531 286.303 32.1637 286.303 35.08H287.303H288.303C288.303 32.535 288.994 30.6789 290.26 29.3771L289.543 28.68ZM287.303 35.08H286.303C286.303 37.999 287.106 40.438 288.807 42.2855L289.543 41.608L290.279 40.9305C288.993 39.5353 288.303 37.6224 288.303 35.08H287.303ZM289.543 41.608L288.826 42.3054C290.548 44.0748 292.661 44.976 295.111 44.976V43.976V42.976C293.209 42.976 291.61 42.2985 290.26 40.9106L289.543 41.608ZM295.111 43.976V44.976C297.561 44.976 299.659 44.0738 301.341 42.2952L300.615 41.608L299.889 40.9208C298.584 42.2995 297.013 42.976 295.111 42.976V43.976ZM300.615 41.608L301.332 42.3054C303.091 40.4976 303.919 38.0693 303.919 35.144H302.919H301.919C301.919 37.6801 301.211 39.5611 299.898 40.9106L300.615 41.608Z" fill="#FFC051" mask="url(#path-1-outside-1_891_4145)"/>
</g>
<defs>
<filter id="filter0_d_891_4145" x="0.96875" y="0.736328" width="317.895" height="78.8633" filterUnits="userSpaceOnUse" color-interpolation-filters="sRGB">
<feFlood flood-opacity="0" result="BackgroundImageFix"/>
<feColorMatrix in="SourceAlpha" type="matrix" values="0 0 0 0 0 0 0 0 0 0 0 0 0 0 0 0 0 0 127 0" result="hardAlpha"/>
<feOffset dy="4"/>
<feGaussianBlur stdDeviation="2"/>
<feComposite in2="hardAlpha" operator="out"/>
<feColorMatrix type="matrix" values="0 0 0 0 0 0 0 0 0 0 0 0 0 0 0 0 0 0 0.25 0"/>
<feBlend mode="normal" in2="BackgroundImageFix" result="effect1_dropShadow_891_4145"/>
<feBlend mode="normal" in="SourceGraphic" in2="effect1_dropShadow_891_4145" result="shape"/>
</filter>
</defs>
</svg>
