<svg width="128" height="26" viewBox="0 0 128 26" fill="none" xmlns="http://www.w3.org/2000/svg">
<path d="M37.9386 25.8455C35.7229 25.8455 33.8135 25.4364 32.2102 24.618C30.616 23.7909 29.3866 22.6069 28.5219 21.0659C27.6663 19.5162 27.2384 17.6618 27.2384 15.5027C27.2384 13.4306 27.6708 11.6198 28.5354 10.0701C29.4001 8.52038 30.6205 7.31459 32.1967 6.45268C33.7729 5.59078 35.6329 5.15983 37.7765 5.15983C39.3437 5.15983 40.7623 5.39489 42.0323 5.86502C43.3023 6.33515 44.3876 7.01858 45.2883 7.91531C46.189 8.80333 46.8825 9.88289 47.3689 11.154C47.8552 12.4251 48.0984 13.8572 48.0984 15.4504V17.122H29.5622V13.152H41.2352C41.2262 12.5774 41.073 12.0725 40.7758 11.6372C40.4876 11.1932 40.0958 10.8493 39.6004 10.6055C39.114 10.353 38.5601 10.2268 37.9386 10.2268C37.3352 10.2268 36.7812 10.353 36.2769 10.6055C35.7725 10.8493 35.3672 11.1888 35.0609 11.6241C34.7637 12.0594 34.6061 12.5687 34.5881 13.152V17.4354C34.5881 18.0797 34.7277 18.6543 35.0069 19.1593C35.2861 19.6642 35.6869 20.0603 36.2093 20.3476C36.7317 20.6349 37.3622 20.7786 38.1008 20.7786C38.6142 20.7786 39.0825 20.7089 39.5058 20.5696C39.9382 20.4303 40.3075 20.2301 40.6137 19.9689C40.9199 19.699 41.1451 19.3769 41.2892 19.0025H48.0984C47.8643 20.3955 47.3103 21.6057 46.4367 22.633C45.563 23.6516 44.4056 24.4439 42.9645 25.0098C41.5324 25.5669 39.8571 25.8455 37.9386 25.8455Z" fill="#F4EFEB"/>
<path d="M53.0346 25.4799L47.8466 5.42101H55.3043L57.6822 17.6444H57.8443L60.4923 5.42101H67.7339L70.49 17.5399H70.6521L72.9218 5.42101H80.3796L75.1916 25.4799H67.1394L64.2212 14.7191H64.005L61.0868 25.4799H53.0346Z" fill="#F4EFEB"/>
<path d="M94.2639 5.42101V10.6447H80.5914V5.42101H94.2639ZM83.2394 0.615234H90.6972V19.0287C90.6972 19.3073 90.7467 19.5423 90.8458 19.7339C90.9449 19.9167 91.098 20.056 91.3051 20.1517C91.5123 20.2388 91.778 20.2823 92.1022 20.2823C92.3274 20.2823 92.5886 20.2562 92.8858 20.204C93.1921 20.1517 93.4173 20.1082 93.5614 20.0734L94.6422 25.1404C94.3089 25.2361 93.8316 25.3536 93.2101 25.4929C92.5976 25.6322 91.8681 25.7237 91.0214 25.7672C89.3101 25.8543 87.8735 25.6845 86.7116 25.2579C85.5497 24.8226 84.676 24.1391 84.0906 23.2076C83.5051 22.276 83.2214 21.1094 83.2394 19.7077V0.615234Z" fill="#F4EFEB"/>
<path d="M103.623 14.1968V25.4799H96.1658V5.42101H103.245V9.23428H103.461C103.912 7.96319 104.704 6.96634 105.839 6.24374C106.983 5.52113 108.316 5.15983 109.838 5.15983C111.306 5.15983 112.581 5.4863 113.662 6.13926C114.752 6.78351 115.594 7.67154 116.188 8.80333C116.792 9.93513 117.089 11.228 117.08 12.6819V25.4799H109.622V14.1968C109.631 13.2043 109.37 12.4251 108.838 11.8592C108.316 11.2933 107.587 11.0103 106.65 11.0103C106.037 11.0103 105.501 11.1409 105.042 11.4021C104.592 11.6546 104.245 12.0202 104.002 12.4991C103.759 12.9692 103.632 13.5351 103.623 14.1968Z" fill="#F4EFEB"/>
<path d="M123.673 25.8978C122.628 25.8978 121.732 25.5452 120.985 24.84C120.246 24.1261 119.881 23.2598 119.89 22.2412C119.881 21.2487 120.246 20.3999 120.985 19.6947C121.732 18.9895 122.628 18.6369 123.673 18.6369C124.664 18.6369 125.538 18.9895 126.294 19.6947C127.06 20.3999 127.447 21.2487 127.456 22.2412C127.447 22.9203 127.262 23.5384 126.902 24.0956C126.551 24.6441 126.091 25.0838 125.524 25.4146C124.957 25.7367 124.34 25.8978 123.673 25.8978Z" fill="#F4EFEB"/>
<path d="M7.54752 25.5157H0.39502V0.876729H8.00406L15.0805 10.1072L18.8089 15.7704H19.3035L18.9611 10.4014V0.876729H26.1136V25.5157H18.5045L10.9716 16.0279L7.73774 11.1736H7.24316L7.54752 15.8808V25.5157Z" fill="#F4EFEB"/>
</svg>
