<svg width="1512" height="720" viewBox="0 0 1512 720" fill="none" xmlns="http://www.w3.org/2000/svg">
<g clip-path="url(#clip0_804_3189)">
<rect width="1512" height="720" fill="white"/>
<g clip-path="url(#clip1_804_3189)">
<rect width="1512" height="720" fill="#F3FFF2"/>
<rect opacity="0.4" width="1280" height="192" fill="#E1F5E0"/>
<path opacity="0.8" d="M864.762 128C887.908 128 906.672 146.764 906.672 169.91C906.672 193.056 887.908 211.82 864.762 211.82C861.074 211.82 857.499 211.342 854.092 210.447C852.003 211.33 849.708 211.82 847.298 211.82H791.417C788.409 211.82 785.579 211.059 783.108 209.72C780.343 211.065 777.237 211.82 773.955 211.82C762.382 211.82 753 202.438 753 190.865C753 179.292 762.382 169.91 773.955 169.91C774.251 169.91 774.546 169.918 774.839 169.93C774.261 167.692 773.954 165.345 773.954 162.927C773.954 147.496 786.464 134.986 801.895 134.986C813.134 134.986 822.821 141.623 827.256 151.19C834.132 137.441 848.344 128 864.762 128Z" fill="#E1F5E0"/>
<path opacity="0.8" d="M481.164 212C497.559 212 510.851 225.291 510.851 241.687C510.851 258.082 497.559 271.373 481.164 271.373C478.553 271.373 476.02 271.035 473.607 270.401C472.128 271.027 470.501 271.374 468.794 271.374H429.212C427.08 271.374 425.075 270.834 423.324 269.885C421.366 270.837 419.167 271.372 416.844 271.372C408.646 271.372 402 264.727 402 256.529C402 248.332 408.646 241.686 416.844 241.686C417.053 241.686 417.262 241.691 417.47 241.699C417.061 240.114 416.843 238.452 416.843 236.738C416.843 225.808 425.704 216.947 436.634 216.947C444.595 216.947 451.458 221.649 454.599 228.427C459.469 218.688 469.535 212 481.164 212Z" fill="#E1F5E0"/>
<path opacity="0.8" d="M411.976 -29C434.718 -29 453.565 -12.3291 456.968 9.45898C462.818 4.41269 470.438 1.36133 478.771 1.36133C497.215 1.3615 512.167 16.3142 512.167 34.7588C512.167 35.8343 512.114 36.8978 512.015 37.9473C513.064 37.8479 514.127 37.7949 515.202 37.7949C533.647 37.7949 548.6 52.7476 548.6 71.1924C548.599 88.6132 535.261 102.916 518.239 104.45V104.589H360.361V104.45C343.339 102.916 330 88.6136 330 71.1924C330 52.7476 344.953 37.7949 363.397 37.7949C366.501 37.795 369.505 38.2196 372.356 39.0117C368.588 32.3814 366.434 24.7135 366.434 16.542C366.434 -8.60992 386.824 -29 411.976 -29Z" fill="#E1F5E0"/>
<path opacity="0.8" d="M1208.48 147.334C1224.98 147.334 1238.65 159.429 1241.12 175.236C1245.36 171.575 1250.89 169.361 1256.94 169.361C1270.32 169.361 1281.17 180.21 1281.17 193.592C1281.17 194.372 1281.13 195.144 1281.06 195.905C1281.82 195.833 1282.59 195.795 1283.37 195.795C1296.75 195.795 1307.6 206.643 1307.6 220.025C1307.6 232.665 1297.92 243.042 1285.57 244.155V244.257H1171.03V244.155C1158.68 243.043 1149 232.665 1149 220.025C1149 206.643 1159.85 195.795 1173.23 195.795C1175.48 195.795 1177.66 196.103 1179.73 196.678C1177 191.867 1175.43 186.304 1175.43 180.376C1175.43 162.128 1190.23 147.334 1208.48 147.334Z" fill="#E1F5E0"/>
<path opacity="0.8" d="M59.6895 120C79.8557 120 96.5672 134.783 99.584 154.103C104.772 149.628 111.528 146.922 118.917 146.922C135.272 146.922 148.531 160.181 148.531 176.536C148.531 177.49 148.484 178.433 148.396 179.363C149.326 179.275 150.268 179.229 151.222 179.229C167.577 179.229 180.836 192.488 180.836 208.843C180.836 224.29 169.008 236.972 153.915 238.333V238.455H151.298C151.273 238.455 151.247 238.456 151.222 238.456C151.196 238.456 151.171 238.455 151.146 238.455H16.6904C16.665 238.455 16.6397 238.456 16.6143 238.456C16.589 238.456 16.5633 238.455 16.5381 238.455H13.9219V238.333C-1.17161 236.973 -12.9998 224.29 -13 208.843C-13 192.488 0.258996 179.229 16.6143 179.229C19.3663 179.229 22.0303 179.605 24.5586 180.308C21.2168 174.428 19.3067 167.629 19.3066 160.383C19.3066 138.08 37.3868 120 59.6895 120Z" fill="#E1F5E0"/>
<path opacity="0.8" d="M1027.69 -29C1047.86 -28.9998 1064.57 -14.2173 1067.58 5.10254C1072.77 0.627666 1079.53 -2.07808 1086.92 -2.07812C1103.27 -2.07812 1116.53 11.1809 1116.53 27.5361C1116.53 28.4898 1116.48 29.4327 1116.4 30.3633C1117.33 30.2752 1118.27 30.2285 1119.22 30.2285C1135.58 30.2285 1148.84 43.4875 1148.84 59.8428C1148.84 75.29 1137.01 87.9724 1121.92 89.333V89.4551H1119.3C1119.27 89.4551 1119.25 89.4561 1119.22 89.4561C1119.2 89.4561 1119.17 89.4551 1119.15 89.4551H984.69C984.665 89.4551 984.64 89.4561 984.614 89.4561C984.589 89.4561 984.563 89.4551 984.538 89.4551H981.922V89.333C966.828 87.9729 955 75.2903 955 59.8428C955 43.4875 968.259 30.2285 984.614 30.2285C987.366 30.2286 990.03 30.6052 992.559 31.3076C989.217 25.4283 987.307 18.6289 987.307 11.3828C987.307 -10.9198 1005.39 -29 1027.69 -29Z" fill="#E1F5E0"/>
<path d="M0 147H1512V720H0V147Z" fill="#E1F5E0"/>
<rect opacity="0.5" y="147" width="1280" height="15" fill="#C5ECC8"/>
<g opacity="0.5">
<rect x="242" y="364" width="95.6223" height="38.2489" rx="8" fill="#C5ECC8"/>
<rect x="294.592" y="411.811" width="95.6223" height="38.2489" rx="8" fill="#C5ECC8"/>
</g>
<g opacity="0.5">
<rect x="1160" y="639" width="95.6223" height="38.2489" rx="8" fill="#C5ECC8"/>
<rect x="1212.59" y="686.811" width="95.6223" height="38.2489" rx="8" fill="#C5ECC8"/>
</g>
<g opacity="0.5">
<rect x="566" y="634" width="95.6223" height="38.2489" rx="8" fill="#C5ECC8"/>
<rect x="618.592" y="681.811" width="95.6223" height="38.2489" rx="8" fill="#C5ECC8"/>
</g>
<g opacity="0.5">
<rect x="16.5923" y="532" width="95.6223" height="38.2489" rx="8" fill="#C5ECC8"/>
<rect x="-36" y="579.811" width="95.6223" height="38.2489" rx="8" fill="#C5ECC8"/>
</g>
<g opacity="0.5">
<rect x="1026.59" y="399" width="95.6223" height="38.2489" rx="8" fill="#C5ECC8"/>
<rect x="974" y="446.811" width="95.6223" height="38.2489" rx="8" fill="#C5ECC8"/>
</g>
<path d="M947.592 596.073C917.685 608.955 907.726 626.465 886.086 647.299V686.22H1071.97V642.974C1036.91 630.398 1044.84 631.526 1035.16 613.849L1018.67 592.264L1015.77 582.107V569.455C1021.2 535.129 1058.49 521.955 1092.28 508.465L1180.37 491.465C1195.99 472.987 1200.93 459.373 1180.37 443.894C1157.34 436.51 1148.58 426.015 1137.14 400.648C1124 340.618 1122.42 318.995 1132.82 305.506L1154.43 270.909C1158.65 237.045 1156.26 223.406 1145.79 206.039H1132.82C1136.68 230.185 1137.19 243.567 1128.5 266.584L1106.88 288.207C1099.15 314.781 1095.33 330.125 1098.24 366.051C1083.22 351.025 1071.37 341.728 1042.04 322.804L847.508 279.558C824.299 255.183 814.208 239.212 804.279 206.039L786.987 214.688C793.858 254.983 802.173 276.589 821.57 314.155L1055.01 383.349C1085.62 405.431 1101.19 419.375 1115.53 456.868C1079.83 472.975 1018.12 487.67 997.09 516.084C980.745 539.127 951.519 561.451 947.592 596.073Z" fill="#935722"/>
<path d="M791.311 136.848C819.961 136.848 843.186 160.082 843.186 188.743C843.186 217.404 819.961 240.639 791.311 240.639C788.474 240.639 785.69 240.41 782.977 239.972C781.721 240.403 780.374 240.641 778.971 240.641H691.251C689.471 240.641 687.781 240.26 686.253 239.582C683.926 240.267 681.464 240.638 678.916 240.638C664.591 240.638 652.978 229.02 652.978 214.689C652.978 200.359 664.591 188.742 678.916 188.742C679.281 188.742 679.645 188.751 680.007 188.766C679.293 185.995 678.913 183.089 678.913 180.095C678.913 160.987 694.397 145.498 713.497 145.498C727.407 145.498 739.397 153.715 744.886 165.562C753.397 148.537 770.99 136.848 791.311 136.848Z" fill="#63906F"/>
<path d="M675.188 396.324C710.671 396.324 739.435 425.1 739.436 460.598C739.436 496.095 710.671 524.872 675.188 524.872C672.266 524.872 669.391 524.675 666.573 524.297C665.399 524.668 664.149 524.87 662.853 524.87H551.894C550.735 524.87 549.614 524.711 548.551 524.412C546.787 524.712 544.974 524.871 543.124 524.871C525.382 524.871 511 510.483 511 492.734C511 475.361 524.781 461.21 542.003 460.619C540.42 456.146 539.556 451.334 539.556 446.318C539.556 422.653 558.732 403.469 582.388 403.469C599.016 403.469 613.432 412.949 620.529 426.801C631.855 408.509 652.099 396.324 675.188 396.324Z" fill="#2A4634"/>
<path d="M985.843 59C1018.23 59 1045.06 82.746 1049.91 113.781C1058.24 106.594 1069.08 102.248 1080.95 102.248C1107.21 102.248 1128.5 123.547 1128.5 149.819C1128.5 151.35 1128.42 152.863 1128.28 154.356C1129.78 154.215 1131.29 154.143 1132.82 154.143C1159.08 154.143 1180.37 175.441 1180.37 201.714C1180.37 226.529 1161.38 246.905 1137.14 249.09V249.288H912.353V249.09C888.116 246.905 869.124 226.529 869.123 201.714C869.123 175.441 890.413 154.143 916.675 154.143C921.094 154.143 925.371 154.748 929.43 155.876C924.065 146.432 920.999 135.508 920.999 123.869C921 88.0429 950.031 59.0001 985.843 59Z" fill="#2A4634"/>
<path d="M869.124 249.281C890.791 249.281 909.798 260.672 920.49 277.794C930.388 270.735 942.5 266.584 955.582 266.584C989.006 266.584 1016.1 293.691 1016.1 327.129C1016.1 330.84 1015.77 334.473 1015.13 338C1040.63 345.124 1059.33 368.535 1059.33 396.318C1059.33 429.756 1032.24 456.863 998.813 456.863C995.022 456.863 991.312 456.514 987.714 455.847H698.662C695.064 456.514 691.354 456.863 687.563 456.863C654.138 456.863 627.043 429.756 627.043 396.318C627.043 362.88 654.138 335.774 687.563 335.773C690.857 335.773 694.09 336.037 697.241 336.544C696.568 333.512 696.21 330.36 696.21 327.125C696.211 303.241 715.564 283.879 739.439 283.879C752.303 283.879 763.852 289.503 771.771 298.424C778.04 289.62 788.329 283.879 799.958 283.879C804.667 283.879 809.155 284.822 813.247 286.527C822.37 264.654 843.952 249.281 869.124 249.281Z" fill="#2A4634"/>
<path d="M886.414 413.617C919.839 413.617 946.935 440.724 946.935 474.162V474.164H972.86C991.967 474.164 1007.46 489.654 1007.46 508.761C1007.46 527.868 991.967 543.358 972.86 543.358H808.618C789.51 543.358 774.02 527.868 774.02 508.761C774.02 489.654 789.51 474.164 808.617 474.164H825.894V474.162C825.894 440.724 852.99 413.617 886.414 413.617Z" fill="#2A4634"/>
<rect x="648.069" y="621.205" width="484.165" height="34.5971" rx="17.2986" fill="#526873"/>
<path d="M889.598 725.001H729.649L673.452 655.807H889.598V725.001ZM1105.74 655.807L1049.55 725.001H889.599V655.807H1105.74Z" fill="#3F5058"/>
<path d="M729.295 386.578C737.817 386.579 745.063 399.784 747.74 418.206C762.655 407.073 777.115 402.863 783.141 408.892C789.166 414.92 784.957 429.384 773.828 444.305C792.244 446.983 805.445 454.233 805.445 462.759C805.445 471.284 792.246 478.534 773.83 481.213C784.958 496.134 789.167 510.598 783.141 516.626C777.114 522.654 762.656 518.443 747.74 507.309C745.063 525.732 737.817 538.939 729.295 538.939C720.773 538.939 713.525 525.733 710.848 507.31C695.933 518.443 681.474 522.654 675.448 516.626C669.423 510.598 673.632 496.134 684.76 481.213C666.345 478.534 653.146 471.284 653.146 462.759C653.146 454.234 666.346 446.983 684.761 444.305C673.633 429.384 669.423 414.919 675.449 408.891C681.475 402.863 695.934 407.074 710.848 418.206C713.525 399.783 720.773 386.578 729.295 386.578Z" fill="#F9C665"/>
<ellipse cx="729.296" cy="462.758" rx="26.7554" ry="26.7662" fill="#AA5200"/>
<path d="M1080.85 188.508C1086.11 188.509 1090.58 196.65 1092.23 208.009C1101.42 201.144 1110.34 198.548 1114.06 202.266C1117.77 205.983 1115.18 214.902 1108.31 224.104C1119.67 225.755 1127.81 230.226 1127.81 235.483C1127.81 240.74 1119.67 245.211 1108.32 246.863C1115.18 256.064 1117.78 264.982 1114.06 268.699C1110.34 272.417 1101.43 269.82 1092.23 262.953C1090.58 274.317 1086.11 282.463 1080.85 282.464C1075.6 282.464 1071.13 274.318 1069.48 262.955C1060.28 269.821 1051.36 272.419 1047.65 268.701C1043.93 264.984 1046.53 256.064 1053.39 246.863C1042.03 245.211 1033.9 240.74 1033.9 235.483C1033.9 230.226 1042.04 225.755 1053.39 224.104C1046.53 214.902 1043.93 205.982 1047.65 202.264C1051.37 198.547 1060.28 201.142 1069.48 208.006C1071.13 196.648 1075.6 188.508 1080.85 188.508Z" fill="#F9C665"/>
<ellipse cx="1080.85" cy="235.486" rx="16.4992" ry="16.5058" fill="#AA5200"/>
</g>
</g>
<defs>
<clipPath id="clip0_804_3189">
<rect width="1512" height="720" fill="white"/>
</clipPath>
<clipPath id="clip1_804_3189">
<rect width="1512" height="720" fill="white"/>
</clipPath>
</defs>
</svg>
