<svg width="434" height="455" viewBox="0 0 434 455" fill="none" xmlns="http://www.w3.org/2000/svg">
<mask id="path-1-outside-1_805_3450" maskUnits="userSpaceOnUse" x="0" y="0" width="434" height="344" fill="black">
<rect fill="white" width="434" height="344"/>
<path d="M263.242 14C278.672 14 291.458 25.2822 293.767 40.0273C297.735 36.6131 302.904 34.548 308.556 34.5479C321.069 34.5479 331.214 44.667 331.214 57.1494C331.214 57.8768 331.177 58.5959 331.109 59.3057C331.82 59.2386 332.541 59.2041 333.27 59.2041C345.783 59.2041 355.927 69.3225 355.927 81.8047C355.927 87.6309 353.716 92.9408 350.087 96.9482C357.081 97.5639 362.999 101.914 365.824 107.988C370.556 98.5544 380.333 92.0762 391.628 92.0762C407.554 92.0764 420.465 104.955 420.465 120.842C420.465 136.728 407.554 149.607 391.628 149.607C389.977 149.607 388.358 149.466 386.783 149.2C386.035 149.462 385.231 149.607 384.394 149.607H375.071C375.139 150.321 375.176 151.045 375.176 151.776C375.176 163.566 366.126 173.246 354.578 174.284V174.384H334.905C335.043 175.019 335.183 175.665 335.327 176.319C336.25 178.36 337.138 180.197 338.026 181.859C342.512 177.294 348.763 174.461 355.678 174.461C369.329 174.461 380.396 185.5 380.396 199.117C380.395 212.734 369.329 223.773 355.678 223.773C354.261 223.773 352.873 223.652 351.521 223.424C350.879 223.649 350.189 223.773 349.47 223.773H333.55L313.95 227.545C297.851 233.954 280.085 240.213 277.497 256.521V262.532L278.876 267.358L286.737 277.613C287.497 278.998 288.027 280.14 288.46 281.108H324.769C329.307 281.108 332.987 284.788 332.987 289.327C332.987 293.866 329.308 297.546 324.769 297.546H320.364L293.587 330.421H217.375V311.998H217.374V330.421H141.162L114.385 297.546H110.51C105.971 297.546 102.291 293.866 102.291 289.327C102.291 284.788 105.971 281.108 110.51 281.108H227.668C232.248 276.536 237.202 272.521 245.011 269.168C246.157 259.094 251.824 251.213 257.833 244.102C257.588 244.112 257.341 244.119 257.094 244.119H178.74C169.691 244.119 162.35 236.806 162.304 227.768C160.667 226.842 158.98 225.742 157.284 224.479C155.797 234.694 151.77 242.018 147.031 242.018C143.741 242.017 140.795 238.486 138.803 232.908C132.067 242.192 121.117 248.233 108.75 248.233C107.255 248.233 105.781 248.142 104.333 247.971C103.767 248.141 103.167 248.234 102.545 248.234H36.6807C36.1595 248.234 35.6536 248.169 35.1699 248.048C34.3104 248.17 33.4323 248.234 32.5391 248.234C22.3003 248.234 14 239.955 14 229.741C14.0005 219.745 21.9514 211.602 31.8887 211.261C30.9756 208.687 30.4775 205.918 30.4775 203.032C30.4778 189.415 41.5435 178.376 55.1943 178.376C64.7919 178.376 73.1122 183.833 77.207 191.806C78.222 190.171 79.3611 188.62 80.6113 187.168C77.8534 182.757 76.2589 177.548 76.2588 171.967C76.2588 156.08 89.1695 143.201 105.096 143.201C106.664 143.201 108.202 143.327 109.702 143.567C109.381 142.126 109.211 140.628 109.211 139.091C109.211 129.693 115.536 121.767 124.172 119.321C125.046 112.213 131.121 106.709 138.483 106.709C138.688 106.709 138.891 106.714 139.094 106.723C138.697 105.187 138.486 103.576 138.486 101.917C138.486 101.371 138.51 100.83 138.555 100.296H123.19C122.282 100.296 121.419 100.098 120.642 99.7471C119.487 100.103 118.26 100.296 116.988 100.296C110.163 100.296 104.629 94.7756 104.629 87.9668C104.629 81.1581 110.163 75.6388 116.988 75.6387C117.162 75.6387 117.336 75.6423 117.508 75.6494C117.168 74.334 116.986 72.9546 116.986 71.5332C116.986 62.4548 124.365 55.0948 133.466 55.0947C140.095 55.0948 145.808 58.9998 148.424 64.6289C152.478 56.539 160.861 50.9835 170.545 50.9834C184.196 50.9834 195.263 62.0225 195.263 75.6396C195.263 76.6209 195.203 77.5887 195.091 78.54C196.987 78.1488 198.951 77.9434 200.963 77.9434C203.329 77.9434 205.628 78.2294 207.829 78.7656C209.318 67.7209 218.802 59.2045 230.281 59.2041C232.389 59.2041 234.429 59.4914 236.365 60.0283C233.808 55.5409 232.346 50.3511 232.346 44.8203C232.346 27.799 246.179 14.0003 263.242 14ZM278.235 186.585C273.216 195.052 263.973 200.732 253.397 200.732C251.593 200.732 249.828 200.565 248.115 200.249H242.511C243.917 203.637 244.694 207.35 244.694 211.244H257.094C265.665 211.244 272.703 217.805 273.462 226.179C278.052 222.421 284.157 219.218 290.778 216.344C290.125 214.842 289.762 213.185 289.762 211.443C289.762 211.162 289.771 210.882 289.79 210.604C288.218 210.118 286.925 207.683 286.413 204.423C283.215 206.629 280.116 207.464 278.823 206.271C277.531 205.076 278.434 202.208 280.821 199.251C276.875 198.72 274.046 197.284 274.046 195.596C274.046 193.907 276.876 192.47 280.823 191.939C279.221 189.955 278.286 188.01 278.235 186.585ZM188.253 202.904C185.842 206.223 179.676 208.873 171.785 210.019C172.322 210.737 172.829 211.454 173.307 212.165C175.008 211.569 176.836 211.244 178.74 211.244H187.021C187.021 208.344 187.452 205.544 188.253 202.904ZM302.542 198.721C301.747 198.943 300.866 199.125 299.919 199.252C299.932 199.269 299.945 199.286 299.958 199.303C300.66 199.179 301.383 199.115 302.121 199.115C302.295 199.115 302.468 199.119 302.641 199.126C302.606 198.992 302.573 198.856 302.542 198.721ZM282.132 174.384C281.828 178.024 280.845 181.472 279.309 184.601C280.793 183.924 283.565 184.799 286.414 186.765C286.989 183.117 288.543 180.502 290.369 180.502C292.196 180.503 293.749 183.119 294.323 186.769C297.522 184.561 300.624 183.727 301.917 184.921C303.208 186.116 302.305 188.982 299.919 191.938C300.78 192.054 301.587 192.215 302.324 192.41C303.168 187.11 306.552 182.654 311.192 180.321C309.184 178.284 306.989 176.347 304.548 174.384H282.132ZM229.708 104.408C229.768 105.167 229.8 105.935 229.8 106.709C229.8 107.997 229.712 109.265 229.548 110.509C230.615 110.389 231.7 110.327 232.799 110.327C240.03 110.327 246.638 112.982 251.7 117.368C251.63 116.519 251.595 115.661 251.595 114.794C251.595 111.15 252.23 107.653 253.395 104.408H229.708Z"/>
</mask>
<path d="M263.242 14C278.672 14 291.458 25.2822 293.767 40.0273C297.735 36.6131 302.904 34.548 308.556 34.5479C321.069 34.5479 331.214 44.667 331.214 57.1494C331.214 57.8768 331.177 58.5959 331.109 59.3057C331.82 59.2386 332.541 59.2041 333.27 59.2041C345.783 59.2041 355.927 69.3225 355.927 81.8047C355.927 87.6309 353.716 92.9408 350.087 96.9482C357.081 97.5639 362.999 101.914 365.824 107.988C370.556 98.5544 380.333 92.0762 391.628 92.0762C407.554 92.0764 420.465 104.955 420.465 120.842C420.465 136.728 407.554 149.607 391.628 149.607C389.977 149.607 388.358 149.466 386.783 149.2C386.035 149.462 385.231 149.607 384.394 149.607H375.071C375.139 150.321 375.176 151.045 375.176 151.776C375.176 163.566 366.126 173.246 354.578 174.284V174.384H334.905C335.043 175.019 335.183 175.665 335.327 176.319C336.25 178.36 337.138 180.197 338.026 181.859C342.512 177.294 348.763 174.461 355.678 174.461C369.329 174.461 380.396 185.5 380.396 199.117C380.395 212.734 369.329 223.773 355.678 223.773C354.261 223.773 352.873 223.652 351.521 223.424C350.879 223.649 350.189 223.773 349.47 223.773H333.55L313.95 227.545C297.851 233.954 280.085 240.213 277.497 256.521V262.532L278.876 267.358L286.737 277.613C287.497 278.998 288.027 280.14 288.46 281.108H324.769C329.307 281.108 332.987 284.788 332.987 289.327C332.987 293.866 329.308 297.546 324.769 297.546H320.364L293.587 330.421H217.375V311.998H217.374V330.421H141.162L114.385 297.546H110.51C105.971 297.546 102.291 293.866 102.291 289.327C102.291 284.788 105.971 281.108 110.51 281.108H227.668C232.248 276.536 237.202 272.521 245.011 269.168C246.157 259.094 251.824 251.213 257.833 244.102C257.588 244.112 257.341 244.119 257.094 244.119H178.74C169.691 244.119 162.35 236.806 162.304 227.768C160.667 226.842 158.98 225.742 157.284 224.479C155.797 234.694 151.77 242.018 147.031 242.018C143.741 242.017 140.795 238.486 138.803 232.908C132.067 242.192 121.117 248.233 108.75 248.233C107.255 248.233 105.781 248.142 104.333 247.971C103.767 248.141 103.167 248.234 102.545 248.234H36.6807C36.1595 248.234 35.6536 248.169 35.1699 248.048C34.3104 248.17 33.4323 248.234 32.5391 248.234C22.3003 248.234 14 239.955 14 229.741C14.0005 219.745 21.9514 211.602 31.8887 211.261C30.9756 208.687 30.4775 205.918 30.4775 203.032C30.4778 189.415 41.5435 178.376 55.1943 178.376C64.7919 178.376 73.1122 183.833 77.207 191.806C78.222 190.171 79.3611 188.62 80.6113 187.168C77.8534 182.757 76.2589 177.548 76.2588 171.967C76.2588 156.08 89.1695 143.201 105.096 143.201C106.664 143.201 108.202 143.327 109.702 143.567C109.381 142.126 109.211 140.628 109.211 139.091C109.211 129.693 115.536 121.767 124.172 119.321C125.046 112.213 131.121 106.709 138.483 106.709C138.688 106.709 138.891 106.714 139.094 106.723C138.697 105.187 138.486 103.576 138.486 101.917C138.486 101.371 138.51 100.83 138.555 100.296H123.19C122.282 100.296 121.419 100.098 120.642 99.7471C119.487 100.103 118.26 100.296 116.988 100.296C110.163 100.296 104.629 94.7756 104.629 87.9668C104.629 81.1581 110.163 75.6388 116.988 75.6387C117.162 75.6387 117.336 75.6423 117.508 75.6494C117.168 74.334 116.986 72.9546 116.986 71.5332C116.986 62.4548 124.365 55.0948 133.466 55.0947C140.095 55.0948 145.808 58.9998 148.424 64.6289C152.478 56.539 160.861 50.9835 170.545 50.9834C184.196 50.9834 195.263 62.0225 195.263 75.6396C195.263 76.6209 195.203 77.5887 195.091 78.54C196.987 78.1488 198.951 77.9434 200.963 77.9434C203.329 77.9434 205.628 78.2294 207.829 78.7656C209.318 67.7209 218.802 59.2045 230.281 59.2041C232.389 59.2041 234.429 59.4914 236.365 60.0283C233.808 55.5409 232.346 50.3511 232.346 44.8203C232.346 27.799 246.179 14.0003 263.242 14ZM278.235 186.585C273.216 195.052 263.973 200.732 253.397 200.732C251.593 200.732 249.828 200.565 248.115 200.249H242.511C243.917 203.637 244.694 207.35 244.694 211.244H257.094C265.665 211.244 272.703 217.805 273.462 226.179C278.052 222.421 284.157 219.218 290.778 216.344C290.125 214.842 289.762 213.185 289.762 211.443C289.762 211.162 289.771 210.882 289.79 210.604C288.218 210.118 286.925 207.683 286.413 204.423C283.215 206.629 280.116 207.464 278.823 206.271C277.531 205.076 278.434 202.208 280.821 199.251C276.875 198.72 274.046 197.284 274.046 195.596C274.046 193.907 276.876 192.47 280.823 191.939C279.221 189.955 278.286 188.01 278.235 186.585ZM188.253 202.904C185.842 206.223 179.676 208.873 171.785 210.019C172.322 210.737 172.829 211.454 173.307 212.165C175.008 211.569 176.836 211.244 178.74 211.244H187.021C187.021 208.344 187.452 205.544 188.253 202.904ZM302.542 198.721C301.747 198.943 300.866 199.125 299.919 199.252C299.932 199.269 299.945 199.286 299.958 199.303C300.66 199.179 301.383 199.115 302.121 199.115C302.295 199.115 302.468 199.119 302.641 199.126C302.606 198.992 302.573 198.856 302.542 198.721ZM282.132 174.384C281.828 178.024 280.845 181.472 279.309 184.601C280.793 183.924 283.565 184.799 286.414 186.765C286.989 183.117 288.543 180.502 290.369 180.502C292.196 180.503 293.749 183.119 294.323 186.769C297.522 184.561 300.624 183.727 301.917 184.921C303.208 186.116 302.305 188.982 299.919 191.938C300.78 192.054 301.587 192.215 302.324 192.41C303.168 187.11 306.552 182.654 311.192 180.321C309.184 178.284 306.989 176.347 304.548 174.384H282.132ZM229.708 104.408C229.768 105.167 229.8 105.935 229.8 106.709C229.8 107.997 229.712 109.265 229.548 110.509C230.615 110.389 231.7 110.327 232.799 110.327C240.03 110.327 246.638 112.982 251.7 117.368C251.63 116.519 251.595 115.661 251.595 114.794C251.595 111.15 252.23 107.653 253.395 104.408H229.708Z" fill="#AA5200"/>
<path d="M263.242 14L263.242 0.535119L263.242 0.535119L263.242 14ZM293.767 40.0273L280.464 42.1097C281.219 46.9374 284.531 50.9768 289.117 52.6641C293.703 54.3513 298.843 53.4216 302.548 50.2349L293.767 40.0273ZM308.556 34.5479L308.556 21.083L308.555 21.083L308.556 34.5479ZM331.214 57.1494L344.679 57.1496V57.1494H331.214ZM331.109 59.3057L317.705 58.0335C317.326 62.029 318.748 65.9854 321.586 68.8241C324.423 71.6629 328.378 73.088 332.374 72.711L331.109 59.3057ZM333.27 59.2041L333.27 45.7392L333.269 45.7392L333.27 59.2041ZM355.927 81.8047L369.392 81.8047L369.392 81.8044L355.927 81.8047ZM350.087 96.9482L340.107 87.9096C336.676 91.6982 335.685 97.1028 337.551 101.862C339.416 106.621 343.815 109.913 348.906 110.361L350.087 96.9482ZM365.824 107.988L353.615 113.666C355.793 118.35 360.459 121.375 365.625 121.452C370.79 121.528 375.544 118.643 377.86 114.025L365.824 107.988ZM391.628 92.0762L391.628 78.6113L391.628 78.6113L391.628 92.0762ZM420.465 120.842L433.93 120.842L433.93 120.842L420.465 120.842ZM391.628 149.607L391.628 163.072L391.628 163.072L391.628 149.607ZM386.783 149.2L389.024 135.923C386.783 135.545 384.482 135.74 382.337 136.491L386.783 149.2ZM384.394 149.607L384.394 163.072L384.395 163.072L384.394 149.607ZM375.071 149.607V136.143C371.278 136.143 367.66 137.743 365.108 140.55C362.556 143.357 361.307 147.11 361.667 150.887L375.071 149.607ZM375.176 151.776L388.641 151.777L388.641 151.776L375.176 151.776ZM354.578 174.284L353.373 160.873C346.431 161.497 341.113 167.315 341.113 174.284H354.578ZM354.578 174.384V187.849C362.015 187.849 368.043 181.82 368.043 174.384H354.578ZM334.905 174.384V160.919C330.833 160.919 326.979 162.762 324.423 165.933C321.867 169.103 320.883 173.26 321.747 177.24L334.905 174.384ZM335.327 176.319L322.176 179.208C322.377 180.122 322.672 181.013 323.058 181.866L335.327 176.319ZM338.026 181.859L326.152 188.207C328.172 191.986 331.869 194.577 336.109 195.187C340.35 195.797 344.628 194.352 347.631 191.297L338.026 181.859ZM355.678 174.461L355.678 160.996L355.678 160.996L355.678 174.461ZM380.396 199.117L393.86 199.117V199.117H380.396ZM355.678 223.773L355.678 237.238L355.678 237.238L355.678 223.773ZM351.521 223.424L353.764 210.147C351.52 209.768 349.217 209.964 347.069 210.716L351.521 223.424ZM349.47 223.773L349.47 237.238L349.47 237.238L349.47 223.773ZM333.55 223.773V210.309C332.696 210.309 331.844 210.39 331.005 210.551L333.55 223.773ZM313.95 227.545L311.406 214.323C310.573 214.483 309.758 214.721 308.97 215.035L313.95 227.545ZM277.497 256.521L264.199 254.411C264.088 255.109 264.032 255.815 264.032 256.521H277.497ZM277.497 262.532H264.032C264.032 263.783 264.207 265.028 264.55 266.231L277.497 262.532ZM278.876 267.358L265.929 271.057C266.394 272.684 267.161 274.208 268.19 275.55L278.876 267.358ZM286.737 277.613L298.542 271.136C298.213 270.537 297.839 269.964 297.423 269.421L286.737 277.613ZM288.46 281.108L276.17 286.61C278.339 291.455 283.152 294.573 288.46 294.573V281.108ZM324.769 281.108L324.769 267.644H324.769V281.108ZM332.987 289.327L346.452 289.327L346.452 289.326L332.987 289.327ZM324.769 297.546L324.769 311.011L324.769 311.011L324.769 297.546ZM320.364 297.546V284.081C316.315 284.081 312.481 285.903 309.924 289.042L320.364 297.546ZM293.587 330.421V343.886C297.636 343.886 301.47 342.064 304.027 338.924L293.587 330.421ZM217.375 330.421H203.91C203.91 337.857 209.939 343.886 217.375 343.886V330.421ZM217.375 311.998H230.84C230.84 304.562 224.811 298.533 217.375 298.533V311.998ZM217.374 311.998V298.533C209.938 298.533 203.909 304.562 203.909 311.998H217.374ZM217.374 330.421V343.886C224.81 343.886 230.839 337.857 230.839 330.421H217.374ZM141.162 330.421L130.722 338.924C133.279 342.064 137.113 343.886 141.162 343.886V330.421ZM114.385 297.546L124.825 289.042C122.268 285.903 118.434 284.081 114.385 284.081V297.546ZM102.291 289.327L88.8261 289.326V289.327H102.291ZM227.668 281.108V294.573C231.235 294.573 234.656 293.158 237.181 290.638L227.668 281.108ZM245.011 269.168L250.324 281.54C254.765 279.633 257.843 275.492 258.389 270.69L245.011 269.168ZM257.833 244.102L268.118 252.792C271.57 248.707 272.277 242.965 269.918 238.164C267.559 233.363 262.582 230.413 257.238 230.65L257.833 244.102ZM178.74 244.119L178.74 257.584H178.74V244.119ZM162.304 227.768L175.768 227.699C175.744 222.87 173.135 218.424 168.932 216.047L162.304 227.768ZM157.284 224.479L165.324 213.678C161.52 210.847 156.506 210.225 152.126 212.042C147.745 213.859 144.643 217.846 143.96 222.539L157.284 224.479ZM147.031 242.018L147.03 255.482L147.031 255.482L147.031 242.018ZM138.803 232.908L151.483 228.379C149.803 223.675 145.657 220.288 140.712 219.579C135.768 218.871 130.837 220.958 127.904 225.001L138.803 232.908ZM108.75 248.233L108.75 261.698L108.75 261.698L108.75 248.233ZM104.333 247.971L105.916 234.599C104.083 234.382 102.225 234.544 100.457 235.076L104.333 247.971ZM36.6807 248.234L36.6798 261.699H36.6807V248.234ZM35.1699 248.048L38.4395 234.986C36.7533 234.564 35.0014 234.472 33.2804 234.716L35.1699 248.048ZM32.5391 248.234L32.5391 261.699L32.5392 261.699L32.5391 248.234ZM14 229.741L0.535119 229.741V229.741H14ZM31.8887 211.261L32.3514 224.718C36.6411 224.57 40.6034 222.386 43.0189 218.838C45.4344 215.29 46.0137 210.803 44.5785 206.758L31.8887 211.261ZM30.4775 203.032L17.0127 203.032V203.032H30.4775ZM55.1943 178.376L55.1943 164.911L55.1942 164.911L55.1943 178.376ZM77.207 191.806L65.2295 197.957C67.4462 202.273 71.8133 205.063 76.6611 205.259C81.5089 205.456 86.0877 203.03 88.6467 198.908L77.207 191.806ZM80.6113 187.168L90.8162 195.952C94.6635 191.483 95.1547 185.03 92.0281 180.029L80.6113 187.168ZM76.2588 171.967L62.7939 171.967L62.7939 171.967L76.2588 171.967ZM105.096 143.201L105.096 129.736L105.096 129.736L105.096 143.201ZM109.702 143.567L107.573 156.863C111.979 157.568 116.448 156.046 119.506 152.797C122.565 149.548 123.815 144.995 122.845 140.64L109.702 143.567ZM109.211 139.091L95.7461 139.091L95.7461 139.091L109.211 139.091ZM124.172 119.321L127.841 132.277C133.054 130.8 136.874 126.343 137.536 120.966L124.172 119.321ZM138.483 106.709L138.484 93.2441L138.483 93.2441L138.483 106.709ZM139.094 106.723L138.535 120.176C142.795 120.353 146.887 118.502 149.567 115.185C152.247 111.869 153.197 107.479 152.13 103.351L139.094 106.723ZM138.486 101.917L125.021 101.917L125.021 101.917L138.486 101.917ZM138.555 100.296L151.972 101.422C152.287 97.6681 151.016 93.9542 148.466 91.1815C145.916 88.4089 142.322 86.831 138.555 86.831V100.296ZM123.19 100.296L123.19 113.761H123.19V100.296ZM120.642 99.7471L126.182 87.4747C123.191 86.1248 119.811 85.9131 116.675 86.8796L120.642 99.7471ZM116.988 100.296L116.988 113.761L116.988 113.761L116.988 100.296ZM104.629 87.9668L91.164 87.9664V87.9668H104.629ZM116.988 75.6387L116.988 62.1738L116.988 62.1738L116.988 75.6387ZM117.508 75.6494L116.953 89.1029C121.212 89.2785 125.303 87.427 127.982 84.1112C130.661 80.7953 131.611 76.4068 130.544 72.2797L117.508 75.6494ZM116.986 71.5332L103.521 71.5331L103.521 71.5335L116.986 71.5332ZM133.466 55.0947L133.466 41.6298L133.466 41.6298L133.466 55.0947ZM148.424 64.6289L136.213 70.3027C138.39 74.989 143.057 78.0157 148.224 78.0923C153.391 78.1689 158.146 75.2818 160.461 70.6621L148.424 64.6289ZM170.545 50.9834L170.545 37.5185L170.545 37.5185L170.545 50.9834ZM195.263 75.6396L208.728 75.6397L208.728 75.6396L195.263 75.6396ZM195.091 78.54L181.718 76.9689C181.213 81.2645 182.803 85.5411 185.991 88.4642C189.178 91.3874 193.576 92.6012 197.812 91.727L195.091 78.54ZM200.963 77.9434L200.963 64.4785L200.963 64.4785L200.963 77.9434ZM207.829 78.7656L204.641 91.8477C208.35 92.7514 212.267 92.0387 215.42 89.887C218.572 87.7352 220.664 84.3466 221.173 80.5639L207.829 78.7656ZM230.281 59.2041L230.281 45.7392L230.281 45.7392L230.281 59.2041ZM236.365 60.0283L232.766 73.0034C238.022 74.461 243.637 72.6046 246.988 68.3019C250.339 63.9992 250.764 58.0999 248.064 53.3616L236.365 60.0283ZM232.346 44.8203L218.881 44.8203L218.881 44.8204L232.346 44.8203ZM278.235 186.585L291.692 186.106C291.479 180.133 287.355 175.015 281.563 173.538C275.772 172.061 269.7 174.578 266.652 179.719L278.235 186.585ZM253.397 200.732L253.397 214.197L253.397 214.197L253.397 200.732ZM248.115 200.249L250.56 187.008C249.754 186.859 248.935 186.784 248.115 186.784V200.249ZM242.511 200.249V186.784C238.012 186.784 233.81 189.031 231.312 192.772C228.814 196.514 228.35 201.256 230.074 205.411L242.511 200.249ZM244.694 211.244L231.229 211.244C231.23 218.681 237.258 224.709 244.694 224.709V211.244ZM273.462 226.179L260.052 227.395C260.502 232.358 263.657 236.667 268.253 238.595C272.849 240.523 278.135 239.755 281.991 236.598L273.462 226.179ZM290.778 216.344L296.14 228.695C299.417 227.273 301.994 224.606 303.305 221.283C304.615 217.959 304.551 214.251 303.126 210.975L290.778 216.344ZM289.762 211.443L276.297 211.443L276.297 211.444L289.762 211.443ZM289.79 210.604L303.224 211.509C303.644 205.285 299.733 199.588 293.774 197.742L289.79 210.604ZM286.413 204.423L299.715 202.335C298.997 197.761 295.98 193.877 291.726 192.05C287.472 190.224 282.578 190.711 278.767 193.339L286.413 204.423ZM278.823 206.271L269.683 216.157L269.688 216.162L278.823 206.271ZM280.821 199.251L291.299 207.708C294.353 203.924 295.13 198.788 293.331 194.27C291.532 189.752 287.437 186.555 282.617 185.906L280.821 199.251ZM274.046 195.596L260.581 195.595L260.581 195.598L274.046 195.596ZM280.823 191.939L282.618 205.284C287.438 204.636 291.534 201.439 293.333 196.92C295.132 192.402 294.355 187.264 291.299 183.48L280.823 191.939ZM188.253 202.904L201.138 206.811C203.046 200.521 200.133 193.773 194.247 190.847C188.361 187.921 181.222 189.673 177.359 194.991L188.253 202.904ZM171.785 210.019L169.851 196.693C165.151 197.375 161.158 200.483 159.343 204.871C157.527 209.26 158.158 214.28 161.003 218.083L171.785 210.019ZM173.307 212.165L162.13 219.674C165.548 224.762 171.971 226.899 177.757 224.873L173.307 212.165ZM178.74 211.244L178.74 197.779L178.74 197.779L178.74 211.244ZM187.021 211.244V224.709C194.457 224.709 200.485 218.681 200.485 211.244L187.021 211.244ZM302.542 198.721L315.66 195.685C314.831 192.103 312.574 189.016 309.412 187.14C306.25 185.265 302.459 184.763 298.919 185.752L302.542 198.721ZM299.919 199.252L298.128 185.907C293.308 186.553 289.212 189.749 287.411 194.267C285.61 198.784 286.386 203.922 289.44 207.707L299.919 199.252ZM299.958 199.303L289.451 207.723C292.527 211.561 297.449 213.416 302.293 212.564L299.958 199.303ZM302.121 199.115L302.121 185.65H302.121V199.115ZM302.641 199.126L302.086 212.579C306.345 212.755 310.436 210.904 313.114 207.588C315.793 204.272 316.744 199.883 315.677 195.756L302.641 199.126ZM282.132 174.384V160.919C275.129 160.919 269.296 166.286 268.714 173.264L282.132 174.384ZM279.309 184.601L267.222 178.667C264.715 183.773 265.688 189.905 269.652 193.984C273.617 198.064 279.718 199.212 284.894 196.852L279.309 184.601ZM286.414 186.765L278.769 197.848C282.578 200.476 287.47 200.963 291.723 199.139C295.976 197.314 298.994 193.432 299.715 188.861L286.414 186.765ZM290.369 180.502L290.376 167.037L290.366 167.037L290.369 180.502ZM294.323 186.769L281.022 188.862C281.742 193.434 284.759 197.317 289.013 199.142C293.267 200.968 298.16 200.48 301.97 197.851L294.323 186.769ZM301.917 184.921L311.061 175.037L311.055 175.031L301.917 184.921ZM299.919 191.938L289.441 183.482C286.386 187.267 285.61 192.404 287.411 196.923C289.211 201.441 293.308 204.637 298.128 205.284L299.919 191.938ZM302.324 192.41L298.883 205.428C302.563 206.401 306.482 205.771 309.672 203.694C312.861 201.617 315.023 198.287 315.622 194.528L302.324 192.41ZM311.192 180.321L317.24 192.352C321.088 190.417 323.778 186.76 324.478 182.511C325.178 178.262 323.804 173.935 320.781 170.868L311.192 180.321ZM304.548 174.384L312.987 163.891C310.595 161.968 307.617 160.919 304.548 160.919V174.384ZM229.708 104.408V90.9433C225.952 90.9433 222.366 92.5123 219.818 95.2713C217.269 98.0303 215.988 101.729 216.285 105.473L229.708 104.408ZM229.8 106.709L243.265 106.709V106.709H229.8ZM229.548 110.509L216.199 108.742C215.656 112.848 217.033 116.976 219.932 119.934C222.831 122.892 226.93 124.351 231.046 123.89L229.548 110.509ZM232.799 110.327L232.799 96.8623L232.799 96.8623L232.799 110.327ZM251.7 117.368L242.883 127.545C247.02 131.129 252.915 131.852 257.796 129.374C262.677 126.896 265.572 121.71 265.119 116.255L251.7 117.368ZM251.595 114.794L238.13 114.794L238.13 114.794L251.595 114.794ZM253.395 104.408L266.069 108.955C267.548 104.83 266.928 100.243 264.406 96.6595C261.885 93.0758 257.777 90.9433 253.395 90.9433V104.408ZM263.242 14V27.4649C271.961 27.4649 279.169 33.8393 280.464 42.1097L293.767 40.0273L307.069 37.945C303.748 16.725 285.383 0.535119 263.242 0.535119V14ZM293.767 40.0273L302.548 50.2349C304.165 48.844 306.244 48.0128 308.556 48.0127L308.556 34.5479L308.555 21.083C299.563 21.0832 291.306 24.3823 284.985 29.8198L293.767 40.0273ZM308.556 34.5479V48.0127C313.665 48.0127 317.749 52.1353 317.749 57.1494H331.214H344.679C344.679 37.1987 328.474 21.083 308.556 21.083V34.5479ZM331.214 57.1494L317.749 57.1493C317.749 57.4185 317.735 57.7119 317.705 58.0335L331.109 59.3057L344.514 60.5778C344.618 59.4798 344.679 58.335 344.679 57.1496L331.214 57.1494ZM331.109 59.3057L332.374 72.711C332.667 72.6834 332.966 72.669 333.27 72.669L333.27 59.2041L333.269 45.7392C332.116 45.7392 330.973 45.7938 329.845 45.9003L331.109 59.3057ZM333.27 59.2041L333.269 72.669C338.378 72.669 342.462 76.7906 342.462 81.8049L355.927 81.8047L369.392 81.8044C369.391 61.8543 353.188 45.7393 333.27 45.7392L333.27 59.2041ZM355.927 81.8047H342.462C342.462 84.1564 341.585 86.2776 340.107 87.9096L350.087 96.9482L360.067 105.987C365.848 99.6041 369.392 91.1053 369.392 81.8047H355.927ZM350.087 96.9482L348.906 110.361C350.979 110.544 352.765 111.839 353.615 113.666L365.824 107.988L378.034 102.311C373.234 91.9887 363.183 84.5842 351.268 83.5352L350.087 96.9482ZM365.824 107.988L377.86 114.025C380.391 108.979 385.61 105.541 391.628 105.541L391.628 92.0762L391.628 78.6113C375.056 78.6113 360.721 88.13 353.789 101.951L365.824 107.988ZM391.628 92.0762L391.628 105.541C400.149 105.541 407 112.423 407 120.842L420.465 120.842L433.93 120.842C433.929 97.4874 414.959 78.6117 391.628 78.6113L391.628 92.0762ZM420.465 120.842L407 120.842C407 129.26 400.149 136.142 391.628 136.143L391.628 149.607L391.628 163.072C414.959 163.072 433.93 144.196 433.93 120.842L420.465 120.842ZM391.628 149.607L391.628 136.143C390.747 136.143 389.878 136.067 389.024 135.923L386.783 149.2L384.543 162.477C386.839 162.865 389.207 163.072 391.628 163.072L391.628 149.607ZM386.783 149.2L382.337 136.491C382.965 136.271 383.662 136.143 384.392 136.143L384.394 149.607L384.395 163.072C386.801 163.072 389.105 162.653 391.23 161.91L386.783 149.2ZM384.394 149.607V136.143H375.071V149.607V163.072H384.394V149.607ZM375.071 149.607L361.667 150.887C361.697 151.195 361.711 151.491 361.711 151.777L375.176 151.776L388.641 151.776C388.641 150.599 388.582 149.448 388.475 148.328L375.071 149.607ZM375.176 151.776L361.711 151.776C361.711 156.506 358.07 160.451 353.373 160.873L354.578 174.284L355.784 187.695C374.182 186.041 388.64 170.626 388.641 151.777L375.176 151.776ZM354.578 174.284H341.113V174.384H354.578H368.043V174.284H354.578ZM354.578 174.384V160.919H334.905V174.384V187.849H354.578V174.384ZM334.905 174.384L321.747 177.24C321.885 177.874 322.028 178.535 322.176 179.208L335.327 176.319L348.479 173.431C348.339 172.795 348.202 172.164 348.064 171.528L334.905 174.384ZM335.327 176.319L323.058 181.866C324.062 184.087 325.082 186.207 326.152 188.207L338.026 181.859L349.901 175.511C349.193 174.187 348.437 172.633 347.596 170.772L335.327 176.319ZM338.026 181.859L347.631 191.297C349.686 189.204 352.517 187.926 355.678 187.926L355.678 174.461L355.678 160.996C345.009 160.996 335.338 165.384 328.422 172.422L338.026 181.859ZM355.678 174.461L355.678 187.926C361.924 187.926 366.931 192.968 366.931 199.117H380.396H393.86C393.86 178.032 376.733 160.996 355.678 160.996L355.678 174.461ZM380.396 199.117L366.931 199.117C366.931 205.266 361.924 210.309 355.678 210.309L355.678 223.773L355.678 237.238C376.733 237.238 393.86 220.202 393.86 199.117L380.396 199.117ZM355.678 223.773L355.678 210.309C355.032 210.309 354.394 210.253 353.764 210.147L351.521 223.424L349.279 236.701C351.352 237.051 353.491 237.238 355.678 237.238L355.678 223.773ZM351.521 223.424L347.069 210.716C347.811 210.457 348.623 210.309 349.469 210.309L349.47 223.773L349.47 237.238C351.754 237.238 353.948 236.841 355.974 236.131L351.521 223.424ZM349.47 223.773V210.309H333.55V223.773V237.238H349.47V223.773ZM333.55 223.773L331.005 210.551L311.406 214.323L313.95 227.545L316.495 240.767L336.094 236.996L333.55 223.773ZM313.95 227.545L308.97 215.035C301.512 218.004 291.495 221.718 283.32 227.031C274.728 232.614 266.307 241.122 264.199 254.411L277.497 256.521L290.796 258.632C291.275 255.612 293.031 252.837 297.994 249.611C303.374 246.115 310.289 243.495 318.93 240.055L313.95 227.545ZM277.497 256.521H264.032V262.532H277.497H290.962V256.521H277.497ZM277.497 262.532L264.55 266.231L265.929 271.057L278.876 267.358L291.823 263.659L290.444 258.833L277.497 262.532ZM278.876 267.358L268.19 275.55L276.051 285.805L286.737 277.613L297.423 269.421L289.562 259.166L278.876 267.358ZM286.737 277.613L274.933 284.091C275.447 285.027 275.809 285.804 276.17 286.61L288.46 281.108L300.75 275.607C300.244 274.477 299.547 272.968 298.542 271.136L286.737 277.613ZM288.46 281.108V294.573H324.769V281.108V267.644H288.46V281.108ZM324.769 281.108L324.768 294.573C321.87 294.573 319.523 292.224 319.522 289.328L332.987 289.327L346.452 289.326C346.452 277.352 336.744 267.644 324.769 267.644L324.769 281.108ZM332.987 289.327H319.522C319.522 286.429 321.871 284.081 324.768 284.081L324.769 297.546L324.769 311.011C336.744 311.011 346.452 301.303 346.452 289.327H332.987ZM324.769 297.546V284.081H320.364V297.546V311.011H324.769V297.546ZM320.364 297.546L309.924 289.042L283.147 321.917L293.587 330.421L304.027 338.924L330.804 306.049L320.364 297.546ZM293.587 330.421V316.956H217.375V330.421V343.886H293.587V330.421ZM217.375 330.421H230.84V311.998H217.375H203.91V330.421H217.375ZM217.375 311.998V298.533H217.374V311.998V325.463H217.375V311.998ZM217.374 311.998H203.909V330.421H217.374H230.839V311.998H217.374ZM217.374 330.421V316.956H141.162V330.421V343.886H217.374V330.421ZM141.162 330.421L151.602 321.917L124.825 289.042L114.385 297.546L103.945 306.049L130.722 338.924L141.162 330.421ZM114.385 297.546V284.081H110.51V297.546V311.011H114.385V297.546ZM110.51 297.546V284.081C113.407 284.081 115.756 286.43 115.756 289.327H102.291H88.8261C88.8261 301.303 98.5342 311.011 110.51 311.011V297.546ZM102.291 289.327L115.756 289.328C115.756 292.224 113.408 294.573 110.51 294.573V281.108V267.644C98.5337 267.644 88.8268 277.352 88.8261 289.326L102.291 289.327ZM110.51 281.108V294.573H227.668V281.108V267.644H110.51V281.108ZM227.668 281.108L237.181 290.638C240.913 286.912 244.49 284.046 250.324 281.54L245.011 269.168L239.697 256.796C229.914 260.997 223.583 266.161 218.155 271.579L227.668 281.108ZM245.011 269.168L258.389 270.69C259.052 264.861 262.353 259.614 268.118 252.792L257.833 244.102L247.548 235.411C241.294 242.812 233.261 253.328 231.632 267.646L245.011 269.168ZM257.833 244.102L257.238 230.65C257.143 230.654 257.1 230.654 257.094 230.654V244.119V257.584C257.583 257.584 258.033 257.571 258.428 257.553L257.833 244.102ZM257.094 244.119V230.654H178.74V244.119V257.584H257.094V244.119ZM178.74 244.119L178.74 230.654C177.105 230.654 175.777 229.332 175.768 227.699L162.304 227.768L148.839 227.837C148.923 244.28 162.277 257.584 178.74 257.584L178.74 244.119ZM162.304 227.768L168.932 216.047C167.817 215.417 166.601 214.629 165.324 213.678L157.284 224.479L149.245 235.281C151.36 236.855 153.516 238.267 155.675 239.488L162.304 227.768ZM157.284 224.479L143.96 222.539C143.371 226.58 142.38 229.19 141.701 230.373C141.368 230.952 141.396 230.687 142.057 230.163C142.814 229.563 144.538 228.553 147.031 228.553L147.031 242.018L147.031 255.482C156.854 255.482 162.556 248.133 165.053 243.786C167.943 238.753 169.709 232.594 170.608 226.42L157.284 224.479ZM147.031 242.018L147.033 228.553C150.584 228.553 152.405 230.508 152.519 230.636C152.622 230.753 152.52 230.664 152.29 230.242C152.067 229.834 151.784 229.221 151.483 228.379L138.803 232.908L126.123 237.438C127.464 241.192 129.429 245.177 132.342 248.473C135.249 251.761 140.188 255.482 147.03 255.482L147.031 242.018ZM138.803 232.908L127.904 225.001C123.596 230.939 116.627 234.769 108.75 234.769L108.75 248.233L108.75 261.698C125.606 261.698 140.538 253.446 149.701 240.815L138.803 232.908ZM108.75 248.233V234.769C107.803 234.769 106.859 234.711 105.916 234.599L104.333 247.971L102.75 261.342C104.704 261.574 106.707 261.698 108.75 261.698V248.233ZM104.333 247.971L100.457 235.076C101.105 234.881 101.809 234.769 102.545 234.769V248.234V261.699C104.524 261.699 106.428 261.401 108.209 260.866L104.333 247.971ZM102.545 248.234V234.769H36.6807V248.234V261.699H102.545V248.234ZM36.6807 248.234L36.6815 234.769C37.2915 234.77 37.8828 234.847 38.4395 234.986L35.1699 248.048L31.9004 261.11C33.4243 261.491 35.0276 261.699 36.6798 261.699L36.6807 248.234ZM35.1699 248.048L33.2804 234.716C33.0276 234.752 32.7809 234.769 32.5389 234.769L32.5391 248.234L32.5392 261.699C34.0836 261.699 35.5933 261.587 37.0595 261.379L35.1699 248.048ZM32.5391 248.234V234.769C29.7053 234.769 27.4649 232.487 27.4649 229.741H14H0.535119C0.535119 247.422 14.8954 261.699 32.5391 261.699V248.234ZM14 229.741L27.4649 229.742C27.465 227.058 29.6104 224.812 32.3514 224.718L31.8887 211.261L31.4259 197.804C14.2923 198.393 0.53597 212.433 0.535119 229.741L14 229.741ZM31.8887 211.261L44.5785 206.758C44.1698 205.606 43.9424 204.358 43.9424 203.032H30.4775H17.0127C17.0127 207.477 17.7814 211.768 19.1989 215.763L31.8887 211.261ZM30.4775 203.032L43.9424 203.033C43.9425 196.883 48.9492 191.841 55.1945 191.841L55.1943 178.376L55.1942 164.911C34.1379 164.911 17.0131 181.948 17.0127 203.032L30.4775 203.032ZM55.1943 178.376V191.841C59.5617 191.841 63.3563 194.31 65.2295 197.957L77.207 191.806L89.1845 185.654C82.8682 173.356 70.022 164.911 55.1943 164.911V178.376ZM77.207 191.806L88.6467 198.908C89.2926 197.867 90.0185 196.879 90.8162 195.952L80.6113 187.168L70.4064 178.384C68.7038 180.362 67.1515 182.474 65.7673 184.704L77.207 191.806ZM80.6113 187.168L92.0281 180.029C90.5675 177.693 89.7237 174.947 89.7237 171.967L76.2588 171.967L62.7939 171.967C62.794 180.149 65.1394 187.821 69.1945 194.307L80.6113 187.168ZM76.2588 171.967H89.7237C89.7237 163.548 96.5745 156.666 105.096 156.666L105.096 143.201L105.096 129.736C81.7645 129.736 62.7939 148.612 62.7939 171.967H76.2588ZM105.096 143.201L105.096 156.666C105.941 156.666 106.768 156.734 107.573 156.863L109.702 143.567L111.831 130.272C109.637 129.92 107.386 129.736 105.096 129.736L105.096 143.201ZM109.702 143.567L122.845 140.64C122.735 140.148 122.676 139.632 122.676 139.091L109.211 139.091L95.7461 139.091C95.7461 141.625 96.0269 144.104 96.5594 146.495L109.702 143.567ZM109.211 139.091H122.676C122.676 135.893 124.829 133.13 127.841 132.277L124.172 119.321L120.503 106.366C106.243 110.405 95.7461 123.493 95.7461 139.091H109.211ZM124.172 119.321L137.536 120.966C137.587 120.551 137.977 120.174 138.484 120.174L138.483 106.709L138.483 93.2441C124.265 93.2442 112.506 103.874 110.808 117.677L124.172 119.321ZM138.483 106.709L138.483 120.174C138.47 120.174 138.467 120.174 138.476 120.174C138.485 120.174 138.504 120.175 138.535 120.176L139.094 106.723L139.653 93.2694C139.312 93.2552 138.916 93.2441 138.484 93.2441L138.483 106.709ZM139.094 106.723L152.13 103.351C152.016 102.913 151.951 102.435 151.951 101.917L138.486 101.917L125.021 101.917C125.022 104.717 125.377 107.461 126.058 110.094L139.094 106.723ZM138.486 101.917L151.951 101.917C151.951 101.758 151.958 101.593 151.972 101.422L138.555 100.296L125.137 99.1701C125.062 100.068 125.021 100.984 125.021 101.917L138.486 101.917ZM138.555 100.296V86.831H123.19V100.296V113.761H138.555V100.296ZM123.19 100.296L123.191 86.831C124.254 86.8311 125.276 87.0657 126.182 87.4747L120.642 99.7471L115.101 112.019C117.563 113.131 120.309 113.761 123.19 113.761L123.19 100.296ZM120.642 99.7471L116.675 86.8796C116.782 86.8466 116.892 86.831 116.988 86.831L116.988 100.296L116.988 113.761C119.629 113.761 122.192 113.359 124.608 112.615L120.642 99.7471ZM116.988 100.296L116.988 86.831C117.568 86.831 118.094 87.308 118.094 87.9668H104.629H91.164C91.164 102.243 102.757 113.761 116.988 113.761L116.988 100.296ZM104.629 87.9668L118.094 87.9672C118.094 88.6268 117.567 89.1035 116.988 89.1036L116.988 75.6387L116.988 62.1738C102.758 62.174 91.1644 73.6894 91.164 87.9664L104.629 87.9668ZM116.988 75.6387L116.988 89.1036C116.975 89.1036 116.963 89.1033 116.953 89.1029L117.508 75.6494L118.063 62.196C117.708 62.1813 117.35 62.1738 116.988 62.1738L116.988 75.6387ZM117.508 75.6494L130.544 72.2797C130.485 72.052 130.451 71.8044 130.451 71.5329L116.986 71.5332L103.521 71.5335C103.522 74.1047 103.85 76.6159 104.471 79.0192L117.508 75.6494ZM116.986 71.5332L130.451 71.5333C130.451 69.923 131.77 68.5596 133.466 68.5596L133.466 55.0947L133.466 41.6298C116.96 41.63 103.522 54.9867 103.521 71.5331L116.986 71.5332ZM133.466 55.0947L133.466 68.5596C134.674 68.5596 135.728 69.2591 136.213 70.3027L148.424 64.6289L160.635 58.9551C155.889 48.7405 145.515 41.6299 133.466 41.6298L133.466 55.0947ZM148.424 64.6289L160.461 70.6621C162.316 66.9622 166.139 64.4483 170.545 64.4483L170.545 50.9834L170.545 37.5185C155.583 37.5187 142.641 46.1158 136.386 58.5957L148.424 64.6289ZM170.545 50.9834V64.4483C176.791 64.4483 181.798 69.4905 181.798 75.6397L195.263 75.6396L208.728 75.6396C208.727 54.5545 191.601 37.5185 170.545 37.5185V50.9834ZM195.263 75.6396L181.798 75.6396C181.798 76.0706 181.771 76.5133 181.718 76.9689L195.091 78.54L208.464 80.1111C208.634 78.6641 208.728 77.1713 208.728 75.6397L195.263 75.6396ZM195.091 78.54L197.812 91.727C198.817 91.5197 199.869 91.4082 200.963 91.4082L200.963 77.9434L200.963 64.4785C198.032 64.4785 195.156 64.7779 192.369 65.3531L195.091 78.54ZM200.963 77.9434L200.963 91.4082C202.24 91.4083 203.47 91.5622 204.641 91.8477L207.829 78.7656L211.017 65.6835C207.787 64.8965 204.418 64.4785 200.963 64.4785L200.963 77.9434ZM207.829 78.7656L221.173 80.5639C221.77 76.1348 225.609 72.6691 230.282 72.669L230.281 59.2041L230.281 45.7392C211.994 45.7398 196.865 59.3071 194.485 76.9673L207.829 78.7656ZM230.281 59.2041V72.669C231.16 72.669 231.991 72.7882 232.766 73.0034L236.365 60.0283L239.964 47.0533C236.868 46.1946 233.617 45.7392 230.281 45.7392V59.2041ZM236.365 60.0283L248.064 53.3616C246.631 50.8476 245.811 47.9477 245.811 44.8203L232.346 44.8203L218.881 44.8204C218.881 52.7546 220.985 60.2341 224.667 66.695L236.365 60.0283ZM232.346 44.8203H245.811C245.811 35.2669 253.584 27.4651 263.242 27.4649L263.242 14L263.242 0.535119C238.774 0.535585 218.881 20.331 218.881 44.8203H232.346ZM278.235 186.585L266.652 179.719C263.962 184.258 259.032 187.268 253.397 187.268L253.397 200.732L253.397 214.197C268.914 214.197 282.471 205.847 289.818 193.451L278.235 186.585ZM253.397 200.732L253.398 187.268C252.427 187.268 251.48 187.178 250.56 187.008L248.115 200.249L245.67 213.49C248.176 213.953 250.76 214.197 253.397 214.197L253.397 200.732ZM248.115 200.249V186.784H242.511V200.249V213.714H248.115V200.249ZM242.511 200.249L230.074 205.411C230.815 207.195 231.229 209.157 231.229 211.244L244.694 211.244L258.159 211.244C258.159 205.542 257.018 200.078 254.947 195.087L242.511 200.249ZM244.694 211.244V224.709H257.094V211.244V197.779H244.694V211.244ZM257.094 211.244V224.709C258.634 224.709 259.916 225.893 260.052 227.395L273.462 226.179L286.872 224.963C285.49 209.718 272.696 197.779 257.094 197.779V211.244ZM273.462 226.179L281.991 236.598C285.142 234.019 289.902 231.403 296.14 228.695L290.778 216.344L285.417 203.992C278.412 207.033 270.963 210.823 264.933 215.76L273.462 226.179ZM290.778 216.344L303.126 210.975C303.193 211.127 303.227 211.295 303.227 211.443L289.762 211.443L276.297 211.444C276.297 215.075 277.058 218.556 278.43 221.713L290.778 216.344ZM289.762 211.443L303.227 211.444C303.227 211.469 303.226 211.491 303.224 211.509L289.79 210.604L276.356 209.7C276.317 210.273 276.297 210.854 276.297 211.443L289.762 211.443ZM289.79 210.604L293.774 197.742C295.924 198.408 297.358 199.542 298.156 200.335C298.953 201.125 299.368 201.818 299.542 202.137C299.87 202.743 299.8 202.876 299.715 202.335L286.413 204.423L273.111 206.511C273.538 209.23 274.371 212.211 275.867 214.97C277.155 217.347 280.118 221.705 285.806 223.467L289.79 210.604ZM286.413 204.423L278.767 193.339C278.045 193.837 277.946 193.732 278.626 193.562C278.974 193.474 280.015 193.247 281.516 193.405C283.08 193.57 285.629 194.227 287.959 196.379L278.823 206.271L269.688 216.162C275.546 221.573 282.679 220.309 285.182 219.681C288.534 218.84 291.583 217.214 294.059 215.506L286.413 204.423ZM278.823 206.271L287.964 196.384C290.385 198.622 291.361 201.357 291.618 203.433C291.851 205.321 291.518 206.682 291.363 207.213C291.062 208.239 290.781 208.35 291.299 207.708L280.821 199.251L270.344 190.794C268.475 193.109 266.549 196.133 265.522 199.63C264.691 202.464 263.285 210.243 269.683 216.157L278.823 206.271ZM280.821 199.251L282.617 185.906C281.616 185.772 281.601 185.611 282.26 185.96C282.588 186.134 283.645 186.73 284.761 188.028C285.955 189.417 287.51 192.008 287.511 195.593L274.046 195.596L260.581 195.598C260.583 204.442 267.576 208.656 269.648 209.754C272.708 211.376 276.08 212.199 279.025 212.596L280.821 199.251ZM274.046 195.596L287.511 195.596C287.511 199.182 285.955 201.774 284.762 203.163C283.646 204.461 282.588 205.056 282.26 205.23C281.602 205.579 281.617 205.419 282.618 205.284L280.823 191.939L279.028 178.595C276.082 178.991 272.709 179.814 269.648 181.436C267.576 182.535 260.582 186.749 260.581 195.595L274.046 195.596ZM280.823 191.939L291.299 183.48C291.015 183.128 290.983 183.012 291.074 183.2C291.124 183.304 291.246 183.573 291.369 183.999C291.489 184.412 291.657 185.135 291.692 186.106L278.235 186.585L264.779 187.064C264.987 192.902 268.16 197.689 270.347 200.398L280.823 191.939ZM188.253 202.904L177.359 194.991C177.832 194.34 178.173 194.138 178.017 194.248C177.882 194.343 177.487 194.591 176.74 194.913C175.224 195.567 172.898 196.251 169.851 196.693L171.785 210.019L173.719 223.344C178.562 222.641 183.265 221.427 187.408 219.64C191.295 217.963 195.927 215.25 199.147 210.818L188.253 202.904ZM171.785 210.019L161.003 218.083C161.397 218.61 161.772 219.141 162.13 219.674L173.307 212.165L184.483 204.656C183.886 203.766 183.248 202.863 182.568 201.954L171.785 210.019ZM173.307 212.165L177.757 224.873C178.054 224.769 178.379 224.709 178.74 224.709L178.74 211.244L178.74 197.779C175.293 197.779 171.961 198.37 168.857 199.457L173.307 212.165ZM178.74 211.244V224.709H187.021V211.244V197.779H178.74V211.244ZM187.021 211.244L200.485 211.244C200.485 209.688 200.716 208.204 201.138 206.811L188.253 202.904L175.367 198.997C174.189 202.884 173.556 207 173.556 211.244L187.021 211.244ZM302.542 198.721L298.919 185.752C298.761 185.797 298.494 185.858 298.128 185.907L299.919 199.252L301.71 212.597C303.237 212.392 304.733 212.089 306.165 211.689L302.542 198.721ZM299.919 199.252L289.44 207.707C289.395 207.651 289.356 207.602 289.323 207.56C289.29 207.518 289.262 207.482 289.241 207.454C289.22 207.427 289.203 207.405 289.193 207.391C289.188 207.385 289.184 207.379 289.181 207.376C289.179 207.373 289.178 207.371 289.178 207.372C289.178 207.372 289.178 207.372 289.179 207.372C289.179 207.372 289.179 207.373 289.179 207.373C289.18 207.374 289.181 207.376 289.183 207.378C289.186 207.382 289.19 207.388 289.196 207.395C289.202 207.403 289.209 207.412 289.217 207.423C289.226 207.434 289.235 207.447 289.247 207.462C289.269 207.491 289.298 207.529 289.331 207.572C289.365 207.615 289.405 207.666 289.451 207.723L299.958 199.303L310.465 190.882C310.548 190.986 310.613 191.07 310.65 191.118C310.668 191.143 310.683 191.162 310.691 191.172C310.697 191.181 310.703 191.189 310.699 191.183C310.697 191.181 310.687 191.167 310.674 191.151C310.661 191.133 310.641 191.107 310.617 191.075C310.569 191.012 310.493 190.915 310.398 190.797L299.919 199.252ZM299.958 199.303L302.293 212.564C302.22 212.577 302.161 212.58 302.121 212.58V199.115V185.65C300.605 185.65 299.101 185.782 297.623 186.042L299.958 199.303ZM302.121 199.115L302.121 212.58C302.108 212.58 302.096 212.58 302.086 212.579L302.641 199.126L303.196 185.673C302.841 185.658 302.482 185.65 302.121 185.65L302.121 199.115ZM302.641 199.126L315.677 195.756C315.679 195.763 315.678 195.762 315.675 195.749C315.672 195.737 315.667 195.716 315.66 195.685L302.542 198.721L289.424 201.757C289.471 201.962 289.532 202.216 289.604 202.496L302.641 199.126ZM282.132 174.384L268.714 173.264C268.552 175.197 268.033 177.014 267.222 178.667L279.309 184.601L291.395 190.534C293.656 185.929 295.104 180.852 295.55 175.503L282.132 174.384ZM279.309 184.601L284.894 196.852C282.86 197.779 281.109 197.866 280.183 197.834C279.224 197.801 278.598 197.625 278.389 197.561C277.995 197.44 278.164 197.432 278.769 197.848L286.414 186.765L294.06 175.681C291.815 174.132 289.174 172.704 286.31 171.822C283.973 171.103 278.965 169.959 273.723 172.349L279.309 184.601ZM286.414 186.765L299.715 188.861C299.819 188.202 299.901 188.498 299.363 189.365C299.081 189.82 298.378 190.832 297.031 191.821C295.591 192.878 293.303 193.966 290.372 193.967L290.369 180.502L290.366 167.037C282.514 167.039 278.116 172.532 276.481 175.166C274.566 178.252 273.584 181.68 273.113 184.668L286.414 186.765ZM290.369 180.502L290.363 193.967C287.431 193.965 285.142 192.876 283.703 191.818C282.356 190.828 281.654 189.817 281.372 189.362C280.835 188.496 280.918 188.201 281.022 188.862L294.323 186.769L307.624 184.676C307.154 181.687 306.174 178.259 304.26 175.172C302.627 172.539 298.23 167.041 290.376 167.037L290.369 180.502ZM294.323 186.769L301.97 197.851C302.691 197.354 302.791 197.459 302.11 197.63C301.762 197.717 300.722 197.944 299.22 197.786C297.657 197.621 295.109 196.963 292.779 194.811L301.917 184.921L311.055 175.031C305.197 169.619 298.064 170.881 295.559 171.509C292.205 172.35 289.154 173.976 286.676 175.686L294.323 186.769ZM301.917 184.921L292.773 194.804C290.353 192.566 289.378 189.831 289.122 187.756C288.889 185.868 289.222 184.507 289.377 183.976C289.678 182.951 289.959 182.84 289.441 183.482L299.919 191.938L310.397 200.395C312.265 198.08 314.19 195.058 315.217 191.562C316.049 188.728 317.455 180.953 311.061 175.037L301.917 184.921ZM299.919 191.938L298.128 205.284C298.458 205.328 298.712 205.383 298.883 205.428L302.324 192.41L305.766 179.392C304.462 179.048 303.102 178.78 301.71 178.593L299.919 191.938ZM302.324 192.41L315.622 194.528C315.766 193.624 316.362 192.793 317.24 192.352L311.192 180.321L305.145 168.291C296.742 172.515 290.571 180.596 289.027 190.292L302.324 192.41ZM311.192 180.321L320.781 170.868C318.324 168.376 315.723 166.093 312.987 163.891L304.548 174.384L296.109 184.876C298.255 186.602 300.043 188.192 301.604 189.774L311.192 180.321ZM304.548 174.384V160.919H282.132V174.384V187.849H304.548V174.384ZM229.708 104.408L216.285 105.473C216.318 105.889 216.335 106.301 216.335 106.709H229.8H243.265C243.265 105.568 243.218 104.445 243.131 103.343L229.708 104.408ZM229.8 106.709L216.335 106.709C216.335 107.387 216.289 108.065 216.199 108.742L229.548 110.509L242.896 112.275C243.136 110.465 243.265 108.607 243.265 106.709L229.8 106.709ZM229.548 110.509L231.046 123.89C231.623 123.825 232.208 123.792 232.799 123.792L232.799 110.327L232.799 96.8623C231.191 96.8623 229.607 96.9532 228.05 97.1275L229.548 110.509ZM232.799 110.327L232.799 123.792C236.672 123.792 240.178 125.201 242.883 127.545L251.7 117.368L260.518 107.192C253.099 100.764 243.387 96.8623 232.799 96.8623L232.799 110.327ZM251.7 117.368L265.119 116.255C265.08 115.785 265.06 115.298 265.06 114.794L251.595 114.794L238.13 114.794C238.13 116.024 238.18 117.254 238.281 118.482L251.7 117.368ZM251.595 114.794H265.06C265.06 112.726 265.419 110.766 266.069 108.955L253.395 104.408L240.72 99.8616C239.042 104.54 238.13 109.573 238.13 114.794H251.595ZM253.395 104.408V90.9433H229.708V104.408V117.873H253.395V104.408Z" fill="white" mask="url(#path-1-outside-1_805_3450)"/>
<path d="M245.014 269.169C230.764 275.289 226.018 283.608 215.708 293.506V311.998H304.278V291.452C287.574 285.477 291.35 286.012 286.741 277.614L278.88 267.359L277.501 262.533V256.522C280.089 240.213 297.855 233.954 313.954 227.545L355.929 219.468C363.373 210.689 365.724 204.221 355.929 196.867C344.957 193.359 340.78 188.372 335.331 176.32C329.067 147.799 328.318 137.526 333.272 131.117L343.57 114.68C345.582 98.5908 344.44 92.1104 339.451 83.8594H333.272C335.112 95.3314 335.353 101.689 331.212 112.625L320.913 122.898C317.231 135.524 315.406 142.814 316.793 159.883C309.637 152.744 303.992 148.326 290.016 139.336L197.326 118.789C186.267 107.208 181.459 99.6203 176.728 83.8594L168.489 87.9687C171.763 107.113 175.724 117.379 184.967 135.226L296.195 168.101C310.781 178.592 318.2 185.218 325.032 203.031C308.025 210.683 278.619 217.665 268.599 231.165C260.811 242.113 246.885 252.719 245.014 269.169Z" fill="#935722"/>
<path d="M170.547 50.9844C184.198 50.9844 195.265 62.0234 195.265 75.6406C195.265 89.2578 184.198 100.297 170.547 100.297C169.131 100.297 167.742 100.176 166.391 99.9473C165.749 100.172 165.058 100.297 164.339 100.297H123.193C122.284 100.297 121.422 100.099 120.644 99.748C119.489 100.104 118.262 100.297 116.991 100.297C110.165 100.297 104.631 94.7767 104.631 87.9678C104.631 81.159 110.165 75.6396 116.991 75.6396C117.165 75.6397 117.338 75.6433 117.51 75.6504C117.17 74.3349 116.989 72.9556 116.989 71.5342C116.989 62.4557 124.367 55.0957 133.468 55.0957C140.097 55.0958 145.811 59.0007 148.426 64.6299C152.481 56.5399 160.863 50.9844 170.547 50.9844Z" fill="#2A4634"/>
<path d="M355.68 174.461C369.331 174.461 380.397 185.5 380.397 199.117C380.397 212.734 369.331 223.773 355.68 223.773C354.263 223.773 352.875 223.652 351.523 223.424C350.881 223.649 350.191 223.773 349.472 223.773H308.325C307.416 223.773 306.554 223.576 305.776 223.225C304.622 223.581 303.395 223.773 302.123 223.773C295.297 223.773 289.764 218.253 289.764 211.444C289.764 204.636 295.297 199.116 302.123 199.116C302.297 199.116 302.47 199.12 302.643 199.127C302.302 197.811 302.121 196.432 302.121 195.01C302.121 185.931 309.499 178.571 318.601 178.571C325.23 178.571 330.943 182.477 333.559 188.106C337.613 180.016 345.996 174.461 355.68 174.461Z" fill="#63906F"/>
<path d="M391.63 92.0762C407.556 92.0762 420.466 104.955 420.466 120.842C420.466 136.729 407.556 149.607 391.63 149.607C389.978 149.607 388.36 149.466 386.785 149.2C386.036 149.462 385.233 149.607 384.395 149.607H336.39C335.33 149.607 334.324 149.377 333.417 148.968C332.068 149.384 330.635 149.608 329.15 149.608C321.187 149.608 314.731 143.168 314.731 135.225C314.731 127.281 321.187 120.842 329.15 120.842C329.355 120.842 329.559 120.847 329.761 120.855C329.364 119.319 329.153 117.708 329.153 116.048C329.153 105.457 337.76 96.8704 348.378 96.8701C356.109 96.8701 362.773 101.424 365.826 107.988C370.558 98.5542 380.335 92.0762 391.63 92.0762Z" fill="#2A4634"/>
<path d="M263.245 14C278.674 14 291.461 25.2821 293.769 40.0273C297.738 36.6131 302.906 34.5479 308.558 34.5479C321.072 34.5479 331.216 44.667 331.216 57.1494C331.216 57.8768 331.179 58.5959 331.112 59.3057C331.823 59.2386 332.543 59.2041 333.272 59.2041C345.785 59.2041 355.929 69.3225 355.929 81.8047C355.929 93.5945 346.88 103.274 335.331 104.312V104.408H228.223V104.312C216.676 103.274 207.626 93.5941 207.626 81.8047C207.627 69.3226 217.77 59.2043 230.284 59.2041C232.391 59.2041 234.432 59.4913 236.368 60.0283C233.81 55.5408 232.348 50.3512 232.348 44.8203C232.348 27.7989 246.181 14.0001 263.245 14Z" fill="#1E3C2C"/>
<path d="M282.494 83.9727C297.923 83.9727 310.71 95.2548 313.018 110C316.987 106.586 322.155 104.522 327.807 104.521C340.32 104.521 350.465 114.641 350.465 127.123C350.465 127.849 350.429 128.568 350.362 129.276C351.072 129.209 351.793 129.175 352.521 129.175C365.034 129.175 375.178 139.293 375.178 151.775C375.178 163.565 366.129 173.245 354.58 174.283V174.381H247.472V174.283C235.924 173.244 226.875 163.565 226.875 151.775C226.876 139.293 237.019 129.175 249.533 129.175C251.639 129.175 253.679 129.461 255.615 129.998C253.058 125.511 251.597 120.323 251.597 114.793C251.597 97.7715 265.43 83.9728 282.494 83.9727Z" fill="#2A4634"/>
<path d="M191.684 101.979C202.029 101.979 211.1 107.414 216.189 115.577C220.885 112.27 226.615 110.327 232.801 110.327C248.727 110.327 261.639 123.206 261.639 139.093C261.639 140.856 261.478 142.583 261.173 144.259C273.323 147.644 282.236 158.767 282.236 171.967C282.236 187.853 269.326 200.732 253.399 200.732C251.595 200.732 249.83 200.565 248.117 200.249H110.38C108.667 200.565 106.902 200.732 105.098 200.732C89.1716 200.732 76.2609 187.853 76.2608 171.967C76.2608 156.08 89.1715 143.201 105.098 143.201C106.666 143.201 108.204 143.327 109.704 143.567C109.383 142.126 109.213 140.628 109.213 139.091C109.213 127.743 118.435 118.543 129.812 118.543C135.942 118.543 141.445 121.215 145.219 125.454C148.206 121.271 153.109 118.543 158.65 118.543C160.903 118.543 163.049 118.994 165.005 119.811C169.319 109.347 179.638 101.979 191.684 101.979Z" fill="#2A4634"/>
<path d="M215.86 182.479C231.786 182.479 244.696 195.357 244.696 211.244H257.096C266.174 211.244 273.533 218.603 273.533 227.682C273.533 236.76 266.174 244.119 257.096 244.119H178.742C169.664 244.119 162.305 236.76 162.305 227.682C162.305 218.603 169.664 211.244 178.742 211.244H187.023C187.023 195.357 199.933 182.479 215.86 182.479Z" fill="#1E3C2C"/>
<path d="M108.752 174.266C129.229 174.266 145.828 190.824 145.828 211.25C145.828 231.676 129.229 248.234 108.752 248.234C107.257 248.234 105.784 248.143 104.335 247.972C103.769 248.142 103.169 248.235 102.547 248.235H36.6827C36.1615 248.235 35.6556 248.17 35.1719 248.049C34.3125 248.171 33.4343 248.235 32.5411 248.235C22.3023 248.235 14.002 239.956 14.002 229.742C14.0023 219.746 21.9533 211.603 31.8907 211.262C30.9775 208.688 30.4796 205.919 30.4796 203.033C30.4796 189.416 41.5454 178.377 55.1964 178.377C64.794 178.377 73.1143 183.834 77.209 191.807C83.7444 181.279 95.4265 174.266 108.752 174.266Z" fill="#63906F"/>
<path d="M200.967 77.9434C216.893 77.9434 229.804 90.8222 229.804 106.709C229.804 122.596 216.893 135.475 200.967 135.475C199.316 135.475 197.699 135.334 196.124 135.068C195.376 135.33 194.572 135.475 193.734 135.475H145.729C144.669 135.475 143.662 135.244 142.755 134.834C141.407 135.25 139.974 135.475 138.489 135.475C130.526 135.475 124.07 129.034 124.07 121.091C124.07 113.147 130.526 106.708 138.489 106.708C138.694 106.708 138.897 106.712 139.1 106.721C138.703 105.186 138.492 103.576 138.492 101.917C138.492 91.3257 147.099 82.7395 157.717 82.7393C165.447 82.7393 172.111 87.2911 175.164 93.8535C179.896 84.4205 189.673 77.9434 200.967 77.9434Z" fill="#63906F"/>
<rect x="102.293" y="281.111" width="230.696" height="16.4374" rx="8.21872" fill="#526873"/>
<path d="M217.38 330.424H141.169L114.391 297.549H217.38V330.424ZM320.371 297.549L293.593 330.424H217.381V297.549H320.371Z" fill="#3F5058"/>
<path d="M147.042 157.57C151.779 157.57 155.805 164.888 157.294 175.098C165.583 168.93 173.616 166.598 176.965 169.938C180.314 173.28 177.972 181.297 171.785 189.568C182.025 191.052 189.365 195.071 189.365 199.797C189.365 204.521 182.03 208.537 171.796 210.022C177.983 218.293 180.325 226.311 176.976 229.652C173.625 232.994 165.588 230.658 157.296 224.485C155.808 234.701 151.78 242.024 147.042 242.024C142.303 242.024 138.275 234.699 136.788 224.481C128.493 230.658 120.452 232.997 117.101 229.654C113.751 226.313 116.092 218.295 122.279 210.023C112.042 208.539 104.703 204.522 104.703 199.797C104.703 195.069 112.048 191.049 122.293 189.566C116.106 181.295 113.764 173.278 117.113 169.937C120.463 166.595 128.498 168.931 136.789 175.101C138.278 164.89 142.305 157.571 147.042 157.57Z" fill="#F9C665"/>
<ellipse cx="147.041" cy="199.798" rx="14.8738" ry="14.837" fill="#AA5200"/>
<path d="M315.16 68.291C319.221 68.291 322.672 74.5668 323.948 83.3213C331.054 78.0325 337.943 76.0316 340.814 78.8955C343.685 81.7594 341.678 88.6294 336.377 95.7178C345.153 96.9898 351.445 100.433 351.445 104.484C351.445 108.536 345.151 111.979 336.373 113.251C341.677 120.341 343.685 127.214 340.813 130.078C337.942 132.942 331.053 130.94 323.947 125.65C322.671 134.404 319.221 140.679 315.16 140.679C311.099 140.678 307.646 134.403 306.371 125.649C299.263 130.94 292.375 132.943 289.504 130.079C286.632 127.214 288.639 120.341 293.944 113.251C285.167 111.979 278.876 108.535 278.876 104.484C278.876 100.434 285.167 96.99 293.942 95.7178C288.638 88.628 286.631 81.756 289.503 78.8916C292.374 76.0275 299.263 78.0298 306.371 83.3203C307.646 74.5666 311.099 68.2916 315.16 68.291Z" fill="#F9C665"/>
<ellipse cx="315.163" cy="104.485" rx="12.749" ry="12.7174" fill="#AA5200"/>
<path d="M170.626 75.5332C173.4 75.5333 175.759 79.5053 176.631 85.0469C181.487 81.6979 186.193 80.4314 188.154 82.2451C190.117 84.0593 188.745 88.4109 185.12 92.9014C191.125 93.7055 195.43 95.8885 195.431 98.4561C195.431 101.022 191.13 103.203 185.131 104.009C188.753 108.498 190.124 112.848 188.162 114.662C186.2 116.477 181.49 115.208 176.632 111.855C175.761 117.403 173.402 121.381 170.626 121.381C167.85 121.38 165.49 117.403 164.619 111.854C159.763 115.204 155.057 116.473 153.095 114.659C151.133 112.846 152.503 108.495 156.124 104.007C150.133 103.2 145.839 101.02 145.839 98.4561C145.839 95.8906 150.138 93.7091 156.135 92.9033C152.509 88.4122 151.136 84.0588 153.099 82.2441C155.061 80.4306 159.766 81.6975 164.621 85.0459C165.494 79.5049 167.852 75.5336 170.626 75.5332Z" fill="#F9C665"/>
<ellipse cx="170.634" cy="98.4555" rx="8.71263" ry="8.0551" fill="#AA5200"/>
<path d="M290.376 180.502C292.203 180.503 293.755 183.119 294.329 186.768C297.527 184.561 300.628 183.727 301.921 184.921C303.213 186.116 302.309 188.983 299.922 191.94C303.874 192.47 306.708 193.907 306.708 195.598C306.708 197.288 303.875 198.724 299.925 199.254C302.308 202.209 303.21 205.072 301.919 206.266C300.627 207.46 297.529 206.626 294.331 204.421C293.758 208.075 292.204 210.695 290.376 210.696C288.547 210.696 286.992 208.076 286.419 204.421C283.22 206.628 280.12 207.465 278.827 206.271C277.535 205.076 278.437 202.209 280.823 199.252C276.878 198.721 274.05 197.286 274.05 195.598C274.05 193.908 276.88 192.471 280.829 191.94C278.439 188.982 277.535 186.113 278.827 184.918C280.12 183.723 283.221 184.558 286.42 186.766C286.995 183.117 288.549 180.502 290.376 180.502Z" fill="#F9C665"/>
<ellipse cx="290.376" cy="195.594" rx="5.73758" ry="5.30458" fill="#AA5200"/>
<path d="M344.157 334.913C375.762 334.913 401.383 360.534 401.383 392.139C401.383 423.743 375.762 449.364 344.157 449.364H90.3105C58.7056 449.364 33.0849 423.744 33.0849 392.139C33.085 360.534 58.7057 334.913 90.3105 334.913H344.157Z" fill="#40634C" stroke="white" stroke-width="11.2207"/>
<path d="M96.6111 421.433C93.0575 421.433 90.7634 419.363 90.7634 416.08C90.7634 415.18 90.9883 413.921 91.5281 412.526L110.376 361.291C111.95 356.972 114.559 354.993 118.788 354.993C123.061 354.993 125.67 356.882 127.289 361.246L146.182 412.526C146.722 414.01 146.947 415.045 146.947 416.08C146.947 419.229 144.518 421.433 141.144 421.433C137.995 421.433 136.241 419.993 135.206 416.53L130.933 404.114H106.687L102.414 416.44C101.334 419.948 99.625 421.433 96.6111 421.433ZM109.431 394.938H128.099L118.878 367.228H118.563L109.431 394.938ZM160.778 437.627C157.495 437.627 155.201 435.512 155.201 431.734V377.799C155.201 374.111 157.45 372.041 160.643 372.041C163.837 372.041 166.131 374.111 166.131 377.799V381.218H166.356C169.055 375.685 174.453 372.176 181.381 372.176C193.481 372.176 201.173 381.578 201.173 396.827C201.173 412.031 193.526 421.433 181.56 421.433C174.633 421.433 169.235 418.104 166.626 412.751H166.401V431.734C166.401 435.512 164.062 437.627 160.778 437.627ZM177.962 412.256C185.204 412.256 189.702 406.273 189.702 396.827C189.702 387.426 185.204 381.398 177.962 381.398C170.99 381.398 166.356 387.561 166.311 396.827C166.356 406.183 170.99 412.256 177.962 412.256ZM215.139 366.284C211.676 366.284 208.932 363.585 208.932 360.211C208.932 356.792 211.676 354.138 215.139 354.138C218.648 354.138 221.392 356.792 221.392 360.211C221.392 363.585 218.648 366.284 215.139 366.284ZM215.139 421.568C211.721 421.568 209.561 419.318 209.561 415.675V377.934C209.561 374.336 211.721 372.041 215.139 372.041C218.558 372.041 220.762 374.336 220.762 377.979V415.675C220.762 419.318 218.558 421.568 215.139 421.568ZM252.047 421.613C238.102 421.613 229.106 412.166 229.106 396.872C229.106 381.668 238.057 371.996 251.957 371.996C261.313 371.996 269.275 376.81 271.57 383.512C271.929 384.457 272.154 385.401 272.154 386.211C272.154 389 270.04 390.709 267.341 390.709C265.092 390.709 263.742 389.765 262.438 387.516C260.054 383.152 256.905 381.083 252.272 381.083C245.075 381.083 240.486 387.066 240.486 396.827C240.486 406.723 245.12 412.571 252.227 412.571C257.175 412.571 260.234 410.277 262.393 406.453C263.922 403.934 265.137 402.99 267.566 402.99C270.22 402.99 272.289 404.789 272.289 407.578C272.289 408.433 272.064 409.377 271.614 410.457C268.961 416.979 261.044 421.613 252.047 421.613ZM294.757 421.433C285.536 421.433 278.833 415.63 278.833 407.038C278.833 398.581 285.356 393.498 296.961 392.779L309.602 392.059V388.64C309.602 383.647 306.228 380.768 300.695 380.768C296.332 380.768 293.498 382.253 290.709 386.346C289.539 387.875 288.055 388.595 286.166 388.595C283.422 388.595 281.442 386.796 281.442 384.097C281.442 383.062 281.712 382.073 282.207 381.038C284.636 375.505 292.013 371.996 301.145 371.996C312.975 371.996 320.667 378.249 320.667 387.83V415.945C320.667 419.543 318.373 421.568 315.225 421.568C312.166 421.568 310.052 419.723 309.872 416.395V413.066H309.647C306.903 418.239 300.92 421.433 294.757 421.433ZM298.176 412.976C304.474 412.976 309.602 408.747 309.602 402.99V399.346L298.536 400.021C293.138 400.381 290.034 402.81 290.034 406.588C290.034 410.502 293.318 412.976 298.176 412.976ZM336.568 421.568C333.284 421.568 330.945 419.453 330.945 415.675V360.751C330.945 356.972 333.284 354.858 336.568 354.858C339.852 354.858 342.146 356.972 342.146 360.751V415.675C342.146 419.453 339.852 421.568 336.568 421.568Z" fill="white"/>
</svg>
