<svg width="1512" height="720" viewBox="0 0 1512 720" fill="none" xmlns="http://www.w3.org/2000/svg">
<rect width="1512" height="720" fill="white"/>
<path d="M857.928 483.234C862.847 457.095 876.399 432.403 893.616 411.376C902.297 400.814 911.894 391.024 922.07 382.054C927.134 377.472 932.391 373.18 937.744 369.032C940.396 366.91 943.097 364.885 945.846 362.908L949.945 359.869L954.43 356.831C966.391 349.115 978.254 342.845 989.877 336.865C1001.45 330.788 1012.83 325.146 1023.49 318.973C1034.15 312.848 1044.37 306.579 1052.81 299.489C1061.49 292.545 1068.15 284.877 1072.1 277.016C1074.08 273.109 1075.34 269.106 1076.06 264.862C1076.49 262.789 1076.49 260.57 1076.64 258.352C1076.49 256.085 1076.54 253.77 1076.2 251.552C1075.67 247.018 1074.47 242.196 1072.68 237.276C1071.77 234.817 1070.75 232.357 1069.6 229.85C1068.49 227.438 1067.09 224.545 1066.03 222.857C1061.83 214.947 1054.89 208.678 1046.5 204.048C1042.25 201.782 1037.57 200.19 1032.7 198.936C1027.78 197.923 1022.72 197.152 1017.56 197.248C1007.24 197.441 996.822 199.708 987.321 204.868C977.917 209.932 969.332 217.262 962.966 226.667C956.745 236.071 952.357 247.259 951.103 259.316C949.945 271.373 951.585 284.153 956.311 296.547C947.63 286.613 941.457 273.736 939.239 259.75C936.972 245.764 938.901 230.814 944.351 217.021C950.042 203.277 959.639 190.834 971.888 181.478C974.927 179.115 978.206 177.138 981.486 175.016C984.958 173.279 988.382 171.254 992.047 169.952C999.233 166.865 1006.95 164.936 1014.76 163.827C1022.57 162.718 1030.58 162.814 1038.54 163.586C1046.5 164.695 1054.4 166.672 1062.07 169.759C1077.31 175.98 1091.25 187.121 1100.46 201.637C1103.02 205.399 1104.56 208.292 1106.35 211.764C1108.08 215.14 1109.67 218.613 1111.17 222.182C1114.11 229.416 1116.52 237.18 1117.87 245.523C1120.52 261.969 1117.97 280.536 1110.2 296.065C1102.2 311.449 1090.77 323.313 1078.95 332.38C1073.02 336.962 1066.9 341.013 1060.77 344.63C1054.65 348.295 1048.52 351.671 1042.3 354.613C1029.95 360.689 1017.66 365.946 1005.6 370.817L987.851 378.196C982.064 380.607 976.422 383.066 971.117 385.719L967.259 387.744L963.159 390.011C960.362 391.506 957.662 393.05 954.913 394.593C952.164 396.136 949.463 397.728 946.81 399.367C944.11 400.959 941.457 402.598 938.805 404.286C928.243 410.99 917.971 418.176 908.277 426.085C888.89 441.807 871.528 460.471 857.928 483.234Z" fill="#B31D20"/>
<path d="M974.926 492.418C974.926 492.418 981.389 433.243 1040.61 420.222C1099.83 407.201 1138.17 404.066 1151.34 360.951C1151.34 360.951 1143.33 443.853 1072.59 448.097C1001.89 452.341 975.794 543.008 975.794 543.008C975.794 543.008 971.165 518.171 974.926 492.418Z" fill="#B31D20"/>
<path d="M935.862 436.455C935.862 436.455 956.31 493.411 933.161 508.795C910.012 524.18 866.801 533.873 868.199 557.794C868.199 557.794 860.917 491.964 896.702 482.463C932.486 472.963 935.862 436.455 935.862 436.455Z" fill="#B31D20"/>
<path d="M1113.87 340.338C1113.87 340.338 1146.47 307.736 1142.85 270.023C1142.66 267.997 1144.93 266.647 1146.47 267.949C1153.75 274.122 1168.12 292.159 1172.66 340.627C1173.19 346.173 1167.64 350.224 1162.43 348.295C1153.75 345.112 1138.8 341.64 1113.87 340.338Z" fill="#B31D20"/>
<path d="M655.639 483.234C650.721 457.095 637.17 432.403 619.955 411.376C611.275 400.814 601.679 391.024 591.504 382.054C586.44 377.472 581.184 373.18 575.831 369.032C573.179 366.91 570.478 364.885 567.729 362.908L563.631 359.869L559.146 356.831C547.186 349.115 535.324 342.845 523.702 336.865C512.128 330.788 500.747 325.146 490.09 318.973C479.432 312.848 469.209 306.579 460.77 299.489C452.089 292.545 445.435 284.877 441.481 277.016C439.504 273.109 438.25 269.106 437.527 264.862C437.093 262.789 437.093 260.57 436.948 258.352C437.093 256.085 437.045 253.77 437.383 251.552C437.913 247.018 439.119 242.196 440.903 237.276C441.82 234.817 442.833 232.357 443.99 229.85C445.099 227.438 446.498 224.545 447.559 222.857C451.755 214.947 458.699 208.678 467.091 204.048C471.335 201.782 476.013 200.19 480.883 198.936C485.802 197.923 490.866 197.152 496.026 197.248C506.346 197.441 516.762 199.708 526.262 204.868C535.666 209.932 544.25 217.262 550.615 226.667C556.836 236.071 561.224 247.259 562.477 259.316C563.634 271.373 561.994 284.153 557.267 296.547C565.948 286.613 572.122 273.736 574.34 259.75C576.608 245.764 574.679 230.814 569.23 217.021C563.54 203.277 553.944 190.834 541.695 181.478C538.657 179.115 535.378 177.138 532.099 175.016C528.627 173.279 525.203 171.254 521.538 169.952C514.352 166.865 506.637 164.936 498.824 163.827C491.012 162.718 483.007 162.814 475.049 163.586C467.092 164.695 459.183 166.672 451.516 169.759C436.276 175.98 422.339 187.121 413.127 201.637C410.571 205.399 409.028 208.292 407.244 211.764C405.507 215.14 403.916 218.613 402.421 222.182C399.479 229.416 397.067 237.18 395.717 245.523C393.064 261.969 395.619 280.536 403.383 296.065C411.387 311.449 422.816 323.313 434.631 332.38C440.562 336.962 446.687 341.013 452.811 344.63C458.935 348.295 465.06 351.671 471.28 354.613C483.626 360.689 495.923 365.946 507.979 370.817L525.725 378.196C531.512 380.607 537.154 383.066 542.459 385.719L546.317 387.744L550.416 390.011C553.213 391.506 555.914 393.05 558.662 394.593C561.411 396.136 564.112 397.728 566.764 399.367C569.464 400.959 572.117 402.598 574.769 404.286C585.33 410.99 595.601 418.176 605.294 426.085C624.68 441.807 642.04 460.471 655.639 483.234Z" fill="#B31D20"/>
<path d="M538.648 492.418C538.648 492.418 532.188 433.243 472.968 420.222C413.748 407.201 375.409 404.066 362.245 360.951C362.245 360.951 370.248 443.853 440.994 448.097C511.692 452.341 537.778 543.008 537.778 543.008C537.778 543.008 542.409 518.171 538.648 492.418Z" fill="#B31D20"/>
<path d="M577.721 436.455C577.721 436.455 557.272 493.411 580.419 508.795C603.566 524.18 646.775 533.873 645.376 557.794C645.376 557.794 652.66 491.964 616.878 482.463C581.047 472.866 577.721 436.455 577.721 436.455Z" fill="#B31D20"/>
<path d="M399.662 340.338C399.662 340.338 367.063 307.736 370.681 270.023C370.874 267.997 368.608 266.647 367.065 267.949C359.782 274.122 345.411 292.159 340.876 340.627C340.345 346.173 345.891 350.224 351.099 348.295C359.828 345.112 374.778 341.64 399.662 340.338Z" fill="#B31D20"/>
<path d="M725.221 377.035C724.816 376.023 724.402 375.306 723.979 374.882C723.556 374.459 723.06 374.211 722.489 374.137V373.586L723.648 373.53C724.881 373.53 725.957 373.76 726.877 374.22C727.796 374.662 728.541 375.6 729.112 377.035L732.837 386.554L735.32 379.49L734.354 377.035C733.95 376.041 733.508 375.333 733.03 374.91C732.57 374.469 732.036 374.211 731.429 374.137V373.586L732.506 373.53C733.738 373.53 734.814 373.76 735.734 374.22C736.654 374.68 737.399 375.618 737.969 377.035L741.915 387.078L746.633 373.806H747.958L741.418 392.266H740.314L736.065 381.45L732.285 392.266H731.181L725.221 377.035ZM754.16 392.294C752.89 392.294 751.777 391.999 750.821 391.411C749.864 390.822 749.119 390.022 748.586 389.01C748.071 387.98 747.813 386.821 747.813 385.533C747.813 384.098 748.071 382.875 748.586 381.863C749.119 380.852 749.846 380.088 750.766 379.573C751.685 379.04 752.725 378.773 753.884 378.773C755.024 378.773 756.054 379.003 756.974 379.463C757.894 379.923 758.62 380.576 759.154 381.422C759.687 382.25 759.954 383.206 759.954 384.292C759.954 384.641 759.936 385.037 759.899 385.478L759.844 386.03H751.538C751.538 387.777 751.805 389.056 752.339 389.865C752.872 390.656 753.617 391.052 754.574 391.052C755.456 391.052 756.192 390.859 756.781 390.472C757.388 390.068 757.967 389.497 758.519 388.762L759.375 389.396C758.841 390.224 758.17 390.914 757.36 391.466C756.569 392.018 755.502 392.294 754.16 392.294ZM756.229 384.788C756.229 383.059 756.027 381.836 755.622 381.118C755.217 380.383 754.638 380.015 753.884 380.015C753.185 380.015 752.614 380.392 752.173 381.146C751.75 381.882 751.538 383.096 751.538 384.788H756.229ZM769.109 392.294C768.116 392.294 767.306 392.045 766.681 391.549C766.368 391.328 766.12 391.07 765.936 390.776H765.798L764.832 392.018H762.487V377.393C762.487 376.455 762.358 375.765 762.101 375.324C761.843 374.864 761.328 374.634 760.555 374.634H760.279V373.806H763.591C764.253 373.806 764.759 373.917 765.108 374.137C765.458 374.358 765.706 374.726 765.853 375.241C766 375.738 766.074 376.455 766.074 377.393V379.601C766.313 379.454 766.571 379.316 766.846 379.187C767.601 378.911 768.309 378.773 768.971 378.773C770.884 378.773 772.347 379.408 773.358 380.677C774.389 381.928 774.904 383.547 774.904 385.533C774.904 387.52 774.398 389.148 773.386 390.417C772.393 391.668 770.967 392.294 769.109 392.294ZM768.557 391.052C769.459 391.052 770.121 390.555 770.544 389.562C770.967 388.568 771.179 387.226 771.179 385.533C771.179 381.854 770.259 380.015 768.419 380.015C767.886 380.015 767.325 380.153 766.736 380.429C766.479 380.576 766.258 380.714 766.074 380.842V389.258C766.239 389.626 766.442 389.93 766.681 390.169C767.233 390.758 767.858 391.052 768.557 391.052ZM783.564 392.569C781.89 392.569 780.529 392.321 779.481 391.824C778.45 391.328 777.512 390.583 776.666 389.589L777.439 388.789C778.193 389.635 778.993 390.27 779.839 390.693C780.704 391.116 781.541 391.328 782.35 391.328C783.491 391.328 784.41 390.969 785.109 390.252C785.827 389.516 786.186 388.403 786.186 386.913C786.186 385.496 785.854 384.43 785.192 383.712C784.53 382.995 783.684 382.636 782.654 382.636C781.973 382.636 781.283 382.728 780.584 382.912L779.756 383.16L779.094 382.112L786.627 375.048H781.688C780.584 375.048 779.729 375.315 779.122 375.848C778.533 376.363 778.239 377.108 778.239 378.083H777.411V376.014C777.411 374.542 778.193 373.806 779.756 373.806H789.083V375.048L782.212 381.505C782.341 381.486 782.571 381.468 782.902 381.45C783.252 381.413 783.61 381.394 783.978 381.394C784.916 381.394 785.845 381.588 786.765 381.974C787.703 382.342 788.485 382.94 789.11 383.767C789.736 384.595 790.049 385.644 790.049 386.913C790.049 388.329 789.681 389.461 788.945 390.307C788.209 391.153 787.344 391.742 786.351 392.073C785.376 392.404 784.447 392.569 783.564 392.569Z" fill="#B31D20"/>
<path d="M750.381 299.254C750.29 299.238 739.893 297.392 732.293 296.566C725.97 295.885 723.847 300.069 723.847 303.572C723.847 314.796 755.94 317.718 755.941 333.474C755.941 340.464 748.026 347.471 733.638 347.471C720.873 347.471 712.968 340.499 712.911 340.448L716.827 334.388C716.908 334.455 724.813 340.879 732.094 340.879C740.308 340.879 743.744 338.472 743.744 335.152C743.744 324.974 713.557 324.94 713.557 304.817C713.557 299.653 716.959 291.286 729.405 291.286H752.34L750.381 299.254ZM671.239 329.042C671.239 335.533 677.015 340.796 684.134 340.797C691.253 340.797 697.028 335.533 697.028 329.042V291.269H708.329V325.389C708.329 337.576 697.492 347.454 684.134 347.454C670.775 347.454 659.938 337.576 659.938 325.389V291.269H671.239V329.042ZM806.971 346.841H794.824L791.555 337.21H766.579L763.409 346.924H756.655L774.81 291.301H788.12L806.971 346.841ZM860.076 346.856H848.774V297.612H845.538V297.627H828.015V346.856H816.713V297.627H799.189V291.318H843.613V291.301H860.076V346.856ZM919.653 288.363C919.656 288.375 920.94 292.735 916.317 296.283C914.752 297.487 912.844 298.442 911.114 300.039C910.05 303.239 908.494 306.139 906.774 308.682C906.758 308.771 906.74 308.86 906.725 308.951L906.753 308.714C902.591 314.853 897.474 318.899 895.989 320.009L913.247 346.841H900.153V346.856L885.201 323.629C874.946 331.473 874.022 346.757 874.016 346.856H864.972C864.972 331.051 879.21 319.877 881.633 318.083L864.408 291.301H877.518L892.421 314.48C902.626 306.593 903.522 291.301 903.522 291.301H910.83C914.82 291.049 918.284 290.246 919.653 288.363ZM594.769 286.537C595.831 288.446 599.316 289.459 603.149 290.007L603.969 290.112C605.891 290.342 607.862 290.463 609.605 290.521H610.999C613.687 290.521 616.194 291.783 617.621 293.842L646.331 335.285V290.521H653.118V346.06H640.423L609.937 302.061V346.06H603.149V306.544C603.174 305.946 603.181 305.377 603.169 304.835L603.149 304.303C602.817 297.18 599.083 295.569 596.677 293.212C593.331 289.93 594.749 286.583 594.769 286.537ZM768.255 332.064H789.795L778.81 299.719L768.255 332.064Z" fill="#B31D20"/>
</svg>
