<svg width="106" height="100" viewBox="0 0 106 100" fill="none" xmlns="http://www.w3.org/2000/svg">
<path fill-rule="evenodd" clip-rule="evenodd" d="M0 76.7056V23.2439H8.14386C8.16965 22.9651 8.20131 22.6864 8.23885 22.4087L2.53004 19.0752L9.96988 6.04224L15.6748 9.37375C17.1181 8.23839 18.6821 7.33444 20.3176 6.66154V0H35.1971V6.66154C36.8326 7.33444 38.3965 8.23838 39.8398 9.37356L45.5449 6.04224L52.9846 19.0752L47.2758 22.4085C47.3133 22.6864 47.345 22.9649 47.3709 23.2439H81.8394V49.7648H87.4756V56.4261C89.1114 57.099 90.676 58.0031 92.1187 59.1383L97.8244 55.807L105.263 68.8405L99.5543 72.174C99.7968 73.9702 99.7968 75.7938 99.5543 77.59L105.263 80.9235L97.8244 93.9566L92.1187 90.6268C90.676 91.7611 89.1114 92.6656 87.4756 93.3385V100H72.5964V93.3385C70.9609 92.6656 69.397 91.7611 67.9537 90.6268L62.2487 93.9566L59.3242 88.8342H15.6416C14.9095 88.8342 14.2501 88.3874 13.9728 87.7018C13.6956 87.0161 13.8556 86.2301 14.3777 85.7104L19.766 80.3528C20.1032 80.0172 20.5571 79.8294 21.0299 79.8294H26.5594V76.7056H0ZM78.2328 26.8911H3.60616V33.9678H78.2328V26.8911ZM43.7455 23.2439C43.6916 22.7699 43.6171 22.298 43.5223 21.8293L43.2614 20.5413L48.0586 17.7401L44.2249 11.0245L39.4266 13.8262L38.454 12.95C36.7741 11.4366 34.8548 10.3412 32.8283 9.66369L31.5911 9.2501V3.64716H23.9237V9.2501L22.6863 9.66369C20.6598 10.3412 18.7405 11.4366 17.0606 12.95L16.088 13.8262L11.2897 11.0245L7.45605 17.7401L12.2532 20.5413L11.9924 21.8293C11.8975 22.298 11.8231 22.7699 11.7693 23.2439H16.7647C17.1346 21.0098 18.1712 18.8669 19.8741 17.1446C24.2251 12.7441 31.2897 12.7441 35.6405 17.1446C37.3434 18.8669 38.3802 21.0098 38.7499 23.2439H43.7455ZM78.2328 49.7648V37.615H3.60616V73.0584H60.4181C60.4448 72.763 60.478 72.4676 60.5177 72.174L54.8089 68.8405L62.2487 55.807L67.9537 59.1383C69.397 58.0031 70.961 57.099 72.5964 56.4261V49.7648H78.2328ZM59.7349 82.2602L63.5686 88.9746L68.3669 86.1736L69.3395 87.0489C71.0194 88.5625 72.9387 89.6585 74.9645 90.3369L76.2032 90.749V96.3528H83.8706V90.749L85.1078 90.3369C87.1343 89.6585 89.0527 88.5625 90.7332 87.0489L91.7047 86.1736L96.5038 88.9746L100.337 82.2602L95.54 79.4574L95.801 78.1699C96.2397 76.0017 96.2397 73.7623 95.801 71.5941L95.54 70.3066L100.337 67.5056L96.5038 60.7892L91.7047 63.591L90.7332 62.7147C89.0527 61.2013 87.1343 60.1057 85.1078 59.4284L83.8706 59.0149V53.4119H81.8394H76.2032V59.0149L74.9645 59.4284C72.9387 60.1057 71.0194 61.2013 69.3395 62.7147L68.3669 63.591L63.5686 60.7892L59.7349 67.5056L64.5321 70.3066L64.2712 71.5941C64.0517 72.6773 63.9421 73.7806 63.9421 74.882C63.9421 75.9853 64.0517 77.0867 64.2712 78.1699L64.5321 79.4574L59.7349 82.2602ZM26.5594 83.4765H21.7678L20.0479 85.1871H57.2423L56.2662 83.4765H26.5594ZM30.1654 76.7056V79.8294H51.6739V76.7056H30.1654ZM20.4462 23.2439H35.0684C34.747 21.9535 34.0878 20.7319 33.0906 19.7235C30.147 16.7465 25.3676 16.7465 22.4241 19.7235C21.4269 20.7319 20.7677 21.9535 20.4462 23.2439ZM56.6831 79.8294L60.5177 77.5919C60.478 77.2964 60.4448 77.001 60.4181 76.7056H55.2799V79.8294H56.6831ZM32.0782 42.9444L34.628 45.5233L33.3531 46.8127L26.7565 53.4845L34.628 61.4457L32.0782 64.0246L21.6567 53.4845L32.0782 42.9444ZM49.7612 64.0246L47.2112 61.4457L48.4861 60.1562L55.0828 53.4845L47.2112 45.5233L49.7612 42.9444L60.1825 53.4845L49.7612 64.0246ZM40.0445 63.8339L36.5613 62.89L41.795 43.1351L45.2782 44.079L40.0445 63.8339ZM80.0369 63.6086C82.8897 63.6086 85.7442 64.709 87.9189 66.9093C92.2701 71.3096 92.2701 78.4544 87.9189 82.8547C83.5694 87.255 76.5044 87.255 72.153 82.8547C69.9776 80.6555 68.8896 77.7687 68.8896 74.882C68.8896 71.9953 69.9776 69.1104 72.153 66.9093C74.3281 64.709 77.1825 63.6086 80.0369 63.6086ZM80.0369 67.2558C78.1061 67.2558 76.1754 67.9998 74.7034 69.4879C73.2313 70.9759 72.4957 72.929 72.4957 74.882C72.4957 76.8351 73.2313 78.7881 74.7034 80.2762C77.6459 83.2522 82.4264 83.2522 85.3688 80.2762C88.3128 77.3001 88.3128 72.4658 85.3688 69.4879C83.8984 67.9998 81.9676 67.2558 80.0369 67.2558Z" fill="#2F4157"/>
</svg>
