<svg width="89" height="94" viewBox="0 0 89 94" fill="none" xmlns="http://www.w3.org/2000/svg">
<path fill-rule="evenodd" clip-rule="evenodd" d="M29.1209 82.2313H0.371176V31.584H28.6093L27.5727 30.5027L28.8969 29.3771C28.8969 29.3771 40.5138 19.6132 42.7811 12.74C43.0034 12.0041 43.7642 11.4616 44.6654 11.4616C45.5666 11.4616 46.3273 12.0041 46.5514 12.74C48.8169 19.6132 60.4339 29.3771 60.4339 29.3771L61.7581 30.5027L60.7214 31.584H88.9596V82.2313H60.2098V85.1906H66.1905C66.7038 85.1906 67.1937 85.3686 67.5599 85.6864L73.3968 90.7621C73.9619 91.2527 74.1341 91.999 73.8348 92.6486C73.5355 93.2964 72.8216 93.7214 72.0291 93.7214H17.3034C16.5108 93.7214 15.7969 93.2964 15.4959 92.6486C15.1967 91.999 15.3689 91.2527 15.9357 90.7621L21.7726 85.6864C22.1371 85.3686 22.6286 85.1906 23.1402 85.1906H29.1209V82.2313ZM31.7426 35.0391H4.27525V78.7761H85.0572V35.0391H57.5881C55.0116 38.0973 53.9599 40.032 53.7242 41.2959C53.6958 41.4541 53.6974 41.6367 53.7041 41.7642H63.0288V50.299H56.4696V60.0716H32.8612V50.299H26.302V41.7642H35.6266C35.6333 41.6367 35.6367 41.4541 35.6066 41.2959C35.3708 40.032 34.3191 38.0973 31.7426 35.0391ZM42.7142 20.2821C39.407 24.6123 35.0247 28.7794 32.8846 30.7257C33.1554 31.0189 33.4146 31.305 33.6654 31.584H33.6737L34.2589 32.2582C37.8905 36.4366 39.1529 39.0951 39.4588 40.7344C39.529 41.1114 39.5558 41.4535 39.5508 41.7642H49.78C49.775 41.4535 49.8034 41.1114 49.8736 40.7344C50.1779 39.0951 51.4419 36.4366 55.0718 32.2582L55.657 31.584H55.667C55.9162 31.305 56.1753 31.0189 56.4462 30.7257C54.3077 28.7796 49.9254 24.6123 46.6166 20.2821V27.5342C46.6166 28.4876 45.7421 29.2617 44.6654 29.2617C43.5886 29.2617 42.7142 28.4876 42.7142 27.5342V20.2821ZM56.3074 85.1906V82.2313H33.025V85.1906H56.3074ZM29.1209 88.6458H23.9378L22.0752 90.2663H67.2556L65.393 88.6458H29.1209ZM59.1247 45.2194H36.2336H30.206V46.8439H56.4696H59.1247V45.2194ZM36.7652 50.299V56.6164H52.5655V50.299H36.7652ZM30.1308 74.6766H8.19272V64.0583H30.1308V74.6766ZM26.2267 67.5135H12.0951V71.2221H26.2267V67.5135ZM81.1397 74.6766H59.2016V64.0583H81.1397V74.6766ZM77.2356 67.5135H63.104V71.2221H77.2356V67.5135ZM55.6353 74.6766H33.6972V64.0583H55.6353V74.6766ZM51.7312 67.5135H37.5996V71.2221H51.7312V67.5135ZM11.5718 7.27275C10.7626 9.33168 8.55052 10.8113 5.95059 10.8113C2.66681 10.8113 0 8.45165 0 5.54517C0 2.63851 2.66681 0.278809 5.95059 0.278809C8.55052 0.278809 10.7626 1.75848 11.5718 3.81759H39.2532V0.972604H50.0776V3.81759H77.3895C78.197 1.75848 80.4107 0.278809 83.0107 0.278809C86.2944 0.278809 88.9596 2.63851 88.9596 5.54517C88.9596 8.45165 86.2944 10.8113 83.0107 10.8113C80.4107 10.8113 78.197 9.33168 77.3895 7.27275H62.8616C72.7731 11.2348 80.7468 18.332 85.1642 27.1325C85.6022 28.0039 85.1575 29.0256 84.1727 29.4129C83.1896 29.8001 82.0342 29.407 81.5978 28.5356C76.0117 17.4095 64.1942 9.26775 50.0776 7.59148V10.1176H39.2532V7.59148C25.1366 9.26775 13.319 17.4095 7.7346 28.5356C7.29654 29.407 6.14287 29.8001 5.15807 29.4129C4.17327 29.0256 3.72851 28.0039 4.16657 27.1325C8.58563 18.332 16.5593 11.2348 26.4692 7.27275H11.5718ZM80.9642 5.54517C80.9642 6.54457 81.8821 7.35619 83.0107 7.35619C84.1392 7.35619 85.0572 6.54457 85.0572 5.54517C85.0572 4.54559 84.1392 3.73397 83.0107 3.73397C81.8821 3.73397 80.9642 4.54559 80.9642 5.54517ZM5.95059 3.73397C4.82032 3.73397 3.90408 4.54559 3.90408 5.54517C3.90408 6.54457 4.82032 7.35619 5.95059 7.35619C7.07917 7.35619 7.99542 6.54457 7.99542 5.54517C7.99542 4.54559 7.07917 3.73397 5.95059 3.73397Z" fill="#2F4157"/>
</svg>
