<svg width="428" height="728" viewBox="0 0 428 728" fill="none" xmlns="http://www.w3.org/2000/svg">
<path fill-rule="evenodd" clip-rule="evenodd" d="M146.688 182.138L85.9748 121.425L85.975 121.425L25.2622 60.7125L85.9751 -0.000471365L146.688 60.7125L146.688 60.7128L146.688 182.138Z" fill="#F5F5F7"/>
<path fill-rule="evenodd" clip-rule="evenodd" d="M158.099 182.138L218.812 121.425L218.812 121.425L279.525 60.7125L218.812 -0.00046597L158.099 60.7125L158.099 60.7128L158.099 182.138Z" fill="#F5F5F7"/>
<path fill-rule="evenodd" clip-rule="evenodd" d="M6.63666 70.524L67.3496 131.237L6.63668 191.95L6.63666 70.524ZM6.6369 191.95L67.3499 131.237L128.063 191.95L67.3499 252.663L6.6369 191.95Z" fill="#F5F5F7"/>
<path fill-rule="evenodd" clip-rule="evenodd" d="M298.152 70.524L237.439 131.237L298.152 191.95L298.152 70.524ZM298.151 191.95L237.438 131.237L176.725 191.95L237.438 252.663L298.151 191.95Z" fill="#F5F5F7"/>
<path fill-rule="evenodd" clip-rule="evenodd" d="M-37.1386 174.105L-123 174.105L-123 259.966L-37.1385 259.966L-37.1385 259.966L48.7225 259.966L-37.1385 174.105L-37.1386 174.105L-37.1386 174.105Z" fill="#F5F5F7"/>
<path fill-rule="evenodd" clip-rule="evenodd" d="M341.927 174.104L427.788 174.104L427.788 259.965L341.927 259.965L341.927 259.965L256.066 259.965L341.927 174.104L341.927 174.104L341.927 174.104Z" fill="#F5F5F7"/>
<path fill-rule="evenodd" clip-rule="evenodd" d="M147.897 191.736L147.897 277.597H62.0355L147.897 191.736ZM62.0354 277.597H147.896V363.458H62.0354V277.597Z" fill="#F5F5F7"/>
<path fill-rule="evenodd" clip-rule="evenodd" d="M156.891 191.736L156.891 277.597H242.752L156.891 191.736ZM242.752 277.597H156.891V363.458H242.752V277.597Z" fill="#F5F5F7"/>
<path fill-rule="evenodd" clip-rule="evenodd" d="M-34.9339 363.547L50.9271 363.547L50.9271 277.686L-34.934 277.686L-34.934 277.686L-120.795 277.686L-34.934 363.547L-34.9339 363.547L-34.9339 363.547Z" fill="#F5F5F7"/>
<path fill-rule="evenodd" clip-rule="evenodd" d="M339.721 363.547L253.86 363.547L253.86 277.686L339.721 277.686L339.721 277.686L425.582 277.686L339.721 363.547L339.721 363.547L339.721 363.547Z" fill="#F5F5F7"/>
<path fill-rule="evenodd" clip-rule="evenodd" d="M-34.9339 363.636L50.9271 363.636L50.9271 449.497L-34.934 449.497L-34.934 449.497L-120.795 449.497L-34.934 363.636L-34.9339 363.636L-34.9339 363.636Z" fill="#F5F5F7"/>
<path fill-rule="evenodd" clip-rule="evenodd" d="M339.721 363.636L253.86 363.636L253.86 449.497L339.721 449.497L339.721 449.497L425.582 449.497L339.721 363.636L339.721 363.636L339.721 363.636Z" fill="#F5F5F7"/>
<path fill-rule="evenodd" clip-rule="evenodd" d="M147.897 535.448L147.897 449.587H62.0355L147.897 535.448ZM62.0354 449.587H147.896V363.725H62.0354V449.587Z" fill="#F5F5F7"/>
<path fill-rule="evenodd" clip-rule="evenodd" d="M156.891 535.448L156.891 449.587H242.752L156.891 535.448ZM242.752 449.587H156.891V363.725H242.752V449.587Z" fill="#F5F5F7"/>
<path fill-rule="evenodd" clip-rule="evenodd" d="M-37.1395 553.079L-123.001 553.079L-123.001 467.218L-37.1394 467.218L-37.1394 467.218L48.7216 467.218L-37.1394 553.079L-37.1395 553.079L-37.1395 553.079Z" fill="#F5F5F7"/>
<path fill-rule="evenodd" clip-rule="evenodd" d="M341.927 553.079L427.788 553.079L427.788 467.218L341.927 467.218L341.927 467.218L256.066 467.218L341.927 553.079L341.927 553.079L341.927 553.079Z" fill="#F5F5F7"/>
<path fill-rule="evenodd" clip-rule="evenodd" d="M6.63667 656.66L67.3496 595.947L6.63668 535.234L6.63667 656.66ZM6.6369 535.234L67.3499 595.947L128.063 535.234L67.3499 474.521L6.6369 535.234Z" fill="#F5F5F7"/>
<path fill-rule="evenodd" clip-rule="evenodd" d="M298.152 656.66L237.439 595.947L298.152 535.234L298.152 656.66ZM298.151 535.234L237.438 595.947L176.725 535.234L237.438 474.521L298.151 535.234Z" fill="#F5F5F7"/>
<path fill-rule="evenodd" clip-rule="evenodd" d="M146.688 545.045L85.9748 605.758L85.975 605.758L25.2622 666.471L85.9751 727.184L146.688 666.471L146.688 666.471L146.688 545.045Z" fill="#F5F5F7"/>
<path fill-rule="evenodd" clip-rule="evenodd" d="M158.099 545.045L218.812 605.758L218.812 605.758L279.525 666.471L218.812 727.184L158.099 666.471L158.099 666.471L158.099 545.045Z" fill="#F5F5F7"/>
</svg>
