<svg width="499" height="499" viewBox="0 0 499 499" fill="none" xmlns="http://www.w3.org/2000/svg">
<g opacity="0.5">
<rect x="-0.828875" y="0.828875" width="112.727" height="112.727" transform="matrix(-1 8.74228e-08 8.74228e-08 1 496.565 0.896484)" stroke="#C7D9E5" stroke-width="1.65775"/>
<path d="M385.839 242.099L497.394 242.099L497.394 130.544L385.839 242.099Z" stroke="#C7D9E5" stroke-width="1.65775"/>
<rect x="-0.828875" y="0.828875" width="112.727" height="112.727" transform="matrix(-1 8.74228e-08 8.74228e-08 1 496.565 256.189)" stroke="#C7D9E5" stroke-width="1.65775"/>
<path d="M385.839 497.392L497.394 497.392L497.394 385.837L385.839 497.392Z" stroke="#C7D9E5" stroke-width="1.65775"/>
<path d="M258.192 114.452L369.747 114.452L369.747 2.89746L258.192 114.452Z" stroke="#C7D9E5" stroke-width="1.65775"/>
<rect x="-0.828875" y="0.828875" width="112.727" height="112.727" transform="matrix(-1 8.74228e-08 8.74228e-08 1 368.918 128.543)" stroke="#C7D9E5" stroke-width="1.65775"/>
<path d="M258.192 369.745L369.747 369.745L369.747 258.19L258.192 369.745Z" stroke="#C7D9E5" stroke-width="1.65775"/>
<rect x="-0.828875" y="0.828875" width="112.727" height="112.727" transform="matrix(-1 8.74228e-08 8.74228e-08 1 368.918 383.836)" stroke="#C7D9E5" stroke-width="1.65775"/>
<path d="M130.546 242.099L242.101 242.099L242.101 130.544L130.546 242.099Z" stroke="#C7D9E5" stroke-width="1.65775"/>
<rect x="-0.828875" y="0.828875" width="112.727" height="112.727" transform="matrix(-1 8.74228e-08 8.74228e-08 1 241.272 256.189)" stroke="#C7D9E5" stroke-width="1.65775"/>
<path d="M130.546 497.392L242.101 497.392L242.101 385.837L130.546 497.392Z" stroke="#C7D9E5" stroke-width="1.65775"/>
<path d="M2.89942 369.745L114.454 369.745L114.454 258.19L2.89942 369.745Z" stroke="#C7D9E5" stroke-width="1.65775"/>
<rect x="-0.828875" y="0.828875" width="112.727" height="112.727" transform="matrix(-1 8.74228e-08 8.74228e-08 1 113.625 383.836)" stroke="#C7D9E5" stroke-width="1.65775"/>
</g>
</svg>
