<svg width="551" height="549" viewBox="0 0 551 549" fill="none" xmlns="http://www.w3.org/2000/svg">
<rect x="-0.915" y="0.915" width="124.44" height="124.44" transform="matrix(-1 0 0 1 549.17 0)" stroke="white" stroke-width="1.83"/>
<path d="M550.085 266.265V143.119L426.939 266.265H550.085Z" stroke="white" stroke-width="1.83"/>
<rect x="-0.915" y="0.915" width="124.44" height="124.44" transform="matrix(-1 0 0 1 549.17 281.82)" stroke="white" stroke-width="1.83"/>
<path d="M550.085 548.085V424.939L426.939 548.085H550.085Z" stroke="white" stroke-width="1.83"/>
<path d="M409.175 125.355V2.20901L286.029 125.355H409.175Z" stroke="white" stroke-width="1.83"/>
<rect x="-0.915" y="0.915" width="124.44" height="124.44" transform="matrix(-1 0 0 1 408.26 140.91)" stroke="white" stroke-width="1.83"/>
<path d="M409.175 407.175V284.029L286.029 407.175H409.175Z" stroke="white" stroke-width="1.83"/>
<rect x="-0.915" y="0.915" width="124.44" height="124.44" transform="matrix(-1 0 0 1 408.26 422.73)" stroke="white" stroke-width="1.83"/>
<path d="M268.265 266.265V143.119L145.119 266.265H268.265Z" stroke="white" stroke-width="1.83"/>
<rect x="-0.915" y="0.915" width="124.44" height="124.44" transform="matrix(-1 0 0 1 267.35 281.82)" stroke="white" stroke-width="1.83"/>
<path d="M268.265 548.085V424.939L145.119 548.085H268.265Z" stroke="white" stroke-width="1.83"/>
<path d="M127.355 407.175V284.029L4.20854 407.175H127.355Z" stroke="white" stroke-width="1.83"/>
<rect x="-0.915" y="0.915" width="124.44" height="124.44" transform="matrix(-1 0 0 1 126.44 422.73)" stroke="white" stroke-width="1.83"/>
</svg>
