<svg width="579" height="578" viewBox="0 0 579 578" fill="none" xmlns="http://www.w3.org/2000/svg">
<g opacity="0.5">
<rect x="0.96093" y="0.49242" width="103.836" height="103.836" transform="matrix(0.306818 0.951768 0.951768 -0.306818 2.5771 140.282)" stroke="#C7D9E5" stroke-opacity="0.56" stroke-width="1.527"/>
<path d="M214.076 73.1112L116.276 104.639L245.604 170.911L214.076 73.1112Z" stroke="#C7D9E5" stroke-opacity="0.56" stroke-width="1.527"/>
<rect x="0.96093" y="0.49242" width="103.836" height="103.836" transform="matrix(0.306818 0.951768 0.951768 -0.306818 226.393 68.1313)" stroke="#C7D9E5" stroke-opacity="0.56" stroke-width="1.527"/>
<path d="M437.892 0.96084L340.092 32.4883L469.42 98.761L437.892 0.96084Z" stroke="#C7D9E5" stroke-opacity="0.56" stroke-width="1.527"/>
<path d="M138.244 221.095L40.4438 252.622L169.771 318.895L138.244 221.095Z" stroke="#C7D9E5" stroke-opacity="0.56" stroke-width="1.527"/>
<rect x="0.96093" y="0.49242" width="103.836" height="103.836" transform="matrix(0.306818 0.951768 0.951768 -0.306818 150.56 216.115)" stroke="#C7D9E5" stroke-opacity="0.56" stroke-width="1.527"/>
<path d="M362.06 148.944L264.26 180.471L393.587 246.744L362.06 148.944Z" stroke="#C7D9E5" stroke-opacity="0.56" stroke-width="1.527"/>
<rect x="0.96093" y="0.49242" width="103.836" height="103.836" transform="matrix(0.306818 0.951768 0.951768 -0.306818 374.377 143.964)" stroke="#C7D9E5" stroke-opacity="0.56" stroke-width="1.527"/>
<path d="M286.227 296.928L188.427 328.455L317.755 394.728L286.227 296.928Z" stroke="#C7D9E5" stroke-opacity="0.56" stroke-width="1.527"/>
<rect x="0.96093" y="0.49242" width="103.836" height="103.836" transform="matrix(0.306818 0.951768 0.951768 -0.306818 298.544 291.948)" stroke="#C7D9E5" stroke-opacity="0.56" stroke-width="1.527"/>
<path d="M510.043 224.777L412.243 256.305L541.571 322.577L510.043 224.777Z" stroke="#C7D9E5" stroke-opacity="0.56" stroke-width="1.527"/>
<path d="M434.21 372.76L336.41 404.288L465.738 470.56L434.21 372.76Z" stroke="#C7D9E5" stroke-opacity="0.56" stroke-width="1.527"/>
<rect x="0.96093" y="0.49242" width="103.836" height="103.836" transform="matrix(0.306818 0.951768 0.951768 -0.306818 446.527 367.78)" stroke="#C7D9E5" stroke-opacity="0.56" stroke-width="1.527"/>
</g>
</svg>
