<svg width="672" height="670" viewBox="0 0 672 670" fill="none" xmlns="http://www.w3.org/2000/svg">
<g opacity="0.5">
<rect x="1.11495" y="0.571345" width="120.479" height="120.479" transform="matrix(0.306818 0.951768 0.951768 -0.306818 2.99018 162.768)" stroke="#C7D9E5" stroke-opacity="0.51" stroke-width="1.77175"/>
<path d="M248.388 84.8309L134.913 121.412L284.969 198.306L248.388 84.8309Z" stroke="#C7D9E5" stroke-opacity="0.51" stroke-width="1.77175"/>
<rect x="1.11495" y="0.571345" width="120.479" height="120.479" transform="matrix(0.306818 0.951768 0.951768 -0.306818 262.679 79.0527)" stroke="#C7D9E5" stroke-opacity="0.51" stroke-width="1.77175"/>
<path d="M508.078 1.11607L394.602 37.6967L544.658 114.592L508.078 1.11607Z" stroke="#C7D9E5" stroke-opacity="0.51" stroke-width="1.77175"/>
<path d="M160.402 256.533L46.9261 293.113L196.982 370.008L160.402 256.533Z" stroke="#C7D9E5" stroke-opacity="0.51" stroke-width="1.77175"/>
<rect x="1.11495" y="0.571345" width="120.479" height="120.479" transform="matrix(0.306818 0.951768 0.951768 -0.306818 174.692 250.754)" stroke="#C7D9E5" stroke-opacity="0.51" stroke-width="1.77175"/>
<path d="M420.091 172.818L306.615 209.398L456.672 286.293L420.091 172.818Z" stroke="#C7D9E5" stroke-opacity="0.51" stroke-width="1.77175"/>
<rect x="1.11495" y="0.571345" width="120.479" height="120.479" transform="matrix(0.306818 0.951768 0.951768 -0.306818 434.382 167.039)" stroke="#C7D9E5" stroke-opacity="0.51" stroke-width="1.77175"/>
<path d="M332.104 344.519L218.628 381.1L368.684 457.995L332.104 344.519Z" stroke="#C7D9E5" stroke-opacity="0.51" stroke-width="1.77175"/>
<rect x="1.11495" y="0.571345" width="120.479" height="120.479" transform="matrix(0.306818 0.951768 0.951768 -0.306818 346.395 338.741)" stroke="#C7D9E5" stroke-opacity="0.51" stroke-width="1.77175"/>
<path d="M591.793 260.805L478.317 297.385L628.374 374.28L591.793 260.805Z" stroke="#C7D9E5" stroke-opacity="0.51" stroke-width="1.77175"/>
<path d="M503.806 432.507L390.33 469.087L540.386 545.982L503.806 432.507Z" stroke="#C7D9E5" stroke-opacity="0.51" stroke-width="1.77175"/>
<rect x="1.11495" y="0.571345" width="120.479" height="120.479" transform="matrix(0.306818 0.951768 0.951768 -0.306818 518.097 426.728)" stroke="#C7D9E5" stroke-opacity="0.51" stroke-width="1.77175"/>
</g>
</svg>
