<svg width="473" height="471" viewBox="0 0 473 471" fill="none" xmlns="http://www.w3.org/2000/svg">
<g opacity="0.5">
<rect x="-0.783786" y="-0.606181" width="95.2862" height="95.2862" transform="matrix(-0.126745 -0.991935 -0.991935 0.126745 468.787 415.974)" stroke="#C7D9E5" stroke-width="1.40127"/>
<path d="M267.942 442.427L361.477 430.476L255.991 348.893L267.942 442.427Z" stroke="#C7D9E5" stroke-width="1.40127"/>
<rect x="-0.783786" y="-0.606181" width="95.2862" height="95.2862" transform="matrix(-0.126745 -0.991935 -0.991935 0.126745 254.732 443.326)" stroke="#C7D9E5" stroke-width="1.40127"/>
<path d="M53.8874 469.779L147.422 457.827L41.9359 376.244L53.8874 469.779Z" stroke="#C7D9E5" stroke-width="1.40127"/>
<path d="M361.294 321.724L454.829 309.773L349.343 228.189L361.294 321.724Z" stroke="#C7D9E5" stroke-width="1.40127"/>
<rect x="-0.783786" y="-0.606181" width="95.2862" height="95.2862" transform="matrix(-0.126745 -0.991935 -0.991935 0.126745 348.084 322.622)" stroke="#C7D9E5" stroke-width="1.40127"/>
<path d="M147.239 349.075L240.774 337.124L135.288 255.54L147.239 349.075Z" stroke="#C7D9E5" stroke-width="1.40127"/>
<rect x="-0.783786" y="-0.606181" width="95.2862" height="95.2862" transform="matrix(-0.126745 -0.991935 -0.991935 0.126745 134.029 349.973)" stroke="#C7D9E5" stroke-width="1.40127"/>
<path d="M240.591 228.372L334.126 216.421L228.64 134.837L240.591 228.372Z" stroke="#C7D9E5" stroke-width="1.40127"/>
<rect x="-0.783786" y="-0.606181" width="95.2862" height="95.2862" transform="matrix(-0.126745 -0.991935 -0.991935 0.126745 227.381 229.27)" stroke="#C7D9E5" stroke-width="1.40127"/>
<path d="M26.5363 255.723L120.071 243.772L14.5848 162.188L26.5363 255.723Z" stroke="#C7D9E5" stroke-width="1.40127"/>
<path d="M119.888 135.021L213.423 123.069L107.937 41.4858L119.888 135.021Z" stroke="#C7D9E5" stroke-width="1.40127"/>
<rect x="-0.783786" y="-0.606181" width="95.2862" height="95.2862" transform="matrix(-0.126745 -0.991935 -0.991935 0.126745 106.678 135.919)" stroke="#C7D9E5" stroke-width="1.40127"/>
</g>
</svg>
