<svg width="429" height="729" viewBox="0 0 429 729" fill="none" xmlns="http://www.w3.org/2000/svg">
<path d="M85.9754 0.999989L85.6218 0.646435L85.9754 0.292882L86.3289 0.646435L85.9754 0.999989ZM25.2622 61.7131L24.9087 62.0667L24.5551 61.7131L24.9087 61.3596L25.2622 61.7131ZM146.688 183.139L147.188 183.139L147.188 184.346L146.334 183.492L146.688 183.139ZM146.688 61.7124L147.041 61.3589L147.188 61.5053L147.188 61.7124L146.688 61.7124ZM86.3289 1.35354L25.6158 62.0667L24.9087 61.3596L85.6218 0.646435L86.3289 1.35354ZM25.6158 61.3596L147.041 182.785L146.334 183.492L24.9087 62.0667L25.6158 61.3596ZM146.188 183.139L146.188 61.7124L147.188 61.7124L147.188 183.139L146.188 183.139ZM146.334 62.066L85.6218 1.35354L86.3289 0.646435L147.041 61.3589L146.334 62.066Z" fill="#C7D9E5" fill-opacity="0.46"/>
<path d="M218.812 0.999989L219.165 0.646435L218.812 0.292882L218.458 0.646435L218.812 0.999989ZM279.525 61.7131L279.879 62.0667L280.232 61.7131L279.879 61.3596L279.525 61.7131ZM158.099 183.139L157.599 183.139L157.599 184.346L158.453 183.492L158.099 183.139ZM158.099 61.7124L157.746 61.3589L157.599 61.5053L157.599 61.7124L158.099 61.7124ZM218.458 1.35354L279.171 62.0667L279.879 61.3596L219.165 0.646435L218.458 1.35354ZM279.171 61.3596L157.746 182.785L158.453 183.492L279.879 62.0667L279.171 61.3596ZM158.599 183.139L158.599 61.7124L157.599 61.7124L157.599 183.139L158.599 183.139ZM158.453 62.066L219.165 1.35354L218.458 0.646435L157.746 61.3589L158.453 62.066Z" fill="#C7D9E5" fill-opacity="0.46"/>
<path d="M67.3499 253.663L67.7035 254.017L67.3499 254.37L66.9964 254.017L67.3499 253.663ZM128.063 192.95L128.417 192.597L128.77 192.95L128.417 193.304L128.063 192.95ZM6.63678 71.5239H6.13678V70.3168L6.99033 71.1704L6.63678 71.5239ZM6.63678 192.95L6.28323 193.304L6.13678 193.157L6.13678 192.95H6.63678ZM66.9964 253.31L127.709 192.597L128.417 193.304L67.7035 254.017L66.9964 253.31ZM127.709 193.304L6.28323 71.8775L6.99033 71.1704L128.417 192.597L127.709 193.304ZM7.13678 71.5239L7.13678 192.95H6.13678L6.13678 71.5239H7.13678ZM6.99033 192.597L67.7035 253.31L66.9964 254.017L6.28323 193.304L6.99033 192.597Z" fill="#C7D9E5" fill-opacity="0.46"/>
<path d="M237.438 253.663L237.085 254.017L237.438 254.37L237.792 254.017L237.438 253.663ZM176.725 192.95L176.372 192.597L176.018 192.95L176.372 193.304L176.725 192.95ZM298.151 71.5239H298.651V70.3168L297.798 71.1704L298.151 71.5239ZM298.151 192.95L298.505 193.304L298.651 193.157V192.95H298.151ZM237.792 253.31L177.079 192.597L176.372 193.304L237.085 254.017L237.792 253.31ZM177.079 193.304L298.505 71.8775L297.798 71.1704L176.372 192.597L177.079 193.304ZM297.651 71.5239V192.95H298.651V71.5239H297.651ZM297.798 192.597L237.085 253.31L237.792 254.017L298.505 193.304L297.798 192.597Z" fill="#C7D9E5" fill-opacity="0.46"/>
<path d="M-122.999 175.105L-123.499 175.105L-123.499 174.605L-122.999 174.605L-122.999 175.105ZM-122.999 260.966L-122.999 261.466L-123.499 261.466L-123.499 260.966L-122.999 260.966ZM48.7225 260.966L49.0761 260.612L49.9296 261.466L48.7225 261.466L48.7225 260.966ZM-37.1388 175.105L-37.1388 174.605L-36.9317 174.605L-36.7853 174.751L-37.1388 175.105ZM-122.499 175.105L-122.499 260.966L-123.499 260.966L-123.499 175.105L-122.499 175.105ZM-122.999 260.466L48.7225 260.466L48.7225 261.466L-122.999 261.466L-122.999 260.466ZM48.369 261.319L-37.4924 175.458L-36.7853 174.751L49.0761 260.612L48.369 261.319ZM-37.1388 175.605L-122.999 175.605L-122.999 174.605L-37.1388 174.605L-37.1388 175.605Z" fill="#C7D9E5" fill-opacity="0.46"/>
<path d="M427.787 175.104L428.287 175.104L428.287 174.604L427.787 174.604L427.787 175.104ZM427.787 260.965L427.787 261.465L428.287 261.465L428.287 260.965L427.787 260.965ZM256.066 260.965L255.712 260.612L254.859 261.465L256.066 261.465L256.066 260.965ZM341.927 175.104L341.927 174.604L341.72 174.604L341.573 174.75L341.927 175.104ZM427.287 175.104L427.287 260.965L428.287 260.965L428.287 175.104L427.287 175.104ZM427.787 260.465L256.066 260.465L256.066 261.465L427.787 261.465L427.787 260.465ZM256.419 261.319L342.281 175.458L341.573 174.75L255.712 260.612L256.419 261.319ZM341.927 175.604L427.787 175.604L427.787 174.604L341.927 174.604L341.927 175.604Z" fill="#C7D9E5" fill-opacity="0.46"/>
<path d="M242.752 364.458V364.958H243.252V364.458H242.752ZM156.891 364.458H156.391V364.958H156.891V364.458ZM156.891 192.736L157.244 192.382L156.391 191.529V192.736H156.891ZM242.752 278.597H243.252V278.39L243.106 278.244L242.752 278.597ZM242.752 363.958H156.891V364.958H242.752V363.958ZM157.391 364.458V192.736H156.391V364.458H157.391ZM156.537 193.089L242.398 278.951L243.106 278.244L157.244 192.382L156.537 193.089ZM242.252 278.597V364.458H243.252V278.597H242.252Z" fill="#C7D9E5" fill-opacity="0.46"/>
<path d="M50.9276 364.547L51.4276 364.547L51.4276 365.047L50.9276 365.047L50.9276 364.547ZM50.9276 278.686L50.9276 278.186L51.4276 278.186L51.4276 278.686L50.9276 278.686ZM-120.795 278.686L-121.149 279.04L-122.002 278.186L-120.795 278.186L-120.795 278.686ZM-34.9337 364.547L-34.9337 365.047L-35.1408 365.047L-35.2873 364.901L-34.9337 364.547ZM50.4276 364.547L50.4276 278.686L51.4276 278.686L51.4276 364.547L50.4276 364.547ZM50.9276 279.186L-120.795 279.186L-120.795 278.186L50.9276 278.186L50.9276 279.186ZM-120.441 278.332L-34.5802 364.194L-35.2873 364.901L-121.149 279.04L-120.441 278.332ZM-34.9337 364.047L50.9276 364.047L50.9276 365.047L-34.9337 365.047L-34.9337 364.047Z" fill="#C7D9E5" fill-opacity="0.46"/>
<path d="M253.861 364.547L253.361 364.547L253.361 365.047L253.861 365.047L253.861 364.547ZM253.861 278.686L253.861 278.186L253.361 278.186L253.361 278.686L253.861 278.686ZM425.582 278.686L425.936 279.04L426.789 278.186L425.582 278.186L425.582 278.686ZM339.721 364.547L339.721 365.047L339.928 365.047L340.074 364.901L339.721 364.547ZM254.361 364.547L254.361 278.686L253.361 278.686L253.361 364.547L254.361 364.547ZM253.861 279.186L425.582 279.186L425.582 278.186L253.861 278.186L253.861 279.186ZM425.229 278.332L339.367 364.194L340.074 364.901L425.936 279.04L425.229 278.332ZM339.721 364.047L253.861 364.047L253.861 365.047L339.721 365.047L339.721 364.047Z" fill="#C7D9E5" fill-opacity="0.46"/>
<path d="M50.9276 364.636L51.4276 364.636L51.4276 364.136L50.9276 364.136L50.9276 364.636ZM50.9276 450.498L50.9276 450.998L51.4276 450.998L51.4276 450.498L50.9276 450.498ZM-120.795 450.498L-121.149 450.144L-122.002 450.998L-120.795 450.998L-120.795 450.498ZM-34.9337 364.636L-34.9337 364.136L-35.1408 364.136L-35.2873 364.283L-34.9337 364.636ZM50.4276 364.636L50.4276 450.498L51.4276 450.498L51.4276 364.636L50.4276 364.636ZM50.9276 449.998L-120.795 449.998L-120.795 450.998L50.9276 450.998L50.9276 449.998ZM-120.441 450.851L-34.5802 364.99L-35.2873 364.283L-121.149 450.144L-120.441 450.851ZM-34.9337 365.136L50.9276 365.136L50.9276 364.136L-34.9337 364.136L-34.9337 365.136Z" fill="#C7D9E5" fill-opacity="0.46"/>
<path d="M253.861 364.636L253.361 364.636L253.361 364.136L253.861 364.136L253.861 364.636ZM253.861 450.498L253.861 450.998L253.361 450.998L253.361 450.498L253.861 450.498ZM425.582 450.498L425.936 450.144L426.789 450.998L425.582 450.998L425.582 450.498ZM339.721 364.636L339.721 364.136L339.928 364.136L340.074 364.283L339.721 364.636ZM254.361 364.636L254.361 450.498L253.361 450.498L253.361 364.636L254.361 364.636ZM253.861 449.998L425.582 449.998L425.582 450.998L253.861 450.998L253.861 449.998ZM425.229 450.851L339.367 364.99L340.074 364.283L425.936 450.144L425.229 450.851ZM339.721 365.136L253.861 365.136L253.861 364.136L339.721 364.136L339.721 365.136Z" fill="#C7D9E5" fill-opacity="0.46"/>
<path d="M62.0352 364.458H147.897V192.736L62.0352 278.597V364.458Z" stroke="#C7D9E5" stroke-opacity="0.46"/>
<path d="M62.0352 364.725H147.897V536.448L62.0352 450.586V364.725Z" stroke="#C7D9E5" stroke-opacity="0.46"/>
<path d="M242.752 364.725V364.225H243.252V364.725H242.752ZM156.891 364.725H156.391V364.225H156.891V364.725ZM156.891 536.448L157.244 536.801L156.391 537.655V536.448H156.891ZM242.752 450.586H243.252V450.794L243.106 450.94L242.752 450.586ZM242.752 365.225H156.891V364.225H242.752V365.225ZM157.391 364.725V536.448H156.391V364.725H157.391ZM156.537 536.094L242.398 450.233L243.106 450.94L157.244 536.801L156.537 536.094ZM242.252 450.586V364.725H243.252V450.586H242.252Z" fill="#C7D9E5" fill-opacity="0.46"/>
<path d="M-123 554.079L-123.5 554.079L-123.5 554.579L-123 554.579L-123 554.079ZM-123 468.218L-123 467.718L-123.5 467.718L-123.5 468.218L-123 468.218ZM48.7216 468.218L49.0752 468.571L49.9287 467.718L48.7216 467.718L48.7216 468.218ZM-37.1397 554.079L-37.1397 554.579L-36.9326 554.579L-36.7862 554.433L-37.1397 554.079ZM-122.5 554.079L-122.5 468.218L-123.5 468.218L-123.5 554.079L-122.5 554.079ZM-123 468.718L48.7216 468.718L48.7216 467.718L-123 467.718L-123 468.718ZM48.3681 467.864L-37.4933 553.726L-36.7862 554.433L49.0752 468.571L48.3681 467.864ZM-37.1397 553.579L-123 553.579L-123 554.579L-37.1397 554.579L-37.1397 553.579Z" fill="#C7D9E5" fill-opacity="0.46"/>
<path d="M427.787 554.079L428.287 554.079L428.287 554.579L427.787 554.579L427.787 554.079ZM427.787 468.218L427.787 467.718L428.287 467.718L428.287 468.218L427.787 468.218ZM256.066 468.218L255.712 468.571L254.859 467.718L256.066 467.718L256.066 468.218ZM341.927 554.079L341.927 554.579L341.72 554.579L341.573 554.433L341.927 554.079ZM427.287 554.079L427.287 468.218L428.287 468.218L428.287 554.079L427.287 554.079ZM427.787 468.718L256.066 468.718L256.066 467.718L427.787 467.718L427.787 468.718ZM256.419 467.864L342.281 553.726L341.573 554.433L255.712 468.571L256.419 467.864ZM341.927 553.579L427.787 553.579L427.787 554.579L341.927 554.579L341.927 553.579Z" fill="#C7D9E5" fill-opacity="0.46"/>
<path d="M67.3499 475.52L67.7035 475.167L67.3499 474.813L66.9964 475.167L67.3499 475.52ZM128.063 536.233L128.417 536.587L128.77 536.233L128.417 535.88L128.063 536.233ZM6.63678 657.66H6.13678V658.867L6.99033 658.013L6.63678 657.66ZM6.63678 536.233L6.28323 535.88L6.13678 536.026V536.233H6.63678ZM66.9964 475.874L127.709 536.587L128.417 535.88L67.7035 475.167L66.9964 475.874ZM127.709 535.88L6.28323 657.306L6.99033 658.013L128.417 536.587L127.709 535.88ZM7.13678 657.66L7.13678 536.233H6.13678L6.13678 657.66H7.13678ZM6.99033 536.587L67.7035 475.874L66.9964 475.167L6.28323 535.88L6.99033 536.587Z" fill="#C7D9E5" fill-opacity="0.46"/>
<path d="M237.438 475.52L237.085 475.167L237.438 474.813L237.792 475.167L237.438 475.52ZM176.725 536.233L176.372 536.587L176.018 536.233L176.372 535.88L176.725 536.233ZM298.151 657.66H298.651V658.867L297.798 658.013L298.151 657.66ZM298.151 536.233L298.505 535.88L298.651 536.026V536.233H298.151ZM237.792 475.874L177.079 536.587L176.372 535.88L237.085 475.167L237.792 475.874ZM177.079 535.88L298.505 657.306L297.798 658.013L176.372 536.587L177.079 535.88ZM297.651 657.66V536.233H298.651V657.66H297.651ZM297.798 536.587L237.085 475.874L237.792 475.167L298.505 535.88L297.798 536.587Z" fill="#C7D9E5" fill-opacity="0.46"/>
<path d="M85.9754 728.184L85.6218 728.537L85.9754 728.891L86.3289 728.537L85.9754 728.184ZM25.2622 667.47L24.9087 667.117L24.5551 667.47L24.9087 667.824L25.2622 667.47ZM146.688 546.045L147.188 546.045L147.188 544.838L146.334 545.691L146.688 546.045ZM146.688 667.471L147.041 667.825L147.188 667.678L147.188 667.471L146.688 667.471ZM86.3289 727.83L25.6158 667.117L24.9087 667.824L85.6218 728.537L86.3289 727.83ZM25.6158 667.824L147.041 546.398L146.334 545.691L24.9087 667.117L25.6158 667.824ZM146.188 546.045L146.188 667.471L147.188 667.471L147.188 546.045L146.188 546.045ZM146.334 667.118L85.6218 727.83L86.3289 728.537L147.041 667.825L146.334 667.118Z" fill="#C7D9E5" fill-opacity="0.46"/>
<path d="M218.812 728.184L219.165 728.537L218.812 728.891L218.458 728.537L218.812 728.184ZM279.525 667.47L279.879 667.117L280.232 667.47L279.879 667.824L279.525 667.47ZM158.099 546.045L157.599 546.045L157.599 544.838L158.453 545.691L158.099 546.045ZM158.099 667.471L157.746 667.825L157.599 667.678L157.599 667.471L158.099 667.471ZM218.458 727.83L279.171 667.117L279.879 667.824L219.165 728.537L218.458 727.83ZM279.171 667.824L157.746 546.398L158.453 545.691L279.879 667.117L279.171 667.824ZM158.599 546.045L158.599 667.471L157.599 667.471L157.599 546.045L158.599 546.045ZM158.453 667.118L219.165 727.83L218.458 728.537L157.746 667.825L158.453 667.118Z" fill="#C7D9E5" fill-opacity="0.46"/>
</svg>
