<svg width="1512" height="348" viewBox="0 0 1512 348" fill="none" xmlns="http://www.w3.org/2000/svg">
<path d="M654.928 -16.9999H655.428V-17.4999L654.928 -17.4999L654.928 -16.9999ZM569.067 -17L569.067 -17.5L568.9 -17.5L568.767 -17.4L569.067 -17ZM654.928 68.8612L654.928 69.3612L655.428 69.3612V68.8612H654.928ZM569.067 68.8612L569.067 69.3612L569.067 69.3612L569.067 68.8612ZM483.206 68.8611L482.852 68.5075L481.998 69.3611L483.206 69.3611L483.206 68.8611ZM569.067 -16.9999L568.767 -17.3999L568.738 -17.3786L568.713 -17.3535L569.067 -16.9999ZM18.0666 -16.9999L18.0666 -17.4999H18.0666V-16.9999ZM103.928 -16.9999H104.428V-17.4999L103.928 -17.4999L103.928 -16.9999ZM18.0666 -16.9999V-17.4999H17.8594L17.713 -17.3535L18.0666 -16.9999ZM-67.7945 68.8611L-68.148 68.5075L-69.0016 69.3611L-67.7945 69.3611L-67.7945 68.8611ZM18.0665 68.8611H18.5665V68.3611L18.0665 68.3611L18.0665 68.8611ZM18.0665 68.8612H17.5665V69.3612L18.0665 69.3612L18.0665 68.8612ZM103.928 68.8612L103.928 69.3612L104.428 69.3612V68.8612H103.928ZM392.722 -17L393.075 -17.3535L392.929 -17.5L392.722 -17.5L392.722 -17ZM306.861 -16.9999L306.861 -17.4999L306.361 -17.4999V-16.9999H306.861ZM392.722 -16.9999L392.368 -16.6464L392.368 -16.6464L392.722 -16.9999ZM478.583 68.8611L478.583 69.3611L479.79 69.3611L478.936 68.5075L478.583 68.8611ZM392.722 68.8612L392.722 69.3612L392.722 69.3612L392.722 68.8612ZM306.861 68.8612H306.361V69.3612L306.861 69.3612L306.861 68.8612ZM200.897 68.9503H201.397V68.4503H200.897V68.9503ZM200.897 154.811L200.544 155.165L201.397 156.018V154.811H200.897ZM115.036 68.9503V68.4503H113.829L114.682 69.3038L115.036 68.9503ZM200.897 68.9502V69.4502H201.397V68.9502H200.897ZM115.036 68.9502H114.536V69.4502H115.036V68.9502ZM200.897 -16.9109H201.397V-17.4109H200.897V-16.9109ZM115.036 -16.9109V-17.4109H114.536V-16.9109H115.036ZM209.891 154.811H209.391V156.018L210.245 155.165L209.891 154.811ZM209.891 68.9503V68.4503H209.391V68.9503H209.891ZM295.752 68.9503L296.106 69.3038L296.959 68.4503H295.752V68.9503ZM295.752 68.9502V69.4502H296.252V68.9502H295.752ZM209.891 68.9502H209.391V69.4502H209.891V68.9502ZM295.752 -16.9109H296.252V-17.4109H295.752V-16.9109ZM209.891 -16.9109V-17.4109H209.391V-16.9109H209.891ZM-70 172.442L-70.5 172.442L-70.5 172.942H-70V172.442ZM15.861 172.442V172.942H16.0681L16.2146 172.796L15.861 172.442ZM-70 86.5814L-70 86.0814L-70.5 86.0814L-70.5 86.5814L-70 86.5814ZM15.8611 86.5814H16.3611V86.0814L15.8611 86.0814L15.8611 86.5814ZM15.8611 86.5815H15.3611V87.0815L15.8611 87.0815L15.8611 86.5815ZM101.722 86.5815L102.076 86.935L102.929 86.0815L101.722 86.0815L101.722 86.5815ZM394.927 172.442L394.574 172.796L394.72 172.942H394.927V172.442ZM480.788 172.442V172.942H481.288V172.442H480.788ZM309.066 86.5815L309.066 86.0815L307.859 86.0815L308.713 86.935L309.066 86.5815ZM394.927 86.5814L394.927 86.0814L394.927 86.0814L394.927 86.5814ZM480.788 86.5814H481.288V86.0814L480.788 86.0814L480.788 86.5814ZM120.35 215.31L120.319 214.811L120.13 214.823L119.997 214.957L120.35 215.31ZM59.6373 276.023H59.1373V277.23L59.9909 276.377L59.6373 276.023ZM120.351 215.31L120.382 215.809L120.57 215.797L120.704 215.664L120.351 215.31ZM181.063 154.597L181.417 154.951L181.771 154.597L181.417 154.244L181.063 154.597ZM120.351 93.8843L120.704 93.5307L120.351 93.1772L119.997 93.5307L120.351 93.8843ZM59.6375 154.597L59.6708 155.096L59.8583 155.084L59.9911 154.951L59.6375 154.597ZM59.6373 154.597L59.6041 154.098L59.1373 154.129V154.597H59.6373ZM351.152 276.023L350.799 276.377L351.652 277.23L351.652 276.023L351.152 276.023ZM290.439 215.31L290.793 214.957L290.793 214.957L290.439 215.31ZM351.152 154.597L351.652 154.597L351.652 154.39L351.506 154.244L351.152 154.597ZM290.439 93.8843L290.793 93.5307L290.439 93.1772L290.085 93.5307L290.439 93.8843ZM229.726 154.597L229.372 154.244L229.019 154.597L229.372 154.951L229.726 154.597ZM78.2627 285.834L77.9091 285.481L77.5556 285.834L77.9091 286.188L78.2627 285.834ZM138.976 225.122L139.329 225.475L139.683 225.122L139.329 224.768L138.976 225.122ZM138.976 346.547L138.622 346.901L138.976 347.255L139.329 346.901L138.976 346.547ZM199.689 285.834L200.042 286.188L200.413 285.817L200.025 285.465L199.689 285.834ZM199.688 285.834L199.188 285.834L199.188 286.055L199.352 286.204L199.688 285.834ZM199.688 164.409L200.188 164.409L200.188 163.201L199.335 164.055L199.688 164.409ZM138.975 225.121L138.622 224.768L138.268 225.121L138.622 225.475L138.975 225.121ZM271.813 225.121L272.166 224.768L272.166 224.768L271.813 225.121ZM332.526 285.834L332.879 286.188L333.233 285.834L332.879 285.481L332.526 285.834ZM211.1 164.409L211.453 164.055L210.6 163.201L210.6 164.409L211.1 164.409ZM211.1 285.834L211.436 286.204L211.6 286.055L211.6 285.834L211.1 285.834ZM211.1 285.834L210.763 285.465L210.375 285.817L210.746 286.188L211.1 285.834ZM271.813 346.547L271.459 346.901L271.813 347.255L272.166 346.901L271.813 346.547ZM943.722 -16.9999L944.075 -17.3535L943.929 -17.4999L943.722 -17.4999L943.722 -16.9999ZM857.861 -16.9999L857.861 -17.4999L857.361 -17.4999V-16.9999H857.861ZM1029.58 68.8611L1029.58 69.3611L1030.79 69.3611L1029.94 68.5075L1029.58 68.8611ZM943.722 68.8612L943.722 69.3612L943.722 69.3612L943.722 68.8612ZM857.861 68.8612H857.361V69.3612L857.861 69.3612L857.861 68.8612ZM751.897 68.9503L752.397 68.9503L752.397 68.4503H751.897V68.9503ZM751.897 154.811L751.543 155.165L752.397 156.018L752.397 154.811L751.897 154.811ZM666.036 68.9503V68.4503H664.829L665.682 69.3038L666.036 68.9503ZM751.897 68.9502V69.4502H752.397V68.9502H751.897ZM666.036 68.9502H665.536V69.4502H666.036V68.9502ZM751.897 -16.9109H752.397V-17.4109H751.897V-16.9109ZM666.036 -16.9109V-17.4109H665.536V-16.9109H666.036ZM760.891 154.811H760.391V156.018L761.245 155.165L760.891 154.811ZM760.891 68.9503V68.4503H760.391V68.9503H760.891ZM846.752 68.9503L847.106 69.3038L847.959 68.4503H846.752V68.9503ZM846.752 68.9502V69.4502H847.252V68.9502H846.752ZM760.891 68.9502H760.391V69.4502H760.891V68.9502ZM846.752 -16.9109H847.252V-17.4109H846.752V-16.9109ZM760.891 -16.9109V-17.4109H760.391V-16.9109H760.891ZM481 172.442H480.5V172.942H481V172.442ZM566.861 172.442V172.942H567.068L567.215 172.796L566.861 172.442ZM481 86.5814L481 86.0814L480.5 86.0814V86.5814H481ZM566.861 86.5814L566.861 86.0814L566.861 86.0814L566.861 86.5814ZM652.722 86.5815L653.076 86.935L653.929 86.0815L652.722 86.0815L652.722 86.5815ZM945.927 172.442L945.574 172.796L945.72 172.942H945.927V172.442ZM1031.79 172.442V172.942H1032.29V172.442H1031.79ZM860.066 86.5815L860.066 86.0815L858.859 86.0815L859.713 86.935L860.066 86.5815ZM945.927 86.5814L945.927 86.0814L945.927 86.0814L945.927 86.5814ZM1031.79 86.5814H1032.29V86.0814L1031.79 86.0814L1031.79 86.5814ZM671.35 215.311L670.997 214.957L670.997 214.957L671.35 215.311ZM610.637 276.023H610.137V277.231L610.991 276.377L610.637 276.023ZM732.064 154.598L732.417 154.951L732.771 154.598L732.417 154.244L732.064 154.598ZM671.351 93.8846L671.704 93.5311L671.351 93.1775L670.997 93.5311L671.351 93.8846ZM610.637 154.598L610.284 154.244L610.137 154.39V154.598H610.637ZM902.152 276.023L901.799 276.377L902.652 277.231V276.023H902.152ZM841.439 215.311L841.793 214.957L841.793 214.957L841.439 215.311ZM902.152 154.598H902.652V154.39L902.506 154.244L902.152 154.598ZM841.439 93.8846L841.793 93.5311L841.439 93.1775L841.085 93.5311L841.439 93.8846ZM780.726 154.598L780.372 154.244L780.019 154.598L780.372 154.951L780.726 154.598ZM629.263 285.834L628.909 285.481L628.556 285.834L628.909 286.188L629.263 285.834ZM689.975 225.121L689.622 224.768L689.622 224.768L689.975 225.121ZM689.976 346.547L689.622 346.901L689.976 347.255L690.329 346.901L689.976 346.547ZM750.689 285.834L751.042 286.188L751.189 286.042L751.189 285.834L750.689 285.834ZM750.688 164.409L751.188 164.409L751.188 163.201L750.335 164.055L750.688 164.409ZM822.813 225.121L823.166 224.768L823.166 224.768L822.813 225.121ZM883.526 285.834L883.879 286.188L884.233 285.834L883.879 285.481L883.526 285.834ZM762.1 164.409L762.453 164.055L761.6 163.201L761.6 164.409L762.1 164.409ZM762.1 285.834L761.6 285.834L761.6 286.042L761.746 286.188L762.1 285.834ZM822.813 346.547L822.459 346.901L822.813 347.255L823.166 346.901L822.813 346.547ZM1205.93 -16.9999H1206.43V-17.4999L1205.93 -17.4999L1205.93 -16.9999ZM1120.07 -16.9999L1120.07 -17.4999L1119.86 -17.4999L1119.71 -17.3535L1120.07 -16.9999ZM1205.93 68.8612L1205.93 69.3612L1206.43 69.3612V68.8612H1205.93ZM1120.07 68.8612L1120.07 69.3612L1120.07 69.3612L1120.07 68.8612ZM1034.21 68.8611L1033.85 68.5075L1033 69.3611L1034.21 69.3611L1034.21 68.8611ZM1494.72 -16.9999L1495.08 -17.3535L1494.93 -17.4999L1494.72 -17.4999L1494.72 -16.9999ZM1408.86 -16.9999L1408.86 -17.4999L1408.36 -17.4999V-16.9999H1408.86ZM1580.58 68.8611L1580.58 69.3611L1581.79 69.3611L1580.94 68.5075L1580.58 68.8611ZM1494.72 68.8612L1494.72 69.3612L1494.72 69.3612L1494.72 68.8612ZM1408.86 68.8612H1408.36V69.3612L1408.86 69.3612L1408.86 68.8612ZM1302.9 68.9503H1303.4V68.4503H1302.9V68.9503ZM1302.9 154.811L1302.54 155.165L1303.4 156.018V154.811H1302.9ZM1217.04 68.9503V68.4503H1215.83L1216.68 69.3038L1217.04 68.9503ZM1302.9 68.9502V69.4502H1303.4V68.9502H1302.9ZM1217.04 68.9502H1216.54V69.4502H1217.04V68.9502ZM1302.9 -16.9109H1303.4V-17.4109H1302.9V-16.9109ZM1217.04 -16.9109V-17.4109H1216.54V-16.9109H1217.04ZM1311.89 154.811H1311.39V156.018L1312.24 155.165L1311.89 154.811ZM1311.89 68.9503V68.4503H1311.39V68.9503H1311.89ZM1397.75 68.9503L1398.11 69.3038L1398.96 68.4503H1397.75V68.9503ZM1397.75 68.9502V69.4502H1398.25V68.9502H1397.75ZM1311.89 68.9502H1311.39V69.4502H1311.89V68.9502ZM1397.75 -16.9109H1398.25V-17.4109H1397.75V-16.9109ZM1311.89 -16.9109V-17.4109H1311.39V-16.9109H1311.89ZM1032 172.442H1031.5V172.942H1032V172.442ZM1117.86 172.442V172.942H1118.07L1118.21 172.796L1117.86 172.442ZM1032 86.5814L1032 86.0814L1031.5 86.0814V86.5814H1032ZM1117.86 86.5814L1117.86 86.0814L1117.86 86.0814L1117.86 86.5814ZM1203.72 86.5815L1204.08 86.935L1204.93 86.0815L1203.72 86.0815L1203.72 86.5815ZM1496.93 172.442L1496.57 172.796L1496.72 172.942H1496.93V172.442ZM1582.79 172.442V172.942H1583.29V172.442H1582.79ZM1411.07 86.5815L1411.07 86.0815L1409.86 86.0815L1410.71 86.935L1411.07 86.5815ZM1496.93 86.5814L1496.93 86.0814L1496.93 86.0814L1496.93 86.5814ZM1582.79 86.5814H1583.29V86.0814L1582.79 86.0814L1582.79 86.5814ZM1222.35 215.311L1222 214.957L1222 214.957L1222.35 215.311ZM1161.64 276.023H1161.14V277.231L1161.99 276.377L1161.64 276.023ZM1283.06 154.598L1283.42 154.951L1283.77 154.598L1283.42 154.244L1283.06 154.598ZM1222.35 93.8846L1222.7 93.5311L1222.35 93.1775L1222 93.5311L1222.35 93.8846ZM1161.64 154.598L1161.28 154.244L1161.14 154.39V154.598H1161.64ZM1453.15 276.023L1452.8 276.377L1453.65 277.231V276.023H1453.15ZM1392.44 215.311L1392.79 214.957L1392.79 214.957L1392.44 215.311ZM1453.15 154.598H1453.65V154.39L1453.51 154.244L1453.15 154.598ZM1392.44 93.8846L1392.79 93.5311L1392.44 93.1775L1392.09 93.5311L1392.44 93.8846ZM1331.73 154.598L1331.37 154.244L1331.02 154.598L1331.37 154.951L1331.73 154.598ZM1240.98 225.121L1240.62 224.768L1240.62 224.768L1240.98 225.121ZM1301.69 164.409L1302.19 164.409L1302.19 163.201L1301.33 164.055L1301.69 164.409ZM1180.26 285.834L1179.91 285.481L1179.56 285.834L1179.91 286.188L1180.26 285.834ZM1240.98 346.547L1240.62 346.901L1240.98 347.255L1241.33 346.901L1240.98 346.547ZM1301.69 285.834L1302.04 286.188L1302.19 286.042L1302.19 285.834L1301.69 285.834ZM1313.1 164.409L1313.45 164.055L1312.6 163.201L1312.6 164.409L1313.1 164.409ZM1373.81 225.121L1374.17 224.768L1374.17 224.768L1373.81 225.121ZM1313.1 285.834L1312.6 285.834L1312.6 286.042L1312.75 286.188L1313.1 285.834ZM1373.81 346.547L1373.46 346.901L1373.81 347.255L1374.17 346.901L1373.81 346.547ZM1434.53 285.834L1434.88 286.188L1435.23 285.834L1434.88 285.481L1434.53 285.834ZM654.928 -17.4999L569.067 -17.5L569.067 -16.5L654.928 -16.4999L654.928 -17.4999ZM655.428 68.8612V-16.9999H654.428V68.8612H655.428ZM569.067 69.3612L654.928 69.3612L654.928 68.3612L569.067 68.3612L569.067 69.3612ZM483.206 69.3611L569.067 69.3612L569.067 68.3612L483.206 68.3611L483.206 69.3611ZM568.713 -17.3535L482.852 68.5075L483.559 69.2146L569.42 -16.6464L568.713 -17.3535ZM568.767 -17.4L568.767 -17.3999L569.367 -16.5999L569.367 -16.6L568.767 -17.4ZM18.0666 -16.4999L103.928 -16.4999L103.928 -17.4999L18.0666 -17.4999L18.0666 -16.4999ZM18.0666 -16.4999H18.0666V-17.4999H18.0666V-16.4999ZM-67.4409 69.2146L18.4201 -16.6464L17.713 -17.3535L-68.148 68.5075L-67.4409 69.2146ZM18.0665 68.3611L-67.7945 68.3611L-67.7945 69.3611L18.0665 69.3611L18.0665 68.3611ZM18.5665 68.8612V68.8611H17.5665V68.8612H18.5665ZM103.928 68.3612L18.0665 68.3612L18.0665 69.3612L103.928 69.3612L103.928 68.3612ZM103.428 -16.9999V68.8612H104.428V-16.9999H103.428ZM392.722 -17.5L306.861 -17.4999L306.861 -16.4999L392.722 -16.5L392.722 -17.5ZM393.075 -17.3535L393.075 -17.3535L392.368 -16.6464L392.368 -16.6464L393.075 -17.3535ZM478.936 68.5075L393.075 -17.3535L392.368 -16.6464L478.229 69.2146L478.936 68.5075ZM392.722 69.3612L478.583 69.3611L478.583 68.3611L392.722 68.3612L392.722 69.3612ZM306.861 69.3612L392.722 69.3612L392.722 68.3612L306.861 68.3612L306.861 69.3612ZM306.361 -16.9999V68.8612H307.361V-16.9999H306.361ZM200.397 68.9503V154.811H201.397V68.9503H200.397ZM115.036 69.4503H200.897V68.4503H115.036V69.4503ZM201.251 154.458L115.39 68.5967L114.682 69.3038L200.544 155.165L201.251 154.458ZM200.897 68.4502H115.036V69.4502H200.897V68.4502ZM200.397 -16.9109V68.9502H201.397V-16.9109H200.397ZM115.036 -16.4109H200.897V-17.4109H115.036V-16.4109ZM115.536 68.9502V-16.9109H114.536V68.9502H115.536ZM210.391 154.811V68.9503H209.391V154.811H210.391ZM295.399 68.5967L209.538 154.458L210.245 155.165L296.106 69.3038L295.399 68.5967ZM209.891 69.4503H295.752V68.4503H209.891V69.4503ZM295.752 68.4502H209.891V69.4502H295.752V68.4502ZM295.252 -16.9109V68.9502H296.252V-16.9109H295.252ZM209.891 -16.4109H295.752V-17.4109H209.891V-16.4109ZM210.391 68.9502V-16.9109H209.391V68.9502H210.391ZM-70 172.942H15.861V171.942H-70V172.942ZM-70.5 86.5814L-70.5 172.442L-69.5 172.442L-69.5 86.5814L-70.5 86.5814ZM15.8611 86.0814L-70 86.0814L-70 87.0814L15.8611 87.0814L15.8611 86.0814ZM16.3611 86.5815V86.5814H15.3611V86.5815H16.3611ZM101.722 86.0815L15.8611 86.0815L15.8611 87.0815L101.722 87.0815L101.722 86.0815ZM16.2146 172.796L102.076 86.935L101.369 86.2279L15.5075 172.089L16.2146 172.796ZM394.927 172.942H480.788V171.942H394.927V172.942ZM308.713 86.935L394.574 172.796L395.281 172.089L309.42 86.2279L308.713 86.935ZM394.927 86.0814L309.066 86.0815L309.066 87.0815L394.927 87.0814L394.927 86.0814ZM480.788 86.0814L394.927 86.0814L394.927 87.0814L480.788 87.0814L480.788 86.0814ZM481.288 172.442V86.5814H480.288V172.442H481.288ZM119.997 214.957L59.2838 275.67L59.9909 276.377L120.704 215.664L119.997 214.957ZM120.319 214.811L120.319 214.811L120.381 215.809L120.382 215.809L120.319 214.811ZM180.71 154.244L119.997 214.957L120.704 215.664L181.417 154.951L180.71 154.244ZM119.997 94.2378L180.71 154.951L181.417 154.244L120.704 93.5307L119.997 94.2378ZM59.9911 154.951L120.704 94.2378L119.997 93.5307L59.284 154.244L59.9911 154.951ZM59.6706 155.096L59.6708 155.096L59.6043 154.098L59.6041 154.098L59.6706 155.096ZM60.1373 276.023V154.597H59.1373V276.023H60.1373ZM351.506 275.67L290.793 214.957L290.086 215.664L350.799 276.377L351.506 275.67ZM350.652 154.597L350.652 276.023L351.652 276.023L351.652 154.597L350.652 154.597ZM290.085 94.2378L350.799 154.951L351.506 154.244L290.793 93.5307L290.085 94.2378ZM230.08 154.951L290.793 94.2378L290.085 93.5307L229.372 154.244L230.08 154.951ZM290.793 214.957L230.08 154.244L229.372 154.951L290.086 215.664L290.793 214.957ZM78.6162 286.188L139.329 225.475L138.622 224.768L77.9091 285.481L78.6162 286.188ZM139.329 346.194L78.6162 285.481L77.9091 286.188L138.622 346.901L139.329 346.194ZM199.335 285.481L138.622 346.194L139.329 346.901L200.042 286.188L199.335 285.481ZM199.352 286.204L199.352 286.204L200.025 285.465L200.025 285.464L199.352 286.204ZM199.188 164.409L199.188 285.834L200.188 285.834L200.188 164.409L199.188 164.409ZM139.329 225.475L200.042 164.762L199.335 164.055L138.622 224.768L139.329 225.475ZM139.329 224.768L139.329 224.768L138.622 225.475L138.622 225.475L139.329 224.768ZM271.459 225.475L332.172 286.188L332.879 285.481L272.166 224.768L271.459 225.475ZM210.746 164.762L271.459 225.475L272.166 224.768L211.453 164.055L210.746 164.762ZM211.6 285.834L211.6 164.409L210.6 164.409L210.6 285.834L211.6 285.834ZM211.436 286.204L211.436 286.204L210.764 285.464L210.763 285.465L211.436 286.204ZM272.166 346.194L211.453 285.481L210.746 286.188L271.459 346.901L272.166 346.194ZM332.172 285.481L271.459 346.194L272.166 346.901L332.879 286.188L332.172 285.481ZM943.722 -17.4999L857.861 -17.4999L857.861 -16.4999L943.722 -16.4999L943.722 -17.4999ZM1029.94 68.5075L944.075 -17.3535L943.368 -16.6464L1029.23 69.2146L1029.94 68.5075ZM943.722 69.3612L1029.58 69.3611L1029.58 68.3611L943.722 68.3612L943.722 69.3612ZM857.861 69.3612L943.722 69.3612L943.722 68.3612L857.861 68.3612L857.861 69.3612ZM857.361 -16.9999V68.8612H858.361V-16.9999H857.361ZM751.397 68.9503L751.397 154.811L752.397 154.811L752.397 68.9503L751.397 68.9503ZM666.036 69.4503H751.897V68.4503H666.036V69.4503ZM752.251 154.458L666.39 68.5967L665.682 69.3038L751.543 155.165L752.251 154.458ZM751.897 68.4502H666.036V69.4502H751.897V68.4502ZM751.397 -16.9109V68.9502H752.397V-16.9109H751.397ZM666.036 -16.4109H751.897V-17.4109H666.036V-16.4109ZM666.536 68.9502V-16.9109H665.536V68.9502H666.536ZM761.391 154.811V68.9503H760.391V154.811H761.391ZM846.399 68.5967L760.538 154.458L761.245 155.165L847.106 69.3038L846.399 68.5967ZM760.891 69.4503H846.752V68.4503H760.891V69.4503ZM846.752 68.4502H760.891V69.4502H846.752V68.4502ZM846.252 -16.9109V68.9502H847.252V-16.9109H846.252ZM760.891 -16.4109H846.752V-17.4109H760.891V-16.4109ZM761.391 68.9502V-16.9109H760.391V68.9502H761.391ZM481 172.942H566.861V171.942H481V172.942ZM480.5 86.5814V172.442H481.5V86.5814H480.5ZM566.861 86.0814L481 86.0814L481 87.0814L566.861 87.0814L566.861 86.0814ZM652.722 86.0815L566.861 86.0814L566.861 87.0814L652.722 87.0815L652.722 86.0815ZM567.215 172.796L653.076 86.935L652.369 86.2279L566.507 172.089L567.215 172.796ZM945.927 172.942H1031.79V171.942H945.927V172.942ZM859.713 86.935L945.574 172.796L946.281 172.089L860.42 86.2279L859.713 86.935ZM945.927 86.0814L860.066 86.0815L860.066 87.0815L945.927 87.0814L945.927 86.0814ZM1031.79 86.0814L945.927 86.0814L945.927 87.0814L1031.79 87.0814L1031.79 86.0814ZM1032.29 172.442V86.5814H1031.29V172.442H1032.29ZM670.997 214.957L610.284 275.67L610.991 276.377L671.704 215.664L670.997 214.957ZM731.71 154.244L670.997 214.957L671.704 215.664L732.417 154.951L731.71 154.244ZM670.997 94.2382L731.71 154.951L732.417 154.244L671.704 93.5311L670.997 94.2382ZM610.991 154.951L671.704 94.2382L670.997 93.5311L610.284 154.244L610.991 154.951ZM611.137 276.023V154.598H610.137V276.023H611.137ZM902.506 275.67L841.793 214.957L841.086 215.664L901.799 276.377L902.506 275.67ZM901.652 154.598V276.023H902.652V154.598H901.652ZM841.085 94.2382L901.799 154.951L902.506 154.244L841.793 93.5311L841.085 94.2382ZM781.08 154.951L841.793 94.2382L841.085 93.5311L780.372 154.244L781.08 154.951ZM841.793 214.957L781.08 154.244L780.372 154.951L841.086 215.664L841.793 214.957ZM629.616 286.188L690.329 225.475L689.622 224.768L628.909 285.481L629.616 286.188ZM690.329 346.194L629.616 285.481L628.909 286.188L689.622 346.901L690.329 346.194ZM750.335 285.481L689.622 346.194L690.329 346.901L751.042 286.188L750.335 285.481ZM750.188 164.409L750.189 285.834L751.189 285.834L751.188 164.409L750.188 164.409ZM690.329 225.475L751.042 164.762L750.335 164.055L689.622 224.768L690.329 225.475ZM822.459 225.475L883.172 286.188L883.879 285.481L823.166 224.768L822.459 225.475ZM761.746 164.762L822.459 225.475L823.166 224.768L762.453 164.055L761.746 164.762ZM762.6 285.834L762.6 164.409L761.6 164.409L761.6 285.834L762.6 285.834ZM823.166 346.194L762.453 285.481L761.746 286.188L822.459 346.901L823.166 346.194ZM883.172 285.481L822.459 346.194L823.166 346.901L883.879 286.188L883.172 285.481ZM1205.93 -17.4999L1120.07 -17.4999L1120.07 -16.4999L1205.93 -16.4999L1205.93 -17.4999ZM1206.43 68.8612V-16.9999H1205.43V68.8612H1206.43ZM1120.07 69.3612L1205.93 69.3612L1205.93 68.3612L1120.07 68.3612L1120.07 69.3612ZM1034.21 69.3611L1120.07 69.3612L1120.07 68.3612L1034.21 68.3611L1034.21 69.3611ZM1119.71 -17.3535L1033.85 68.5075L1034.56 69.2146L1120.42 -16.6464L1119.71 -17.3535ZM1494.72 -17.4999L1408.86 -17.4999L1408.86 -16.4999L1494.72 -16.4999L1494.72 -17.4999ZM1580.94 68.5075L1495.08 -17.3535L1494.37 -16.6464L1580.23 69.2146L1580.94 68.5075ZM1494.72 69.3612L1580.58 69.3611L1580.58 68.3611L1494.72 68.3612L1494.72 69.3612ZM1408.86 69.3612L1494.72 69.3612L1494.72 68.3612L1408.86 68.3612L1408.86 69.3612ZM1408.36 -16.9999V68.8612H1409.36V-16.9999H1408.36ZM1302.4 68.9503V154.811H1303.4V68.9503H1302.4ZM1217.04 69.4503H1302.9V68.4503H1217.04V69.4503ZM1303.25 154.458L1217.39 68.5967L1216.68 69.3038L1302.54 155.165L1303.25 154.458ZM1302.9 68.4502H1217.04V69.4502H1302.9V68.4502ZM1302.4 -16.9109V68.9502H1303.4V-16.9109H1302.4ZM1217.04 -16.4109H1302.9V-17.4109H1217.04V-16.4109ZM1217.54 68.9502V-16.9109H1216.54V68.9502H1217.54ZM1312.39 154.811V68.9503H1311.39V154.811H1312.39ZM1397.4 68.5967L1311.54 154.458L1312.24 155.165L1398.11 69.3038L1397.4 68.5967ZM1311.89 69.4503H1397.75V68.4503H1311.89V69.4503ZM1397.75 68.4502H1311.89V69.4502H1397.75V68.4502ZM1397.25 -16.9109V68.9502H1398.25V-16.9109H1397.25ZM1311.89 -16.4109H1397.75V-17.4109H1311.89V-16.4109ZM1312.39 68.9502V-16.9109H1311.39V68.9502H1312.39ZM1032 172.942H1117.86V171.942H1032V172.942ZM1031.5 86.5814V172.442H1032.5V86.5814H1031.5ZM1117.86 86.0814L1032 86.0814L1032 87.0814L1117.86 87.0814L1117.86 86.0814ZM1203.72 86.0815L1117.86 86.0814L1117.86 87.0814L1203.72 87.0815L1203.72 86.0815ZM1118.21 172.796L1204.08 86.935L1203.37 86.2279L1117.51 172.089L1118.21 172.796ZM1496.93 172.942H1582.79V171.942H1496.93V172.942ZM1410.71 86.935L1496.57 172.796L1497.28 172.089L1411.42 86.2279L1410.71 86.935ZM1496.93 86.0814L1411.07 86.0815L1411.07 87.0815L1496.93 87.0814L1496.93 86.0814ZM1582.79 86.0814L1496.93 86.0814L1496.93 87.0814L1582.79 87.0814L1582.79 86.0814ZM1583.29 172.442V86.5814H1582.29V172.442H1583.29ZM1222 214.957L1161.28 275.67L1161.99 276.377L1222.7 215.664L1222 214.957ZM1282.71 154.244L1222 214.957L1222.7 215.664L1283.42 154.951L1282.71 154.244ZM1222 94.2382L1282.71 154.951L1283.42 154.244L1222.7 93.5311L1222 94.2382ZM1161.99 154.951L1222.7 94.2382L1222 93.5311L1161.28 154.244L1161.99 154.951ZM1162.14 276.023V154.598H1161.14V276.023H1162.14ZM1453.51 275.67L1392.79 214.957L1392.09 215.664L1452.8 276.377L1453.51 275.67ZM1452.65 154.598V276.023H1453.65V154.598H1452.65ZM1392.09 94.2382L1452.8 154.951L1453.51 154.244L1392.79 93.5311L1392.09 94.2382ZM1332.08 154.951L1392.79 94.2382L1392.09 93.5311L1331.37 154.244L1332.08 154.951ZM1392.79 214.957L1332.08 154.244L1331.37 154.951L1392.09 215.664L1392.79 214.957ZM1241.33 225.475L1302.04 164.762L1301.33 164.055L1240.62 224.768L1241.33 225.475ZM1180.62 286.188L1241.33 225.475L1240.62 224.768L1179.91 285.481L1180.62 286.188ZM1241.33 346.194L1180.62 285.481L1179.91 286.188L1240.62 346.901L1241.33 346.194ZM1301.34 285.481L1240.62 346.194L1241.33 346.901L1302.04 286.188L1301.34 285.481ZM1301.19 164.409L1301.19 285.834L1302.19 285.834L1302.19 164.409L1301.19 164.409ZM1312.75 164.762L1373.46 225.475L1374.17 224.768L1313.45 164.055L1312.75 164.762ZM1313.6 285.834L1313.6 164.409L1312.6 164.409L1312.6 285.834L1313.6 285.834ZM1374.17 346.194L1313.45 285.481L1312.75 286.188L1373.46 346.901L1374.17 346.194ZM1434.17 285.481L1373.46 346.194L1374.17 346.901L1434.88 286.188L1434.17 285.481ZM1373.46 225.475L1434.17 286.188L1434.88 285.481L1374.17 224.768L1373.46 225.475Z" fill="#C7D9E5" fill-opacity="0.72"/>
</svg>
