<svg width="329" height="215" viewBox="0 0 329 215" fill="none" xmlns="http://www.w3.org/2000/svg">
<path fill-rule="evenodd" clip-rule="evenodd" d="M156.831 0.444362C143.517 2.02536 133.091 5.14136 123.401 10.4354C98.4545 24.0654 81.8275 48.4104 78.4815 76.2074L77.6895 82.7884H86.2025C94.3315 82.7884 95.0105 82.6114 101.273 78.8544C113.342 71.6154 126.467 60.1294 142.407 42.8564C148.813 35.9144 150.144 34.8584 149.416 37.2884C145.268 51.1464 137.971 64.2924 127.716 76.3814L122.28 82.7884H126.155C132.918 82.7884 140.761 75.5164 150.836 59.9044C156.074 51.7884 165.684 31.9704 169.321 21.7884C170.597 18.2134 171.924 14.9594 172.268 14.5564C173.245 13.4164 188.593 28.0424 195.57 36.7624C205.816 49.5684 213.066 64.9554 214.802 77.5804L215.519 82.7884H233.425C243.273 82.7884 251.322 82.4504 251.311 82.0384C251.3 81.6264 250.843 78.1384 250.294 74.2884C244.894 36.3874 213.657 5.79736 175.265 0.815363C167.907 -0.139637 162.643 -0.245638 156.831 0.444362ZM78.3455 95.5384C78.3525 97.0514 78.6305 99.3014 78.9615 100.538L79.5645 102.788H164.948H250.331V99.3704C250.331 97.4904 250.604 95.2404 250.938 94.3704C251.489 92.9354 243.501 92.7884 164.938 92.7884H78.3315L78.3455 95.5384ZM101.731 115.244C102.07 116.595 102.782 118.845 103.314 120.244L104.281 122.788H174.212H244.143L245.737 118.11C246.614 115.537 247.331 113.287 247.331 113.11C247.331 112.933 214.432 112.788 174.223 112.788H101.114L101.731 115.244ZM125.331 133.42C125.331 133.768 126.268 135.568 127.413 137.42L129.494 140.788H181.892H234.29L236.331 136.788L238.372 132.788H181.851C150.765 132.788 125.331 133.072 125.331 133.42ZM151.958 152.038C152.368 152.726 153.604 154.526 154.705 156.038L156.707 158.788H186.845C216.848 158.788 216.991 158.778 218.954 156.538C224.454 150.262 227.34 150.788 187.394 150.788C158.719 150.788 151.367 151.047 151.958 152.038Z" fill="#2B54AC"/>
<mask id="path-2-outside-1_758_3132" maskUnits="userSpaceOnUse" x="0.5" y="186.789" width="329" height="18" fill="black">
<rect fill="white" x="0.5" y="186.789" width="329" height="18"/>
<path d="M2.02344 203.789V187.793H8.73828H9.34766C11.1523 187.793 12.3828 188.141 13.0391 188.836C13.6953 189.531 14.0234 190.832 14.0234 192.738C14.0234 194.566 13.6797 195.812 12.9922 196.477C12.3125 197.141 11.0312 197.473 9.14844 197.473L8.44531 197.484H3.82812V203.789H2.02344ZM3.82812 195.961H8.10547C9.89453 195.961 11.0391 195.777 11.5391 195.41C12.0469 195.043 12.3008 194.199 12.3008 192.879C12.3008 191.332 12.1289 190.355 11.7852 189.949C11.4492 189.535 10.6445 189.328 9.37109 189.328L8.67969 189.316H3.82812V195.961ZM21.7578 189.469V203.789H19.9531V189.469H14.7383V187.793H26.9258V189.469H21.7578ZM30.2539 201.633V203.789H28.4492V201.633H30.2539ZM44.7969 189.469V203.789H42.9922V189.469H37.7773V187.793H49.9648V189.469H44.7969ZM51.5703 203.789V187.793H59.1875C60.9062 187.793 62.1172 188.133 62.8203 188.812C63.5234 189.492 63.875 190.672 63.875 192.352C63.875 193.828 63.6836 194.859 63.3008 195.445C62.918 196.023 62.1875 196.398 61.1094 196.57V196.605C62.8047 196.73 63.6523 197.762 63.6523 199.699V203.789H61.8477V200.109C61.8477 198.242 61.0391 197.309 59.4219 197.309H58.8242H53.375V203.789H51.5703ZM53.375 195.785H58.5898C59.9648 195.785 60.9023 195.578 61.4023 195.164C61.9023 194.742 62.1523 193.953 62.1523 192.797C62.1523 191.352 61.9648 190.41 61.5898 189.973C61.2227 189.535 60.4297 189.316 59.2109 189.316H53.375V195.785ZM76.3555 200.402H68.2578L67.0273 203.789H65.1172L70.9766 187.793H73.5078L79.4844 203.789H77.5977L76.3555 200.402ZM75.8281 199.043L72.2773 189.27L68.7734 199.043H75.8281ZM94.7891 187.793V203.789H91.8242L85.1211 192.902L84.0312 191.109L83.4922 190.219L82.9531 189.328H82.9062L82.918 189.926L82.9297 190.535V191.73V203.789H81.125V187.793H84.0781L89.9258 197.332L91.4492 199.84L92.2109 201.082L92.9609 202.336H93.0078L92.9961 201.738L92.9844 201.129V199.934V187.793H94.7891ZM108.805 192.129H107.012C107.012 190.84 106.797 190.023 106.367 189.68C105.938 189.328 104.926 189.152 103.332 189.152C101.441 189.152 100.223 189.32 99.6758 189.656C99.1289 189.984 98.8555 190.723 98.8555 191.871C98.8555 193.16 99.0703 193.945 99.5 194.227C99.9297 194.508 101.207 194.699 103.332 194.801C105.824 194.91 107.406 195.227 108.078 195.75C108.758 196.273 109.098 197.445 109.098 199.266C109.098 201.234 108.707 202.508 107.926 203.086C107.152 203.664 105.438 203.953 102.781 203.953C100.477 203.953 98.9414 203.664 98.1758 203.086C97.418 202.5 97.0391 201.324 97.0391 199.559L97.0273 198.844H98.8203V199.242C98.8203 200.672 99.0391 201.562 99.4766 201.914C99.9141 202.258 101.035 202.43 102.84 202.43C104.91 202.43 106.184 202.258 106.66 201.914C107.137 201.562 107.375 200.633 107.375 199.125C107.375 198.148 107.211 197.5 106.883 197.18C106.562 196.852 105.887 196.656 104.855 196.594L102.98 196.5L101.199 196.406C98.4883 196.219 97.1328 194.812 97.1328 192.188C97.1328 190.367 97.5273 189.152 98.3164 188.543C99.1055 187.934 100.68 187.629 103.039 187.629C105.43 187.629 106.988 187.914 107.715 188.484C108.441 189.047 108.805 190.262 108.805 192.129ZM134.82 187.793V203.789H133.016V190.992V190.031L133.027 189.551L133.039 189.07H132.992L132.852 189.445C132.781 189.633 132.734 189.754 132.711 189.809L132.406 190.559L126.957 203.789H125.152L119.691 190.711L119.375 189.973L119.234 189.598C119.195 189.512 119.148 189.391 119.094 189.234H119.047L119.059 189.668L119.07 190.113V190.992V203.789H117.266V187.793H120.395L124.66 198.141L125.34 199.816L125.68 200.648L126.008 201.48H126.055L126.383 200.648C126.547 200.25 126.656 199.973 126.711 199.816L127.402 198.152L131.645 187.793H134.82ZM147.699 200.402H139.602L138.371 203.789H136.461L142.32 187.793H144.852L150.828 203.789H148.941L147.699 200.402ZM147.172 199.043L143.621 189.27L140.117 199.043H147.172ZM154.273 187.793V194.777H155.855L162.418 187.793H164.75L157.438 195.504L165.641 203.789H163.168L155.855 196.301H154.273V203.789H152.469V187.793H154.273ZM184.508 187.793V203.789H182.703V190.992V190.031L182.715 189.551L182.727 189.07H182.68L182.539 189.445C182.469 189.633 182.422 189.754 182.398 189.809L182.094 190.559L176.645 203.789H174.84L169.379 190.711L169.062 189.973L168.922 189.598C168.883 189.512 168.836 189.391 168.781 189.234H168.734L168.746 189.668L168.758 190.113V190.992V203.789H166.953V187.793H170.082L174.348 198.141L175.027 199.816L175.367 200.648L175.695 201.48H175.742L176.07 200.648C176.234 200.25 176.344 199.973 176.398 199.816L177.09 198.152L181.332 187.793H184.508ZM198.43 187.793H200.234V198.996C200.234 201.027 199.824 202.363 199.004 203.004C198.191 203.637 196.48 203.953 193.871 203.953C191.426 203.953 189.762 203.648 188.879 203.039C188.004 202.422 187.566 201.254 187.566 199.535V198.996V187.793H189.371V198.996C189.371 200.512 189.617 201.465 190.109 201.855C190.602 202.238 191.812 202.43 193.742 202.43C195.836 202.43 197.141 202.242 197.656 201.867C198.172 201.484 198.43 200.527 198.43 198.996V187.793ZM203.281 203.789V187.793H210.898C212.617 187.793 213.828 188.133 214.531 188.812C215.234 189.492 215.586 190.672 215.586 192.352C215.586 193.828 215.395 194.859 215.012 195.445C214.629 196.023 213.898 196.398 212.82 196.57V196.605C214.516 196.73 215.363 197.762 215.363 199.699V203.789H213.559V200.109C213.559 198.242 212.75 197.309 211.133 197.309H210.535H205.086V203.789H203.281ZM205.086 195.785H210.301C211.676 195.785 212.613 195.578 213.113 195.164C213.613 194.742 213.863 193.953 213.863 192.797C213.863 191.352 213.676 190.41 213.301 189.973C212.934 189.535 212.141 189.316 210.922 189.316H205.086V195.785ZM224.234 203.789V187.793H231.312C233.273 187.793 234.555 188.062 235.156 188.602C235.766 189.141 236.07 190.281 236.07 192.023C236.07 193.797 235.387 194.918 234.02 195.387V195.422C235.715 195.828 236.562 197.082 236.562 199.184C236.562 200.879 236.227 202.07 235.555 202.758C234.891 203.445 233.73 203.789 232.074 203.789H224.234ZM226.039 194.824H230.785C232.293 194.824 233.262 194.645 233.691 194.285C234.129 193.926 234.348 193.125 234.348 191.883C234.348 190.805 234.156 190.109 233.773 189.797C233.398 189.477 232.566 189.316 231.277 189.316H226.039V194.824ZM226.039 202.266H229.871L231.5 202.254C232.875 202.254 233.773 202.078 234.195 201.727C234.625 201.367 234.84 200.613 234.84 199.465C234.84 198.035 234.625 197.16 234.195 196.84C233.766 196.512 232.598 196.348 230.691 196.348H226.039V202.266ZM240.207 189.316V194.766H248.328V196.289H240.207V202.266H248.68V203.789H238.402V187.793H248.68V189.316H240.207ZM251 203.789V187.793H258.617C260.336 187.793 261.547 188.133 262.25 188.812C262.953 189.492 263.305 190.672 263.305 192.352C263.305 193.828 263.113 194.859 262.73 195.445C262.348 196.023 261.617 196.398 260.539 196.57V196.605C262.234 196.73 263.082 197.762 263.082 199.699V203.789H261.277V200.109C261.277 198.242 260.469 197.309 258.852 197.309H258.254H252.805V203.789H251ZM252.805 195.785H258.02C259.395 195.785 260.332 195.578 260.832 195.164C261.332 194.742 261.582 193.953 261.582 192.797C261.582 191.352 261.395 190.41 261.02 189.973C260.652 189.535 259.859 189.316 258.641 189.316H252.805V195.785ZM276.922 192.129H275.129C275.129 190.84 274.914 190.023 274.484 189.68C274.055 189.328 273.043 189.152 271.449 189.152C269.559 189.152 268.34 189.32 267.793 189.656C267.246 189.984 266.973 190.723 266.973 191.871C266.973 193.16 267.188 193.945 267.617 194.227C268.047 194.508 269.324 194.699 271.449 194.801C273.941 194.91 275.523 195.227 276.195 195.75C276.875 196.273 277.215 197.445 277.215 199.266C277.215 201.234 276.824 202.508 276.043 203.086C275.27 203.664 273.555 203.953 270.898 203.953C268.594 203.953 267.059 203.664 266.293 203.086C265.535 202.5 265.156 201.324 265.156 199.559L265.145 198.844H266.938V199.242C266.938 200.672 267.156 201.562 267.594 201.914C268.031 202.258 269.152 202.43 270.957 202.43C273.027 202.43 274.301 202.258 274.777 201.914C275.254 201.562 275.492 200.633 275.492 199.125C275.492 198.148 275.328 197.5 275 197.18C274.68 196.852 274.004 196.656 272.973 196.594L271.098 196.5L269.316 196.406C266.605 196.219 265.25 194.812 265.25 192.188C265.25 190.367 265.645 189.152 266.434 188.543C267.223 187.934 268.797 187.629 271.156 187.629C273.547 187.629 275.105 187.914 275.832 188.484C276.559 189.047 276.922 190.262 276.922 192.129ZM289.215 200.402H281.117L279.887 203.789H277.977L283.836 187.793H286.367L292.344 203.789H290.457L289.215 200.402ZM288.688 199.043L285.137 189.27L281.633 199.043H288.688ZM311.539 187.793V203.789H309.734V190.992V190.031L309.746 189.551L309.758 189.07H309.711L309.57 189.445C309.5 189.633 309.453 189.754 309.43 189.809L309.125 190.559L303.676 203.789H301.871L296.41 190.711L296.094 189.973L295.953 189.598C295.914 189.512 295.867 189.391 295.812 189.234H295.766L295.777 189.668L295.789 190.113V190.992V203.789H293.984V187.793H297.113L301.379 198.141L302.059 199.816L302.398 200.648L302.727 201.48H302.773L303.102 200.648C303.266 200.25 303.375 199.973 303.43 199.816L304.121 198.152L308.363 187.793H311.539ZM324.418 200.402H316.32L315.09 203.789H313.18L319.039 187.793H321.57L327.547 203.789H325.66L324.418 200.402ZM323.891 199.043L320.34 189.27L316.836 199.043H323.891Z"/>
</mask>
<path d="M2.02344 203.789V187.793H8.73828H9.34766C11.1523 187.793 12.3828 188.141 13.0391 188.836C13.6953 189.531 14.0234 190.832 14.0234 192.738C14.0234 194.566 13.6797 195.812 12.9922 196.477C12.3125 197.141 11.0312 197.473 9.14844 197.473L8.44531 197.484H3.82812V203.789H2.02344ZM3.82812 195.961H8.10547C9.89453 195.961 11.0391 195.777 11.5391 195.41C12.0469 195.043 12.3008 194.199 12.3008 192.879C12.3008 191.332 12.1289 190.355 11.7852 189.949C11.4492 189.535 10.6445 189.328 9.37109 189.328L8.67969 189.316H3.82812V195.961ZM21.7578 189.469V203.789H19.9531V189.469H14.7383V187.793H26.9258V189.469H21.7578ZM30.2539 201.633V203.789H28.4492V201.633H30.2539ZM44.7969 189.469V203.789H42.9922V189.469H37.7773V187.793H49.9648V189.469H44.7969ZM51.5703 203.789V187.793H59.1875C60.9062 187.793 62.1172 188.133 62.8203 188.812C63.5234 189.492 63.875 190.672 63.875 192.352C63.875 193.828 63.6836 194.859 63.3008 195.445C62.918 196.023 62.1875 196.398 61.1094 196.57V196.605C62.8047 196.73 63.6523 197.762 63.6523 199.699V203.789H61.8477V200.109C61.8477 198.242 61.0391 197.309 59.4219 197.309H58.8242H53.375V203.789H51.5703ZM53.375 195.785H58.5898C59.9648 195.785 60.9023 195.578 61.4023 195.164C61.9023 194.742 62.1523 193.953 62.1523 192.797C62.1523 191.352 61.9648 190.41 61.5898 189.973C61.2227 189.535 60.4297 189.316 59.2109 189.316H53.375V195.785ZM76.3555 200.402H68.2578L67.0273 203.789H65.1172L70.9766 187.793H73.5078L79.4844 203.789H77.5977L76.3555 200.402ZM75.8281 199.043L72.2773 189.27L68.7734 199.043H75.8281ZM94.7891 187.793V203.789H91.8242L85.1211 192.902L84.0312 191.109L83.4922 190.219L82.9531 189.328H82.9062L82.918 189.926L82.9297 190.535V191.73V203.789H81.125V187.793H84.0781L89.9258 197.332L91.4492 199.84L92.2109 201.082L92.9609 202.336H93.0078L92.9961 201.738L92.9844 201.129V199.934V187.793H94.7891ZM108.805 192.129H107.012C107.012 190.84 106.797 190.023 106.367 189.68C105.938 189.328 104.926 189.152 103.332 189.152C101.441 189.152 100.223 189.32 99.6758 189.656C99.1289 189.984 98.8555 190.723 98.8555 191.871C98.8555 193.16 99.0703 193.945 99.5 194.227C99.9297 194.508 101.207 194.699 103.332 194.801C105.824 194.91 107.406 195.227 108.078 195.75C108.758 196.273 109.098 197.445 109.098 199.266C109.098 201.234 108.707 202.508 107.926 203.086C107.152 203.664 105.438 203.953 102.781 203.953C100.477 203.953 98.9414 203.664 98.1758 203.086C97.418 202.5 97.0391 201.324 97.0391 199.559L97.0273 198.844H98.8203V199.242C98.8203 200.672 99.0391 201.562 99.4766 201.914C99.9141 202.258 101.035 202.43 102.84 202.43C104.91 202.43 106.184 202.258 106.66 201.914C107.137 201.562 107.375 200.633 107.375 199.125C107.375 198.148 107.211 197.5 106.883 197.18C106.562 196.852 105.887 196.656 104.855 196.594L102.98 196.5L101.199 196.406C98.4883 196.219 97.1328 194.812 97.1328 192.188C97.1328 190.367 97.5273 189.152 98.3164 188.543C99.1055 187.934 100.68 187.629 103.039 187.629C105.43 187.629 106.988 187.914 107.715 188.484C108.441 189.047 108.805 190.262 108.805 192.129ZM134.82 187.793V203.789H133.016V190.992V190.031L133.027 189.551L133.039 189.07H132.992L132.852 189.445C132.781 189.633 132.734 189.754 132.711 189.809L132.406 190.559L126.957 203.789H125.152L119.691 190.711L119.375 189.973L119.234 189.598C119.195 189.512 119.148 189.391 119.094 189.234H119.047L119.059 189.668L119.07 190.113V190.992V203.789H117.266V187.793H120.395L124.66 198.141L125.34 199.816L125.68 200.648L126.008 201.48H126.055L126.383 200.648C126.547 200.25 126.656 199.973 126.711 199.816L127.402 198.152L131.645 187.793H134.82ZM147.699 200.402H139.602L138.371 203.789H136.461L142.32 187.793H144.852L150.828 203.789H148.941L147.699 200.402ZM147.172 199.043L143.621 189.27L140.117 199.043H147.172ZM154.273 187.793V194.777H155.855L162.418 187.793H164.75L157.438 195.504L165.641 203.789H163.168L155.855 196.301H154.273V203.789H152.469V187.793H154.273ZM184.508 187.793V203.789H182.703V190.992V190.031L182.715 189.551L182.727 189.07H182.68L182.539 189.445C182.469 189.633 182.422 189.754 182.398 189.809L182.094 190.559L176.645 203.789H174.84L169.379 190.711L169.062 189.973L168.922 189.598C168.883 189.512 168.836 189.391 168.781 189.234H168.734L168.746 189.668L168.758 190.113V190.992V203.789H166.953V187.793H170.082L174.348 198.141L175.027 199.816L175.367 200.648L175.695 201.48H175.742L176.07 200.648C176.234 200.25 176.344 199.973 176.398 199.816L177.09 198.152L181.332 187.793H184.508ZM198.43 187.793H200.234V198.996C200.234 201.027 199.824 202.363 199.004 203.004C198.191 203.637 196.48 203.953 193.871 203.953C191.426 203.953 189.762 203.648 188.879 203.039C188.004 202.422 187.566 201.254 187.566 199.535V198.996V187.793H189.371V198.996C189.371 200.512 189.617 201.465 190.109 201.855C190.602 202.238 191.812 202.43 193.742 202.43C195.836 202.43 197.141 202.242 197.656 201.867C198.172 201.484 198.43 200.527 198.43 198.996V187.793ZM203.281 203.789V187.793H210.898C212.617 187.793 213.828 188.133 214.531 188.812C215.234 189.492 215.586 190.672 215.586 192.352C215.586 193.828 215.395 194.859 215.012 195.445C214.629 196.023 213.898 196.398 212.82 196.57V196.605C214.516 196.73 215.363 197.762 215.363 199.699V203.789H213.559V200.109C213.559 198.242 212.75 197.309 211.133 197.309H210.535H205.086V203.789H203.281ZM205.086 195.785H210.301C211.676 195.785 212.613 195.578 213.113 195.164C213.613 194.742 213.863 193.953 213.863 192.797C213.863 191.352 213.676 190.41 213.301 189.973C212.934 189.535 212.141 189.316 210.922 189.316H205.086V195.785ZM224.234 203.789V187.793H231.312C233.273 187.793 234.555 188.062 235.156 188.602C235.766 189.141 236.07 190.281 236.07 192.023C236.07 193.797 235.387 194.918 234.02 195.387V195.422C235.715 195.828 236.562 197.082 236.562 199.184C236.562 200.879 236.227 202.07 235.555 202.758C234.891 203.445 233.73 203.789 232.074 203.789H224.234ZM226.039 194.824H230.785C232.293 194.824 233.262 194.645 233.691 194.285C234.129 193.926 234.348 193.125 234.348 191.883C234.348 190.805 234.156 190.109 233.773 189.797C233.398 189.477 232.566 189.316 231.277 189.316H226.039V194.824ZM226.039 202.266H229.871L231.5 202.254C232.875 202.254 233.773 202.078 234.195 201.727C234.625 201.367 234.84 200.613 234.84 199.465C234.84 198.035 234.625 197.16 234.195 196.84C233.766 196.512 232.598 196.348 230.691 196.348H226.039V202.266ZM240.207 189.316V194.766H248.328V196.289H240.207V202.266H248.68V203.789H238.402V187.793H248.68V189.316H240.207ZM251 203.789V187.793H258.617C260.336 187.793 261.547 188.133 262.25 188.812C262.953 189.492 263.305 190.672 263.305 192.352C263.305 193.828 263.113 194.859 262.73 195.445C262.348 196.023 261.617 196.398 260.539 196.57V196.605C262.234 196.73 263.082 197.762 263.082 199.699V203.789H261.277V200.109C261.277 198.242 260.469 197.309 258.852 197.309H258.254H252.805V203.789H251ZM252.805 195.785H258.02C259.395 195.785 260.332 195.578 260.832 195.164C261.332 194.742 261.582 193.953 261.582 192.797C261.582 191.352 261.395 190.41 261.02 189.973C260.652 189.535 259.859 189.316 258.641 189.316H252.805V195.785ZM276.922 192.129H275.129C275.129 190.84 274.914 190.023 274.484 189.68C274.055 189.328 273.043 189.152 271.449 189.152C269.559 189.152 268.34 189.32 267.793 189.656C267.246 189.984 266.973 190.723 266.973 191.871C266.973 193.16 267.188 193.945 267.617 194.227C268.047 194.508 269.324 194.699 271.449 194.801C273.941 194.91 275.523 195.227 276.195 195.75C276.875 196.273 277.215 197.445 277.215 199.266C277.215 201.234 276.824 202.508 276.043 203.086C275.27 203.664 273.555 203.953 270.898 203.953C268.594 203.953 267.059 203.664 266.293 203.086C265.535 202.5 265.156 201.324 265.156 199.559L265.145 198.844H266.938V199.242C266.938 200.672 267.156 201.562 267.594 201.914C268.031 202.258 269.152 202.43 270.957 202.43C273.027 202.43 274.301 202.258 274.777 201.914C275.254 201.562 275.492 200.633 275.492 199.125C275.492 198.148 275.328 197.5 275 197.18C274.68 196.852 274.004 196.656 272.973 196.594L271.098 196.5L269.316 196.406C266.605 196.219 265.25 194.812 265.25 192.188C265.25 190.367 265.645 189.152 266.434 188.543C267.223 187.934 268.797 187.629 271.156 187.629C273.547 187.629 275.105 187.914 275.832 188.484C276.559 189.047 276.922 190.262 276.922 192.129ZM289.215 200.402H281.117L279.887 203.789H277.977L283.836 187.793H286.367L292.344 203.789H290.457L289.215 200.402ZM288.688 199.043L285.137 189.27L281.633 199.043H288.688ZM311.539 187.793V203.789H309.734V190.992V190.031L309.746 189.551L309.758 189.07H309.711L309.57 189.445C309.5 189.633 309.453 189.754 309.43 189.809L309.125 190.559L303.676 203.789H301.871L296.41 190.711L296.094 189.973L295.953 189.598C295.914 189.512 295.867 189.391 295.812 189.234H295.766L295.777 189.668L295.789 190.113V190.992V203.789H293.984V187.793H297.113L301.379 198.141L302.059 199.816L302.398 200.648L302.727 201.48H302.773L303.102 200.648C303.266 200.25 303.375 199.973 303.43 199.816L304.121 198.152L308.363 187.793H311.539ZM324.418 200.402H316.32L315.09 203.789H313.18L319.039 187.793H321.57L327.547 203.789H325.66L324.418 200.402ZM323.891 199.043L320.34 189.27L316.836 199.043H323.891Z" fill="#2B54AC"/>
<path d="M2.02344 203.789H1.32344V204.489H2.02344V203.789ZM2.02344 187.793V187.093H1.32344V187.793H2.02344ZM12.9922 196.477L12.5059 195.973L12.503 195.976L12.9922 196.477ZM9.14844 197.473V196.773L9.13677 196.773L9.14844 197.473ZM8.44531 197.484V198.184L8.45698 198.184L8.44531 197.484ZM3.82812 197.484V196.784H3.12812V197.484H3.82812ZM3.82812 203.789V204.489H4.52812V203.789H3.82812ZM3.82812 195.961H3.12812V196.661H3.82812V195.961ZM11.5391 195.41L11.1289 194.843L11.1247 194.846L11.5391 195.41ZM11.7852 189.949L11.2416 190.39L11.2461 190.396L11.2508 190.401L11.7852 189.949ZM9.37109 189.328L9.35923 190.028H9.37109V189.328ZM8.67969 189.316L8.69155 188.616H8.67969V189.316ZM3.82812 189.316V188.616H3.12812V189.316H3.82812ZM2.02344 203.789H2.72344V187.793H2.02344H1.32344V203.789H2.02344ZM2.02344 187.793V188.493H8.73828V187.793V187.093H2.02344V187.793ZM8.73828 187.793V188.493H9.34766V187.793V187.093H8.73828V187.793ZM9.34766 187.793V188.493C11.1137 188.493 12.0836 188.843 12.53 189.316L13.0391 188.836L13.5481 188.355C12.682 187.438 11.191 187.093 9.34766 187.093V187.793ZM13.0391 188.836L12.53 189.316C12.9884 189.802 13.3234 190.858 13.3234 192.738H14.0234H14.7234C14.7234 190.806 14.4023 189.26 13.5481 188.355L13.0391 188.836ZM14.0234 192.738H13.3234C13.3234 194.531 12.9757 195.519 12.5059 195.973L12.9922 196.477L13.4785 196.98C14.3837 196.106 14.7234 194.602 14.7234 192.738H14.0234ZM12.9922 196.477L12.503 195.976C12.0342 196.434 11.0043 196.773 9.14844 196.773V197.473V198.173C11.0582 198.173 12.5908 197.847 13.4814 196.977L12.9922 196.477ZM9.14844 197.473L9.13677 196.773L8.43365 196.784L8.44531 197.484L8.45698 198.184L9.1601 198.173L9.14844 197.473ZM8.44531 197.484V196.784H3.82812V197.484V198.184H8.44531V197.484ZM3.82812 197.484H3.12812V203.789H3.82812H4.52812V197.484H3.82812ZM3.82812 203.789V203.089H2.02344V203.789V204.489H3.82812V203.789ZM3.82812 195.961V196.661H8.10547V195.961V195.261H3.82812V195.961ZM8.10547 195.961V196.661C9.01949 196.661 9.79355 196.614 10.4165 196.514C11.0189 196.418 11.5658 196.259 11.9534 195.974L11.5391 195.41L11.1247 194.846C11.0123 194.929 10.7369 195.045 10.1948 195.132C9.67325 195.216 8.98051 195.261 8.10547 195.261V195.961ZM11.5391 195.41L11.9492 195.977C12.3693 195.674 12.627 195.214 12.7807 194.704C12.9345 194.192 13.0008 193.577 13.0008 192.879H12.3008H11.6008C11.6008 193.501 11.5401 193.968 11.44 194.3C11.3398 194.633 11.2167 194.779 11.1289 194.843L11.5391 195.41ZM12.3008 192.879H13.0008C13.0008 192.085 12.957 191.409 12.8613 190.865C12.7695 190.344 12.6146 189.846 12.3195 189.497L11.7852 189.949L11.2508 190.401C11.2995 190.459 11.4024 190.652 11.4825 191.108C11.5586 191.54 11.6008 192.126 11.6008 192.879H12.3008ZM11.7852 189.949L12.3287 189.508C12.0267 189.136 11.5759 188.927 11.1041 188.805C10.6231 188.682 10.039 188.628 9.37109 188.628V189.328V190.028C9.97664 190.028 10.4316 190.078 10.7553 190.161C11.0882 190.247 11.2077 190.349 11.2416 190.39L11.7852 189.949ZM9.37109 189.328L9.38296 188.628L8.69155 188.617L8.67969 189.316L8.66782 190.016L9.35923 190.028L9.37109 189.328ZM8.67969 189.316V188.616H3.82812V189.316V190.016H8.67969V189.316ZM3.82812 189.316H3.12812V195.961H3.82812H4.52812V189.316H3.82812ZM21.7578 189.469V188.769H21.0578V189.469H21.7578ZM21.7578 203.789V204.489H22.4578V203.789H21.7578ZM19.9531 203.789H19.2531V204.489H19.9531V203.789ZM19.9531 189.469H20.6531V188.769H19.9531V189.469ZM14.7383 189.469H14.0383V190.169H14.7383V189.469ZM14.7383 187.793V187.093H14.0383V187.793H14.7383ZM26.9258 187.793H27.6258V187.093H26.9258V187.793ZM26.9258 189.469V190.169H27.6258V189.469H26.9258ZM21.7578 189.469H21.0578V203.789H21.7578H22.4578V189.469H21.7578ZM21.7578 203.789V203.089H19.9531V203.789V204.489H21.7578V203.789ZM19.9531 203.789H20.6531V189.469H19.9531H19.2531V203.789H19.9531ZM19.9531 189.469V188.769H14.7383V189.469V190.169H19.9531V189.469ZM14.7383 189.469H15.4383V187.793H14.7383H14.0383V189.469H14.7383ZM14.7383 187.793V188.493H26.9258V187.793V187.093H14.7383V187.793ZM26.9258 187.793H26.2258V189.469H26.9258H27.6258V187.793H26.9258ZM26.9258 189.469V188.769H21.7578V189.469V190.169H26.9258V189.469ZM30.2539 201.633H30.9539V200.933H30.2539V201.633ZM30.2539 203.789V204.489H30.9539V203.789H30.2539ZM28.4492 203.789H27.7492V204.489H28.4492V203.789ZM28.4492 201.633V200.933H27.7492V201.633H28.4492ZM30.2539 201.633H29.5539V203.789H30.2539H30.9539V201.633H30.2539ZM30.2539 203.789V203.089H28.4492V203.789V204.489H30.2539V203.789ZM28.4492 203.789H29.1492V201.633H28.4492H27.7492V203.789H28.4492ZM28.4492 201.633V202.333H30.2539V201.633V200.933H28.4492V201.633ZM44.7969 189.469V188.769H44.0969V189.469H44.7969ZM44.7969 203.789V204.489H45.4969V203.789H44.7969ZM42.9922 203.789H42.2922V204.489H42.9922V203.789ZM42.9922 189.469H43.6922V188.769H42.9922V189.469ZM37.7773 189.469H37.0773V190.169H37.7773V189.469ZM37.7773 187.793V187.093H37.0773V187.793H37.7773ZM49.9648 187.793H50.6648V187.093H49.9648V187.793ZM49.9648 189.469V190.169H50.6648V189.469H49.9648ZM44.7969 189.469H44.0969V203.789H44.7969H45.4969V189.469H44.7969ZM44.7969 203.789V203.089H42.9922V203.789V204.489H44.7969V203.789ZM42.9922 203.789H43.6922V189.469H42.9922H42.2922V203.789H42.9922ZM42.9922 189.469V188.769H37.7773V189.469V190.169H42.9922V189.469ZM37.7773 189.469H38.4773V187.793H37.7773H37.0773V189.469H37.7773ZM37.7773 187.793V188.493H49.9648V187.793V187.093H37.7773V187.793ZM49.9648 187.793H49.2648V189.469H49.9648H50.6648V187.793H49.9648ZM49.9648 189.469V188.769H44.7969V189.469V190.169H49.9648V189.469ZM51.5703 203.789H50.8703V204.489H51.5703V203.789ZM51.5703 187.793V187.093H50.8703V187.793H51.5703ZM63.3008 195.445L63.8844 195.832L63.8868 195.828L63.3008 195.445ZM61.1094 196.57L60.9992 195.879L60.4094 195.973V196.57H61.1094ZM61.1094 196.605H60.4094V197.256L61.0579 197.304L61.1094 196.605ZM63.6523 203.789V204.489H64.3523V203.789H63.6523ZM61.8477 203.789H61.1477V204.489H61.8477V203.789ZM53.375 197.309V196.609H52.675V197.309H53.375ZM53.375 203.789V204.489H54.075V203.789H53.375ZM53.375 195.785H52.675V196.485H53.375V195.785ZM61.4023 195.164L61.8488 195.703L61.8538 195.699L61.4023 195.164ZM61.5898 189.973L61.0536 190.423L61.0584 190.428L61.5898 189.973ZM53.375 189.316V188.616H52.675V189.316H53.375ZM51.5703 203.789H52.2703V187.793H51.5703H50.8703V203.789H51.5703ZM51.5703 187.793V188.493H59.1875V187.793V187.093H51.5703V187.793ZM59.1875 187.793V188.493C60.8511 188.493 61.8302 188.829 62.3338 189.316L62.8203 188.812L63.3068 188.309C62.4042 187.437 60.9614 187.093 59.1875 187.093V187.793ZM62.8203 188.812L62.3338 189.316C62.83 189.795 63.175 190.734 63.175 192.352H63.875H64.575C64.575 190.61 64.2169 189.189 63.3068 188.309L62.8203 188.812ZM63.875 192.352H63.175C63.175 193.813 62.9769 194.661 62.7148 195.062L63.3008 195.445L63.8868 195.828C64.3902 195.058 64.575 193.843 64.575 192.352H63.875ZM63.3008 195.445L62.7171 195.059C62.4913 195.4 61.9929 195.721 60.9992 195.879L61.1094 196.57L61.2196 197.262C62.3821 197.076 63.3446 196.647 63.8844 195.832L63.3008 195.445ZM61.1094 196.57H60.4094V196.605H61.1094H61.8094V196.57H61.1094ZM61.1094 196.605L61.0579 197.304C61.7699 197.356 62.2047 197.587 62.4758 197.917C62.7591 198.262 62.9523 198.821 62.9523 199.699H63.6523H64.3523C64.3523 198.64 64.1218 197.715 63.5574 197.028C62.9808 196.327 62.1442 195.98 61.1608 195.907L61.1094 196.605ZM63.6523 199.699H62.9523V203.789H63.6523H64.3523V199.699H63.6523ZM63.6523 203.789V203.089H61.8477V203.789V204.489H63.6523V203.789ZM61.8477 203.789H62.5477V200.109H61.8477H61.1477V203.789H61.8477ZM61.8477 200.109H62.5477C62.5477 199.091 62.3292 198.196 61.7703 197.551C61.1948 196.886 60.3667 196.609 59.4219 196.609V197.309V198.009C60.0943 198.009 60.479 198.198 60.7121 198.467C60.9618 198.755 61.1477 199.261 61.1477 200.109H61.8477ZM59.4219 197.309V196.609H58.8242V197.309V198.009H59.4219V197.309ZM58.8242 197.309V196.609H53.375V197.309V198.009H58.8242V197.309ZM53.375 197.309H52.675V203.789H53.375H54.075V197.309H53.375ZM53.375 203.789V203.089H51.5703V203.789V204.489H53.375V203.789ZM53.375 195.785V196.485H58.5898V195.785V195.085H53.375V195.785ZM58.5898 195.785V196.485C59.3083 196.485 59.9407 196.431 60.4752 196.313C61.0045 196.197 61.482 196.007 61.8488 195.703L61.4023 195.164L60.9559 194.625C60.8227 194.735 60.5814 194.856 60.1733 194.946C59.7703 195.035 59.2464 195.085 58.5898 195.085V195.785ZM61.4023 195.164L61.8538 195.699C62.598 195.071 62.8523 194.01 62.8523 192.797H62.1523H61.4523C61.4523 193.897 61.2067 194.413 60.9509 194.629L61.4023 195.164ZM62.1523 192.797H62.8523C62.8523 192.049 62.8042 191.402 62.6982 190.87C62.5948 190.351 62.4229 189.869 62.1213 189.517L61.5898 189.973L61.0584 190.428C61.1318 190.514 61.2411 190.721 61.3252 191.144C61.4067 191.553 61.4523 192.1 61.4523 192.797H62.1523ZM61.5898 189.973L62.126 189.523C61.8192 189.157 61.3815 188.937 60.9059 188.806C60.4272 188.674 59.8561 188.616 59.2109 188.616V189.316V190.016C59.7846 190.016 60.2193 190.069 60.5336 190.155C60.8509 190.243 60.9933 190.351 61.0537 190.423L61.5898 189.973ZM59.2109 189.316V188.616H53.375V189.316V190.016H59.2109V189.316ZM53.375 189.316H52.675V195.785H53.375H54.075V189.316H53.375ZM76.3555 200.402L77.0127 200.161L76.8443 199.702H76.3555V200.402ZM68.2578 200.402V199.702H67.7674L67.5999 200.163L68.2578 200.402ZM67.0273 203.789V204.489H67.5178L67.6853 204.028L67.0273 203.789ZM65.1172 203.789L64.4599 203.548L64.1153 204.489H65.1172V203.789ZM70.9766 187.793V187.093H70.4875L70.3193 187.552L70.9766 187.793ZM73.5078 187.793L74.1635 187.548L73.9935 187.093H73.5078V187.793ZM79.4844 203.789V204.489H80.4932L80.1401 203.544L79.4844 203.789ZM77.5977 203.789L76.9405 204.03L77.1088 204.489H77.5977V203.789ZM75.8281 199.043V199.743H76.8272L76.486 198.804L75.8281 199.043ZM72.2773 189.27L72.9353 189.031L72.273 187.208L71.6184 189.033L72.2773 189.27ZM68.7734 199.043L68.1145 198.807L67.7789 199.743H68.7734V199.043ZM76.3555 200.402V199.702H68.2578V200.402V201.102H76.3555V200.402ZM68.2578 200.402L67.5999 200.163L66.3694 203.55L67.0273 203.789L67.6853 204.028L68.9157 200.641L68.2578 200.402ZM67.0273 203.789V203.089H65.1172V203.789V204.489H67.0273V203.789ZM65.1172 203.789L65.7745 204.03L71.6339 188.034L70.9766 187.793L70.3193 187.552L64.4599 203.548L65.1172 203.789ZM70.9766 187.793V188.493H73.5078V187.793V187.093H70.9766V187.793ZM73.5078 187.793L72.8521 188.038L78.8287 204.034L79.4844 203.789L80.1401 203.544L74.1635 187.548L73.5078 187.793ZM79.4844 203.789V203.089H77.5977V203.789V204.489H79.4844V203.789ZM77.5977 203.789L78.2548 203.548L77.0127 200.161L76.3555 200.402L75.6983 200.643L76.9405 204.03L77.5977 203.789ZM75.8281 199.043L76.486 198.804L72.9353 189.031L72.2773 189.27L71.6194 189.509L75.1702 199.282L75.8281 199.043ZM72.2773 189.27L71.6184 189.033L68.1145 198.807L68.7734 199.043L69.4324 199.279L72.9363 189.506L72.2773 189.27ZM68.7734 199.043V199.743H75.8281V199.043V198.343H68.7734V199.043ZM94.7891 187.793H95.4891V187.093H94.7891V187.793ZM94.7891 203.789V204.489H95.4891V203.789H94.7891ZM91.8242 203.789L91.2281 204.156L91.4332 204.489H91.8242V203.789ZM85.1211 192.902L84.5229 193.266L84.525 193.269L85.1211 192.902ZM84.0312 191.109L83.4324 191.472L83.4331 191.473L84.0312 191.109ZM82.9531 189.328L83.552 188.966L83.3477 188.628H82.9531V189.328ZM82.9062 189.328V188.628H82.1924L82.2064 189.342L82.9062 189.328ZM82.918 189.926L83.6178 189.912V189.912L82.918 189.926ZM82.9297 190.535H83.6298L83.6296 190.522L82.9297 190.535ZM82.9297 203.789V204.489H83.6297V203.789H82.9297ZM81.125 203.789H80.425V204.489H81.125V203.789ZM81.125 187.793V187.093H80.425V187.793H81.125ZM84.0781 187.793L84.6749 187.427L84.4701 187.093H84.0781V187.793ZM89.9258 197.332L90.524 196.969L90.5226 196.966L89.9258 197.332ZM91.4492 199.84L90.851 200.203L90.8525 200.206L91.4492 199.84ZM92.2109 201.082L92.8117 200.723L92.8077 200.716L92.2109 201.082ZM92.9609 202.336L92.3602 202.695L92.564 203.036H92.9609V202.336ZM93.0078 202.336V203.036H93.7217L93.7077 202.322L93.0078 202.336ZM92.9961 201.738L92.2962 201.752V201.752L92.9961 201.738ZM92.9844 201.129H92.2842L92.2845 201.142L92.9844 201.129ZM92.9844 187.793V187.093H92.2844V187.793H92.9844ZM94.7891 187.793H94.0891V203.789H94.7891H95.4891V187.793H94.7891ZM94.7891 203.789V203.089H91.8242V203.789V204.489H94.7891V203.789ZM91.8242 203.789L92.4203 203.422L85.7172 192.535L85.1211 192.902L84.525 193.269L91.2281 204.156L91.8242 203.789ZM85.1211 192.902L85.7193 192.539L84.6294 190.746L84.0312 191.109L83.4331 191.473L84.5229 193.266L85.1211 192.902ZM84.0312 191.109L84.6301 190.747L84.091 189.856L83.4922 190.219L82.8933 190.581L83.4324 191.472L84.0312 191.109ZM83.4922 190.219L84.091 189.856L83.552 188.966L82.9531 189.328L82.3543 189.691L82.8933 190.581L83.4922 190.219ZM82.9531 189.328V188.628H82.9062V189.328V190.028H82.9531V189.328ZM82.9062 189.328L82.2064 189.342L82.2181 189.94L82.918 189.926L83.6178 189.912L83.6061 189.314L82.9062 189.328ZM82.918 189.926L82.2181 189.939L82.2298 190.549L82.9297 190.535L83.6296 190.522L83.6178 189.912L82.918 189.926ZM82.9297 190.535H82.2297V191.73H82.9297H83.6297V190.535H82.9297ZM82.9297 191.73H82.2297V203.789H82.9297H83.6297V191.73H82.9297ZM82.9297 203.789V203.089H81.125V203.789V204.489H82.9297V203.789ZM81.125 203.789H81.825V187.793H81.125H80.425V203.789H81.125ZM81.125 187.793V188.493H84.0781V187.793V187.093H81.125V187.793ZM84.0781 187.793L83.4813 188.159L89.329 197.698L89.9258 197.332L90.5226 196.966L84.6749 187.427L84.0781 187.793ZM89.9258 197.332L89.3275 197.695L90.851 200.203L91.4492 199.84L92.0475 199.476L90.524 196.969L89.9258 197.332ZM91.4492 199.84L90.8525 200.206L91.6142 201.448L92.2109 201.082L92.8077 200.716L92.046 199.474L91.4492 199.84ZM92.2109 201.082L91.6102 201.441L92.3602 202.695L92.9609 202.336L93.5617 201.977L92.8117 200.723L92.2109 201.082ZM92.9609 202.336V203.036H93.0078V202.336V201.636H92.9609V202.336ZM93.0078 202.336L93.7077 202.322L93.696 201.725L92.9961 201.738L92.2962 201.752L92.3079 202.35L93.0078 202.336ZM92.9961 201.738L93.696 201.725L93.6842 201.115L92.9844 201.129L92.2845 201.142L92.2962 201.752L92.9961 201.738ZM92.9844 201.129H93.6844V199.934H92.9844H92.2844V201.129H92.9844ZM92.9844 199.934H93.6844V187.793H92.9844H92.2844V199.934H92.9844ZM92.9844 187.793V188.493H94.7891V187.793V187.093H92.9844V187.793ZM108.805 192.129V192.829H109.505V192.129H108.805ZM107.012 192.129H106.312V192.829H107.012V192.129ZM106.367 189.68L105.924 190.221L105.93 190.226L106.367 189.68ZM99.6758 189.656L100.036 190.257L100.042 190.253L99.6758 189.656ZM103.332 194.801L103.299 195.5L103.301 195.5L103.332 194.801ZM108.078 195.75L107.648 196.302L107.651 196.305L108.078 195.75ZM107.926 203.086L107.509 202.523L107.507 202.525L107.926 203.086ZM98.1758 203.086L97.7476 203.64L97.754 203.645L98.1758 203.086ZM97.0391 199.559H97.7392L97.739 199.547L97.0391 199.559ZM97.0273 198.844V198.144H96.3158L96.3274 198.855L97.0273 198.844ZM98.8203 198.844H99.5203V198.144H98.8203V198.844ZM99.4766 201.914L99.0381 202.46L99.0441 202.464L99.4766 201.914ZM106.66 201.914L107.07 202.482L107.076 202.477L106.66 201.914ZM106.883 197.18L106.382 197.669L106.388 197.675L106.394 197.681L106.883 197.18ZM104.855 196.594L104.898 195.895L104.89 195.895L104.855 196.594ZM102.98 196.5L102.944 197.199L102.946 197.199L102.98 196.5ZM101.199 196.406L101.151 197.105L101.162 197.105L101.199 196.406ZM107.715 188.484L107.283 189.035L107.286 189.038L107.715 188.484ZM108.805 192.129V191.429H107.012V192.129V192.829H108.805V192.129ZM107.012 192.129H107.712C107.712 191.452 107.656 190.86 107.528 190.372C107.401 189.891 107.184 189.437 106.804 189.133L106.367 189.68L105.93 190.226C105.98 190.266 106.085 190.392 106.174 190.728C106.26 191.056 106.312 191.516 106.312 192.129H107.012ZM106.367 189.68L106.81 189.138C106.453 188.845 105.945 188.688 105.406 188.595C104.845 188.497 104.15 188.452 103.332 188.452V189.152V189.852C104.108 189.852 104.715 189.895 105.166 189.974C105.639 190.056 105.852 190.163 105.924 190.221L106.367 189.68ZM103.332 189.152V188.452C102.37 188.452 101.558 188.495 100.904 188.585C100.271 188.672 99.7105 188.813 99.3094 189.06L99.6758 189.656L100.042 190.253C100.188 190.163 100.51 190.052 101.096 189.972C101.661 189.894 102.404 189.852 103.332 189.852V189.152ZM99.6758 189.656L99.3156 189.056C98.4318 189.586 98.1555 190.673 98.1555 191.871H98.8555H99.5555C99.5555 190.773 99.826 190.382 100.036 190.256L99.6758 189.656ZM98.8555 191.871H98.1555C98.1555 192.546 98.2108 193.134 98.3414 193.612C98.4689 194.077 98.6956 194.537 99.1166 194.812L99.5 194.227L99.8834 193.641C99.8747 193.635 99.7792 193.561 99.6918 193.242C99.6075 192.934 99.5555 192.485 99.5555 191.871H98.8555ZM99.5 194.227L99.1166 194.812C99.313 194.941 99.554 195.029 99.7944 195.095C100.044 195.164 100.341 195.223 100.677 195.273C101.349 195.374 102.226 195.449 103.299 195.5L103.332 194.801L103.365 194.102C102.314 194.051 101.489 193.979 100.884 193.889C100.581 193.843 100.345 193.795 100.168 193.746C99.9816 193.694 99.9018 193.653 99.8834 193.641L99.5 194.227ZM103.332 194.801L103.301 195.5C104.529 195.554 105.508 195.658 106.25 195.807C107.014 195.959 107.444 196.144 107.648 196.302L108.078 195.75L108.508 195.198C108.04 194.833 107.344 194.597 106.525 194.434C105.685 194.266 104.628 194.157 103.363 194.101L103.332 194.801ZM108.078 195.75L107.651 196.305C107.833 196.444 108.025 196.715 108.17 197.216C108.315 197.716 108.398 198.392 108.398 199.266H109.098H109.798C109.798 198.319 109.71 197.499 109.515 196.827C109.321 196.156 109.003 195.579 108.505 195.195L108.078 195.75ZM109.098 199.266H108.398C108.398 200.21 108.303 200.945 108.135 201.492C107.968 202.038 107.742 202.351 107.509 202.523L107.926 203.086L108.342 203.649C108.891 203.243 109.251 202.63 109.474 201.903C109.697 201.176 109.798 200.29 109.798 199.266H109.098ZM107.926 203.086L107.507 202.525C107.255 202.714 106.766 202.907 105.943 203.046C105.139 203.182 104.088 203.253 102.781 203.253V203.953V204.653C104.13 204.653 105.266 204.58 106.176 204.427C107.068 204.276 107.823 204.036 108.345 203.647L107.926 203.086ZM102.781 203.953V203.253C101.654 203.253 100.741 203.182 100.031 203.048C99.3104 202.913 98.8566 202.723 98.5976 202.527L98.1758 203.086L97.754 203.645C98.2606 204.027 98.9572 204.271 99.7718 204.424C100.597 204.58 101.604 204.653 102.781 204.653V203.953ZM98.1758 203.086L98.604 202.532C98.1186 202.157 97.7391 201.279 97.7391 199.559H97.0391H96.3391C96.3391 201.369 96.7173 202.843 97.7476 203.64L98.1758 203.086ZM97.0391 199.559L97.739 199.547L97.7272 198.832L97.0273 198.844L96.3274 198.855L96.3392 199.57L97.0391 199.559ZM97.0273 198.844V199.544H98.8203V198.844V198.144H97.0273V198.844ZM98.8203 198.844H98.1203V199.242H98.8203H99.5203V198.844H98.8203ZM98.8203 199.242H98.1203C98.1203 199.986 98.1765 200.628 98.3046 201.149C98.4292 201.657 98.6446 202.144 99.0381 202.46L99.4766 201.914L99.915 201.368C99.871 201.333 99.7583 201.199 99.6642 200.815C99.5735 200.446 99.5203 199.928 99.5203 199.242H98.8203ZM99.4766 201.914L99.0441 202.464C99.4139 202.755 99.9596 202.904 100.539 202.993C101.149 203.086 101.92 203.13 102.84 203.13V202.43V201.73C101.955 201.73 101.263 201.687 100.752 201.609C100.21 201.526 99.9767 201.417 99.909 201.364L99.4766 201.914ZM102.84 202.43V203.13C103.89 203.13 104.761 203.086 105.441 202.994C106.087 202.907 106.679 202.764 107.07 202.482L106.66 201.914L106.251 201.346C106.165 201.408 105.882 201.522 105.254 201.607C104.661 201.687 103.86 201.73 102.84 201.73V202.43ZM106.66 201.914L107.076 202.477C107.503 202.162 107.738 201.658 107.874 201.127C108.014 200.583 108.075 199.908 108.075 199.125H107.375H106.675C106.675 199.85 106.617 200.394 106.518 200.779C106.416 201.178 106.294 201.314 106.245 201.351L106.66 201.914ZM107.375 199.125H108.075C108.075 198.603 108.032 198.134 107.931 197.735C107.831 197.339 107.661 196.961 107.372 196.679L106.883 197.18L106.394 197.681C106.432 197.718 106.509 197.825 106.573 198.078C106.636 198.327 106.675 198.671 106.675 199.125H107.375ZM106.883 197.18L107.384 196.691C107.105 196.406 106.727 196.229 106.33 196.115C105.925 195.998 105.443 195.928 104.898 195.895L104.855 196.594L104.813 197.292C105.299 197.322 105.67 197.381 105.941 197.46C106.22 197.54 106.34 197.626 106.382 197.669L106.883 197.18ZM104.855 196.594L104.89 195.895L103.015 195.801L102.98 196.5L102.946 197.199L104.821 197.293L104.855 196.594ZM102.98 196.5L103.017 195.801L101.236 195.707L101.199 196.406L101.162 197.105L102.944 197.199L102.98 196.5ZM101.199 196.406L101.248 195.708C99.9972 195.621 99.1708 195.262 98.6534 194.725C98.1397 194.192 97.8328 193.383 97.8328 192.188H97.1328H96.4328C96.4328 193.617 96.8037 194.823 97.6454 195.697C98.4835 196.566 99.6903 197.004 101.151 197.105L101.199 196.406ZM97.1328 192.188H97.8328C97.8328 190.415 98.2268 189.497 98.7443 189.097L98.3164 188.543L97.8885 187.989C96.8279 188.808 96.4328 190.32 96.4328 192.188H97.1328ZM98.3164 188.543L98.7443 189.097C99.0152 188.888 99.4839 188.687 100.222 188.545C100.95 188.404 101.885 188.329 103.039 188.329V187.629V186.929C101.834 186.929 100.802 187.006 99.9558 187.17C99.1196 187.332 98.4067 187.589 97.8885 187.989L98.3164 188.543ZM103.039 187.629V188.329C104.211 188.329 105.153 188.399 105.875 188.531C106.612 188.666 107.051 188.853 107.283 189.035L107.715 188.484L108.147 187.934C107.652 187.545 106.948 187.305 106.127 187.154C105.291 187.001 104.258 186.929 103.039 186.929V187.629ZM107.715 188.484L107.286 189.038C107.497 189.201 107.706 189.499 107.862 190.018C108.017 190.537 108.105 191.234 108.105 192.129H108.805H109.505C109.505 191.156 109.411 190.312 109.203 189.617C108.995 188.921 108.659 188.33 108.143 187.931L107.715 188.484ZM134.82 187.793H135.52V187.093H134.82V187.793ZM134.82 203.789V204.489H135.52V203.789H134.82ZM133.016 203.789H132.316V204.489H133.016V203.789ZM133.016 190.031L132.316 190.014L132.316 190.023V190.031H133.016ZM133.039 189.07L133.739 189.087L133.756 188.37H133.039V189.07ZM132.992 189.07V188.37H132.507L132.337 188.825L132.992 189.07ZM132.711 189.809L132.067 189.533L132.062 189.545L132.711 189.809ZM132.406 190.559L133.054 190.825L133.055 190.822L132.406 190.559ZM126.957 203.789V204.489H127.426L127.604 204.056L126.957 203.789ZM125.152 203.789L124.506 204.059L124.686 204.489H125.152V203.789ZM119.691 190.711L120.337 190.441L120.335 190.435L119.691 190.711ZM119.375 189.973L118.72 190.218L118.725 190.234L118.732 190.248L119.375 189.973ZM119.234 189.598L119.89 189.352L119.881 189.33L119.872 189.308L119.234 189.598ZM119.094 189.234L119.754 189.003L119.59 188.534H119.094V189.234ZM119.047 189.234V188.534H118.328L118.347 189.253L119.047 189.234ZM119.059 189.668L119.758 189.65L119.758 189.649L119.059 189.668ZM119.07 190.113H119.77V190.104L119.77 190.095L119.07 190.113ZM119.07 203.789V204.489H119.77V203.789H119.07ZM117.266 203.789H116.566V204.489H117.266V203.789ZM117.266 187.793V187.093H116.566V187.793H117.266ZM120.395 187.793L121.042 187.526L120.863 187.093H120.395V187.793ZM124.66 198.141L125.309 197.878L125.307 197.874L124.66 198.141ZM125.34 199.816L124.691 200.08L124.692 200.081L125.34 199.816ZM125.68 200.648L126.331 200.392L126.328 200.384L125.68 200.648ZM126.008 201.48L125.357 201.737L125.531 202.18H126.008V201.48ZM126.055 201.48V202.18H126.531L126.706 201.737L126.055 201.48ZM126.383 200.648L125.735 200.382L125.732 200.392L126.383 200.648ZM126.711 199.816L126.065 199.548L126.057 199.566L126.05 199.585L126.711 199.816ZM127.402 198.152L128.049 198.421L128.05 198.418L127.402 198.152ZM131.645 187.793V187.093H131.175L130.997 187.528L131.645 187.793ZM134.82 187.793H134.12V203.789H134.82H135.52V187.793H134.82ZM134.82 203.789V203.089H133.016V203.789V204.489H134.82V203.789ZM133.016 203.789H133.716V190.992H133.016H132.316V203.789H133.016ZM133.016 190.992H133.716V190.031H133.016H132.316V190.992H133.016ZM133.016 190.031L133.715 190.048L133.727 189.568L133.027 189.551L132.328 189.534L132.316 190.014L133.016 190.031ZM133.027 189.551L133.727 189.568L133.739 189.087L133.039 189.07L132.339 189.053L132.328 189.534L133.027 189.551ZM133.039 189.07V188.37H132.992V189.07V189.77H133.039V189.07ZM132.992 189.07L132.337 188.825L132.196 189.2L132.852 189.445L133.507 189.691L133.648 189.316L132.992 189.07ZM132.852 189.445L132.196 189.2C132.124 189.391 132.083 189.496 132.068 189.533L132.711 189.809L133.354 190.084C133.385 190.012 133.438 189.875 133.507 189.691L132.852 189.445ZM132.711 189.809L132.062 189.545L131.758 190.295L132.406 190.559L133.055 190.822L133.359 190.072L132.711 189.809ZM132.406 190.559L131.759 190.292L126.31 203.522L126.957 203.789L127.604 204.056L133.053 190.825L132.406 190.559ZM126.957 203.789V203.089H125.152V203.789V204.489H126.957V203.789ZM125.152 203.789L125.798 203.519L120.337 190.441L119.691 190.711L119.045 190.981L124.506 204.059L125.152 203.789ZM119.691 190.711L120.335 190.435L120.018 189.697L119.375 189.973L118.732 190.248L119.048 190.987L119.691 190.711ZM119.375 189.973L120.03 189.727L119.89 189.352L119.234 189.598L118.579 189.843L118.72 190.218L119.375 189.973ZM119.234 189.598L119.872 189.308C119.845 189.25 119.807 189.152 119.754 189.003L119.094 189.234L118.433 189.466C118.49 189.629 118.545 189.773 118.597 189.887L119.234 189.598ZM119.094 189.234V188.534H119.047V189.234V189.934H119.094V189.234ZM119.047 189.234L118.347 189.253L118.359 189.687L119.059 189.668L119.758 189.649L119.747 189.215L119.047 189.234ZM119.059 189.668L118.359 189.686L118.371 190.132L119.07 190.113L119.77 190.095L119.758 189.65L119.059 189.668ZM119.07 190.113H118.37V190.992H119.07H119.77V190.113H119.07ZM119.07 190.992H118.37V203.789H119.07H119.77V190.992H119.07ZM119.07 203.789V203.089H117.266V203.789V204.489H119.07V203.789ZM117.266 203.789H117.966V187.793H117.266H116.566V203.789H117.266ZM117.266 187.793V188.493H120.395V187.793V187.093H117.266V187.793ZM120.395 187.793L119.747 188.06L124.013 198.407L124.66 198.141L125.307 197.874L121.042 187.526L120.395 187.793ZM124.66 198.141L124.011 198.404L124.691 200.08L125.34 199.816L125.989 199.553L125.309 197.878L124.66 198.141ZM125.34 199.816L124.692 200.081L125.032 200.913L125.68 200.648L126.328 200.384L125.988 199.552L125.34 199.816ZM125.68 200.648L125.028 200.905L125.357 201.737L126.008 201.48L126.659 201.224L126.331 200.392L125.68 200.648ZM126.008 201.48V202.18H126.055V201.48V200.78H126.008V201.48ZM126.055 201.48L126.706 201.737L127.034 200.905L126.383 200.648L125.732 200.392L125.403 201.224L126.055 201.48ZM126.383 200.648L127.03 200.915C127.194 200.518 127.31 200.224 127.372 200.048L126.711 199.816L126.05 199.585C126.003 199.721 125.9 199.982 125.736 200.382L126.383 200.648ZM126.711 199.816L127.357 200.085L128.049 198.421L127.402 198.152L126.756 197.884L126.065 199.548L126.711 199.816ZM127.402 198.152L128.05 198.418L132.292 188.058L131.645 187.793L130.997 187.528L126.755 197.887L127.402 198.152ZM131.645 187.793V188.493H134.82V187.793V187.093H131.645V187.793ZM147.699 200.402L148.356 200.161L148.188 199.702H147.699V200.402ZM139.602 200.402V199.702H139.111L138.944 200.163L139.602 200.402ZM138.371 203.789V204.489H138.862L139.029 204.028L138.371 203.789ZM136.461 203.789L135.804 203.548L135.459 204.489H136.461V203.789ZM142.32 187.793V187.093H141.831L141.663 187.552L142.32 187.793ZM144.852 187.793L145.507 187.548L145.337 187.093H144.852V187.793ZM150.828 203.789V204.489H151.837L151.484 203.544L150.828 203.789ZM148.941 203.789L148.284 204.03L148.453 204.489H148.941V203.789ZM147.172 199.043V199.743H148.171L147.83 198.804L147.172 199.043ZM143.621 189.27L144.279 189.031L143.617 187.208L142.962 189.033L143.621 189.27ZM140.117 199.043L139.458 198.807L139.123 199.743H140.117V199.043ZM147.699 200.402V199.702H139.602V200.402V201.102H147.699V200.402ZM139.602 200.402L138.944 200.163L137.713 203.55L138.371 203.789L139.029 204.028L140.259 200.641L139.602 200.402ZM138.371 203.789V203.089H136.461V203.789V204.489H138.371V203.789ZM136.461 203.789L137.118 204.03L142.978 188.034L142.32 187.793L141.663 187.552L135.804 203.548L136.461 203.789ZM142.32 187.793V188.493H144.852V187.793V187.093H142.32V187.793ZM144.852 187.793L144.196 188.038L150.172 204.034L150.828 203.789L151.484 203.544L145.507 187.548L144.852 187.793ZM150.828 203.789V203.089H148.941V203.789V204.489H150.828V203.789ZM148.941 203.789L149.599 203.548L148.356 200.161L147.699 200.402L147.042 200.643L148.284 204.03L148.941 203.789ZM147.172 199.043L147.83 198.804L144.279 189.031L143.621 189.27L142.963 189.509L146.514 199.282L147.172 199.043ZM143.621 189.27L142.962 189.033L139.458 198.807L140.117 199.043L140.776 199.279L144.28 189.506L143.621 189.27ZM140.117 199.043V199.743H147.172V199.043V198.343H140.117V199.043ZM154.273 187.793H154.973V187.093H154.273V187.793ZM154.273 194.777H153.573V195.477H154.273V194.777ZM155.855 194.777V195.477H156.158L156.366 195.257L155.855 194.777ZM162.418 187.793V187.093H162.115L161.908 187.314L162.418 187.793ZM164.75 187.793L165.258 188.275L166.379 187.093H164.75V187.793ZM157.438 195.504L156.93 195.022L156.463 195.514L156.94 195.996L157.438 195.504ZM165.641 203.789V204.489H167.319L166.138 203.297L165.641 203.789ZM163.168 203.789L162.667 204.278L162.873 204.489H163.168V203.789ZM155.855 196.301L156.356 195.812L156.15 195.601H155.855V196.301ZM154.273 196.301V195.601H153.573V196.301H154.273ZM154.273 203.789V204.489H154.973V203.789H154.273ZM152.469 203.789H151.769V204.489H152.469V203.789ZM152.469 187.793V187.093H151.769V187.793H152.469ZM154.273 187.793H153.573V194.777H154.273H154.973V187.793H154.273ZM154.273 194.777V195.477H155.855V194.777V194.077H154.273V194.777ZM155.855 194.777L156.366 195.257L162.928 188.272L162.418 187.793L161.908 187.314L155.345 194.298L155.855 194.777ZM162.418 187.793V188.493H164.75V187.793V187.093H162.418V187.793ZM164.75 187.793L164.242 187.311L156.93 195.022L157.438 195.504L157.945 195.986L165.258 188.275L164.75 187.793ZM157.438 195.504L156.94 195.996L165.143 204.282L165.641 203.789L166.138 203.297L157.935 195.011L157.438 195.504ZM165.641 203.789V203.089H163.168V203.789V204.489H165.641V203.789ZM163.168 203.789L163.669 203.3L156.356 195.812L155.855 196.301L155.355 196.79L162.667 204.278L163.168 203.789ZM155.855 196.301V195.601H154.273V196.301V197.001H155.855V196.301ZM154.273 196.301H153.573V203.789H154.273H154.973V196.301H154.273ZM154.273 203.789V203.089H152.469V203.789V204.489H154.273V203.789ZM152.469 203.789H153.169V187.793H152.469H151.769V203.789H152.469ZM152.469 187.793V188.493H154.273V187.793V187.093H152.469V187.793ZM184.508 187.793H185.208V187.093H184.508V187.793ZM184.508 203.789V204.489H185.208V203.789H184.508ZM182.703 203.789H182.003V204.489H182.703V203.789ZM182.703 190.031L182.003 190.014L182.003 190.023V190.031H182.703ZM182.727 189.07L183.426 189.087L183.444 188.37H182.727V189.07ZM182.68 189.07V188.37H182.195L182.024 188.825L182.68 189.07ZM182.398 189.809L181.755 189.533L181.75 189.545L182.398 189.809ZM182.094 190.559L182.741 190.825L182.742 190.822L182.094 190.559ZM176.645 203.789V204.489H177.113L177.292 204.056L176.645 203.789ZM174.84 203.789L174.194 204.059L174.374 204.489H174.84V203.789ZM169.379 190.711L170.025 190.441L170.022 190.435L169.379 190.711ZM169.062 189.973L168.407 190.218L168.413 190.234L168.419 190.248L169.062 189.973ZM168.922 189.598L169.577 189.352L169.569 189.33L169.559 189.308L168.922 189.598ZM168.781 189.234L169.442 189.003L169.278 188.534H168.781V189.234ZM168.734 189.234V188.534H168.015L168.035 189.253L168.734 189.234ZM168.746 189.668L169.446 189.65L169.446 189.649L168.746 189.668ZM168.758 190.113H169.458V190.104L169.458 190.095L168.758 190.113ZM168.758 203.789V204.489H169.458V203.789H168.758ZM166.953 203.789H166.253V204.489H166.953V203.789ZM166.953 187.793V187.093H166.253V187.793H166.953ZM170.082 187.793L170.729 187.526L170.551 187.093H170.082V187.793ZM174.348 198.141L174.996 197.878L174.995 197.874L174.348 198.141ZM175.027 199.816L174.379 200.08L174.379 200.081L175.027 199.816ZM175.367 200.648L176.018 200.392L176.015 200.384L175.367 200.648ZM175.695 201.48L175.044 201.737L175.219 202.18H175.695V201.48ZM175.742 201.48V202.18H176.219L176.393 201.737L175.742 201.48ZM176.07 200.648L175.423 200.382L175.419 200.392L176.07 200.648ZM176.398 199.816L175.752 199.548L175.744 199.566L175.738 199.585L176.398 199.816ZM177.09 198.152L177.736 198.421L177.738 198.418L177.09 198.152ZM181.332 187.793V187.093H180.862L180.684 187.528L181.332 187.793ZM184.508 187.793H183.808V203.789H184.508H185.208V187.793H184.508ZM184.508 203.789V203.089H182.703V203.789V204.489H184.508V203.789ZM182.703 203.789H183.403V190.992H182.703H182.003V203.789H182.703ZM182.703 190.992H183.403V190.031H182.703H182.003V190.992H182.703ZM182.703 190.031L183.403 190.048L183.415 189.568L182.715 189.551L182.015 189.534L182.003 190.014L182.703 190.031ZM182.715 189.551L183.415 189.568L183.426 189.087L182.727 189.07L182.027 189.053L182.015 189.534L182.715 189.551ZM182.727 189.07V188.37H182.68V189.07V189.77H182.727V189.07ZM182.68 189.07L182.024 188.825L181.884 189.2L182.539 189.445L183.194 189.691L183.335 189.316L182.68 189.07ZM182.539 189.445L181.884 189.2C181.812 189.391 181.771 189.496 181.755 189.533L182.398 189.809L183.042 190.084C183.073 190.012 183.126 189.875 183.194 189.691L182.539 189.445ZM182.398 189.809L181.75 189.545L181.445 190.295L182.094 190.559L182.742 190.822L183.047 190.072L182.398 189.809ZM182.094 190.559L181.447 190.292L175.997 203.522L176.645 203.789L177.292 204.056L182.741 190.825L182.094 190.559ZM176.645 203.789V203.089H174.84V203.789V204.489H176.645V203.789ZM174.84 203.789L175.486 203.519L170.025 190.441L169.379 190.711L168.733 190.981L174.194 204.059L174.84 203.789ZM169.379 190.711L170.022 190.435L169.706 189.697L169.062 189.973L168.419 190.248L168.736 190.987L169.379 190.711ZM169.062 189.973L169.718 189.727L169.577 189.352L168.922 189.598L168.266 189.843L168.407 190.218L169.062 189.973ZM168.922 189.598L169.559 189.308C169.533 189.25 169.494 189.152 169.442 189.003L168.781 189.234L168.121 189.466C168.178 189.629 168.233 189.773 168.285 189.887L168.922 189.598ZM168.781 189.234V188.534H168.734V189.234V189.934H168.781V189.234ZM168.734 189.234L168.035 189.253L168.046 189.687L168.746 189.668L169.446 189.649L169.434 189.215L168.734 189.234ZM168.746 189.668L168.046 189.686L168.058 190.132L168.758 190.113L169.458 190.095L169.446 189.65L168.746 189.668ZM168.758 190.113H168.058V190.992H168.758H169.458V190.113H168.758ZM168.758 190.992H168.058V203.789H168.758H169.458V190.992H168.758ZM168.758 203.789V203.089H166.953V203.789V204.489H168.758V203.789ZM166.953 203.789H167.653V187.793H166.953H166.253V203.789H166.953ZM166.953 187.793V188.493H170.082V187.793V187.093H166.953V187.793ZM170.082 187.793L169.435 188.06L173.7 198.407L174.348 198.141L174.995 197.874L170.729 187.526L170.082 187.793ZM174.348 198.141L173.699 198.404L174.379 200.08L175.027 199.816L175.676 199.553L174.996 197.878L174.348 198.141ZM175.027 199.816L174.379 200.081L174.719 200.913L175.367 200.648L176.015 200.384L175.675 199.552L175.027 199.816ZM175.367 200.648L174.716 200.905L175.044 201.737L175.695 201.48L176.346 201.224L176.018 200.392L175.367 200.648ZM175.695 201.48V202.18H175.742V201.48V200.78H175.695V201.48ZM175.742 201.48L176.393 201.737L176.721 200.905L176.07 200.648L175.419 200.392L175.091 201.224L175.742 201.48ZM176.07 200.648L176.718 200.915C176.881 200.518 176.997 200.224 177.059 200.048L176.398 199.816L175.738 199.585C175.69 199.721 175.588 199.982 175.423 200.382L176.07 200.648ZM176.398 199.816L177.045 200.085L177.736 198.421L177.09 198.152L176.443 197.884L175.752 199.548L176.398 199.816ZM177.09 198.152L177.738 198.418L181.98 188.058L181.332 187.793L180.684 187.528L176.442 197.887L177.09 198.152ZM181.332 187.793V188.493H184.508V187.793V187.093H181.332V187.793ZM198.43 187.793V187.093H197.73V187.793H198.43ZM200.234 187.793H200.934V187.093H200.234V187.793ZM199.004 203.004L199.434 203.556L199.435 203.556L199.004 203.004ZM188.879 203.039L188.475 203.611L188.481 203.615L188.879 203.039ZM187.566 187.793V187.093H186.866V187.793H187.566ZM189.371 187.793H190.071V187.093H189.371V187.793ZM190.109 201.855L189.674 202.404L189.68 202.408L190.109 201.855ZM197.656 201.867L198.068 202.433L198.074 202.429L197.656 201.867ZM198.43 187.793V188.493H200.234V187.793V187.093H198.43V187.793ZM200.234 187.793H199.534V198.996H200.234H200.934V187.793H200.234ZM200.234 198.996H199.534C199.534 200.999 199.117 202.028 198.573 202.452L199.004 203.004L199.435 203.556C200.532 202.699 200.934 201.056 200.934 198.996H200.234ZM199.004 203.004L198.574 202.452C198.297 202.667 197.796 202.877 196.984 203.027C196.186 203.175 195.152 203.253 193.871 203.253V203.953V204.653C195.2 204.653 196.326 204.573 197.239 204.404C198.138 204.238 198.898 203.974 199.434 203.556L199.004 203.004ZM193.871 203.953V203.253C192.674 203.253 191.692 203.178 190.915 203.036C190.13 202.892 189.603 202.688 189.277 202.463L188.879 203.039L188.481 203.615C189.038 203.999 189.784 204.252 190.663 204.413C191.55 204.576 192.623 204.653 193.871 204.653V203.953ZM188.879 203.039L189.282 202.467C188.684 202.045 188.266 201.167 188.266 199.535H187.566H186.866C186.866 201.341 187.324 202.799 188.475 203.611L188.879 203.039ZM187.566 199.535H188.266V198.996H187.566H186.866V199.535H187.566ZM187.566 198.996H188.266V187.793H187.566H186.866V198.996H187.566ZM187.566 187.793V188.493H189.371V187.793V187.093H187.566V187.793ZM189.371 187.793H188.671V198.996H189.371H190.071V187.793H189.371ZM189.371 198.996H188.671C188.671 199.785 188.734 200.467 188.878 201.023C189.019 201.569 189.258 202.074 189.674 202.404L190.109 201.855L190.545 201.307C190.468 201.247 190.339 201.08 190.233 200.673C190.131 200.275 190.071 199.723 190.071 198.996H189.371ZM190.109 201.855L189.68 202.408C190.072 202.713 190.648 202.878 191.277 202.978C191.933 203.081 192.759 203.13 193.742 203.13V202.43V201.73C192.796 201.73 192.051 201.682 191.496 201.595C190.915 201.503 190.639 201.38 190.539 201.303L190.109 201.855ZM193.742 202.43V203.13C194.805 203.13 195.692 203.082 196.391 202.982C197.06 202.886 197.663 202.728 198.068 202.433L197.656 201.867L197.245 201.301C197.134 201.381 196.827 201.505 196.191 201.596C195.585 201.683 194.773 201.73 193.742 201.73V202.43ZM197.656 201.867L198.074 202.429C198.51 202.105 198.763 201.597 198.912 201.044C199.063 200.484 199.13 199.794 199.13 198.996H198.43H197.73C197.73 199.73 197.667 200.284 197.56 200.68C197.451 201.085 197.318 201.247 197.239 201.305L197.656 201.867ZM198.43 198.996H199.13V187.793H198.43H197.73V198.996H198.43ZM203.281 203.789H202.581V204.489H203.281V203.789ZM203.281 187.793V187.093H202.581V187.793H203.281ZM215.012 195.445L215.595 195.832L215.598 195.828L215.012 195.445ZM212.82 196.57L212.71 195.879L212.12 195.973V196.57H212.82ZM212.82 196.605H212.12V197.256L212.769 197.304L212.82 196.605ZM215.363 203.789V204.489H216.063V203.789H215.363ZM213.559 203.789H212.859V204.489H213.559V203.789ZM205.086 197.309V196.609H204.386V197.309H205.086ZM205.086 203.789V204.489H205.786V203.789H205.086ZM205.086 195.785H204.386V196.485H205.086V195.785ZM213.113 195.164L213.56 195.703L213.565 195.699L213.113 195.164ZM213.301 189.973L212.765 190.423L212.769 190.428L213.301 189.973ZM205.086 189.316V188.616H204.386V189.316H205.086ZM203.281 203.789H203.981V187.793H203.281H202.581V203.789H203.281ZM203.281 187.793V188.493H210.898V187.793V187.093H203.281V187.793ZM210.898 187.793V188.493C212.562 188.493 213.541 188.829 214.045 189.316L214.531 188.812L215.018 188.309C214.115 187.437 212.672 187.093 210.898 187.093V187.793ZM214.531 188.812L214.045 189.316C214.541 189.795 214.886 190.734 214.886 192.352H215.586H216.286C216.286 190.61 215.928 189.189 215.018 188.309L214.531 188.812ZM215.586 192.352H214.886C214.886 193.813 214.688 194.661 214.426 195.062L215.012 195.445L215.598 195.828C216.101 195.058 216.286 193.843 216.286 192.352H215.586ZM215.012 195.445L214.428 195.059C214.202 195.4 213.704 195.721 212.71 195.879L212.82 196.57L212.931 197.262C214.093 197.076 215.056 196.647 215.595 195.832L215.012 195.445ZM212.82 196.57H212.12V196.605H212.82H213.52V196.57H212.82ZM212.82 196.605L212.769 197.304C213.481 197.356 213.916 197.587 214.187 197.917C214.47 198.262 214.663 198.821 214.663 199.699H215.363H216.063C216.063 198.64 215.833 197.715 215.268 197.028C214.692 196.327 213.855 195.98 212.872 195.907L212.82 196.605ZM215.363 199.699H214.663V203.789H215.363H216.063V199.699H215.363ZM215.363 203.789V203.089H213.559V203.789V204.489H215.363V203.789ZM213.559 203.789H214.259V200.109H213.559H212.859V203.789H213.559ZM213.559 200.109H214.259C214.259 199.091 214.04 198.196 213.481 197.551C212.906 196.886 212.078 196.609 211.133 196.609V197.309V198.009C211.805 198.009 212.19 198.198 212.423 198.467C212.673 198.755 212.859 199.261 212.859 200.109H213.559ZM211.133 197.309V196.609H210.535V197.309V198.009H211.133V197.309ZM210.535 197.309V196.609H205.086V197.309V198.009H210.535V197.309ZM205.086 197.309H204.386V203.789H205.086H205.786V197.309H205.086ZM205.086 203.789V203.089H203.281V203.789V204.489H205.086V203.789ZM205.086 195.785V196.485H210.301V195.785V195.085H205.086V195.785ZM210.301 195.785V196.485C211.019 196.485 211.652 196.431 212.186 196.313C212.715 196.197 213.193 196.007 213.56 195.703L213.113 195.164L212.667 194.625C212.534 194.735 212.292 194.856 211.884 194.946C211.481 195.035 210.957 195.085 210.301 195.085V195.785ZM213.113 195.164L213.565 195.699C214.309 195.071 214.563 194.01 214.563 192.797H213.863H213.163C213.163 193.897 212.918 194.413 212.662 194.629L213.113 195.164ZM213.863 192.797H214.563C214.563 192.049 214.515 191.402 214.409 190.87C214.306 190.351 214.134 189.869 213.832 189.517L213.301 189.973L212.769 190.428C212.843 190.514 212.952 190.721 213.036 191.144C213.118 191.553 213.163 192.1 213.163 192.797H213.863ZM213.301 189.973L213.837 189.523C213.53 189.157 213.092 188.937 212.617 188.806C212.138 188.674 211.567 188.616 210.922 188.616V189.316V190.016C211.495 190.016 211.93 190.069 212.245 190.155C212.562 190.243 212.704 190.351 212.765 190.423L213.301 189.973ZM210.922 189.316V188.616H205.086V189.316V190.016H210.922V189.316ZM205.086 189.316H204.386V195.785H205.086H205.786V189.316H205.086ZM224.234 203.789H223.534V204.489H224.234V203.789ZM224.234 187.793V187.093H223.534V187.793H224.234ZM235.156 188.602L234.689 189.123L234.692 189.126L235.156 188.602ZM234.02 195.387L233.793 194.725L233.32 194.887V195.387H234.02ZM234.02 195.422H233.32V195.974L233.856 196.103L234.02 195.422ZM235.555 202.758L235.054 202.269L235.051 202.271L235.555 202.758ZM226.039 194.824H225.339V195.524H226.039V194.824ZM233.691 194.285L233.247 193.744L233.242 193.748L233.691 194.285ZM233.773 189.797L233.319 190.329L233.325 190.334L233.331 190.339L233.773 189.797ZM226.039 189.316V188.616H225.339V189.316H226.039ZM226.039 202.266H225.339V202.966H226.039V202.266ZM229.871 202.266V202.966L229.876 202.966L229.871 202.266ZM231.5 202.254V201.554L231.495 201.554L231.5 202.254ZM234.195 201.727L234.643 202.264L234.644 202.264L234.195 201.727ZM234.195 196.84L233.77 197.396L233.777 197.401L234.195 196.84ZM226.039 196.348V195.648H225.339V196.348H226.039ZM224.234 203.789H224.934V187.793H224.234H223.534V203.789H224.234ZM224.234 187.793V188.493H231.312V187.793V187.093H224.234V187.793ZM231.312 187.793V188.493C232.266 188.493 233.024 188.559 233.6 188.68C234.187 188.804 234.52 188.971 234.689 189.123L235.156 188.602L235.623 188.08C235.191 187.693 234.582 187.456 233.888 187.31C233.183 187.162 232.32 187.093 231.312 187.093V187.793ZM235.156 188.602L234.692 189.126C234.857 189.272 235.033 189.548 235.166 190.042C235.297 190.533 235.37 191.187 235.37 192.023H236.07H236.77C236.77 191.117 236.692 190.331 236.518 189.681C236.345 189.034 236.065 188.47 235.62 188.077L235.156 188.602ZM236.07 192.023H235.37C235.37 192.825 235.215 193.411 234.96 193.83C234.712 194.237 234.338 194.537 233.793 194.725L234.02 195.387L234.247 196.049C235.068 195.767 235.72 195.273 236.155 194.559C236.584 193.856 236.77 192.995 236.77 192.023H236.07ZM234.02 195.387H233.32V195.422H234.02H234.72V195.387H234.02ZM234.02 195.422L233.856 196.103C234.562 196.272 235.036 196.599 235.347 197.059C235.667 197.533 235.863 198.22 235.863 199.184H236.562H237.262C237.262 198.046 237.034 197.055 236.507 196.275C235.97 195.481 235.173 194.978 234.183 194.741L234.02 195.422ZM236.562 199.184H235.863C235.863 200.824 235.53 201.781 235.054 202.269L235.555 202.758L236.055 203.247C236.923 202.359 237.262 200.933 237.262 199.184H236.562ZM235.555 202.758L235.051 202.271C234.588 202.751 233.671 203.089 232.074 203.089V203.789V204.489C233.79 204.489 235.193 204.14 236.058 203.244L235.555 202.758ZM232.074 203.789V203.089H224.234V203.789V204.489H232.074V203.789ZM226.039 194.824V195.524H230.785V194.824V194.124H226.039V194.824ZM230.785 194.824V195.524C231.562 195.524 232.228 195.478 232.77 195.378C233.295 195.28 233.787 195.117 234.14 194.822L233.691 194.285L233.242 193.748C233.166 193.812 232.959 193.919 232.515 194.001C232.089 194.08 231.516 194.124 230.785 194.124V194.824ZM233.691 194.285L234.136 194.826C234.508 194.521 234.728 194.078 234.859 193.599C234.991 193.117 235.048 192.539 235.048 191.883H234.348H233.648C233.648 192.469 233.595 192.912 233.508 193.231C233.42 193.553 233.313 193.69 233.247 193.744L233.691 194.285ZM234.348 191.883H235.048C235.048 191.309 234.997 190.797 234.879 190.367C234.762 189.941 234.561 189.536 234.216 189.255L233.773 189.797L233.331 190.339C233.369 190.37 233.455 190.469 233.529 190.739C233.602 191.004 233.648 191.379 233.648 191.883H234.348ZM233.773 189.797L234.228 189.265C233.904 188.988 233.461 188.838 233 188.749C232.525 188.658 231.946 188.616 231.277 188.616V189.316V190.016C231.898 190.016 232.38 190.055 232.736 190.124C233.108 190.195 233.268 190.286 233.319 190.329L233.773 189.797ZM231.277 189.316V188.616H226.039V189.316V190.016H231.277V189.316ZM226.039 189.316H225.339V194.824H226.039H226.739V189.316H226.039ZM226.039 202.266V202.966H229.871V202.266V201.566H226.039V202.266ZM229.871 202.266L229.876 202.966L231.505 202.954L231.5 202.254L231.495 201.554L229.866 201.566L229.871 202.266ZM231.5 202.254V202.954C232.213 202.954 232.83 202.909 233.339 202.809C233.836 202.712 234.301 202.55 234.643 202.264L234.195 201.727L233.747 201.189C233.668 201.255 233.472 201.356 233.071 201.435C232.682 201.511 232.162 201.554 231.5 201.554V202.254ZM234.195 201.727L234.644 202.264C235.002 201.964 235.221 201.543 235.352 201.083C235.483 200.622 235.54 200.077 235.54 199.465H234.84H234.14C234.14 200.001 234.089 200.407 234.006 200.7C233.922 200.994 233.818 201.129 233.746 201.19L234.195 201.727ZM234.84 199.465H235.54C235.54 198.722 235.485 198.084 235.359 197.569C235.237 197.073 235.022 196.583 234.614 196.279L234.195 196.84L233.777 197.401C233.798 197.417 233.906 197.525 233.999 197.903C234.087 198.264 234.14 198.778 234.14 199.465H234.84ZM234.195 196.84L234.62 196.284C234.249 196 233.688 195.861 233.094 195.778C232.465 195.689 231.66 195.648 230.691 195.648V196.348V197.048C231.629 197.048 232.361 197.088 232.9 197.164C233.474 197.245 233.712 197.351 233.77 197.396L234.195 196.84ZM230.691 196.348V195.648H226.039V196.348V197.048H230.691V196.348ZM226.039 196.348H225.339V202.266H226.039H226.739V196.348H226.039ZM240.207 189.316V188.616H239.507V189.316H240.207ZM240.207 194.766H239.507V195.466H240.207V194.766ZM248.328 194.766H249.028V194.066H248.328V194.766ZM248.328 196.289V196.989H249.028V196.289H248.328ZM240.207 196.289V195.589H239.507V196.289H240.207ZM240.207 202.266H239.507V202.966H240.207V202.266ZM248.68 202.266H249.38V201.566H248.68V202.266ZM248.68 203.789V204.489H249.38V203.789H248.68ZM238.402 203.789H237.702V204.489H238.402V203.789ZM238.402 187.793V187.093H237.702V187.793H238.402ZM248.68 187.793H249.38V187.093H248.68V187.793ZM248.68 189.316V190.016H249.38V189.316H248.68ZM240.207 189.316H239.507V194.766H240.207H240.907V189.316H240.207ZM240.207 194.766V195.466H248.328V194.766V194.066H240.207V194.766ZM248.328 194.766H247.628V196.289H248.328H249.028V194.766H248.328ZM248.328 196.289V195.589H240.207V196.289V196.989H248.328V196.289ZM240.207 196.289H239.507V202.266H240.207H240.907V196.289H240.207ZM240.207 202.266V202.966H248.68V202.266V201.566H240.207V202.266ZM248.68 202.266H247.98V203.789H248.68H249.38V202.266H248.68ZM248.68 203.789V203.089H238.402V203.789V204.489H248.68V203.789ZM238.402 203.789H239.102V187.793H238.402H237.702V203.789H238.402ZM238.402 187.793V188.493H248.68V187.793V187.093H238.402V187.793ZM248.68 187.793H247.98V189.316H248.68H249.38V187.793H248.68ZM248.68 189.316V188.616H240.207V189.316V190.016H248.68V189.316ZM251 203.789H250.3V204.489H251V203.789ZM251 187.793V187.093H250.3V187.793H251ZM262.73 195.445L263.314 195.832L263.316 195.828L262.73 195.445ZM260.539 196.57L260.429 195.879L259.839 195.973V196.57H260.539ZM260.539 196.605H259.839V197.256L260.488 197.304L260.539 196.605ZM263.082 203.789V204.489H263.782V203.789H263.082ZM261.277 203.789H260.577V204.489H261.277V203.789ZM252.805 197.309V196.609H252.105V197.309H252.805ZM252.805 203.789V204.489H253.505V203.789H252.805ZM252.805 195.785H252.105V196.485H252.805V195.785ZM260.832 195.164L261.279 195.703L261.283 195.699L260.832 195.164ZM261.02 189.973L260.483 190.423L260.488 190.428L261.02 189.973ZM252.805 189.316V188.616H252.105V189.316H252.805ZM251 203.789H251.7V187.793H251H250.3V203.789H251ZM251 187.793V188.493H258.617V187.793V187.093H251V187.793ZM258.617 187.793V188.493C260.281 188.493 261.26 188.829 261.763 189.316L262.25 188.812L262.737 188.309C261.834 187.437 260.391 187.093 258.617 187.093V187.793ZM262.25 188.812L261.763 189.316C262.26 189.795 262.605 190.734 262.605 192.352H263.305H264.005C264.005 190.61 263.647 189.189 262.737 188.309L262.25 188.812ZM263.305 192.352H262.605C262.605 193.813 262.407 194.661 262.144 195.062L262.73 195.445L263.316 195.828C263.82 195.058 264.005 193.843 264.005 192.352H263.305ZM262.73 195.445L262.147 195.059C261.921 195.4 261.423 195.721 260.429 195.879L260.539 196.57L260.649 197.262C261.812 197.076 262.774 196.647 263.314 195.832L262.73 195.445ZM260.539 196.57H259.839V196.605H260.539H261.239V196.57H260.539ZM260.539 196.605L260.488 197.304C261.2 197.356 261.634 197.587 261.906 197.917C262.189 198.262 262.382 198.821 262.382 199.699H263.082H263.782C263.782 198.64 263.551 197.715 262.987 197.028C262.41 196.327 261.574 195.98 260.591 195.907L260.539 196.605ZM263.082 199.699H262.382V203.789H263.082H263.782V199.699H263.082ZM263.082 203.789V203.089H261.277V203.789V204.489H263.082V203.789ZM261.277 203.789H261.977V200.109H261.277H260.577V203.789H261.277ZM261.277 200.109H261.977C261.977 199.091 261.759 198.196 261.2 197.551C260.624 196.886 259.796 196.609 258.852 196.609V197.309V198.009C259.524 198.009 259.909 198.198 260.142 198.467C260.391 198.755 260.577 199.261 260.577 200.109H261.277ZM258.852 197.309V196.609H258.254V197.309V198.009H258.852V197.309ZM258.254 197.309V196.609H252.805V197.309V198.009H258.254V197.309ZM252.805 197.309H252.105V203.789H252.805H253.505V197.309H252.805ZM252.805 203.789V203.089H251V203.789V204.489H252.805V203.789ZM252.805 195.785V196.485H258.02V195.785V195.085H252.805V195.785ZM258.02 195.785V196.485C258.738 196.485 259.37 196.431 259.905 196.313C260.434 196.197 260.912 196.007 261.279 195.703L260.832 195.164L260.386 194.625C260.252 194.735 260.011 194.856 259.603 194.946C259.2 195.035 258.676 195.085 258.02 195.085V195.785ZM260.832 195.164L261.283 195.699C262.028 195.071 262.282 194.01 262.282 192.797H261.582H260.882C260.882 193.897 260.636 194.413 260.381 194.629L260.832 195.164ZM261.582 192.797H262.282C262.282 192.049 262.234 191.402 262.128 190.87C262.025 190.351 261.853 189.869 261.551 189.517L261.02 189.973L260.488 190.428C260.562 190.514 260.671 190.721 260.755 191.144C260.836 191.553 260.882 192.1 260.882 192.797H261.582ZM261.02 189.973L261.556 189.523C261.249 189.157 260.811 188.937 260.336 188.806C259.857 188.674 259.286 188.616 258.641 188.616V189.316V190.016C259.214 190.016 259.649 190.069 259.963 190.155C260.281 190.243 260.423 190.351 260.483 190.423L261.02 189.973ZM258.641 189.316V188.616H252.805V189.316V190.016H258.641V189.316ZM252.805 189.316H252.105V195.785H252.805H253.505V189.316H252.805ZM276.922 192.129V192.829H277.622V192.129H276.922ZM275.129 192.129H274.429V192.829H275.129V192.129ZM274.484 189.68L274.041 190.221L274.047 190.226L274.484 189.68ZM267.793 189.656L268.153 190.257L268.159 190.253L267.793 189.656ZM271.449 194.801L271.416 195.5L271.419 195.5L271.449 194.801ZM276.195 195.75L275.765 196.302L275.768 196.305L276.195 195.75ZM276.043 203.086L275.627 202.523L275.624 202.525L276.043 203.086ZM266.293 203.086L265.865 203.64L265.871 203.645L266.293 203.086ZM265.156 199.559H265.856L265.856 199.547L265.156 199.559ZM265.145 198.844V198.144H264.433L264.445 198.855L265.145 198.844ZM266.938 198.844H267.638V198.144H266.938V198.844ZM267.594 201.914L267.155 202.46L267.161 202.464L267.594 201.914ZM274.777 201.914L275.187 202.482L275.193 202.477L274.777 201.914ZM275 197.18L274.499 197.669L274.505 197.675L274.511 197.681L275 197.18ZM272.973 196.594L273.015 195.895L273.008 195.895L272.973 196.594ZM271.098 196.5L271.061 197.199L271.063 197.199L271.098 196.5ZM269.316 196.406L269.268 197.105L269.28 197.105L269.316 196.406ZM275.832 188.484L275.4 189.035L275.404 189.038L275.832 188.484ZM276.922 192.129V191.429H275.129V192.129V192.829H276.922V192.129ZM275.129 192.129H275.829C275.829 191.452 275.773 190.86 275.645 190.372C275.518 189.891 275.302 189.437 274.922 189.133L274.484 189.68L274.047 190.226C274.097 190.266 274.202 190.392 274.291 190.728C274.377 191.056 274.429 191.516 274.429 192.129H275.129ZM274.484 189.68L274.928 189.138C274.57 188.845 274.062 188.688 273.523 188.595C272.962 188.497 272.267 188.452 271.449 188.452V189.152V189.852C272.225 189.852 272.833 189.895 273.284 189.974C273.756 190.056 273.969 190.163 274.041 190.221L274.484 189.68ZM271.449 189.152V188.452C270.487 188.452 269.675 188.495 269.022 188.585C268.388 188.672 267.828 188.813 267.427 189.06L267.793 189.656L268.159 190.253C268.305 190.163 268.627 190.052 269.213 189.972C269.778 189.894 270.521 189.852 271.449 189.852V189.152ZM267.793 189.656L267.433 189.056C266.549 189.586 266.273 190.673 266.273 191.871H266.973H267.673C267.673 190.773 267.943 190.382 268.153 190.256L267.793 189.656ZM266.973 191.871H266.273C266.273 192.546 266.328 193.134 266.459 193.612C266.586 194.077 266.813 194.537 267.234 194.812L267.617 194.227L268.001 193.641C267.992 193.635 267.896 193.561 267.809 193.242C267.725 192.934 267.673 192.485 267.673 191.871H266.973ZM267.617 194.227L267.234 194.812C267.43 194.941 267.671 195.029 267.912 195.095C268.162 195.164 268.458 195.223 268.794 195.273C269.466 195.374 270.343 195.449 271.416 195.5L271.449 194.801L271.483 194.102C270.431 194.051 269.607 193.979 269.001 193.889C268.698 193.843 268.462 193.795 268.285 193.746C268.099 193.694 268.019 193.653 268.001 193.641L267.617 194.227ZM271.449 194.801L271.419 195.5C272.646 195.554 273.625 195.658 274.368 195.807C275.131 195.959 275.562 196.144 275.765 196.302L276.195 195.75L276.626 195.198C276.157 194.833 275.461 194.597 274.642 194.434C273.802 194.266 272.745 194.157 271.48 194.101L271.449 194.801ZM276.195 195.75L275.768 196.305C275.95 196.444 276.142 196.715 276.288 197.216C276.433 197.716 276.515 198.392 276.515 199.266H277.215H277.915C277.915 198.319 277.827 197.499 277.632 196.827C277.438 196.156 277.121 195.579 276.622 195.195L276.195 195.75ZM277.215 199.266H276.515C276.515 200.21 276.42 200.945 276.253 201.492C276.085 202.038 275.859 202.351 275.627 202.523L276.043 203.086L276.459 203.649C277.008 203.243 277.368 202.63 277.591 201.903C277.814 201.176 277.915 200.29 277.915 199.266H277.215ZM276.043 203.086L275.624 202.525C275.372 202.714 274.883 202.907 274.06 203.046C273.256 203.182 272.206 203.253 270.898 203.253V203.953V204.653C272.247 204.653 273.383 204.58 274.293 204.427C275.186 204.276 275.941 204.036 276.462 203.647L276.043 203.086ZM270.898 203.953V203.253C269.771 203.253 268.858 203.182 268.148 203.048C267.428 202.913 266.974 202.723 266.715 202.527L266.293 203.086L265.871 203.645C266.378 204.027 267.074 204.271 267.889 204.424C268.714 204.58 269.721 204.653 270.898 204.653V203.953ZM266.293 203.086L266.721 202.532C266.236 202.157 265.856 201.279 265.856 199.559H265.156H264.456C264.456 201.369 264.835 202.843 265.865 203.64L266.293 203.086ZM265.156 199.559L265.856 199.547L265.844 198.832L265.145 198.844L264.445 198.855L264.456 199.57L265.156 199.559ZM265.145 198.844V199.544H266.938V198.844V198.144H265.145V198.844ZM266.938 198.844H266.237V199.242H266.938H267.638V198.844H266.938ZM266.938 199.242H266.237C266.237 199.986 266.294 200.628 266.422 201.149C266.546 201.657 266.762 202.144 267.155 202.46L267.594 201.914L268.032 201.368C267.988 201.333 267.875 201.199 267.781 200.815C267.691 200.446 267.638 199.928 267.638 199.242H266.938ZM267.594 201.914L267.161 202.464C267.531 202.755 268.077 202.904 268.657 202.993C269.267 203.086 270.037 203.13 270.957 203.13V202.43V201.73C270.072 201.73 269.38 201.687 268.869 201.609C268.328 201.526 268.094 201.417 268.026 201.364L267.594 201.914ZM270.957 202.43V203.13C272.007 203.13 272.878 203.086 273.558 202.994C274.204 202.907 274.796 202.764 275.187 202.482L274.777 201.914L274.368 201.346C274.282 201.408 273.999 201.522 273.371 201.607C272.778 201.687 271.977 201.73 270.957 201.73V202.43ZM274.777 201.914L275.193 202.477C275.62 202.162 275.855 201.658 275.992 201.127C276.131 200.583 276.192 199.908 276.192 199.125H275.492H274.792C274.792 199.85 274.734 200.394 274.635 200.779C274.533 201.178 274.411 201.314 274.362 201.351L274.777 201.914ZM275.492 199.125H276.192C276.192 198.603 276.149 198.134 276.048 197.735C275.948 197.339 275.778 196.961 275.489 196.679L275 197.18L274.511 197.681C274.55 197.718 274.626 197.825 274.691 198.078C274.753 198.327 274.792 198.671 274.792 199.125H275.492ZM275 197.18L275.501 196.691C275.223 196.406 274.845 196.229 274.447 196.115C274.043 195.998 273.561 195.928 273.015 195.895L272.973 196.594L272.93 197.292C273.416 197.322 273.787 197.381 274.059 197.46C274.337 197.54 274.457 197.626 274.499 197.669L275 197.18ZM272.973 196.594L273.008 195.895L271.133 195.801L271.098 196.5L271.063 197.199L272.938 197.293L272.973 196.594ZM271.098 196.5L271.134 195.801L269.353 195.707L269.316 196.406L269.28 197.105L271.061 197.199L271.098 196.5ZM269.316 196.406L269.365 195.708C268.114 195.621 267.288 195.262 266.771 194.725C266.257 194.192 265.95 193.383 265.95 192.188H265.25H264.55C264.55 193.617 264.921 194.823 265.763 195.697C266.601 196.566 267.807 197.004 269.268 197.105L269.316 196.406ZM265.25 192.188H265.95C265.95 190.415 266.344 189.497 266.861 189.097L266.434 188.543L266.006 187.989C264.945 188.808 264.55 190.32 264.55 192.188H265.25ZM266.434 188.543L266.861 189.097C267.132 188.888 267.601 188.687 268.339 188.545C269.067 188.404 270.002 188.329 271.156 188.329V187.629V186.929C269.951 186.929 268.919 187.006 268.073 187.17C267.237 187.332 266.524 187.589 266.006 187.989L266.434 188.543ZM271.156 187.629V188.329C272.328 188.329 273.27 188.399 273.992 188.531C274.729 188.666 275.169 188.853 275.4 189.035L275.832 188.484L276.264 187.934C275.769 187.545 275.066 187.305 274.244 187.154C273.408 187.001 272.375 186.929 271.156 186.929V187.629ZM275.832 188.484L275.404 189.038C275.615 189.201 275.823 189.499 275.979 190.018C276.134 190.537 276.222 191.234 276.222 192.129H276.922H277.622C277.622 191.156 277.528 190.312 277.32 189.617C277.112 188.921 276.776 188.33 276.261 187.931L275.832 188.484ZM289.215 200.402L289.872 200.161L289.704 199.702H289.215V200.402ZM281.117 200.402V199.702H280.627L280.459 200.163L281.117 200.402ZM279.887 203.789V204.489H280.377L280.545 204.028L279.887 203.789ZM277.977 203.789L277.319 203.548L276.975 204.489H277.977V203.789ZM283.836 187.793V187.093H283.347L283.179 187.552L283.836 187.793ZM286.367 187.793L287.023 187.548L286.853 187.093H286.367V187.793ZM292.344 203.789V204.489H293.353L292.999 203.544L292.344 203.789ZM290.457 203.789L289.8 204.03L289.968 204.489H290.457V203.789ZM288.688 199.043V199.743H289.687L289.345 198.804L288.688 199.043ZM285.137 189.27L285.795 189.031L285.132 187.208L284.478 189.033L285.137 189.27ZM281.633 199.043L280.974 198.807L280.638 199.743H281.633V199.043ZM289.215 200.402V199.702H281.117V200.402V201.102H289.215V200.402ZM281.117 200.402L280.459 200.163L279.229 203.55L279.887 203.789L280.545 204.028L281.775 200.641L281.117 200.402ZM279.887 203.789V203.089H277.977V203.789V204.489H279.887V203.789ZM277.977 203.789L278.634 204.03L284.493 188.034L283.836 187.793L283.179 187.552L277.319 203.548L277.977 203.789ZM283.836 187.793V188.493H286.367V187.793V187.093H283.836V187.793ZM286.367 187.793L285.711 188.038L291.688 204.034L292.344 203.789L292.999 203.544L287.023 187.548L286.367 187.793ZM292.344 203.789V203.089H290.457V203.789V204.489H292.344V203.789ZM290.457 203.789L291.114 203.548L289.872 200.161L289.215 200.402L288.558 200.643L289.8 204.03L290.457 203.789ZM288.688 199.043L289.345 198.804L285.795 189.031L285.137 189.27L284.479 189.509L288.03 199.282L288.688 199.043ZM285.137 189.27L284.478 189.033L280.974 198.807L281.633 199.043L282.292 199.279L285.796 189.506L285.137 189.27ZM281.633 199.043V199.743H288.688V199.043V198.343H281.633V199.043ZM311.539 187.793H312.239V187.093H311.539V187.793ZM311.539 203.789V204.489H312.239V203.789H311.539ZM309.734 203.789H309.034V204.489H309.734V203.789ZM309.734 190.031L309.035 190.014L309.034 190.023V190.031H309.734ZM309.758 189.07L310.458 189.087L310.475 188.37H309.758V189.07ZM309.711 189.07V188.37H309.226L309.056 188.825L309.711 189.07ZM309.43 189.809L308.786 189.533L308.781 189.545L309.43 189.809ZM309.125 190.559L309.772 190.825L309.774 190.822L309.125 190.559ZM303.676 203.789V204.489H304.145L304.323 204.056L303.676 203.789ZM301.871 203.789L301.225 204.059L301.405 204.489H301.871V203.789ZM296.41 190.711L297.056 190.441L297.054 190.435L296.41 190.711ZM296.094 189.973L295.438 190.218L295.444 190.234L295.45 190.248L296.094 189.973ZM295.953 189.598L296.609 189.352L296.6 189.33L296.59 189.308L295.953 189.598ZM295.812 189.234L296.473 189.003L296.309 188.534H295.812V189.234ZM295.766 189.234V188.534H295.046L295.066 189.253L295.766 189.234ZM295.777 189.668L296.477 189.65L296.477 189.649L295.777 189.668ZM295.789 190.113H296.489V190.104L296.489 190.095L295.789 190.113ZM295.789 203.789V204.489H296.489V203.789H295.789ZM293.984 203.789H293.284V204.489H293.984V203.789ZM293.984 187.793V187.093H293.284V187.793H293.984ZM297.113 187.793L297.76 187.526L297.582 187.093H297.113V187.793ZM301.379 198.141L302.028 197.878L302.026 197.874L301.379 198.141ZM302.059 199.816L301.41 200.08L301.411 200.081L302.059 199.816ZM302.398 200.648L303.05 200.392L303.046 200.384L302.398 200.648ZM302.727 201.48L302.075 201.737L302.25 202.18H302.727V201.48ZM302.773 201.48V202.18H303.25L303.425 201.737L302.773 201.48ZM303.102 200.648L302.454 200.382L302.45 200.392L303.102 200.648ZM303.43 199.816L302.783 199.548L302.776 199.566L302.769 199.585L303.43 199.816ZM304.121 198.152L304.768 198.421L304.769 198.418L304.121 198.152ZM308.363 187.793V187.093H307.894L307.715 187.528L308.363 187.793ZM311.539 187.793H310.839V203.789H311.539H312.239V187.793H311.539ZM311.539 203.789V203.089H309.734V203.789V204.489H311.539V203.789ZM309.734 203.789H310.434V190.992H309.734H309.034V203.789H309.734ZM309.734 190.992H310.434V190.031H309.734H309.034V190.992H309.734ZM309.734 190.031L310.434 190.048L310.446 189.568L309.746 189.551L309.046 189.534L309.035 190.014L309.734 190.031ZM309.746 189.551L310.446 189.568L310.458 189.087L309.758 189.07L309.058 189.053L309.046 189.534L309.746 189.551ZM309.758 189.07V188.37H309.711V189.07V189.77H309.758V189.07ZM309.711 189.07L309.056 188.825L308.915 189.2L309.57 189.445L310.226 189.691L310.366 189.316L309.711 189.07ZM309.57 189.445L308.915 189.2C308.843 189.391 308.802 189.496 308.786 189.533L309.43 189.809L310.073 190.084C310.104 190.012 310.157 189.875 310.226 189.691L309.57 189.445ZM309.43 189.809L308.781 189.545L308.476 190.295L309.125 190.559L309.774 190.822L310.078 190.072L309.43 189.809ZM309.125 190.559L308.478 190.292L303.029 203.522L303.676 203.789L304.323 204.056L309.772 190.825L309.125 190.559ZM303.676 203.789V203.089H301.871V203.789V204.489H303.676V203.789ZM301.871 203.789L302.517 203.519L297.056 190.441L296.41 190.711L295.764 190.981L301.225 204.059L301.871 203.789ZM296.41 190.711L297.054 190.435L296.737 189.697L296.094 189.973L295.45 190.248L295.767 190.987L296.41 190.711ZM296.094 189.973L296.749 189.727L296.609 189.352L295.953 189.598L295.298 189.843L295.438 190.218L296.094 189.973ZM295.953 189.598L296.59 189.308C296.564 189.25 296.525 189.152 296.473 189.003L295.812 189.234L295.152 189.466C295.209 189.629 295.264 189.773 295.316 189.887L295.953 189.598ZM295.812 189.234V188.534H295.766V189.234V189.934H295.812V189.234ZM295.766 189.234L295.066 189.253L295.078 189.687L295.777 189.668L296.477 189.649L296.465 189.215L295.766 189.234ZM295.777 189.668L295.078 189.686L295.089 190.132L295.789 190.113L296.489 190.095L296.477 189.65L295.777 189.668ZM295.789 190.113H295.089V190.992H295.789H296.489V190.113H295.789ZM295.789 190.992H295.089V203.789H295.789H296.489V190.992H295.789ZM295.789 203.789V203.089H293.984V203.789V204.489H295.789V203.789ZM293.984 203.789H294.684V187.793H293.984H293.284V203.789H293.984ZM293.984 187.793V188.493H297.113V187.793V187.093H293.984V187.793ZM297.113 187.793L296.466 188.06L300.732 198.407L301.379 198.141L302.026 197.874L297.76 187.526L297.113 187.793ZM301.379 198.141L300.73 198.404L301.41 200.08L302.059 199.816L302.707 199.553L302.028 197.878L301.379 198.141ZM302.059 199.816L301.411 200.081L301.75 200.913L302.398 200.648L303.046 200.384L302.707 199.552L302.059 199.816ZM302.398 200.648L301.747 200.905L302.075 201.737L302.727 201.48L303.378 201.224L303.05 200.392L302.398 200.648ZM302.727 201.48V202.18H302.773V201.48V200.78H302.727V201.48ZM302.773 201.48L303.425 201.737L303.753 200.905L303.102 200.648L302.45 200.392L302.122 201.224L302.773 201.48ZM303.102 200.648L303.749 200.915C303.912 200.518 304.029 200.224 304.09 200.048L303.43 199.816L302.769 199.585C302.721 199.721 302.619 199.982 302.454 200.382L303.102 200.648ZM303.43 199.816L304.076 200.085L304.768 198.421L304.121 198.152L303.475 197.884L302.783 199.548L303.43 199.816ZM304.121 198.152L304.769 198.418L309.011 188.058L308.363 187.793L307.715 187.528L303.473 197.887L304.121 198.152ZM308.363 187.793V188.493H311.539V187.793V187.093H308.363V187.793ZM324.418 200.402L325.075 200.161L324.907 199.702H324.418V200.402ZM316.32 200.402V199.702H315.83L315.662 200.163L316.32 200.402ZM315.09 203.789V204.489H315.58L315.748 204.028L315.09 203.789ZM313.18 203.789L312.522 203.548L312.178 204.489H313.18V203.789ZM319.039 187.793V187.093H318.55L318.382 187.552L319.039 187.793ZM321.57 187.793L322.226 187.548L322.056 187.093H321.57V187.793ZM327.547 203.789V204.489H328.556L328.203 203.544L327.547 203.789ZM325.66 203.789L325.003 204.03L325.171 204.489H325.66V203.789ZM323.891 199.043V199.743H324.89L324.549 198.804L323.891 199.043ZM320.34 189.27L320.998 189.031L320.335 187.208L319.681 189.033L320.34 189.27ZM316.836 199.043L316.177 198.807L315.841 199.743H316.836V199.043ZM324.418 200.402V199.702H316.32V200.402V201.102H324.418V200.402ZM316.32 200.402L315.662 200.163L314.432 203.55L315.09 203.789L315.748 204.028L316.978 200.641L316.32 200.402ZM315.09 203.789V203.089H313.18V203.789V204.489H315.09V203.789ZM313.18 203.789L313.837 204.03L319.696 188.034L319.039 187.793L318.382 187.552L312.522 203.548L313.18 203.789ZM319.039 187.793V188.493H321.57V187.793V187.093H319.039V187.793ZM321.57 187.793L320.915 188.038L326.891 204.034L327.547 203.789L328.203 203.544L322.226 187.548L321.57 187.793ZM327.547 203.789V203.089H325.66V203.789V204.489H327.547V203.789ZM325.66 203.789L326.317 203.548L325.075 200.161L324.418 200.402L323.761 200.643L325.003 204.03L325.66 203.789ZM323.891 199.043L324.549 198.804L320.998 189.031L320.34 189.27L319.682 189.509L323.233 199.282L323.891 199.043ZM320.34 189.27L319.681 189.033L316.177 198.807L316.836 199.043L317.495 199.279L320.999 189.506L320.34 189.27ZM316.836 199.043V199.743H323.891V199.043V198.343H316.836V199.043Z" fill="#2B54AC" mask="url(#path-2-outside-1_758_3132)"/>
</svg>
