<svg width="360" height="516" viewBox="0 0 360 516" fill="none" xmlns="http://www.w3.org/2000/svg">
<rect width="360" height="516" fill="white"/>
<rect x="38.5" y="197.5" width="283" height="120" stroke="#B4B4B4" stroke-dasharray="8 8"/>
<path fill-rule="evenodd" clip-rule="evenodd" d="M102.169 197.339C92.0472 198.543 84.1206 200.918 76.7536 204.952C57.7871 215.338 45.146 233.89 42.6021 255.072L42 260.086H48.4722C54.6525 260.086 55.1687 259.952 59.9303 257.089C69.106 251.572 79.0846 242.82 91.2033 229.657C96.0736 224.367 97.0855 223.563 96.532 225.414C93.3784 235.975 87.8307 245.992 80.0341 255.204L75.9013 260.086H78.8474C83.9891 260.086 89.9519 254.545 97.6116 242.648C101.594 236.464 108.9 221.362 111.665 213.603C112.635 210.879 113.644 208.399 113.906 208.092C114.649 207.224 126.317 218.369 131.622 225.014C139.411 234.772 144.923 246.497 146.243 256.118L146.788 260.086H160.402C167.889 260.086 174.008 259.829 174 259.515C173.992 259.201 173.644 256.543 173.227 253.609C169.121 224.728 145.373 201.418 116.184 197.621C110.59 196.894 106.588 196.813 102.169 197.339ZM42.4987 269.802C42.5041 270.955 42.7154 272.67 42.9671 273.612L43.4255 275.327H108.341H173.255V272.722C173.255 271.29 173.462 269.575 173.716 268.912C174.135 267.819 168.062 267.707 108.333 267.707H42.4881L42.4987 269.802ZM60.2785 284.819C60.5362 285.848 61.0775 287.563 61.482 288.629L62.2172 290.567H115.384H168.55L169.762 287.003C170.429 285.042 170.974 283.327 170.974 283.192C170.974 283.058 145.962 282.947 115.392 282.947H59.8094L60.2785 284.819ZM78.2209 298.669C78.2209 298.934 78.9333 300.306 79.8038 301.717L81.3859 304.284H121.223H161.059L162.611 301.236L164.163 298.187H121.191C97.5577 298.187 78.2209 298.404 78.2209 298.669ZM98.4647 312.856C98.7764 313.381 99.7161 314.752 100.553 315.904L102.075 318H124.988C147.799 318 147.907 317.992 149.4 316.285C153.581 311.503 155.776 311.904 125.406 311.904C103.605 311.904 98.0153 312.101 98.4647 312.856Z" fill="#2B54AC"/>
<mask id="path-3-outside-1_760_3262" maskUnits="userSpaceOnUse" x="189" y="232.5" width="127" height="45" fill="black">
<rect fill="white" x="189" y="232.5" width="127" height="45"/>
<path d="M208.938 238.312V276.5H204.125V238.312H190.219V233.844H222.719V238.312H208.938ZM273.812 233.844V276.5H269V242.375V239.812L269.031 238.531L269.062 237.25H268.938L268.562 238.25C268.375 238.75 268.25 239.073 268.188 239.219L267.375 241.219L252.844 276.5H248.031L233.469 241.625L232.625 239.656L232.25 238.656C232.146 238.427 232.021 238.104 231.875 237.688H231.75L231.781 238.844L231.812 240.031V242.375V276.5H227V233.844H235.344L246.719 261.438L248.531 265.906L249.438 268.125L250.312 270.344H250.438L251.312 268.125C251.75 267.062 252.042 266.323 252.188 265.906L254.031 261.469L265.344 233.844H273.812ZM281.938 276.5V233.844H300.812C306.042 233.844 309.458 234.562 311.062 236C312.688 237.438 313.5 240.479 313.5 245.125C313.5 249.854 311.677 252.844 308.031 254.094V254.188C312.552 255.271 314.812 258.615 314.812 264.219C314.812 268.74 313.917 271.917 312.125 273.75C310.354 275.583 307.26 276.5 302.844 276.5H281.938ZM286.75 252.594H299.406C303.427 252.594 306.01 252.115 307.156 251.156C308.323 250.198 308.906 248.062 308.906 244.75C308.906 241.875 308.396 240.021 307.375 239.188C306.375 238.333 304.156 237.906 300.719 237.906H286.75V252.594ZM286.75 272.438H296.969L301.312 272.406C304.979 272.406 307.375 271.938 308.5 271C309.646 270.042 310.219 268.031 310.219 264.969C310.219 261.156 309.646 258.823 308.5 257.969C307.354 257.094 304.24 256.656 299.156 256.656H286.75V272.438Z"/>
</mask>
<path d="M208.938 238.312V276.5H204.125V238.312H190.219V233.844H222.719V238.312H208.938ZM273.812 233.844V276.5H269V242.375V239.812L269.031 238.531L269.062 237.25H268.938L268.562 238.25C268.375 238.75 268.25 239.073 268.188 239.219L267.375 241.219L252.844 276.5H248.031L233.469 241.625L232.625 239.656L232.25 238.656C232.146 238.427 232.021 238.104 231.875 237.688H231.75L231.781 238.844L231.812 240.031V242.375V276.5H227V233.844H235.344L246.719 261.438L248.531 265.906L249.438 268.125L250.312 270.344H250.438L251.312 268.125C251.75 267.062 252.042 266.323 252.188 265.906L254.031 261.469L265.344 233.844H273.812ZM281.938 276.5V233.844H300.812C306.042 233.844 309.458 234.562 311.062 236C312.688 237.438 313.5 240.479 313.5 245.125C313.5 249.854 311.677 252.844 308.031 254.094V254.188C312.552 255.271 314.812 258.615 314.812 264.219C314.812 268.74 313.917 271.917 312.125 273.75C310.354 275.583 307.26 276.5 302.844 276.5H281.938ZM286.75 252.594H299.406C303.427 252.594 306.01 252.115 307.156 251.156C308.323 250.198 308.906 248.062 308.906 244.75C308.906 241.875 308.396 240.021 307.375 239.188C306.375 238.333 304.156 237.906 300.719 237.906H286.75V252.594ZM286.75 272.438H296.969L301.312 272.406C304.979 272.406 307.375 271.938 308.5 271C309.646 270.042 310.219 268.031 310.219 264.969C310.219 261.156 309.646 258.823 308.5 257.969C307.354 257.094 304.24 256.656 299.156 256.656H286.75V272.438Z" fill="#2B54AC"/>
<path d="M208.938 238.312V237.312H207.938V238.312H208.938ZM208.938 276.5V277.5H209.938V276.5H208.938ZM204.125 276.5H203.125V277.5H204.125V276.5ZM204.125 238.312H205.125V237.312H204.125V238.312ZM190.219 238.312H189.219V239.312H190.219V238.312ZM190.219 233.844V232.844H189.219V233.844H190.219ZM222.719 233.844H223.719V232.844H222.719V233.844ZM222.719 238.312V239.312H223.719V238.312H222.719ZM208.938 238.312H207.938V276.5H208.938H209.938V238.312H208.938ZM208.938 276.5V275.5H204.125V276.5V277.5H208.938V276.5ZM204.125 276.5H205.125V238.312H204.125H203.125V276.5H204.125ZM204.125 238.312V237.312H190.219V238.312V239.312H204.125V238.312ZM190.219 238.312H191.219V233.844H190.219H189.219V238.312H190.219ZM190.219 233.844V234.844H222.719V233.844V232.844H190.219V233.844ZM222.719 233.844H221.719V238.312H222.719H223.719V233.844H222.719ZM222.719 238.312V237.312H208.938V238.312V239.312H222.719V238.312ZM273.812 233.844H274.812V232.844H273.812V233.844ZM273.812 276.5V277.5H274.812V276.5H273.812ZM269 276.5H268V277.5H269V276.5ZM269 239.812L268 239.788L268 239.8V239.812H269ZM269.062 237.25L270.062 237.274L270.087 236.25H269.062V237.25ZM268.938 237.25V236.25H268.244L268.001 236.899L268.938 237.25ZM268.188 239.219L267.268 238.825L267.265 238.834L267.261 238.842L268.188 239.219ZM267.375 241.219L268.3 241.6L268.301 241.595L267.375 241.219ZM252.844 276.5V277.5H253.513L253.768 276.881L252.844 276.5ZM248.031 276.5L247.108 276.885L247.365 277.5H248.031V276.5ZM233.469 241.625L234.392 241.24L234.388 241.231L233.469 241.625ZM232.625 239.656L231.689 240.007L231.697 240.029L231.706 240.05L232.625 239.656ZM232.25 238.656L233.186 238.305L233.174 238.273L233.16 238.242L232.25 238.656ZM231.875 237.688L232.819 237.357L232.584 236.688H231.875V237.688ZM231.75 237.688V236.688H230.723L230.75 237.715L231.75 237.688ZM231.781 238.844L232.781 238.817L232.781 238.817L231.781 238.844ZM231.812 240.031H232.812V240.018L232.812 240.005L231.812 240.031ZM231.812 276.5V277.5H232.812V276.5H231.812ZM227 276.5H226V277.5H227V276.5ZM227 233.844V232.844H226V233.844H227ZM235.344 233.844L236.268 233.463L236.013 232.844H235.344V233.844ZM246.719 261.438L247.645 261.062L247.643 261.056L246.719 261.438ZM248.531 265.906L247.605 266.282L247.605 266.284L248.531 265.906ZM249.438 268.125L250.368 267.758L250.363 267.747L249.438 268.125ZM250.312 270.344L249.382 270.711L249.632 271.344H250.312V270.344ZM250.438 270.344V271.344H251.118L251.368 270.711L250.438 270.344ZM251.312 268.125L250.388 267.744L250.385 267.751L250.382 267.758L251.312 268.125ZM252.188 265.906L251.264 265.523L251.253 265.549L251.244 265.576L252.188 265.906ZM254.031 261.469L254.955 261.852L254.957 261.848L254.031 261.469ZM265.344 233.844V232.844H264.673L264.418 233.465L265.344 233.844ZM273.812 233.844H272.812V276.5H273.812H274.812V233.844H273.812ZM273.812 276.5V275.5H269V276.5V277.5H273.812V276.5ZM269 276.5H270V242.375H269H268V276.5H269ZM269 242.375H270V239.812H269H268V242.375H269ZM269 239.812L270 239.837L270.031 238.556L269.031 238.531L268.032 238.507L268 239.788L269 239.812ZM269.031 238.531L270.031 238.556L270.062 237.274L269.062 237.25L268.063 237.226L268.032 238.507L269.031 238.531ZM269.062 237.25V236.25H268.938V237.25V238.25H269.062V237.25ZM268.938 237.25L268.001 236.899L267.626 237.899L268.562 238.25L269.499 238.601L269.874 237.601L268.938 237.25ZM268.562 238.25L267.626 237.899C267.437 238.404 267.32 238.704 267.268 238.825L268.188 239.219L269.107 239.613C269.18 239.442 269.313 239.096 269.499 238.601L268.562 238.25ZM268.188 239.219L267.261 238.842L266.449 240.842L267.375 241.219L268.301 241.595L269.114 239.595L268.188 239.219ZM267.375 241.219L266.45 240.838L251.919 276.119L252.844 276.5L253.768 276.881L268.3 241.6L267.375 241.219ZM252.844 276.5V275.5H248.031V276.5V277.5H252.844V276.5ZM248.031 276.5L248.954 276.115L234.392 241.24L233.469 241.625L232.546 242.01L247.108 276.885L248.031 276.5ZM233.469 241.625L234.388 241.231L233.544 239.262L232.625 239.656L231.706 240.05L232.55 242.019L233.469 241.625ZM232.625 239.656L233.561 239.305L233.186 238.305L232.25 238.656L231.314 239.007L231.689 240.007L232.625 239.656ZM232.25 238.656L233.16 238.242C233.074 238.053 232.961 237.763 232.819 237.357L231.875 237.688L230.931 238.018C231.081 238.445 231.217 238.801 231.34 239.07L232.25 238.656ZM231.875 237.688V236.688H231.75V237.688V238.688H231.875V237.688ZM231.75 237.688L230.75 237.715L230.782 238.871L231.781 238.844L232.781 238.817L232.75 237.66L231.75 237.688ZM231.781 238.844L230.782 238.87L230.813 240.058L231.812 240.031L232.812 240.005L232.781 238.817L231.781 238.844ZM231.812 240.031H230.812V242.375H231.812H232.812V240.031H231.812ZM231.812 242.375H230.812V276.5H231.812H232.812V242.375H231.812ZM231.812 276.5V275.5H227V276.5V277.5H231.812V276.5ZM227 276.5H228V233.844H227H226V276.5H227ZM227 233.844V234.844H235.344V233.844V232.844H227V233.844ZM235.344 233.844L234.419 234.225L245.794 261.819L246.719 261.438L247.643 261.056L236.268 233.463L235.344 233.844ZM246.719 261.438L245.792 261.813L247.605 266.282L248.531 265.906L249.458 265.53L247.645 261.062L246.719 261.438ZM248.531 265.906L247.605 266.284L248.512 268.503L249.438 268.125L250.363 267.747L249.457 265.528L248.531 265.906ZM249.438 268.125L248.507 268.492L249.382 270.711L250.312 270.344L251.243 269.977L250.368 267.758L249.438 268.125ZM250.312 270.344V271.344H250.438V270.344V269.344H250.312V270.344ZM250.438 270.344L251.368 270.711L252.243 268.492L251.312 268.125L250.382 267.758L249.507 269.977L250.438 270.344ZM251.312 268.125L252.237 268.506C252.674 267.445 252.975 266.682 253.131 266.237L252.188 265.906L251.244 265.576C251.108 265.964 250.826 266.68 250.388 267.744L251.312 268.125ZM252.188 265.906L253.111 266.29L254.955 261.852L254.031 261.469L253.108 261.085L251.264 265.523L252.188 265.906ZM254.031 261.469L254.957 261.848L266.269 234.223L265.344 233.844L264.418 233.465L253.106 261.09L254.031 261.469ZM265.344 233.844V234.844H273.812V233.844V232.844H265.344V233.844ZM281.938 276.5H280.938V277.5H281.938V276.5ZM281.938 233.844V232.844H280.938V233.844H281.938ZM311.062 236L310.395 236.745L310.4 236.749L311.062 236ZM308.031 254.094L307.707 253.148L307.031 253.379V254.094H308.031ZM308.031 254.188H307.031V254.976L307.798 255.16L308.031 254.188ZM312.125 273.75L311.41 273.051L311.406 273.055L312.125 273.75ZM286.75 252.594H285.75V253.594H286.75V252.594ZM307.156 251.156L306.521 250.383L306.515 250.389L307.156 251.156ZM307.375 239.188L306.726 239.948L306.734 239.955L306.743 239.962L307.375 239.188ZM286.75 237.906V236.906H285.75V237.906H286.75ZM286.75 272.438H285.75V273.438H286.75V272.438ZM296.969 272.438V273.438L296.976 273.437L296.969 272.438ZM301.312 272.406V271.406L301.305 271.406L301.312 272.406ZM308.5 271L309.14 271.768L309.142 271.767L308.5 271ZM308.5 257.969L307.893 258.764L307.902 258.77L308.5 257.969ZM286.75 256.656V255.656H285.75V256.656H286.75ZM281.938 276.5H282.938V233.844H281.938H280.938V276.5H281.938ZM281.938 233.844V234.844H300.812V233.844V232.844H281.938V233.844ZM300.812 233.844V234.844C303.388 234.844 305.475 235.021 307.091 235.361C308.723 235.705 309.781 236.194 310.395 236.745L311.062 236L311.73 235.255C310.74 234.368 309.287 233.78 307.503 233.404C305.702 233.025 303.466 232.844 300.812 232.844V233.844ZM311.062 236L310.4 236.749C311.013 237.291 311.547 238.205 311.924 239.617C312.3 241.024 312.5 242.852 312.5 245.125H313.5H314.5C314.5 242.752 314.293 240.736 313.857 239.101C313.422 237.472 312.737 236.146 311.725 235.251L311.062 236ZM313.5 245.125H312.5C312.5 247.368 312.067 249.101 311.279 250.393C310.501 251.669 309.333 252.59 307.707 253.148L308.031 254.094L308.356 255.04C310.375 254.347 311.941 253.149 312.987 251.435C314.022 249.737 314.5 247.611 314.5 245.125H313.5ZM308.031 254.094H307.031V254.188H308.031H309.031V254.094H308.031ZM308.031 254.188L307.798 255.16C309.855 255.653 311.32 256.634 312.289 258.068C313.271 259.522 313.812 261.541 313.812 264.219H314.812H315.812C315.812 261.292 315.223 258.838 313.946 256.948C312.654 255.038 310.728 253.805 308.264 253.215L308.031 254.188ZM314.812 264.219H313.812C313.812 268.662 312.922 271.504 311.41 273.051L312.125 273.75L312.84 274.449C314.912 272.329 315.812 268.818 315.812 264.219H314.812ZM312.125 273.75L311.406 273.055C309.922 274.591 307.175 275.5 302.844 275.5V276.5V277.5C307.346 277.5 310.786 276.575 312.844 274.445L312.125 273.75ZM302.844 276.5V275.5H281.938V276.5V277.5H302.844V276.5ZM286.75 252.594V253.594H299.406V252.594V251.594H286.75V252.594ZM299.406 252.594V253.594C301.449 253.594 303.167 253.473 304.542 253.218C305.892 252.967 307.027 252.568 307.798 251.923L307.156 251.156L306.515 250.389C306.139 250.703 305.411 251.022 304.177 251.251C302.968 251.475 301.384 251.594 299.406 251.594V252.594ZM307.156 251.156L307.791 251.929C308.593 251.27 309.111 250.278 309.433 249.099C309.757 247.915 309.906 246.456 309.906 244.75H308.906H307.906C307.906 246.357 307.764 247.622 307.504 248.572C307.243 249.529 306.886 250.084 306.522 250.384L307.156 251.156ZM308.906 244.75H309.906C309.906 243.262 309.775 241.983 309.488 240.938C309.201 239.898 308.737 239.008 308.007 238.413L307.375 239.188L306.743 239.962C307.034 240.2 307.335 240.654 307.559 241.469C307.782 242.278 307.906 243.363 307.906 244.75H308.906ZM307.375 239.188L308.024 238.427C307.329 237.833 306.323 237.47 305.15 237.245C303.955 237.015 302.472 236.906 300.719 236.906V237.906V238.906C302.403 238.906 303.748 239.011 304.772 239.209C305.818 239.41 306.421 239.687 306.726 239.948L307.375 239.188ZM300.719 237.906V236.906H286.75V237.906V238.906H300.719V237.906ZM286.75 237.906H285.75V252.594H286.75H287.75V237.906H286.75ZM286.75 272.438V273.438H296.969V272.438V271.438H286.75V272.438ZM296.969 272.438L296.976 273.437L301.32 273.406L301.312 272.406L301.305 271.406L296.962 271.438L296.969 272.438ZM301.312 272.406V273.406C303.182 273.406 304.767 273.287 306.051 273.036C307.317 272.788 308.389 272.394 309.14 271.768L308.5 271L307.86 270.232C307.486 270.544 306.798 270.852 305.667 271.073C304.556 271.291 303.11 271.406 301.312 271.406V272.406ZM308.5 271L309.142 271.767C309.918 271.117 310.431 270.171 310.751 269.048C311.071 267.922 311.219 266.554 311.219 264.969H310.219H309.219C309.219 266.446 309.08 267.614 308.827 268.499C308.575 269.386 308.228 269.924 307.858 270.233L308.5 271ZM310.219 264.969H311.219C311.219 263.023 311.074 261.397 310.76 260.121C310.453 258.87 309.947 257.8 309.098 257.167L308.5 257.969L307.902 258.77C308.199 258.992 308.552 259.516 308.818 260.598C309.077 261.655 309.219 263.102 309.219 264.969H310.219ZM308.5 257.969L309.107 257.174C308.311 256.566 307.015 256.215 305.444 255.994C303.821 255.766 301.72 255.656 299.156 255.656V256.656V257.656C301.676 257.656 303.674 257.765 305.166 257.975C306.709 258.192 307.543 258.496 307.893 258.764L308.5 257.969ZM299.156 256.656V255.656H286.75V256.656V257.656H299.156V256.656ZM286.75 256.656H285.75V272.438H286.75H287.75V256.656H286.75Z" fill="#2B54AC" mask="url(#path-3-outside-1_760_3262)"/>
<path d="M150.782 335.335V336.58L146.586 344H145.424L149.969 336.161H144.466V335.335H150.782ZM153.575 342.832V344H152.597V342.832H153.575ZM161.192 335.335V336.161H156.33L156.285 338.789H156.304C156.643 338.31 157.402 338.071 158.583 338.071C159.726 338.071 160.504 338.268 160.919 338.662C161.338 339.055 161.547 339.796 161.547 340.883C161.547 342.212 161.348 343.08 160.951 343.486C160.557 343.888 159.715 344.089 158.424 344.089C157.142 344.089 156.283 343.939 155.847 343.638C155.416 343.338 155.2 342.743 155.2 341.854V341.524H156.12C156.12 342.307 156.241 342.794 156.482 342.984C156.727 343.171 157.349 343.264 158.348 343.264C159.393 343.264 160.032 343.143 160.265 342.902C160.498 342.661 160.614 342 160.614 340.921C160.614 340.05 160.483 339.495 160.221 339.258C159.963 339.017 159.36 338.896 158.412 338.896C157.091 338.896 156.368 339.174 156.241 339.728H155.358V335.335H161.192ZM170.529 341.81H171.418L171.424 342.14C171.424 343.439 170.574 344.089 168.873 344.089C167.781 344.089 167.059 343.884 166.708 343.473C166.357 343.063 166.181 342.216 166.181 340.934C166.181 339.732 166.359 338.918 166.714 338.49C167.074 338.059 167.755 337.843 168.758 337.843C169.744 337.843 170.417 337.989 170.777 338.281C171.137 338.569 171.316 339.112 171.316 339.912H170.428V339.753C170.428 339.284 170.311 338.971 170.079 338.814C169.846 338.657 169.382 338.579 168.688 338.579C168.02 338.579 167.59 338.727 167.4 339.023C167.209 339.32 167.114 339.984 167.114 341.017C167.114 342.024 167.222 342.665 167.438 342.94C167.658 343.215 168.168 343.353 168.968 343.353C169.645 343.353 170.074 343.264 170.256 343.086C170.438 342.904 170.529 342.479 170.529 341.81ZM172.668 337.932H173.557L173.538 338.846L173.557 338.865C173.9 338.183 174.56 337.843 175.538 337.843C176.566 337.843 177.19 338.183 177.41 338.865H177.436C177.816 338.183 178.513 337.843 179.524 337.843C180.954 337.843 181.669 338.573 181.669 340.033V344H180.781V339.95C180.781 339.417 180.686 339.055 180.495 338.865C180.305 338.674 179.945 338.579 179.416 338.579C178.714 338.579 178.237 338.712 177.988 338.979C177.738 339.241 177.613 339.745 177.613 340.49V344H176.725V340.033L176.712 339.753C176.712 338.971 176.265 338.579 175.373 338.579C174.162 338.579 173.557 339.237 173.557 340.553V344H172.668V337.932ZM187.687 337.932L185.719 340.788L187.922 344H186.862L185.256 341.55L183.644 344H182.583L184.786 340.826L182.812 337.932H183.878L185.256 340.147L186.627 337.932H187.687ZM194.308 339.982V339.15L194.638 339.157C195.806 339.157 196.519 339.083 196.777 338.935C197.039 338.786 197.17 338.382 197.17 337.722C197.17 336.96 197.056 336.495 196.828 336.326C196.603 336.156 195.979 336.072 194.955 336.072C194.011 336.072 193.427 336.154 193.203 336.319C192.983 336.484 192.873 336.918 192.873 337.621V337.995H191.946L191.953 337.652C191.953 336.662 192.145 336.015 192.53 335.71C192.915 335.401 193.728 335.247 194.968 335.247C196.242 335.247 197.082 335.39 197.488 335.678C197.898 335.962 198.104 336.55 198.104 337.443C198.104 338.2 198.006 338.719 197.812 338.998C197.617 339.277 197.228 339.453 196.644 339.525V339.569C197.299 339.658 197.733 339.836 197.945 340.103C198.161 340.369 198.269 340.864 198.269 341.588C198.269 342.595 198.059 343.264 197.64 343.594C197.225 343.924 196.385 344.089 195.12 344.089C193.753 344.089 192.858 343.937 192.435 343.632C192.012 343.327 191.8 342.682 191.8 341.696V341.182H192.752V341.683C192.752 342.419 192.877 342.868 193.127 343.029C193.377 343.185 194.085 343.264 195.253 343.264C196.159 343.264 196.732 343.164 196.974 342.965C197.215 342.762 197.335 342.28 197.335 341.518C197.335 340.879 197.221 340.464 196.993 340.274C196.764 340.079 196.267 339.982 195.501 339.982H194.676H194.308ZM204.058 341.81H204.946L204.953 342.14C204.953 343.439 204.102 344.089 202.401 344.089C201.309 344.089 200.588 343.884 200.236 343.473C199.885 343.063 199.709 342.216 199.709 340.934C199.709 339.732 199.887 338.918 200.243 338.49C200.602 338.059 201.284 337.843 202.287 337.843C203.273 337.843 203.945 337.989 204.305 338.281C204.665 338.569 204.845 339.112 204.845 339.912H203.956V339.753C203.956 339.284 203.84 338.971 203.607 338.814C203.374 338.657 202.911 338.579 202.217 338.579C201.548 338.579 201.119 338.727 200.928 339.023C200.738 339.32 200.643 339.984 200.643 341.017C200.643 342.024 200.75 342.665 200.966 342.94C201.186 343.215 201.696 343.353 202.496 343.353C203.173 343.353 203.603 343.264 203.785 343.086C203.967 342.904 204.058 342.479 204.058 341.81ZM206.197 337.932H207.085L207.066 338.846L207.085 338.865C207.428 338.183 208.088 337.843 209.066 337.843C210.094 337.843 210.718 338.183 210.938 338.865H210.964C211.345 338.183 212.041 337.843 213.052 337.843C214.483 337.843 215.198 338.573 215.198 340.033V344H214.309V339.95C214.309 339.417 214.214 339.055 214.023 338.865C213.833 338.674 213.473 338.579 212.944 338.579C212.242 338.579 211.766 338.712 211.516 338.979C211.266 339.241 211.142 339.745 211.142 340.49V344H210.253V340.033L210.24 339.753C210.24 338.971 209.794 338.579 208.901 338.579C207.691 338.579 207.085 339.237 207.085 340.553V344H206.197V337.932Z" fill="#B4B4B4"/>
<path fill-rule="evenodd" clip-rule="evenodd" d="M26.9399 16.0616C25.0995 16.2806 23.6583 16.7123 22.3188 17.4458C18.8704 19.3342 16.572 22.7072 16.1095 26.5585L16 27.4703H17.1768C18.3004 27.4703 18.3943 27.4457 19.26 26.9252C20.9284 25.9223 22.7426 24.3309 24.9461 21.9377C25.8316 20.9759 26.0155 20.8296 25.9149 21.1663C25.3415 23.0863 24.3329 24.9077 22.9153 26.5826L22.1639 27.4703H22.6995C23.6344 27.4703 24.7185 26.4627 26.1112 24.2997C26.8353 23.1752 28.1637 20.4295 28.6664 19.0188C28.8428 18.5234 29.0262 18.0726 29.0738 18.0168C29.2088 17.8588 31.3304 19.8852 32.2948 21.0934C33.7112 22.8677 34.7133 24.9995 34.9533 26.7487L35.0524 27.4703H37.5276C38.8889 27.4703 40.0015 27.4234 40 27.3663C39.9985 27.3093 39.9353 26.826 39.8594 26.2926C39.113 21.0414 34.795 16.8032 29.4881 16.113C28.471 15.9807 27.7433 15.966 26.9399 16.0616ZM16.0907 29.2368C16.0916 29.4464 16.1301 29.7581 16.1758 29.9295L16.2592 30.2412H28.0619H39.8645V29.7677C39.8645 29.5072 39.9023 29.1955 39.9484 29.0749C40.0246 28.8761 38.9204 28.8558 28.0605 28.8558H16.0887L16.0907 29.2368ZM19.3234 31.967C19.3702 32.1542 19.4686 32.4659 19.5422 32.6598L19.6758 33.0122H29.3425H39.0092L39.2295 32.3641C39.3507 32.0076 39.4498 31.6959 39.4498 31.6714C39.4498 31.6468 34.9022 31.6267 29.344 31.6267H19.2381L19.3234 31.967ZM22.5856 34.4853C22.5856 34.5335 22.7151 34.7829 22.8734 35.0395L23.1611 35.5061H30.4041H37.6472L37.9293 34.9519L38.2114 34.3977H30.3984C26.1014 34.3977 22.5856 34.4371 22.5856 34.4853ZM26.2663 37.0648C26.323 37.1601 26.4938 37.4095 26.646 37.619L26.9228 38H31.0888C35.2361 38 35.2559 37.9986 35.5272 37.6883C36.2875 36.8187 36.6865 36.8916 31.1647 36.8916C27.2009 36.8916 26.1846 36.9275 26.2663 37.0648Z" fill="#2B54AC"/>
</svg>
