<svg width="196" height="51" viewBox="0 0 196 51" fill="none" xmlns="http://www.w3.org/2000/svg">
<path fill-rule="evenodd" clip-rule="evenodd" d="M1.10399e-06 0L0 25.2563L25.2563 25.2563L1.10399e-06 0ZM25.2564 25.2563H0.000144017V50.5126H25.2564V25.2563Z" fill="black"/>
<path fill-rule="evenodd" clip-rule="evenodd" d="M55.4297 50.5132L55.4297 25.2569L30.1734 25.2569L55.4297 50.5132ZM30.1736 25.2569L55.4299 25.2569L55.4299 0.000564575L30.1736 0.000562367L30.1736 25.2569Z" fill="black"/>
<path d="M105.939 37.8455C103.723 37.8455 101.813 37.4364 100.21 36.618C98.616 35.7909 97.3866 34.6069 96.5219 33.0659C95.6663 31.5162 95.2384 29.6618 95.2384 27.5027C95.2384 25.4306 95.6708 23.6198 96.5354 22.0701C97.4001 20.5204 98.6205 19.3146 100.197 18.4527C101.773 17.5908 103.633 17.1598 105.777 17.1598C107.344 17.1598 108.762 17.3949 110.032 17.865C111.302 18.3351 112.388 19.0186 113.288 19.9153C114.189 20.8033 114.883 21.8829 115.369 23.154C115.855 24.4251 116.098 25.8572 116.098 27.4504V29.122H97.5622V25.152H109.235C109.226 24.5774 109.073 24.0725 108.776 23.6372C108.488 23.1932 108.096 22.8493 107.6 22.6055C107.114 22.353 106.56 22.2268 105.939 22.2268C105.335 22.2268 104.781 22.353 104.277 22.6055C103.772 22.8493 103.367 23.1888 103.061 23.6241C102.764 24.0594 102.606 24.5687 102.588 25.152V29.4354C102.588 30.0797 102.728 30.6543 103.007 31.1593C103.286 31.6642 103.687 32.0603 104.209 32.3476C104.732 32.6349 105.362 32.7786 106.101 32.7786C106.614 32.7786 107.083 32.7089 107.506 32.5696C107.938 32.4303 108.307 32.2301 108.614 31.9689C108.92 31.699 109.145 31.3769 109.289 31.0025H116.098C115.864 32.3955 115.31 33.6057 114.437 34.633C113.563 35.6516 112.406 36.4439 110.964 37.0098C109.532 37.5669 107.857 37.8455 105.939 37.8455Z" fill="black"/>
<path d="M121.035 37.4799L115.847 17.421H123.304L125.682 29.6444H125.844L128.492 17.421H135.734L138.49 29.5399H138.652L140.922 17.421H148.38L143.192 37.4799H135.139L132.221 26.7191H132.005L129.087 37.4799H121.035Z" fill="black"/>
<path d="M162.264 17.421V22.6447H148.591V17.421H162.264ZM151.239 12.6152H158.697V31.0287C158.697 31.3073 158.747 31.5423 158.846 31.7339C158.945 31.9167 159.098 32.056 159.305 32.1517C159.512 32.2388 159.778 32.2823 160.102 32.2823C160.327 32.2823 160.589 32.2562 160.886 32.204C161.192 32.1517 161.417 32.1082 161.561 32.0734L162.642 37.1404C162.309 37.2361 161.832 37.3536 161.21 37.4929C160.598 37.6322 159.868 37.7237 159.021 37.7672C157.31 37.8543 155.874 37.6845 154.712 37.2579C153.55 36.8226 152.676 36.1391 152.091 35.2076C151.505 34.276 151.221 33.1094 151.239 31.7077V12.6152Z" fill="black"/>
<path d="M171.623 26.1968V37.4799H164.166V17.421H171.245V21.2343H171.461C171.912 19.9632 172.704 18.9663 173.839 18.2437C174.983 17.5211 176.316 17.1598 177.838 17.1598C179.306 17.1598 180.581 17.4863 181.662 18.1393C182.752 18.7835 183.594 19.6715 184.188 20.8033C184.792 21.9351 185.089 23.228 185.08 24.6819V37.4799H177.622V26.1968C177.631 25.2043 177.37 24.4251 176.838 23.8592C176.316 23.2933 175.587 23.0103 174.65 23.0103C174.037 23.0103 173.501 23.1409 173.042 23.4021C172.592 23.6546 172.245 24.0202 172.002 24.4991C171.759 24.9692 171.632 25.5351 171.623 26.1968Z" fill="black"/>
<path d="M191.673 37.8978C190.628 37.8978 189.732 37.5452 188.985 36.84C188.246 36.1261 187.881 35.2598 187.89 34.2412C187.881 33.2487 188.246 32.3999 188.985 31.6947C189.732 30.9895 190.628 30.6369 191.673 30.6369C192.664 30.6369 193.538 30.9895 194.294 31.6947C195.06 32.3999 195.447 33.2487 195.456 34.2412C195.447 34.9203 195.262 35.5384 194.902 36.0956C194.551 36.6441 194.091 37.0838 193.524 37.4146C192.957 37.7367 192.34 37.8978 191.673 37.8978Z" fill="black"/>
<path d="M75.5475 37.5157H68.395V12.8767H76.0041L83.0805 22.1072L86.8089 27.7704H87.3035L86.9611 22.4014V12.8767H94.1136V37.5157H86.5045L78.9716 28.0279L75.7377 23.1736H75.2432L75.5475 27.8808V37.5157Z" fill="black"/>
</svg>
