<svg width="32" height="11" viewBox="0 0 32 11" fill="none" xmlns="http://www.w3.org/2000/svg">
<g filter="url(#filter0_d_646_6406)">
<rect x="3" y="3" width="26" height="5" rx="1.24375" fill="#CB3233"/>
<path d="M6.91093 7V4.73864H8.4347V5.13283H7.38904V5.67167H8.3563V6.06586H7.38904V6.60581H8.43912V7H6.91093ZM10.8101 5.53033H10.3264C10.3176 5.46776 10.2996 5.41219 10.2723 5.3636C10.2451 5.31428 10.2101 5.27232 10.1674 5.23773C10.1247 5.20313 10.0754 5.17663 10.0195 5.15823C9.96427 5.13982 9.90427 5.13062 9.8395 5.13062C9.72245 5.13062 9.6205 5.1597 9.53364 5.21785C9.44678 5.27527 9.37942 5.35919 9.33157 5.4696C9.28372 5.57929 9.2598 5.71252 9.2598 5.86932C9.2598 6.03053 9.28372 6.16597 9.33157 6.27566C9.38016 6.38534 9.44788 6.46815 9.53474 6.5241C9.6216 6.58004 9.72208 6.60802 9.83618 6.60802C9.90023 6.60802 9.95948 6.59955 10.014 6.58262C10.0692 6.56569 10.1181 6.54103 10.1608 6.50864C10.2035 6.47551 10.2388 6.4354 10.2668 6.38828C10.2955 6.34117 10.3154 6.28743 10.3264 6.22707L10.8101 6.22928C10.7976 6.33307 10.7663 6.43319 10.7162 6.52962C10.6669 6.62531 10.6003 6.71107 10.5164 6.78689C10.4332 6.86198 10.3338 6.9216 10.2182 6.96577C10.1034 7.0092 9.97347 7.03092 9.82845 7.03092C9.62676 7.03092 9.44641 6.98528 9.2874 6.894C9.12914 6.80272 9.004 6.67059 8.91198 6.4976C8.8207 6.32461 8.77506 6.11518 8.77506 5.86932C8.77506 5.62272 8.82144 5.41292 8.91419 5.23993C9.00694 5.06695 9.13282 4.93518 9.29182 4.84464C9.45082 4.75336 9.6297 4.70772 9.82845 4.70772C9.95948 4.70772 10.0809 4.72612 10.1928 4.76293C10.3055 4.79973 10.4052 4.85347 10.4921 4.92414C10.5789 4.99407 10.6496 5.07983 10.7041 5.18141C10.7593 5.283 10.7946 5.3993 10.8101 5.53033ZM13.231 5.86932C13.231 6.11592 13.1842 6.32571 13.0908 6.4987C12.998 6.67169 12.8714 6.80382 12.7109 6.8951C12.5512 6.98565 12.3716 7.03092 12.1721 7.03092C11.9711 7.03092 11.7908 6.98528 11.631 6.894C11.4713 6.80272 11.345 6.67059 11.2523 6.4976C11.1595 6.32461 11.1132 6.11518 11.1132 5.86932C11.1132 5.62272 11.1595 5.41292 11.2523 5.23993C11.345 5.06695 11.4713 4.93518 11.631 4.84464C11.7908 4.75336 11.9711 4.70772 12.1721 4.70772C12.3716 4.70772 12.5512 4.75336 12.7109 4.84464C12.8714 4.93518 12.998 5.06695 13.0908 5.23993C13.1842 5.41292 13.231 5.62272 13.231 5.86932ZM12.7463 5.86932C12.7463 5.70958 12.7223 5.57487 12.6745 5.46519C12.6274 5.35551 12.5608 5.27232 12.4746 5.21564C12.3885 5.15896 12.2876 5.13062 12.1721 5.13062C12.0565 5.13062 11.9557 5.15896 11.8695 5.21564C11.7834 5.27232 11.7164 5.35551 11.6686 5.46519C11.6215 5.57487 11.5979 5.70958 11.5979 5.86932C11.5979 6.02906 11.6215 6.16377 11.6686 6.27345C11.7164 6.38313 11.7834 6.46631 11.8695 6.52299C11.9557 6.57967 12.0565 6.60802 12.1721 6.60802C12.2876 6.60802 12.3885 6.57967 12.4746 6.52299C12.5608 6.46631 12.6274 6.38313 12.6745 6.27345C12.7223 6.16377 12.7463 6.02906 12.7463 5.86932ZM13.5852 7V4.73864H14.4773C14.6488 4.73864 14.795 4.77139 14.9157 4.83691C15.0364 4.90169 15.1284 4.99186 15.1917 5.10743C15.2558 5.22227 15.2878 5.35477 15.2878 5.50494C15.2878 5.65511 15.2554 5.78761 15.1906 5.90244C15.1259 6.01728 15.032 6.10672 14.9091 6.17076C14.7869 6.2348 14.6389 6.26682 14.4652 6.26682H13.8965V5.88367H14.3879C14.4799 5.88367 14.5557 5.86785 14.6154 5.83619C14.6757 5.8038 14.7206 5.75927 14.7501 5.70259C14.7802 5.64517 14.7953 5.57929 14.7953 5.50494C14.7953 5.42985 14.7802 5.36434 14.7501 5.30839C14.7206 5.25171 14.6757 5.20791 14.6154 5.177C14.555 5.14534 14.4784 5.12952 14.3857 5.12952H14.0633V7H13.5852ZM15.5984 7V4.73864H16.0765V6.60581H17.0459V7H15.5984ZM17.3626 7V4.73864H18.8863V5.13283H17.8407V5.67167H18.8079V6.06586H17.8407V6.60581H18.8907V7H17.3626ZM19.6562 7H19.1439L19.9245 4.73864H20.5407L21.3202 7H20.8079L20.2414 5.25539H20.2238L19.6562 7ZM19.6242 6.11113H20.8344V6.48435H19.6242V6.11113ZM22.7675 5.389C22.7587 5.29993 22.7208 5.23073 22.6538 5.18141C22.5868 5.13209 22.4959 5.10743 22.3811 5.10743C22.303 5.10743 22.2372 5.11847 22.1834 5.14056C22.1297 5.16191 22.0885 5.19172 22.0597 5.23C22.0318 5.26828 22.0178 5.31171 22.0178 5.36029C22.0163 5.40078 22.0248 5.43611 22.0432 5.46629C22.0623 5.49647 22.0885 5.52261 22.1216 5.54469C22.1547 5.56604 22.193 5.58481 22.2364 5.601C22.2798 5.61646 22.3262 5.62971 22.3755 5.64075L22.5787 5.68934C22.6774 5.71142 22.7679 5.74087 22.8503 5.77767C22.9328 5.81448 23.0042 5.85975 23.0646 5.91349C23.1249 5.96722 23.1717 6.03053 23.2048 6.1034C23.2386 6.17628 23.2559 6.25983 23.2567 6.35405C23.2559 6.49244 23.2206 6.61243 23.1507 6.71402C23.0815 6.81487 22.9814 6.89326 22.8503 6.94921C22.72 7.00442 22.5629 7.03202 22.3789 7.03202C22.1963 7.03202 22.0373 7.00405 21.9018 6.9481C21.7671 6.89216 21.6619 6.80934 21.5861 6.69966C21.511 6.58924 21.4716 6.45269 21.4679 6.29001H21.9306C21.9357 6.36583 21.9574 6.42914 21.9957 6.47993C22.0347 6.52999 22.0866 6.5679 22.1514 6.59366C22.2169 6.61869 22.2909 6.6312 22.3733 6.6312C22.4543 6.6312 22.5246 6.61943 22.5842 6.59587C22.6446 6.57231 22.6913 6.53956 22.7245 6.4976C22.7576 6.45564 22.7742 6.40742 22.7742 6.35295C22.7742 6.30216 22.7591 6.25946 22.7289 6.22486C22.6994 6.19027 22.656 6.16082 22.5986 6.13653C22.5419 6.11224 22.4723 6.09015 22.3899 6.07028L22.1437 6.00844C21.953 5.96207 21.8025 5.88956 21.6921 5.79092C21.5816 5.69228 21.5268 5.55941 21.5275 5.39231C21.5268 5.25539 21.5632 5.13577 21.6368 5.03345C21.7112 4.93113 21.8131 4.85126 21.9427 4.79385C22.0723 4.73643 22.2195 4.70772 22.3844 4.70772C22.5522 4.70772 22.6987 4.73643 22.8238 4.79385C22.9497 4.85126 23.0476 4.93113 23.1176 5.03345C23.1875 5.13577 23.2236 5.25429 23.2258 5.389H22.7675ZM23.5783 7V4.73864H25.102V5.13283H24.0564V5.67167H25.0236V6.06586H24.0564V6.60581H25.1065V7H23.5783Z" fill="white"/>
</g>
<defs>
<filter id="filter0_d_646_6406" x="0.408854" y="0.408854" width="31.1823" height="10.1823" filterUnits="userSpaceOnUse" color-interpolation-filters="sRGB">
<feFlood flood-opacity="0" result="BackgroundImageFix"/>
<feColorMatrix in="SourceAlpha" type="matrix" values="0 0 0 0 0 0 0 0 0 0 0 0 0 0 0 0 0 0 127 0" result="hardAlpha"/>
<feMorphology radius="0.518229" operator="dilate" in="SourceAlpha" result="effect1_dropShadow_646_6406"/>
<feOffset/>
<feGaussianBlur stdDeviation="1.03646"/>
<feComposite in2="hardAlpha" operator="out"/>
<feColorMatrix type="matrix" values="0 0 0 0 0 0 0 0 0 0 0 0 0 0 0 0 0 0 0.4 0"/>
<feBlend mode="normal" in2="BackgroundImageFix" result="effect1_dropShadow_646_6406"/>
<feBlend mode="normal" in="SourceGraphic" in2="effect1_dropShadow_646_6406" result="shape"/>
</filter>
</defs>
</svg>
