<svg width="300" height="300" viewBox="0 0 300 300" fill="none" xmlns="http://www.w3.org/2000/svg">
<rect width="69" height="69" transform="matrix(-1 0 0 1 300 0)" fill="#CFDFE9"/>
<path d="M300 77L231 146H300V77Z" fill="#CFDFE9"/>
<rect width="69" height="69" transform="matrix(-1 0 0 1 300 154)" fill="#CFDFE9"/>
<path d="M300 231L231 300H300V231Z" fill="#CFDFE9"/>
<path d="M223 0L154 69H223V0Z" fill="#CFDFE9"/>
<rect width="69" height="69" transform="matrix(-1 0 0 1 223 77)" fill="#CFDFE9"/>
<path d="M223 154L154 223H223V154Z" fill="#CFDFE9"/>
<rect width="69" height="69" transform="matrix(-1 0 0 1 223 231)" fill="#CFDFE9"/>
<path d="M146 77L77 146H146V77Z" fill="#CFDFE9"/>
<rect width="69" height="69" transform="matrix(-1 0 0 1 146 154)" fill="#CFDFE9"/>
<path d="M146 231L77 300H146V231Z" fill="#CFDFE9"/>
<path d="M69 154L0 223H69V154Z" fill="#CFDFE9"/>
<rect width="69" height="69" transform="matrix(-1 0 0 1 69 231)" fill="#CFDFE9"/>
</svg>
